<svg width="1131" height="478" viewBox="0 0 1131 478" fill="none" xmlns="http://www.w3.org/2000/svg">
<path d="M548.683 377.722C485.695 379.518 423.257 376.05 363.203 359.352C342.112 353.483 322.764 345.463 305.817 334.579C282.36 319.499 274.429 293.287 297.618 274.863C317.536 259.018 345.295 247.53 371.988 240.203C423.862 225.977 483.632 224.643 538.973 223.701C604.647 222.598 669.521 225.639 732.58 240.63C765.337 248.419 796.867 257.88 821.034 276.944C845.398 296.168 850.555 311.728 830.068 329.991C803.66 353.536 758.153 357.075 719.296 365.309C663.545 377.135 606.514 378.984 548.683 377.722Z" fill="#CBE7ED"/>
</svg>
