<svg width="1131" height="478" viewBox="0 0 1131 478" fill="none" xmlns="http://www.w3.org/2000/svg">
<path d="M715.476 275.513C717.166 275.513 718.82 275.441 720.456 275.21C721.398 275.086 722.27 274.855 722.91 274.41C723.657 273.894 723.835 273.147 722.981 272.667C719.211 270.622 715.352 268.63 710.088 267.866C706.3 267.315 702.868 268.951 703.277 271.031C703.473 272.063 704.522 272.898 705.891 273.592C708.612 274.997 711.866 275.53 715.476 275.513Z" fill="#F9D68E"/>
<path d="M766.995 328.15C768.684 328.15 770.356 328.079 771.974 327.848C772.917 327.724 773.788 327.492 774.428 327.048C775.175 326.532 775.353 325.785 774.499 325.305C770.729 323.26 766.87 321.268 761.606 320.503C757.819 319.952 754.386 321.588 754.795 323.669C754.991 324.7 756.04 325.536 757.41 326.23C760.13 327.617 763.403 328.15 766.995 328.15Z" fill="#F9D68E"/>
<path d="M762.869 290.823C761.18 290.823 759.508 290.752 757.89 290.521C756.947 290.396 756.076 290.165 755.435 289.721C754.689 289.205 754.511 288.458 755.364 287.978C759.134 285.933 762.993 283.941 768.257 283.176C772.045 282.625 775.477 284.261 775.068 286.342C774.873 287.373 773.823 288.209 772.454 288.903C769.733 290.307 766.479 290.841 762.869 290.823Z" fill="#F9D68E"/>
<path d="M516.535 350.967C514.845 350.967 513.191 350.896 511.555 350.664C510.613 350.54 509.741 350.309 509.101 349.864C508.354 349.348 508.177 348.602 509.03 348.121C512.8 346.076 516.659 344.085 521.923 343.32C525.711 342.769 529.143 344.405 528.734 346.485C528.538 347.517 527.489 348.353 526.12 349.046C523.399 350.451 520.145 350.984 516.535 350.967Z" fill="#F9D68E"/>
<path d="M355.258 249.157C353.568 249.157 351.915 249.086 350.279 248.855C349.336 248.73 348.465 248.499 347.824 248.055C347.078 247.539 346.9 246.792 347.753 246.312C351.523 244.267 355.382 242.275 360.646 241.51C364.434 240.959 367.866 242.595 367.457 244.676C367.262 245.707 366.212 246.543 364.843 247.237C362.14 248.624 358.868 249.157 355.258 249.157Z" fill="#F9D68E"/>
<path d="M594.532 309.318C596.222 309.318 597.875 309.247 599.511 309.016C600.454 308.891 601.325 308.66 601.966 308.216C602.712 307.7 602.89 306.953 602.037 306.473C598.267 304.428 594.408 302.436 589.144 301.671C585.356 301.12 581.924 302.756 582.333 304.837C582.528 305.868 583.578 306.704 584.947 307.398C587.668 308.803 590.94 309.318 594.532 309.318Z" fill="#F9D68E"/>
</svg>
