<svg width="1131" height="478" viewBox="0 0 1131 478" fill="none" xmlns="http://www.w3.org/2000/svg">
<path d="M759.469 331.86C765.057 330.874 769.494 331.711 773.662 333.369C780.265 335.983 786.704 338.687 794.144 340.884C794.652 341.033 795.16 341.182 795.668 341.332L795.444 341.347C795.997 341.541 796.535 341.75 797.087 341.944C797.087 341.944 797.132 341.87 797.117 341.87C797.192 342.153 797.491 342.333 798.223 342.273C798.223 342.273 798.148 342.168 798.133 342.183C798.028 342.676 798.492 343.08 799.283 343.408C799.283 343.408 799.224 343.393 799.224 343.379C799.194 344.17 799.179 344.977 799.149 345.769L799.254 345.649C798.895 345.948 798.551 346.262 798.193 346.561L798.312 346.471C797.625 346.665 797.162 346.904 797.147 347.278L797.162 347.158L796.893 347.143C792.426 349.16 787.496 348.966 782.357 347.696L782.506 347.756C781.894 347.562 781.296 347.367 780.698 347.158L780.788 347.233C780.43 346.74 779.444 346.546 778.502 346.322C770.749 343.393 762.98 340.48 755.226 337.552C753.254 336.013 754.225 334.564 755.884 333.13L755.779 333.175C756.466 332.966 757.183 332.756 756.855 332.308C757.019 332.383 757.183 332.443 757.333 332.517C758.065 332.323 758.767 332.084 759.469 331.86Z" fill="#A9B71E"/>
<path d="M552.659 240.952C557.798 241.759 562.19 243.118 566.448 244.522C571.094 246.046 572.319 248.347 569.526 250.08C566.657 251.858 560.203 253.023 555.184 251.708C548.311 249.901 541.23 248.227 534.417 246.39C525.887 244.089 525.468 241.4 532.894 238.502C537.629 237.471 541.813 238.337 546.011 239.189L545.921 239.144C546.937 239.413 547.953 239.682 548.969 239.951L548.864 239.906C549.82 240.474 551.269 240.698 552.659 240.952Z" fill="#A9B71E"/>
<path d="M597.582 264.257C598.673 264.571 599.749 264.884 600.839 265.213C601.153 265.467 601.332 265.796 602.273 265.706L602.004 265.661L601.885 265.781C603.752 267.335 604.096 268.918 602.094 270.502H602.333C601.989 270.651 601.646 270.801 601.302 270.95L601.347 270.905C597.776 271.846 594.191 272.788 590.62 273.714C590.62 273.714 590.919 273.684 590.904 273.684C590.068 273.729 589.246 273.803 588.768 274.147L588.992 274.087C588.32 274.252 587.662 274.431 586.99 274.595L587.095 274.55C585.556 274.789 584.062 275.043 583.076 275.656C583.076 275.656 583.21 275.731 583.195 275.731C581.477 275.671 580.327 276.119 579.147 276.552L579.401 276.478C578.728 276.657 578.056 276.851 577.384 277.03L577.518 276.971C575.725 277.374 573.948 277.777 572.155 278.181C568.539 278.913 561.204 277.24 560.412 275.462C559.471 273.37 560.412 271.622 565.133 270.442C572.185 268.679 579.132 266.842 586.124 265.034C586.856 264.84 587.588 264.645 588.335 264.451L588.081 264.541C588.813 264.391 589.53 264.242 590.262 264.093C590.262 264.093 589.933 264.108 589.933 264.122C592.503 263.958 595.072 263.809 597.582 264.257Z" fill="#A9B71E"/>
<path d="M325.366 302.758C325.5 302.384 325.545 301.906 325.769 301.637C327.741 299.202 330.102 297.798 335.913 307.374C337.437 310.766 338.961 314.157 340.485 317.533L340.515 317.578C342.636 323.136 345.31 328.783 347.895 334.415L347.925 334.49C349.419 339.42 347.701 340.376 344.832 339.883L344.847 339.898C343.727 339.121 342.591 338.359 341.456 337.582L341.277 337.418C339.096 334.998 337.452 332.294 336.197 329.41L336.048 329.141L335.898 329.156C335.734 328.081 335.181 326.915 334.494 325.705L334.449 325.631C333.15 322.15 331.551 318.609 329.788 315.038L329.728 314.919C328.369 311.647 326.994 308.36 325.635 305.088V305.103C325.53 304.461 325.426 303.819 325.306 303.161L325.291 303.042C325.381 303.027 325.411 302.922 325.366 302.758Z" fill="#A9B71E"/>
<path d="M664.243 293.435C664.647 293.241 665.05 293.047 665.454 292.852C667.62 291.941 670.249 291.403 673.118 291C677.256 290.417 681.544 289.999 685.353 289.043L685.488 289.028C687.953 288.654 690.433 288.296 692.883 287.892C698.635 286.951 703.834 286.996 707.808 289.371L707.867 289.416C710.078 291.941 708.032 293.838 703.087 295.288C703.087 295.288 702.937 295.332 702.952 295.332C694.795 296.139 687.056 297.499 679.288 298.783C675.941 299.336 672.684 299.65 669.233 299.052L669.129 299.037C664.467 297.633 663.81 295.616 664.243 293.435Z" fill="#A9B71E"/>
<path d="M792.546 279.213C795.19 279.407 797.849 279.527 800.314 280.05C804.408 280.931 806.678 282.739 805.812 284.546C804.856 286.578 801.315 287.908 796.519 287.938C791.186 287.968 786.121 287.609 782.297 285.786C780.922 284.516 780.982 283.187 781.669 281.857L781.55 281.902C781.893 281.588 782.252 281.289 782.596 280.976L782.491 281.08C782.894 280.811 783.298 280.543 783.701 280.274L783.627 280.393C784.164 280.184 784.687 279.99 785.225 279.781L785.165 279.796C787.481 279.303 790.021 279.288 792.546 279.213Z" fill="#A9B71E"/>
</svg>
