<svg width="1131" height="478" viewBox="0 0 1131 478" fill="none" xmlns="http://www.w3.org/2000/svg">
<path d="M597.544 349.81C596.424 350.163 595.319 350.5 594.198 350.853C592.801 351.314 591.405 351.79 589.993 352.25L590.1 352.204C589.133 352.496 588.166 352.772 587.199 353.064L587.368 353.125C585.618 353.186 583.945 353.524 582.149 353.34C579.402 352.895 576.977 352.296 576.609 350.761C576.24 349.211 577.576 348.091 580.384 347.216C591.006 343.931 601.596 340.631 612.171 337.316C614.903 336.456 617.835 336.119 621.074 336.38C629.853 337.93 639.016 338.175 648.287 338.252C652.63 338.298 655.838 337.761 658.018 336.011C660.182 335.228 662.346 334.446 664.51 333.663C665.017 333.509 665.523 333.356 666.03 333.187L665.907 333.248C667.887 332.711 669.852 332.819 671.816 333.279L671.786 333.248C674.533 333.924 676.651 333.141 678.861 332.588L678.708 332.635C681.44 332.542 684.203 332.281 686.812 332.926L686.72 332.88C687.38 333.218 688.04 333.555 688.7 333.893L688.746 333.786C688.899 334.507 689.068 335.244 688.654 335.965L688.684 335.888C687.533 336.825 685.784 337.561 683.926 338.528C687.595 338.252 690.756 338.007 693.934 337.761C702.897 337.086 711.83 336.38 720.809 335.75C724.37 335.505 728.054 335.351 730.602 336.978C730.602 336.978 730.663 337.024 730.663 337.009C731.922 338.513 731.077 339.772 728.683 340.877L728.591 340.923C727.716 341.122 726.826 341.322 725.951 341.521H725.874C716.726 341.997 707.778 342.933 698.922 344.054C697.218 344.269 694.563 344.1 694.026 344.745C693.089 345.865 690.895 346.479 689.928 347.507C687.579 348.198 685.2 348.843 682.253 348.244C681.655 348.198 681.286 348.183 681.286 348.597C681.24 350.945 678.508 351.79 673.735 351.053C671.77 350.746 670.189 350.025 667.994 349.994L668.209 349.902L668.01 349.794C667.166 349.595 666.674 349.119 665.37 349.104C666.828 350.301 665.661 351.421 665.094 352.542C665.094 352.542 665.216 352.496 665.201 352.496C660.612 353.094 656.345 352.787 652.4 351.544L652.462 351.621C652.416 351.406 652.139 351.298 651.694 351.283L651.802 351.314C651.725 351.114 651.479 350.991 651.019 350.976L651.08 351.007C651.019 350.807 650.835 350.669 650.344 350.654L650.512 350.669C650.205 350.362 650.037 349.994 649.07 349.994L649.131 350.04C649.423 349.656 648.778 349.472 648.317 349.257C647.289 348.106 646.199 346.97 644.526 345.988C643.928 345.512 643.375 345.005 642.255 344.729L642.285 344.76C642.04 344.652 641.794 344.53 641.564 344.422L641.625 344.453C641.38 344.345 641.134 344.223 640.889 344.115H641.012C640.551 343.762 640.029 343.44 639.016 343.425L639.001 343.455C636.039 341.92 631.864 341.828 627.934 341.475C625.709 341.276 623.529 341.414 621.795 342.227L621.918 342.181C621.058 342.304 620.306 342.504 619.769 342.841L619.922 342.826C619.462 342.949 618.986 343.087 618.526 343.21L618.587 343.194C618.342 343.302 618.081 343.409 617.835 343.532L617.866 343.455C617.037 343.593 616.239 343.762 615.763 344.131L615.855 344.1C615.042 344.238 614.228 344.392 613.752 344.76L613.844 344.745C613.031 344.883 612.248 345.052 611.742 345.405L611.788 345.374C610.007 345.788 608.35 346.295 606.892 346.924L607.03 346.878C606.17 347.016 605.418 347.216 604.896 347.569L605.004 347.523C604.175 347.676 603.392 347.845 602.901 348.213L602.993 348.183C602.333 348.259 601.719 348.382 601.443 348.704V348.735C600.353 348.812 599.524 349.073 598.864 349.472L598.956 349.441C598.465 349.533 598.005 349.671 597.544 349.81Z" fill="#5C7B2C"/>
<path d="M839.531 308.752C838.564 309.197 838.288 309.596 839.485 310.118C842.831 311.592 841.925 313.587 837.581 314.431C836.077 314.723 834.45 314.907 832.885 315.122C830.245 314.953 827.697 315.091 824.796 315.536C826.177 315.766 827.206 315.951 828.219 316.12C828.388 316.073 828.556 316.043 828.741 315.997C828.541 316.365 829.155 316.288 829.569 316.334H829.385C829.738 316.58 830.137 316.779 830.859 316.672L830.644 316.657C830.644 316.657 830.613 316.749 830.613 316.764C831.074 316.964 831.534 317.163 831.995 317.363L831.964 317.317C832.148 317.501 832.163 317.792 832.885 317.624L832.777 317.578C833.299 318.637 833.422 319.68 832.194 320.663L832.225 320.632C831.703 320.77 831.166 320.908 831.396 321.261C831.396 321.261 831.365 321.2 831.35 321.2C830.414 321.261 829.922 321.584 829.401 321.891L829.569 321.875C829.216 321.952 828.556 321.845 828.71 322.213C828.602 322.152 828.51 322.09 828.403 322.029C828.096 322.382 826.484 321.921 826.699 322.581C827.19 324.101 826.131 324.822 822.939 325.068C820.79 325.237 818.703 325.083 816.692 324.715L816.769 324.73C812.962 323.349 808.526 322.551 803.937 322.013C801.604 321.737 799.056 321.66 797.015 322.551L797.092 322.52C796.232 322.627 795.465 322.812 794.912 323.149L795.02 323.103C794.36 323.241 793.516 323.287 793.562 323.763L793.669 323.732C792.825 323.579 792.533 323.917 792.103 324.116C790.108 324.776 788.128 325.451 786.087 326.081C785.074 326.388 783.999 326.725 782.848 326.864C781.206 327.063 779.349 327.125 778.443 326.25C777.584 325.421 778.796 324.899 780.162 324.454C783.57 323.379 787.069 322.336 789.678 320.816C789.924 320.663 790.154 320.509 790.4 320.371L790.338 320.402C790.783 320.386 791.014 320.248 791.075 320.064L791.044 320.095C791.935 319.772 792.702 319.435 792.533 318.836L792.564 318.852C794.529 317.762 794.283 316.795 791.858 315.935L792.119 315.889L792.011 315.766C791.459 315.521 790.906 315.275 790.369 315.045L790.4 315.06C790.093 314.815 789.863 314.523 789.034 314.677L789.141 314.738C789.341 314.416 789.126 314.262 788.374 314.37C788.374 314.37 788.466 314.431 788.466 314.416C788.681 314.078 788.42 313.955 787.683 314.047L787.79 314.109C788.159 313.725 787.514 313.602 786.992 313.449C786.992 313.449 787.023 313.495 787.038 313.495C786.378 313.05 785.703 312.605 785.043 312.16L785.028 312.252C785.012 311.975 784.905 311.714 784.337 311.546L784.444 311.622C784.199 311.346 783.938 311.07 783.692 310.794C783.416 309.995 783.462 309.228 784.92 308.629C785.857 307.923 788.972 308.614 788.88 307.448C788.819 306.588 789.556 305.882 789.955 305.099L789.786 305.068L789.74 305.145C790.661 304.808 791.597 304.485 792.518 304.148L792.38 304.194C794.697 303.933 796.938 304.009 799.087 304.501L798.964 304.455C799.993 305.007 800.898 305.56 802.387 304.608C803.6 303.841 805.426 303.871 807.222 304.194C807.406 304.27 807.606 304.347 807.79 304.424C808.051 304.531 808.327 304.639 808.588 304.762L808.434 304.746C810.215 306.174 808.772 307.632 809.002 309.136C810.077 307.57 811.151 306.005 812.21 304.439L812.103 304.501C812.793 303.856 813.469 303.196 814.159 302.551L814.083 302.613C817.275 300.848 820.928 299.712 826.162 300.725L826.055 300.679C828.464 301.63 828.234 302.782 826.684 304.224C831.319 302.597 835.617 302.091 840.375 303.196L840.329 303.165C840.574 303.273 840.82 303.395 841.066 303.503L841.02 303.472C841.265 303.58 841.511 303.702 841.741 303.81L841.68 303.795C843.322 305.314 841.971 306.726 840.912 308.138L840.974 308.092C840.007 308.092 839.853 308.461 839.531 308.752Z" fill="#5C7B2C"/>
<path d="M400.636 365.895C400.406 364.943 401.266 364.161 403.338 363.501C402.141 363.163 400.821 363.025 399.424 362.948C398.841 362.81 398.273 362.687 397.689 362.549L397.782 362.564C397.106 362.319 396.431 362.073 395.771 361.828L395.802 361.874C395.709 361.766 395.817 361.613 395.28 361.643L395.326 361.674C394.497 360.477 395.694 359.51 397.782 358.635L397.705 358.65C401.496 357.99 405.379 357.96 409.8 358.604C408.219 357.73 407.835 357.024 408.51 356.271L408.449 356.287C409.554 355.857 410.889 355.657 412.516 355.719C413.606 355.765 414.588 356.026 415.755 355.934H415.693C417.013 356.241 418.333 356.548 419.653 356.855L419.561 356.824C419.93 356.947 420.283 357.054 420.651 357.177L420.62 357.162C420.789 357.223 420.973 357.3 421.142 357.361L421.096 357.346C421.725 357.653 422.37 357.975 423.138 358.359C423.583 357.822 423.92 357.407 424.243 357.008L424.166 357.039C424.488 356.931 424.918 356.839 424.672 356.64L424.642 356.671C428.847 355.734 431.38 356.057 433.268 357.73C433.513 357.944 433.713 358.175 433.866 358.42C434.833 359.848 434.588 361.275 434.096 362.718C433.743 363.762 433.835 364.759 436.69 365.373L436.675 365.358C437.013 365.711 437.888 365.803 438.701 365.91L438.624 365.88C438.839 366.049 439.3 366.049 439.699 366.079L439.607 366.064C441.556 366.555 443.827 366.739 446.007 367L445.946 366.985C446.452 367.108 446.959 367.246 447.465 367.369L447.419 367.322C448.816 368.765 447.173 369.425 442.646 369.272H442.707C442.185 368.965 441.203 368.965 440.451 368.811H440.297V368.873C440.006 368.796 439.729 368.719 439.438 368.642L439.238 368.673L439.33 368.75C439.453 368.55 438.993 368.596 438.716 368.55L438.824 368.566C438.087 368.351 437.35 368.151 436.353 368.167L436.399 368.197C436.537 367.982 436.076 368.029 435.785 367.998L435.923 368.013C435.555 367.936 435.186 367.875 434.818 367.798L434.971 367.814C434.434 367.691 433.912 367.568 433.375 367.445L433.452 367.476C432.93 367.353 432.408 367.23 431.902 367.092L431.963 367.123C431.595 366.923 431.027 366.816 430.428 366.739L430.474 366.755C425.716 365.312 420.927 365.803 416.139 366.739L416.215 366.709C411.902 367.307 407.559 367.676 403.123 366.877L403.2 366.908C402.217 366.616 401.281 366.294 400.636 365.895Z" fill="#5C7B2C"/>
<path d="M563.24 244.196C564.913 246.16 564.161 246.912 559.126 248.371C556.379 248.57 553.862 248.186 551.314 247.757C543.87 246.513 536.057 245.945 528.322 245.239L528.414 245.255C520.525 243.95 512.298 243.413 504.009 243.045L504.055 243.091C503.841 242.999 503.626 242.906 503.411 242.814C501.676 242.922 499.957 243.091 498.208 242.906C498.668 242.477 497.993 242.569 497.502 242.584C497.149 242.553 496.796 242.523 496.458 242.492C493.956 242.277 491.47 242.016 489.198 241.448L489.229 241.464C486.543 240.512 486.021 239.253 486.665 237.811C486.665 237.811 486.481 237.872 486.497 237.872C487.172 237.918 487.187 237.688 487.264 237.488L487.095 237.534C487.617 237.519 487.771 237.35 487.878 237.151L487.724 237.181C488.185 237.151 488.431 237.043 488.492 236.828L488.415 236.89C488.707 236.782 489.014 236.66 489.305 236.537L489.367 236.598C491.638 236.26 493.895 236.26 496.289 236.429C500.387 236.721 504.424 237.366 508.675 237.105C509.98 237.488 511.392 237.703 512.942 237.688C515.076 237.98 517.194 238.44 519.711 237.826C518.898 237.427 518.238 237.105 517.578 236.782L517.654 236.828C517.179 236.046 516.565 235.294 517.102 234.419C518.713 231.84 523.471 230.996 529.642 232.224L529.534 232.178C530.47 232.531 531.391 232.884 532.328 233.237C533.003 233.498 533.694 233.743 534.369 234.004C534.799 234.142 535.244 234.296 535.674 234.434L535.597 234.342C535.873 234.449 536.165 234.572 536.441 234.68L536.318 234.664C537.592 235.125 538.882 235.6 540.155 236.061L540.217 236C540.969 236.291 541.736 236.567 542.488 236.859L542.442 236.828C543.348 237.258 544.269 237.688 545.174 238.118L545.098 238.072C543.993 241.003 548.428 241.387 552.956 241.771C554.153 241.863 555.305 242.062 556.471 242.216L556.548 242.231C557.898 242.538 559.249 242.83 560.6 243.137L560.661 243.152C561.521 243.536 562.38 243.858 563.24 244.196Z" fill="#5C7B2C"/>
<path d="M624.143 271.578L624.082 271.562C624.312 271.67 624.542 271.777 624.757 271.869C625.202 271.885 625.463 271.992 625.509 272.207V272.13C626.338 272.391 627.29 272.606 627.428 273.143C630.835 275.323 635.824 276.412 641.042 277.333C644.143 277.84 646.936 277.318 649.745 276.796L649.729 276.888C649.975 276.765 650.221 276.627 650.466 276.505C650.65 276.428 650.819 276.336 651.003 276.259C651.28 276.151 651.541 276.029 651.817 275.921L651.709 275.952C652.016 275.231 652.155 274.494 651.633 273.788L651.74 273.834C650.681 273.205 649.622 272.575 648.502 271.915C651.326 271.777 654.012 271.486 656.544 270.902C657.619 270.38 658.693 269.859 659.783 269.321C660.489 268.324 660.688 267.311 659.844 266.298C659.445 266.267 659.307 266.113 659.23 265.945C658.739 265.822 658.309 265.684 658.432 265.377C657.787 265.453 657.45 265.239 657.097 265.039C656.59 264.993 656.084 264.947 655.792 264.717C655.301 264.609 654.825 264.517 654.334 264.41L654.457 264.471C651.218 263.98 647.857 263.734 644.45 263.427C650.957 262.614 657.956 262.936 664.004 261.355C666.598 260.342 667.503 259.13 666.03 257.626C664.403 257.165 662.791 256.705 661.164 256.244L661.195 256.275C660.427 256.229 659.66 256.198 658.601 256.137C659.737 255.492 661.041 255.277 662.576 255.293C663.559 254.755 664.526 254.218 665.508 253.681C667.119 252.192 668.47 250.688 666.598 249.03C666.168 248.816 665.738 248.616 665.293 248.401L665.308 248.416C663.927 248.017 662.546 247.634 661.18 247.235C656.329 246.743 651.924 247.296 647.796 248.478L647.918 248.432C647.228 248.677 646.537 248.908 645.831 249.153C645.831 249.153 645.8 249.138 645.785 249.138C645.708 249.307 645.386 249.353 645.033 249.399L645.186 249.383C644.588 249.675 643.989 249.951 643.206 250.32C642.823 249.414 642.47 248.601 642.132 247.787L642.255 247.849C641.932 247.618 641.61 247.373 641.288 247.143C638.095 246.083 632.739 246.39 631.066 247.91C629.792 249.061 627.965 250.028 626.845 251.195C626.737 252.054 625.74 252.76 624.911 253.482L625.018 253.42C624.404 254.172 624.281 255.032 622.885 255.63L623.115 255.584L623.238 255.692C622.9 256.091 622.885 256.567 622.117 256.889L622.194 256.858C621.887 257.288 621.58 257.702 621.273 258.132C620.414 259.176 619.938 260.358 617.39 260.834C616.484 261.002 615.671 261.785 614.443 261.171C613.292 260.588 612.908 259.943 614.535 259.345C615.226 258.823 615.932 258.286 616.622 257.764L616.561 257.795C617.206 257.135 617.85 256.49 618.495 255.83L618.403 255.876C621.473 252.023 622.532 248.094 620.49 244.057L620.613 244.104C619.723 243.582 618.833 243.06 617.942 242.538C615.962 242.246 613.967 242.2 611.987 242.569C611.312 242.845 610.636 243.137 609.946 243.413C609.393 243.904 608.841 244.38 608.181 244.978C607.797 244.625 607.475 244.334 607.152 244.042C606.001 243.52 604.835 243.014 603.684 242.492L603.776 242.538C600.184 241.832 596.592 241.632 593.016 242.553C592.341 242.845 591.666 243.137 590.99 243.428C589.164 245.331 589.808 247.127 592.448 249.015C588.089 248.677 584.713 249.153 582.241 250.688L582.349 250.627C580.568 252.3 582.226 253.789 583.546 255.293C584.298 255.523 584.682 255.861 584.958 256.244L584.851 256.229C585.096 256.336 585.342 256.459 585.587 256.567L585.541 256.536C585.787 256.643 586.033 256.766 586.263 256.874L586.201 256.858C586.447 256.966 586.693 257.088 586.938 257.196L586.877 257.165C587.122 257.273 587.368 257.395 587.614 257.503L587.583 257.472C588.565 257.856 589.977 258.009 590.407 258.669C591.573 258.623 592.264 259.007 593.047 259.314C593.385 259.375 593.86 259.36 593.799 259.606C594.582 259.514 595.18 259.682 595.764 259.897C598.097 260.25 600.522 260.511 602.502 261.248L602.456 261.233C603.177 261.279 603.73 261.447 604.067 261.754L603.868 261.8C604.466 261.754 604.697 261.893 604.697 262.154C604.681 262.154 604.589 262.138 604.589 262.138C607.459 263.044 607.413 264.41 606.953 265.73C606.692 266.497 606.201 267.234 605.464 267.925C607.306 269.106 609.102 270.35 610.851 271.639C614.412 269.383 618.771 269.352 624.143 271.578Z" fill="#5C7B2C"/>
</svg>
