<svg width="1131" height="478" viewBox="0 0 1131 478" fill="none" xmlns="http://www.w3.org/2000/svg">
<path d="M352.622 330.868C294.76 294.704 376.18 243.484 424.935 242.318C486.694 229.712 606.98 297.493 519.699 334.13C469.527 351.282 400.181 356.773 352.622 330.868Z" fill="white"/>
<path d="M366.718 301.583C330.717 273.611 382.704 231.867 413.451 230.303C452.538 219.483 527.493 271.766 471.992 301.996C440.153 316.284 396.373 321.525 366.718 301.583Z" fill="#FAB61F"/>
<path d="M636.147 356.492C694.009 320.328 612.589 269.108 563.834 267.942C502.075 255.336 381.789 323.117 469.07 359.754C519.227 376.906 588.588 382.382 636.147 356.492Z" fill="white"/>
<path d="M622.051 327.192C658.052 299.22 606.065 257.477 575.318 255.912C536.231 245.093 461.276 297.375 516.777 327.605C548.616 341.894 592.396 347.149 622.051 327.192Z" fill="#FAB61F"/>
</svg>
