<svg width="1131" height="478" viewBox="0 0 1131 478" fill="none" xmlns="http://www.w3.org/2000/svg">
<path d="M547.411 377.721C484.147 379.52 421.451 376.046 361.123 359.262C339.943 353.375 320.515 345.321 303.484 334.377C279.922 319.237 271.975 292.908 295.246 274.402C315.258 258.494 343.124 246.951 369.945 239.589C422.051 225.294 482.087 223.957 537.651 223.019C603.62 221.913 668.775 224.971 732.1 240.019C764.993 247.842 796.671 257.341 820.94 276.493C845.41 295.798 850.59 311.429 830.009 329.781C803.48 353.421 757.784 356.971 718.743 365.256C662.78 377.137 605.495 379.012 547.411 377.721Z" fill="#FFEBB3"/>
</svg>
