<svg width="1131" height="478" viewBox="0 0 1131 478" fill="none" xmlns="http://www.w3.org/2000/svg">
<path d="M721.971 297.891C725.936 296.872 729.853 295.82 733.689 294.719C735.906 294.088 737.929 293.44 739.386 292.825C741.101 292.113 741.409 291.628 739.321 291.919C730.193 293.181 720.822 294.525 708.327 297.325C699.344 299.348 691.462 302.245 692.676 303.038C693.275 303.443 695.864 303.216 699.166 302.731C705.705 301.792 713.474 300.076 721.971 297.891Z" fill="#F7E06F"/>
<path d="M632.484 338.289C636.482 339.163 640.463 339.972 644.38 340.701C646.646 341.122 648.75 341.461 650.32 341.575C652.165 341.704 652.667 341.413 650.66 340.733C641.936 337.771 632.953 334.761 620.54 331.67C611.605 329.452 603.27 328.497 603.982 329.76C604.338 330.391 606.766 331.346 609.922 332.398C616.186 334.486 623.906 336.444 632.484 338.289Z" fill="#F7E06F"/>
<path d="M626.722 317.347C622.724 316.489 618.759 315.583 614.891 314.628C612.657 314.078 610.602 313.511 609.129 312.961C607.397 312.314 607.057 311.844 609.161 312.055C618.322 312.961 627.742 313.948 640.334 316.263C649.381 317.93 657.376 320.52 656.195 321.377C655.612 321.798 653.006 321.669 649.705 321.329C643.117 320.617 635.3 319.209 626.722 317.347Z" fill="#F7E06F"/>
<path d="M357.388 235.191C361.32 234.058 365.221 232.909 369.008 231.711C371.21 231.015 373.216 230.319 374.657 229.672C376.34 228.911 376.648 228.426 374.56 228.766C365.464 230.271 356.141 231.873 343.727 235.013C334.793 237.279 327.008 240.386 328.238 241.147C328.853 241.536 331.443 241.228 334.712 240.662C341.235 239.529 348.955 237.603 357.388 235.191Z" fill="#F7E06F"/>
<path d="M712.26 320.081C716.355 320.081 720.417 320.032 724.399 319.935C726.697 319.87 728.833 319.757 730.387 319.53C732.216 319.271 732.653 318.883 730.549 318.64C721.388 317.588 711.985 316.552 699.182 316.164C689.973 315.873 681.622 316.73 682.593 317.799C683.078 318.333 685.636 318.77 688.953 319.126C695.525 319.806 703.488 320.081 712.26 320.081Z" fill="#F7E06F"/>
<path d="M702.193 300.821C698.098 300.821 694.036 300.772 690.054 300.675C687.756 300.61 685.619 300.497 684.066 300.271C682.237 300.012 681.8 299.623 683.904 299.38C693.065 298.328 702.468 297.293 715.27 296.904C724.48 296.613 732.831 297.471 731.86 298.539C731.374 299.073 728.817 299.51 725.499 299.866C718.912 300.546 710.965 300.821 702.193 300.821Z" fill="#F7E06F"/>
<path d="M438.264 358.116C442.181 359.314 446.081 360.463 449.917 361.515C452.134 362.13 454.206 362.632 455.76 362.874C457.589 363.15 458.107 362.907 456.165 362.065C447.716 358.391 439.025 354.652 426.886 350.541C418.162 347.58 409.924 345.961 410.539 347.272C410.847 347.92 413.177 349.085 416.236 350.396C422.338 352.985 429.864 355.559 438.264 358.116Z" fill="#F7E06F"/>
<path d="M623.841 363.456C627.936 363.294 631.998 363.1 635.964 362.841C638.262 362.695 640.382 362.485 641.936 362.21C643.765 361.87 644.17 361.465 642.049 361.304C632.856 360.608 623.42 359.928 610.618 360.025C601.409 360.09 593.106 361.255 594.109 362.291C594.611 362.809 597.201 363.132 600.519 363.375C607.122 363.828 615.085 363.796 623.841 363.456Z" fill="#F7E06F"/>
<path d="M613.046 344.602C608.951 344.763 604.889 344.877 600.907 344.909C598.609 344.925 596.472 344.893 594.919 344.731C593.073 344.537 592.636 344.165 594.724 343.841C603.836 342.433 613.191 341.041 625.961 340.151C635.154 339.519 643.522 340.037 642.6 341.154C642.13 341.704 639.589 342.239 636.304 342.724C629.749 343.695 621.818 344.278 613.046 344.602Z" fill="#F7E06F"/>
<path d="M566.093 291.774C570.058 290.754 573.991 289.702 577.811 288.602C580.028 287.971 582.052 287.323 583.508 286.708C585.224 285.996 585.531 285.51 583.443 285.802C574.315 287.064 564.944 288.408 552.449 291.208C543.467 293.231 535.584 296.128 536.798 296.921C537.397 297.326 539.987 297.099 543.288 296.613C549.827 295.675 557.596 293.959 566.093 291.774Z" fill="#F7E06F"/>
<path d="M694.278 286.869C698.244 285.849 702.176 284.797 705.996 283.697C708.213 283.065 710.237 282.418 711.693 281.803C713.409 281.091 713.716 280.605 711.629 280.897C702.5 282.159 693.129 283.502 680.634 286.302C671.652 288.325 663.769 291.223 664.983 292.016C665.582 292.42 668.172 292.194 671.474 291.708C678.012 290.769 685.781 289.054 694.278 286.869Z" fill="#F7E06F"/>
<path d="M679.744 270.717C675.779 271.737 671.83 272.708 667.961 273.598C665.712 274.116 663.624 274.521 662.07 274.699C660.225 274.893 659.723 274.634 661.698 273.873C670.308 270.571 679.162 267.237 691.446 263.66C700.283 261.087 708.586 259.841 707.922 261.119C707.582 261.767 705.203 262.819 702.096 263.984C695.864 266.299 688.241 268.532 679.744 270.717Z" fill="#F7E06F"/>
<path d="M795.418 299.963C799.513 299.963 803.576 299.915 807.557 299.818C809.855 299.753 811.992 299.64 813.545 299.413C815.374 299.154 815.811 298.766 813.707 298.523C804.547 297.471 795.143 296.435 782.341 296.047C773.132 295.755 764.78 296.613 765.751 297.681C766.237 298.215 768.794 298.652 772.112 299.009C778.699 299.705 786.646 299.98 795.418 299.963Z" fill="#F7E06F"/>
<path d="M592.895 258.238C596.99 258.238 601.053 258.189 605.034 258.092C607.332 258.028 609.469 257.914 611.023 257.688C612.851 257.429 613.288 257.04 611.184 256.797C602.024 255.745 592.62 254.71 579.818 254.321C570.609 254.03 562.257 254.888 563.228 255.956C563.714 256.49 566.271 256.927 569.589 257.283C576.176 257.963 584.123 258.238 592.895 258.238Z" fill="#F7E06F"/>
<path d="M582.828 238.979C578.734 238.979 574.671 238.931 570.69 238.833C568.391 238.769 566.255 238.655 564.701 238.429C562.872 238.17 562.435 237.781 564.539 237.539C573.7 236.487 583.104 235.451 595.906 235.062C605.115 234.771 613.467 235.629 612.496 236.697C612.01 237.231 609.453 237.668 606.135 238.024C599.564 238.704 591.601 238.979 582.828 238.979Z" fill="#F7E06F"/>
<path d="M650.837 348.648C646.84 347.79 642.874 346.884 639.006 345.929C636.773 345.379 634.717 344.812 633.244 344.262C631.513 343.615 631.173 343.145 633.277 343.356C642.437 344.262 651.857 345.249 664.449 347.564C673.496 349.231 681.492 351.82 680.31 352.678C679.728 353.099 677.122 352.969 673.82 352.63C667.249 351.917 659.416 350.509 650.837 348.648Z" fill="#F7E06F"/>
<path d="M435.351 333.126C431.434 331.928 427.566 330.714 423.794 329.436C421.61 328.708 419.619 327.963 418.194 327.299C416.511 326.506 416.22 326.021 418.308 326.393C427.371 328.06 436.678 329.808 449.027 333.158C457.912 335.57 465.649 338.807 464.419 339.551C463.804 339.924 461.214 339.584 457.945 338.969C451.438 337.739 443.751 335.683 435.351 333.126Z" fill="#F7E06F"/>
<path d="M637.372 339.812C641.37 340.686 645.351 341.495 649.268 342.223C651.534 342.644 653.638 342.984 655.208 343.097C657.053 343.227 657.555 342.935 655.548 342.256C646.824 339.294 637.841 336.283 625.427 333.192C616.493 330.975 608.158 330.02 608.87 331.282C609.226 331.913 611.654 332.868 614.81 333.92C621.09 336.008 628.794 337.967 637.372 339.812Z" fill="#F7E06F"/>
</svg>
