<svg width="1131" height="478" viewBox="0 0 1131 478" fill="none" xmlns="http://www.w3.org/2000/svg">
<path d="M679.047 189C682.568 184.174 685.018 178.848 686.368 173.024C690.93 161.214 700.994 156.901 712.188 155.038C737.832 150.784 759.94 160.554 780.772 173.89C787.095 177.939 792.861 183 797.834 188.868C805.522 197.935 810.069 207.969 808.896 220.131C808.544 223.711 806.93 226.85 805.727 230.137C802.191 235.359 797.893 239.863 792.89 243.692C791.702 244.602 790.675 245.541 790.734 247.184C789.267 247.536 788.695 248.768 788.005 249.898C784.059 256.426 779.892 262.837 776.181 269.512C769.872 280.838 759.97 284.814 747.632 284.286C747.338 282.173 748.527 280.574 749.524 278.916C756.17 267.781 762.64 256.529 769.535 245.541C773.907 238.572 776.665 230.269 784.66 226C785.848 225.369 786.67 223.916 787.477 222.713C794.005 212.972 792.142 198.932 783.193 189.265C774.802 180.198 764.65 173.684 753.324 169.034C739.636 163.415 725.509 160.364 710.809 164.413C704.398 166.173 697.649 168.418 694.862 175.269C691.942 182.457 688.744 189.397 684.93 196.189C679.238 206.326 673.267 216.288 667.633 226.454C664.303 232.469 660.239 238.088 657.936 244.646C655.589 242.885 653.139 240.802 652.156 238.264C651.129 235.623 654.239 233.57 655.501 231.266C663.262 217.109 671.184 203.07 679.047 189Z" fill="#D07C13"/>
<path d="M657.936 244.617C660.24 238.059 664.303 232.44 667.633 226.426C673.282 216.274 679.238 206.298 684.93 196.16C688.744 189.368 691.943 182.429 694.862 175.24C697.649 168.389 704.383 166.144 710.809 164.384C725.509 160.335 739.636 163.372 753.324 169.005C764.65 173.656 774.802 180.169 783.193 189.236C792.142 198.904 794.005 212.958 787.477 222.685C786.67 223.888 785.849 225.34 784.66 225.971C776.665 230.24 773.907 238.543 769.535 245.512C762.64 256.5 756.17 267.752 749.524 278.887C748.541 280.545 747.338 282.13 747.632 284.257C733.181 282.79 719.934 277.376 706.789 271.743C694.07 266.285 681.864 259.816 670.069 252.539C665.976 250.001 661.032 248.739 657.936 244.617ZM749.627 196.366C752.297 196.542 753.441 194.855 753.5 192.361C753.559 189.779 751.608 188.576 749.495 188.488C746.957 188.385 745.578 190.116 745.534 192.698C745.505 195.295 746.957 196.395 749.627 196.366ZM692.133 238.646C690.666 238.866 688.818 239.922 688.818 242.27C688.818 244.529 689.933 246.73 692.661 246.48C694.877 246.289 697.092 244.969 697.121 242.548C697.165 240.26 695.625 238.543 692.133 238.646ZM738.771 247.39C741.705 247.624 742.776 245.644 742.967 243.355C743.172 240.861 741.338 239.585 739.064 239.482C736.732 239.38 734.942 240.759 734.839 243.121C734.736 245.541 736.116 247.228 738.771 247.39ZM758.913 215.995C755.877 216.009 754.542 217.77 754.483 220.103C754.424 222.538 756.434 223.858 758.62 223.697C760.879 223.535 762.919 222.083 762.831 219.56C762.757 217.242 760.967 216.068 758.913 215.995ZM709.767 183.881C709.738 186.58 711.528 187.461 713.758 187.505C716.296 187.563 717.587 185.7 717.587 183.558C717.587 181.094 715.782 179.568 713.274 179.671C710.794 179.773 709.826 181.534 709.767 183.881ZM696.461 217.506C698.295 217.3 700.202 216.244 700.187 213.633C700.173 211.359 698.647 209.569 696.314 209.657C693.996 209.745 692.265 211.124 692.309 213.868C692.339 216.244 693.527 217.418 696.461 217.506ZM716.75 265.611C719.464 265.816 720.946 264.217 721.21 261.87C721.474 259.493 719.787 257.923 717.543 257.762C714.99 257.586 713.611 259.258 713.464 261.782C713.332 264.07 714.388 265.434 716.75 265.611ZM726.213 207.251C724.1 207.427 722.296 208.616 722.325 211.168C722.355 213.442 723.91 215.159 726.213 215.115C728.707 215.071 730.027 213.237 730.145 210.772C730.277 208.366 728.883 207.31 726.213 207.251Z" fill="#F9B128"/>
<path d="M749.627 196.365C746.972 196.394 745.519 195.294 745.549 192.683C745.578 190.101 746.972 188.369 749.51 188.472C751.622 188.56 753.573 189.763 753.515 192.345C753.441 194.854 752.297 196.541 749.627 196.365Z" fill="#E39310"/>
<path d="M692.133 238.645C695.625 238.542 697.165 240.259 697.136 242.547C697.106 244.968 694.876 246.288 692.676 246.479C689.932 246.728 688.832 244.513 688.832 242.269C688.817 239.921 690.666 238.865 692.133 238.645Z" fill="#E39310"/>
<path d="M738.771 247.39C736.115 247.229 734.736 245.541 734.839 243.121C734.942 240.774 736.731 239.394 739.064 239.482C741.338 239.571 743.172 240.847 742.966 243.355C742.776 245.644 741.705 247.625 738.771 247.39Z" fill="#E39310"/>
<path d="M758.913 215.995C760.967 216.068 762.757 217.242 762.83 219.545C762.918 222.069 760.879 223.521 758.62 223.683C756.434 223.844 754.424 222.538 754.483 220.088C754.542 217.785 755.877 216.01 758.913 215.995Z" fill="#E39310"/>
<path d="M709.767 183.881C709.826 181.534 710.794 179.759 713.273 179.671C715.767 179.583 717.587 181.094 717.587 183.558C717.587 185.7 716.296 187.563 713.758 187.505C711.528 187.461 709.738 186.58 709.767 183.881Z" fill="#E39310"/>
<path d="M696.461 217.506C693.527 217.403 692.339 216.23 692.309 213.868C692.265 211.124 694.011 209.745 696.314 209.657C698.632 209.569 700.173 211.359 700.187 213.633C700.187 216.245 698.295 217.301 696.461 217.506Z" fill="#E39310"/>
<path d="M716.75 265.61C714.388 265.434 713.332 264.07 713.464 261.781C713.611 259.258 714.99 257.586 717.543 257.762C719.787 257.923 721.474 259.493 721.21 261.869C720.946 264.217 719.464 265.816 716.75 265.61Z" fill="#E39310"/>
<path d="M726.213 207.252C728.868 207.311 730.262 208.367 730.144 210.773C730.027 213.238 728.707 215.071 726.213 215.115C723.909 215.159 722.34 213.443 722.325 211.169C722.31 208.616 724.115 207.428 726.213 207.252Z" fill="#E39310"/>
<path d="M711.029 224.591C714.55 219.765 717 214.439 718.35 208.615C722.912 196.805 732.976 192.492 744.17 190.629C769.814 186.375 791.922 196.145 812.754 209.481C819.077 213.53 824.843 218.591 829.816 224.459C837.504 233.526 842.051 243.56 840.878 255.722C840.526 259.302 838.912 262.441 837.709 265.727C834.173 270.95 829.875 275.454 824.872 279.283C823.684 280.193 822.657 281.132 822.716 282.775C821.249 283.127 820.676 284.359 819.987 285.489C816.041 292.017 811.874 298.428 808.163 305.103C801.854 316.429 791.952 320.404 779.614 319.876C779.32 317.764 780.509 316.165 781.506 314.507C788.152 303.372 794.622 292.12 801.517 281.131C805.889 274.163 808.647 265.859 816.642 261.59C817.83 260.96 818.652 259.507 819.459 258.304C825.987 248.563 824.124 234.523 815.175 224.855C806.784 215.789 796.632 209.275 785.306 204.625C771.618 199.006 757.491 195.954 742.791 200.003C736.38 201.764 729.631 204.009 726.844 210.86C723.924 218.048 720.726 224.987 716.912 231.78C711.22 241.917 705.249 251.878 699.615 262.045C696.285 268.06 692.221 273.679 689.918 280.237C687.571 278.476 685.121 276.393 684.138 273.855C683.111 271.214 686.221 269.16 687.483 266.857C695.229 252.7 703.166 238.66 711.029 224.591Z" fill="#D07C13"/>
<path d="M689.918 280.221C692.221 273.664 696.285 268.045 699.615 262.03C705.264 251.878 711.22 241.902 716.912 231.765C720.726 224.972 723.925 218.033 726.844 210.845C729.631 203.993 736.365 201.749 742.791 199.988C757.491 195.939 771.618 198.976 785.306 204.61C796.632 209.26 806.784 215.774 815.175 224.84C824.124 234.508 825.987 248.563 819.459 258.289C818.652 259.492 817.831 260.944 816.642 261.575C808.647 265.844 805.889 274.148 801.517 281.116C794.622 292.105 788.152 303.357 781.506 314.492C780.523 316.15 779.32 317.734 779.614 319.861C765.163 318.394 751.916 312.981 738.771 307.347C726.052 301.89 713.846 295.42 702.051 288.144C697.958 285.606 693.014 284.329 689.918 280.221ZM781.594 231.955C784.264 232.132 785.409 230.444 785.467 227.95C785.526 225.368 783.575 224.165 781.462 224.077C778.924 223.975 777.545 225.706 777.501 228.288C777.487 230.885 778.939 231.999 781.594 231.955ZM724.115 274.236C722.648 274.456 720.8 275.512 720.8 277.86C720.8 280.119 721.915 282.319 724.643 282.07C726.859 281.879 729.074 280.559 729.103 278.138C729.147 275.85 727.607 274.148 724.115 274.236ZM770.753 282.994C773.687 283.229 774.758 281.248 774.949 278.96C775.154 276.466 773.32 275.189 771.046 275.087C768.714 274.984 766.924 276.363 766.821 278.725C766.718 281.131 768.097 282.818 770.753 282.994ZM790.895 251.599C787.859 251.614 786.524 253.374 786.465 255.707C786.406 258.142 788.416 259.463 790.602 259.301C792.861 259.14 794.901 257.688 794.812 255.164C794.739 252.846 792.949 251.673 790.895 251.599ZM741.749 219.486C741.72 222.185 743.51 223.065 745.74 223.109C748.278 223.168 749.569 221.305 749.569 219.163C749.569 216.698 747.764 215.172 745.255 215.275C742.776 215.378 741.808 217.138 741.749 219.486ZM728.443 253.11C730.277 252.905 732.184 251.849 732.169 249.237C732.155 246.963 730.629 245.174 728.296 245.262C725.978 245.35 724.247 246.729 724.291 249.472C724.321 251.834 725.509 253.008 728.443 253.11ZM748.732 301.2C751.446 301.406 752.928 299.807 753.192 297.459C753.456 295.083 751.769 293.513 749.525 293.352C746.972 293.176 745.593 294.848 745.446 297.371C745.314 299.675 746.37 301.024 748.732 301.2ZM758.195 242.841C756.082 243.017 754.278 244.205 754.307 246.758C754.337 249.032 755.892 250.748 758.195 250.704C760.689 250.66 762.009 248.827 762.127 246.362C762.259 243.956 760.85 242.9 758.195 242.841Z" fill="#F9B128"/>
<path d="M781.594 231.955C778.939 231.984 777.486 230.884 777.516 228.272C777.545 225.69 778.939 223.959 781.477 224.062C783.589 224.15 785.541 225.353 785.482 227.935C785.423 230.458 784.279 232.131 781.594 231.955Z" fill="#E39310"/>
<path d="M724.115 274.236C727.607 274.133 729.147 275.85 729.118 278.138C729.088 280.559 726.858 281.879 724.658 282.07C721.914 282.319 720.814 280.104 720.814 277.859C720.799 275.527 722.648 274.456 724.115 274.236Z" fill="#E39310"/>
<path d="M770.753 282.994C768.097 282.833 766.718 281.146 766.821 278.725C766.924 276.378 768.714 274.999 771.046 275.087C773.32 275.175 775.154 276.451 774.949 278.96C774.758 281.249 773.687 283.214 770.753 282.994Z" fill="#E39310"/>
<path d="M790.895 251.6C792.949 251.673 794.739 252.847 794.812 255.15C794.9 257.673 792.861 259.126 790.602 259.287C788.416 259.448 786.406 258.143 786.465 255.693C786.524 253.375 787.859 251.614 790.895 251.6Z" fill="#E39310"/>
<path d="M741.749 219.486C741.808 217.138 742.776 215.363 745.255 215.275C747.749 215.187 749.569 216.698 749.569 219.163C749.569 221.305 748.278 223.168 745.74 223.109C743.51 223.065 741.72 222.185 741.749 219.486Z" fill="#E39310"/>
<path d="M728.443 253.111C725.509 253.008 724.32 251.834 724.291 249.472C724.247 246.729 725.993 245.35 728.296 245.262C730.614 245.174 732.154 246.964 732.169 249.238C732.169 251.849 730.277 252.905 728.443 253.111Z" fill="#E39310"/>
<path d="M748.732 301.2C746.37 301.024 745.314 299.66 745.446 297.371C745.593 294.848 746.972 293.176 749.524 293.352C751.769 293.513 753.456 295.083 753.192 297.459C752.928 299.821 751.446 301.42 748.732 301.2Z" fill="#E39310"/>
<path d="M758.195 242.842C760.85 242.9 762.244 243.957 762.126 246.363C762.009 248.827 760.689 250.661 758.195 250.705C755.891 250.749 754.322 249.033 754.307 246.759C754.278 244.206 756.097 243.033 758.195 242.842Z" fill="#E39310"/>
</svg>
