<svg width="260" height="177" viewBox="0 0 260 177" fill="none" xmlns="http://www.w3.org/2000/svg">
<path d="M67.286 1.55908C74.166 3.84908 77.486 9.33906 79.896 15.6291C83.456 24.9391 87.086 34.1991 92.566 42.6391C97.046 49.5491 103.266 54.7691 109.086 60.3791C118.426 69.3991 127.906 78.2791 135.126 89.7191C136.306 87.0591 137.326 84.6691 138.406 82.3091C151.156 54.3991 169.456 30.7191 192.916 11.0091C197.966 6.76906 203.526 3.41907 210.156 2.19907C211.146 2.93907 212.306 2.69907 213.386 2.63907C219.036 2.30907 222.836 4.72906 225.206 9.90906C229.606 19.5391 231.896 29.5991 232.026 40.1591C232.216 55.7491 230.526 71.1591 227.296 86.3991C223.136 106.069 215.146 123.749 200.086 137.599C189.466 147.359 177.116 153.299 162.506 154.219C156.496 154.599 150.586 153.789 144.626 153.509H144.656C144.536 152.949 144.076 152.889 143.626 152.799C141.266 150.609 139.556 147.909 137.746 145.209C136.256 145.979 136.246 147.829 135.066 148.779C134.386 148.989 133.906 149.339 134.046 150.159L134.066 150.139C133.576 150.119 133.376 150.379 133.396 150.839L133.416 150.829C132.916 151.019 132.346 151.099 131.936 151.409C120.716 159.759 108.116 162.269 94.446 160.359C84.656 158.989 75.486 155.709 66.806 151.129C59.016 147.019 51.686 142.179 45.906 135.399C34.946 122.569 28.216 108.029 26.936 90.8991C25.956 77.8791 27.626 65.4991 32.466 53.4391C38.456 38.5291 46.486 24.7291 55.296 11.3591C58.226 6.90907 61.576 2.72908 67.286 1.55908ZM51.406 87.1591C51.136 92.8391 52.166 98.0591 53.876 103.129C59.066 118.529 69.726 127.899 85.736 130.359C100.596 132.649 116.306 121.199 111.416 99.7791C106.906 80.0291 92.786 68.1691 73.396 63.1491C63.066 60.4691 55.566 65.5991 52.836 75.9291C51.846 79.6991 51.066 83.5091 51.406 87.1591Z" fill="#909422"/>
<path d="M144.616 153.509C150.576 153.789 156.496 154.599 162.496 154.219C177.096 153.299 189.456 147.359 200.076 137.599C215.136 123.749 223.126 106.069 227.286 86.3992C230.516 71.1592 232.206 55.7491 232.016 40.1591C231.886 29.6091 229.596 19.5391 225.196 9.90913C222.826 4.72913 219.026 2.30914 213.376 2.63914C212.296 2.69914 211.136 2.93914 210.146 2.19914C219.936 0.719139 227.456 4.60913 233.316 12.1891C240.176 21.0691 244.236 31.4091 248.336 41.6991C256.046 61.0391 260.536 81.0191 259.346 101.969C257.506 134.449 237.246 160.779 208.786 169.849C196.836 173.659 185.086 173.179 173.466 170.549C162.716 168.119 152.996 162.799 145.196 154.619C144.926 154.329 144.816 153.879 144.616 153.509Z" fill="#5E6221"/>
<path d="M67.286 1.55892C61.576 2.72892 58.226 6.91892 55.286 11.3689C46.466 24.7289 38.446 38.5389 32.456 53.4489C27.616 65.4989 25.946 77.8789 26.926 90.9089C28.216 108.039 34.936 122.579 45.896 135.409C51.676 142.179 59.006 147.029 66.796 151.139C75.486 155.719 84.646 158.999 94.436 160.369C108.106 162.279 120.706 159.769 131.926 151.419C132.336 151.109 132.916 151.029 133.406 150.839C129.516 157.669 123.666 162.569 117.176 166.659C99.566 177.759 80.516 178.739 60.856 173.919C20.536 164.019 1.40604 129.869 0.866036 96.4189C0.556036 77.3489 6.93604 60.0789 16.996 44.0889C24.996 31.3789 34.236 19.5889 44.216 8.39892C48.636 3.43892 53.756 -0.661077 61.156 0.088923C63.306 0.278923 65.276 0.958924 67.286 1.55892Z" fill="#5E6221"/>
<path d="M134.046 150.149C133.906 149.329 134.386 148.979 135.066 148.769C134.786 149.269 134.726 149.939 134.046 150.149Z" fill="#6C5F1B"/>
<path d="M133.386 150.829C133.366 150.359 133.576 150.109 134.056 150.129C134.006 150.519 133.896 150.869 133.386 150.829Z" fill="#6C5F1B"/>
<path d="M143.626 152.789C144.066 152.879 144.536 152.949 144.656 153.499C144.076 153.599 143.846 153.199 143.626 152.789Z" fill="#6C5F1B"/>
<path d="M51.406 87.1589C51.066 83.5089 51.846 79.6989 52.836 75.9389C55.576 65.5989 63.066 60.4789 73.396 63.1589C92.786 68.1789 106.906 80.0389 111.416 99.7889C116.306 121.209 100.596 132.659 85.736 130.369C69.736 127.899 59.066 118.539 53.876 103.139C52.166 98.0589 51.136 92.8389 51.406 87.1589Z" fill="#8A4C14"/>
<path d="M159.506 113.159C160.566 92.9288 172.456 78.8288 190.696 70.5688C197.936 67.2888 204.366 68.5388 209.016 73.4088C208.426 70.6588 207.316 67.9488 206.086 65.2688C201.626 55.5488 193.356 51.7888 183.636 56.1888C165.396 64.4488 153.506 78.5488 152.446 98.7888C151.946 108.379 154.996 115.419 159.776 119.909C159.486 117.809 159.376 115.569 159.506 113.159Z" fill="#BCBC2C"/>
<path d="M182.986 124.509C198.336 119.339 207.236 108.289 209.716 92.2286C210.536 86.9386 210.656 81.6186 209.416 76.0686C209.346 75.1786 209.206 74.2886 209.016 73.3986C204.366 68.5386 197.936 67.2786 190.696 70.5586C172.456 78.8186 160.566 92.9186 159.506 113.149C159.376 115.559 159.486 117.799 159.786 119.889C165.936 125.669 174.966 127.209 182.986 124.509Z" fill="#66631E"/>
</svg>
