<svg width="311" height="306" viewBox="0 0 311 306" fill="none" xmlns="http://www.w3.org/2000/svg">
<path d="M133.26 292.9C111.14 293.05 91.1697 292.14 72.2297 283.9C40.4297 270.05 20.9397 243.84 15.3597 204.78C12.2697 183.13 14.8797 162.17 23.0197 142.27C23.9797 139.91 25.4697 137.81 26.8997 135.75C28.5297 133.4 30.1897 133.53 32.3197 135.46C43.9097 145.95 57.7697 150.15 71.8197 153.16C91.4197 157.37 111.32 158.56 131.21 158.69C148.89 158.8 166.51 157.24 184.07 154.11C195.27 152.11 206.14 149.48 216.69 144.7C221.27 142.63 225.32 139.84 228.33 135.56C230.87 131.94 231.75 133.16 233.45 136.31C239.69 147.9 242.08 160.97 243.15 174.06C245.34 200.86 240.32 225.81 226.53 248.14C214.39 267.8 197.63 279.5 178.2 286.58C162.93 292.15 147.11 293.48 133.26 292.9Z" fill="#CBE8ED"/>
<path d="M143.45 0C168.08 1.45 216.23 -2.2 218.46 29.5C218.93 34.53 213.6 51.25 222.94 48.13C273.78 26.82 315.68 83.2 309.43 130.16C311.3 171.86 275.16 190.44 253.83 216.15C249.71 237.5 239.93 255.84 224.24 270.99C160.24 330.26 18.4997 312.41 2.88974 215.61C-7.00026 173.36 17.7097 138.91 36.9397 103.77C52.5797 -0.0699921 -89.2502 17.03 143.45 0ZM132.88 280.94C201.13 290.16 262.99 217.15 227.3 153.14C202.59 163.79 163.56 173.54 130.94 171.4C96.9798 173.4 61.1497 164.61 32.6397 152.68C-9.51026 221.2 59.9297 292.48 132.88 280.94ZM281.9 120.65C289.75 86.84 231.2 46.76 221.07 91.37C226.74 119.72 249.57 140.94 253.8 170.08C270.19 171.46 281.48 138.81 281.9 120.65Z" fill="#CECFD8"/>
</svg>
