<svg width="183" height="182" viewBox="0 0 183 182" fill="none" xmlns="http://www.w3.org/2000/svg">
<path d="M0.69998 90.2179C0.19998 69.4879 5.92997 51.4179 18.07 35.5079C28.36 22.0279 41.85 12.7079 57.5 6.48785C70.69 1.24785 84.44 -0.732148 98.57 0.237852C117.42 1.53785 134.37 8.08787 149.54 19.3179C162.37 28.8179 171.44 41.2079 177.18 55.9979C180.98 65.7979 182.77 76.1579 182.49 86.5979C181.73 115.328 171.01 139.528 148.67 158.208C133.65 170.758 116.31 176.958 96.94 178.418C77.31 179.888 59.18 175.288 42.75 164.848C20.38 150.628 6.68998 130.128 1.53998 104.088C0.599977 99.3179 0.31998 94.3979 0.69998 90.2179Z" fill="#FADA90"/>
<path d="M1.76001 108.318C27.35 187.228 146.15 194.578 177.9 115.928C163.35 204.458 14 204.928 1.76001 108.318Z" fill="#F5CA65"/>
<path d="M116.54 36.818C108.38 36.488 110.06 26.618 117.85 26.828C125.63 27.688 124.67 37.008 116.54 36.818Z" fill="#F5CA65"/>
<path d="M51.34 44.418C42.3 43.168 50.63 31.038 56.59 34.808C63.54 38.208 56.84 45.048 51.34 44.418Z" fill="#F5CA65"/>
<path d="M85 66.138C93.66 66.538 91.2 75.648 84.05 75.898C75.36 75.728 77.54 66.038 85 66.138Z" fill="#F5CA65"/>
<path d="M142.42 78.1878C134.74 78.6478 136.87 68.1578 143.73 68.8078C151.47 68.9178 150.01 78.8578 142.42 78.1878Z" fill="#F5CA65"/>
<path d="M122.49 108.828C129.91 108.548 128.76 118.638 121.44 118.208C113.83 118.348 115.25 108.368 122.49 108.828Z" fill="#F5CA65"/>
<path d="M73.07 122.818C80.4 122.608 80.19 132.238 73.48 132.828C67.02 132.848 65.27 122.338 73.07 122.818Z" fill="#F5CA65"/>
<path d="M45.56 88.168C53.4 87.758 49.74 98.698 43.32 97.978C36.08 97.568 38.81 87.818 45.56 88.168Z" fill="#F5CA65"/>
</svg>
