<svg width="175" height="127" viewBox="0 0 175 127" fill="none" xmlns="http://www.w3.org/2000/svg">
<path d="M169.707 106.501C168.177 104.481 168.747 103.711 170.297 102.361C173.027 99.9813 174.267 96.9213 174.177 93.2013C174.097 89.8413 172.367 87.2913 170.607 84.7713C169.287 82.8813 168.857 81.4813 170.207 79.1713C173.007 74.4013 172.927 69.4413 169.377 64.8513C168.047 63.1313 166.027 62.3313 164.327 61.1113C163.207 60.3113 162.517 59.6413 163.277 58.1413C167.327 50.2013 163.627 43.8813 156.187 41.3313C154.257 40.6713 153.737 39.7313 154.617 37.8813C156.337 34.2613 154.947 31.2813 152.657 28.4213C150.177 25.3213 146.627 24.3313 143.097 23.4613C140.967 22.9313 140.067 21.8613 139.557 19.8013C138.037 13.7013 132.667 10.3313 126.667 12.0713C123.517 12.9813 122.057 12.0313 120.657 9.44126C118.557 5.55126 114.107 3.44126 109.847 4.17126C105.537 4.91126 101.537 5.62126 97.4772 2.48126C94.6872 0.331261 90.6372 -0.0687395 87.3872 2.14126C83.7872 4.58126 81.0672 6.06126 76.9272 2.29126C73.2572 -1.04874 66.7972 1.45126 63.2872 6.53126C62.0372 8.34126 61.0872 9.48126 58.5172 8.03126C55.0872 6.10126 51.7072 6.88126 48.8472 9.76126C47.2672 11.3613 45.7472 12.9813 44.9872 15.1113C44.2672 17.1013 42.9672 17.6413 40.9072 17.6413C34.6472 17.6413 30.6372 20.8813 29.5772 27.0313C29.1472 29.5013 28.1672 30.5413 25.7772 31.2313C19.8872 32.9313 15.0372 39.2113 18.8772 45.3713C20.0272 47.2213 19.0672 47.9213 17.0372 48.4013C10.2072 50.0213 4.40721 57.5713 9.48721 64.9913C10.8872 67.0413 9.3772 67.5413 8.2172 68.1513C2.85719 71.0213 2.24721 76.5313 4.88721 81.6713C5.86721 83.5713 5.83721 84.6013 4.54721 86.3013C-0.582788 93.0713 -0.422788 96.7113 5.04721 103.591C5.95721 104.731 5.6172 105.361 4.9772 106.451C3.0272 109.821 1.53721 113.251 3.13721 117.371C4.51721 120.931 6.87721 123.371 10.1672 124.961C11.2172 125.471 11.8772 125.951 12.1172 126.661H166.457C172.887 122.481 174.657 113.031 169.707 106.501Z" fill="#FA9E46"/>
<path d="M101.597 109.531C93.7274 108.941 94.0275 98.5212 102.677 98.9312C111.517 99.4112 109.947 109.471 101.597 109.531Z" fill="#D07B42"/>
<path d="M42.9172 67.971C43.3772 74.891 31.3672 77.961 30.9672 69.981C30.2472 63.541 43.0872 60.351 42.9172 67.971Z" fill="#D07B42"/>
<path d="M81.3771 64.2111C88.5671 63.8211 91.3271 74.0111 83.3771 74.1711C76.2671 74.8011 72.8971 64.1811 81.3771 64.2111Z" fill="#D07B42"/>
<path d="M47.6475 104.451C47.7575 98.3413 57.8475 100.711 59.1175 105.281C61.9975 114.691 46.7275 110.391 47.6475 104.451Z" fill="#D07B42"/>
<path d="M90.5072 37.5214C82.2872 37.7714 83.7772 28.7914 89.7372 27.6914C96.4472 27.9414 99.3772 37.8214 90.5072 37.5214Z" fill="#D07B42"/>
<path d="M131.697 54.8711C124.047 55.3511 126.087 45.4011 131.837 44.8711C137.627 45.3911 139.097 55.8911 131.697 54.8711Z" fill="#D07B42"/>
<path d="M54.3173 39.5014C46.4473 40.3614 48.0773 30.2814 54.0573 30.3214C58.6973 31.4914 59.6173 38.7714 54.3173 39.5014Z" fill="#D07B42"/>
<path d="M137.697 80.9014C144.127 80.2414 142.417 88.9514 136.487 88.5214C130.257 88.5914 130.657 80.6414 137.697 80.9014Z" fill="#D07B42"/>
</svg>
