<svg width="174" height="126" viewBox="0 0 174 126" fill="none" xmlns="http://www.w3.org/2000/svg">
<path d="M169.48 105.837C167.95 103.817 168.52 103.047 170.07 101.697C172.8 99.3167 174.04 96.2567 173.95 92.5367C173.87 89.1767 172.14 86.6267 170.38 84.1067C169.06 82.2167 168.63 80.8167 169.98 78.5067C172.78 73.7367 172.7 68.7767 169.15 64.1867C167.82 62.4667 165.8 61.6667 164.1 60.4467C162.98 59.6467 162.29 58.9767 163.05 57.4767C167.1 49.5367 163.4 43.2167 155.96 40.6667C154.03 40.0067 153.51 39.0667 154.39 37.2167C156.11 33.5967 154.72 30.6167 152.43 27.7567C149.95 24.6567 146.4 23.6667 142.87 22.7967C140.74 22.2667 139.84 21.1967 139.33 19.1367C137.81 13.0367 132.44 9.66671 126.44 11.4067C123.29 12.3167 121.83 11.3667 120.43 8.77671C118.33 4.88671 113.88 2.77671 109.62 3.50671C105.31 4.24671 101.31 4.95671 97.2503 1.81671C94.4603 -0.33329 90.4103 -0.73329 87.1603 1.47671C83.5603 3.91671 80.8403 5.39671 76.7003 1.62671C73.0303 -1.71329 66.5703 0.78671 63.0603 5.86671C61.8103 7.67671 60.8603 8.81671 58.2903 7.36671C54.8603 5.43671 51.4803 6.21671 48.6203 9.09671C47.0403 10.6967 45.5203 12.3167 44.7603 14.4467C44.0403 16.4367 42.7403 16.9767 40.6803 16.9767C34.4203 16.9767 30.4103 20.2167 29.3503 26.3667C28.9203 28.8367 27.9403 29.8767 25.5503 30.5667C19.6603 32.2667 14.8103 38.5467 18.6503 44.7067C19.8003 46.5567 18.8403 47.2567 16.8103 47.7367C9.98027 49.3567 4.18029 56.9067 9.26029 64.3267C10.6603 66.3767 9.15027 66.8767 7.99027 67.4867C2.63027 70.3567 2.02028 75.8667 4.66028 81.0067C5.64028 82.9067 5.61028 83.9367 4.32028 85.6367C-0.809717 92.4067 -0.649716 96.0467 4.82028 102.927C5.73028 104.067 5.39028 104.697 4.75028 105.787C2.80028 109.157 1.31028 112.587 2.91028 116.707C4.29028 120.267 6.65028 122.707 9.94028 124.297C10.9903 124.807 11.6503 125.287 11.8903 125.997H166.23C172.66 121.817 174.43 112.367 169.48 105.837Z" fill="#FADA90"/>
<path d="M101.37 108.867C93.5003 108.277 93.8003 97.8567 102.45 98.2667C111.29 98.7467 109.72 108.807 101.37 108.867Z" fill="#F5CA65"/>
<path d="M42.6903 67.3065C43.1503 74.2265 31.1402 77.2965 30.7402 69.3165C30.0202 62.8765 42.8603 59.6865 42.6903 67.3065Z" fill="#F5CA65"/>
<path d="M81.1503 63.5466C88.3403 63.1566 91.1003 73.3466 83.1503 73.5066C76.0403 74.1366 72.6703 63.5166 81.1503 63.5466Z" fill="#F5CA65"/>
<path d="M47.4203 103.787C47.5303 97.6768 57.6203 100.047 58.8903 104.617C61.7703 114.027 46.5003 109.727 47.4203 103.787Z" fill="#F5CA65"/>
<path d="M90.2803 36.8569C82.0603 37.1069 83.5503 28.1269 89.5103 27.0269C96.2203 27.2769 99.1503 37.1569 90.2803 36.8569Z" fill="#F5CA65"/>
<path d="M131.47 54.2065C123.82 54.6865 125.86 44.7365 131.61 44.2065C137.4 44.7265 138.87 55.2265 131.47 54.2065Z" fill="#F5CA65"/>
<path d="M54.0903 38.8369C46.2203 39.6969 47.8503 29.6169 53.8303 29.6569C58.4703 30.8269 59.3903 38.1069 54.0903 38.8369Z" fill="#F5CA65"/>
<path d="M137.47 80.2369C143.9 79.5769 142.19 88.2869 136.26 87.8569C130.03 87.9269 130.43 79.9769 137.47 80.2369Z" fill="#F5CA65"/>
</svg>
