<svg width="159" height="151" viewBox="0 0 159 151" fill="none" xmlns="http://www.w3.org/2000/svg">
<path d="M127.532 47.0207C128.462 51.6099 127.207 55.7091 124.787 59.5884C121.008 65.6523 116.604 71.3012 112.999 77.4851C108.16 85.7935 105.366 94.9168 102.112 103.875C97.2774 117.183 90.2187 129.08 79.4308 138.514C72.4771 144.593 62.1689 152.381 55.2153 148.927C48.2617 145.472 51.7009 150.446 49.7163 150.066C45.5221 149.267 41.3579 148.297 37.4486 146.562C21.5366 139.508 10.0337 127.896 3.29497 111.944C-2.87887 97.3313 1.64029 81.6893 14.128 71.0763C24.626 62.1579 37.0887 57.6438 50.2262 54.5993C56.1251 53.2346 62.104 52.2298 68.0029 50.86C77.0162 48.7654 84.9897 44.3112 92.8333 39.5921C97.8123 36.5977 102.851 33.7132 108.625 32.4235C110.455 32.0135 112.26 32.1235 114.089 32.1985C121.168 34.788 125.047 40.272 127.532 47.0207Z" fill="#B25218"/>
<path d="M63.4654 148.495C69.0111 143.36 67.7051 118.212 51.4873 100.558C35.2695 82.9041 13.1901 71.8961 4.73552 84.5654C-3.71904 97.2347 0.49581 114.849 16.7136 132.503C32.9314 150.157 57.9197 153.631 63.4654 148.495Z" fill="#A34710"/>
<path d="M127.532 47.0208C125.047 40.2721 121.173 34.7881 114.094 32.2086C117.564 28.4093 121.018 24.585 124.527 20.8207C125.392 19.8909 125.677 19.061 125.397 17.7313C124.562 13.692 125.122 9.82277 127.312 6.21844C129.636 2.38916 132.956 0.284553 137.43 0.719471C142.034 1.16939 145.078 3.95387 146.268 8.35804C146.923 10.7976 147.758 11.9174 150.557 12.2923C157.146 13.1821 160.546 20.9557 157.241 26.7446C154.152 32.1536 149.938 34.1832 143.874 32.8585C141.599 32.3636 139.999 32.6485 138.405 34.4982C135.37 38.0175 132.066 41.3119 128.896 44.7163C128.282 45.3761 127.577 46.011 127.532 47.0208Z" fill="#F6C15A"/>
</svg>
