<svg width="187" height="151" viewBox="0 0 187 151" fill="none" xmlns="http://www.w3.org/2000/svg">
<path d="M103.654 4.98877C120.52 5.84357 137.139 8.13089 153.097 13.9376C163.543 17.74 173.105 22.9219 180.05 31.9946C184.406 37.6775 186.387 44.1917 186.11 51.2187C185.332 70.9911 179.961 89.3723 168.619 105.767C160.932 116.879 150.998 125.439 138.724 131.193C137.628 131.706 136.673 132.154 136.296 133.462C134.798 138.597 131.014 141.786 126.492 143.968C113.977 150.004 100.606 151.307 86.9412 150.405C79.0947 149.886 71.431 148.342 64.1505 145.27C58.4793 142.877 53.7042 139.499 51.6999 133.262C51.4582 132.507 50.9689 132.071 50.173 131.664C24.2284 118.465 9.23694 96.983 2.99395 68.9397C1.41404 61.836 0.358804 54.6851 1.11339 47.3692C1.96229 39.1042 6.1007 32.6018 12.1256 27.2195C22.1945 18.2234 34.4506 13.696 47.2844 10.4536C56.7992 8.04838 66.4968 6.76322 76.2415 5.65493C80.4035 5.18331 84.5537 5.33069 88.6921 4.98877C93.6794 4.98877 98.6667 4.98877 103.654 4.98877ZM99.5687 82.4455C106.101 81.9621 112.685 81.8383 119.158 80.9186C131.179 79.2208 142.934 76.4029 154.028 71.2328C161.12 67.9315 167.628 63.9228 172.787 57.9098C173.748 56.7897 173.777 56.1058 172.958 54.915C170.417 51.2305 167.304 48.1474 163.62 45.6537C153.58 38.8684 142.197 35.7321 130.477 33.4507C122.678 31.9356 114.79 31.1928 106.891 30.621C100.948 30.1907 94.941 29.778 89.0104 30.1376C79.8434 30.6859 70.6764 31.464 61.5684 32.8022C50.2615 34.4646 39.2198 36.8994 29.139 42.5587C23.5151 45.7127 18.7046 49.8451 14.7018 54.9032C13.959 55.8464 13.0983 56.8604 14.3598 57.9628C16.5764 59.8905 18.2742 62.337 20.7148 64.0407C30.2532 70.72 41.0355 74.6226 52.1538 77.4581C67.6817 81.402 83.5692 82.5575 99.5687 82.4455Z" fill="#743B11"/>
<path d="M94.7467 86.3304C140.006 86.3304 176.695 71.0907 176.695 52.2917C176.695 33.4926 140.006 18.2529 94.7467 18.2529C49.4876 18.2529 12.7979 33.4926 12.7979 52.2917C12.7979 71.0907 49.4876 86.3304 94.7467 86.3304Z" fill="#A64317"/>
<path d="M52.9084 52.1147C34.321 51.5959 53.3093 36.9169 62.8359 41.8629C71.1422 46.8856 58.1728 53.4529 52.9084 52.1147Z" fill="#B05518"/>
<path d="M132.146 66.2573C110.605 63.3745 142.067 45.9425 142.639 61.83C141.489 66.499 136.101 65.7267 132.146 66.2573Z" fill="#B05518"/>
<path d="M91.3865 56.8013C69.5625 56.1764 97.6589 38.6501 102.894 50.576C102.287 55.4808 95.6428 56.8839 91.3865 56.8013Z" fill="#B05518"/>
<path d="M65.2295 69.8182C47.9861 68.3326 68.1123 55.1333 72.5808 64.6717C73.3 68.0791 67.7939 70.1011 65.2295 69.8182Z" fill="#B05518"/>
<path d="M117.614 37.2353C127.406 37.3533 124.411 48.0589 115.704 44.3096C111.388 42.7532 113.328 36.522 117.614 37.2353Z" fill="#B05518"/>
<path d="M94.2337 9.41002C102.74 9.16832 111.265 9.34517 119.742 10.1469C121.894 10.3474 124.034 10.5949 126.174 10.8779C125.791 10.8249 125.407 10.7777 125.024 10.7247C131.22 11.5618 137.38 12.7585 143.394 14.4858C145.993 15.2344 148.569 16.0834 151.093 17.0502C151.7 17.2801 152.307 17.5218 152.908 17.7694C153.038 17.8224 153.174 17.8755 153.303 17.9345C153.392 17.9698 153.48 18.0052 153.563 18.0465C153.964 18.2115 152.702 17.6751 152.855 17.7458C153.15 17.8873 153.457 18.0052 153.757 18.1349C154.86 18.6183 155.944 19.1312 157.023 19.6676C159.045 20.6816 161.02 21.7899 162.912 23.022C163.791 23.5879 164.646 24.1775 165.489 24.7965C165.689 24.9438 165.89 25.0912 166.084 25.2445C166.603 25.6335 165.63 24.8966 165.571 24.8436C165.689 24.9379 165.807 25.0264 165.925 25.1207C166.302 25.4213 166.674 25.722 167.045 26.0344C168.477 27.2429 169.833 28.5458 171.083 29.9488C171.384 30.2849 171.673 30.6268 171.956 30.9687C172.091 31.1337 172.221 31.2988 172.357 31.4639C172.486 31.6231 172.769 31.9944 172.227 31.2929C171.661 30.556 172.026 31.0335 172.156 31.2045C172.657 31.8707 173.135 32.5604 173.577 33.2678C174.007 33.9517 174.408 34.6532 174.774 35.3724C174.956 35.732 175.133 36.0916 175.298 36.4571C175.375 36.6339 175.451 36.8108 175.528 36.9818C175.652 37.2529 175.009 35.7261 175.227 36.2743C175.269 36.3805 175.316 36.4925 175.357 36.5986C175.911 38.0016 176.342 39.4577 176.619 40.9492C176.689 41.3206 176.748 41.692 176.801 42.0693C176.748 41.6861 176.701 41.3029 176.648 40.9197C176.913 42.9064 176.913 44.9225 176.648 46.9092C176.701 46.526 176.748 46.1429 176.801 45.7597C176.583 47.3396 176.206 48.89 175.681 50.3992C175.546 50.7883 175.404 51.1715 175.251 51.5488C175.21 51.6431 175.174 51.7374 175.133 51.8376C175.027 52.1088 175.67 50.5937 175.428 51.1302C175.339 51.3365 175.251 51.5369 175.157 51.7433C174.797 52.5155 174.408 53.2701 173.984 54.007C173.541 54.7675 173.07 55.5103 172.569 56.2354C172.309 56.6068 172.038 56.9723 171.773 57.3319C171.401 57.8271 172.191 56.7896 172.209 56.7719C172.138 56.8603 172.068 56.9546 171.997 57.043C171.844 57.2376 171.684 57.4321 171.525 57.6267C170.293 59.1182 168.949 60.5094 167.517 61.8063C166.744 62.5079 165.954 63.1799 165.141 63.8225C164.646 64.2116 164.304 64.4533 165.294 63.7105C165.076 63.8755 164.864 64.0406 164.646 64.1998C164.203 64.5299 163.755 64.8483 163.307 65.1607C161.397 66.493 159.399 67.7015 157.353 68.8098C156.257 69.3993 155.149 69.9653 154.023 70.5017C153.439 70.7788 152.855 71.05 152.272 71.3094C151.995 71.4332 151.717 71.557 151.44 71.6749C151.287 71.7397 151.14 71.8046 150.987 71.8694C150.279 72.176 152.089 71.4096 151.364 71.7102C148.811 72.7596 146.223 73.7028 143.594 74.534C137.569 76.4382 131.379 77.7882 125.142 78.7373C124.287 78.867 123.432 78.9908 122.578 79.1028C122.961 79.0497 123.344 79.0026 123.727 78.9495C115.704 80.0224 107.604 80.4705 99.5098 80.4469C94.9057 80.4351 90.3075 80.6945 85.6974 80.7004C81.394 80.7063 77.0964 80.6002 72.7988 80.3526C68.3774 80.0932 63.9678 79.6864 59.5818 79.1028C59.965 79.1559 60.3482 79.203 60.7314 79.2561C54.6947 78.4366 48.6934 77.2812 42.8336 75.6187C40.281 74.8936 37.752 74.0742 35.2701 73.1369C34.6806 72.9129 34.0911 72.6829 33.5075 72.4471C33.254 72.341 32.9946 72.2408 32.7411 72.1347C32.6586 72.0993 32.576 72.064 32.4876 72.0286C32.3225 71.9637 33.6018 72.5061 33.2068 72.3292C33.0594 72.2644 32.9179 72.2054 32.7706 72.1406C31.68 71.669 30.6011 71.1738 29.54 70.6491C27.5769 69.6823 25.6669 68.6153 23.8217 67.4421C22.9728 66.8998 22.1416 66.3338 21.3221 65.7443C21.1276 65.6028 20.9331 65.4614 20.7444 65.3199C20.656 65.255 20.5676 65.1843 20.4791 65.1194C19.925 64.7068 21.4518 65.8858 20.9213 65.4613C20.544 65.1607 20.1667 64.8601 19.7953 64.5535C18.4099 63.3981 17.1012 62.1483 15.8927 60.8041C15.6156 60.4976 15.3444 60.1793 15.0791 59.8609C14.9495 59.7018 14.8198 59.5426 14.6901 59.3834C14.6193 59.295 14.5545 59.2125 14.4896 59.124C14.354 58.959 15.2973 60.1911 14.9082 59.6664C14.4189 59.0061 13.9473 58.34 13.5051 57.6443C13.0925 56.99 12.7034 56.312 12.3497 55.6223C12.1728 55.2804 12.0019 54.9326 11.8427 54.5788C11.772 54.4256 11.7071 54.2664 11.6364 54.1131C11.4359 53.671 12.1492 55.3688 11.9252 54.797C11.8899 54.7026 11.8486 54.6142 11.8132 54.5258C11.2709 53.1581 10.8523 51.7433 10.587 50.2989C10.5222 49.9393 10.4632 49.5798 10.4161 49.2202C10.4691 49.6033 10.5163 49.9865 10.5693 50.3697C10.3217 48.4715 10.3276 46.5555 10.5752 44.6573C10.5222 45.0405 10.475 45.4236 10.422 45.8068C10.646 44.1739 11.041 42.5704 11.5951 41.0199C11.7366 40.6309 11.884 40.2477 12.0431 39.8586C12.3025 39.216 11.5951 40.8844 11.7779 40.4894C11.8191 40.3951 11.8604 40.3007 11.9016 40.2123C11.9901 40.0119 12.0844 39.8114 12.1728 39.6169C12.556 38.8092 12.9805 38.0193 13.4344 37.253C13.9001 36.4689 14.4012 35.7025 14.9377 34.9597C15.0674 34.777 15.1971 34.6001 15.3326 34.4232C15.3975 34.3348 15.4682 34.2464 15.5331 34.1521C15.9752 33.5626 14.8669 34.9951 15.1558 34.6414C15.4623 34.2582 15.7689 33.875 16.0872 33.4977C17.4195 31.9237 18.8756 30.4617 20.4202 29.0999C21.2396 28.3748 22.1003 27.7028 22.9492 27.0071C23.0494 26.9246 21.9117 27.7971 22.3479 27.4728C22.3951 27.4375 22.4363 27.4021 22.4835 27.3667C22.5896 27.2842 22.6957 27.2075 22.8077 27.125C23.0553 26.9423 23.3029 26.7536 23.5564 26.5768C24.0162 26.2407 24.4878 25.9165 24.9595 25.5923C27.011 24.1951 29.1509 22.9277 31.3439 21.7663C32.5112 21.1473 33.6902 20.5637 34.8869 20.0037C35.5177 19.7089 36.1485 19.4259 36.7793 19.143C37.0799 19.0133 37.3806 18.8836 37.6871 18.7539C36.3254 19.3375 37.2981 18.9189 37.8404 18.6949C40.5758 17.5807 43.3583 16.5903 46.1762 15.712C52.6019 13.7135 59.1986 12.281 65.8484 11.2729C66.768 11.1314 67.6936 11.0017 68.6132 10.8779C68.23 10.931 67.8469 10.9781 67.4637 11.0312C74.2431 10.1233 81.0697 9.62816 87.9081 9.46309C90.0127 9.42183 92.1232 9.40413 94.2337 9.41002C96.4915 9.42181 98.655 7.41745 98.5489 5.09475C98.4428 2.74847 96.6507 0.785373 94.2337 0.779478C83.8405 0.738212 73.4591 1.42797 63.1897 3.01377C55.0543 4.26944 46.9838 6.15591 39.2376 8.95612C32.7057 11.3201 26.3036 14.2617 20.5499 18.1761C15.5861 21.5541 11.1589 25.5333 7.62765 30.4027C4.92176 34.1285 2.84666 38.5676 2.16282 43.1422C1.4495 47.8702 1.79732 52.6747 3.63072 57.1315C5.65866 62.0657 8.83026 66.3692 12.8272 69.9063C17.4903 74.0388 22.8962 77.2281 28.6086 79.6805C35.9599 82.8403 43.6236 85.0274 51.4878 86.4718C61.4388 88.3052 71.5667 89.1482 81.6769 89.3073C84.4712 89.3486 87.2715 89.3427 90.0658 89.2896C92.9603 89.2307 95.8489 89.0597 98.7376 89.0774C103.925 89.1128 109.119 88.9536 114.295 88.5645C123.55 87.8689 132.818 86.5071 141.778 84.0665C149.012 82.0975 156.139 79.4093 162.683 75.7307C167.864 72.8185 172.828 69.1871 176.79 64.7245C180.297 60.7688 183.145 56.1764 184.536 51.0417C185.815 46.3374 185.815 41.2794 184.483 36.5868C183.039 31.5052 180.144 26.9541 176.548 23.1222C172.386 18.6831 167.204 15.1578 161.804 12.4048C154.871 8.87357 147.426 6.38582 139.856 4.64085C130.271 2.43016 120.42 1.31006 110.605 0.86792C105.152 0.626218 99.6926 0.608536 94.2395 0.761811C91.9817 0.826658 89.8182 2.70133 89.9243 5.07708C90.0186 7.3762 91.8166 9.48076 94.2337 9.41002Z" fill="#864714"/>
</svg>
