<svg width="212" height="149" viewBox="0 0 212 149" fill="none" xmlns="http://www.w3.org/2000/svg">
<path d="M200.358 62.7758C200.398 68.1658 200.398 68.1658 204.828 71.4858C211.898 76.7858 213.168 85.3758 207.788 92.4658C206.948 93.5658 207.148 94.0458 207.978 94.8958C215.068 102.106 209.638 115.106 200.498 116.456C198.948 116.686 198.508 117.406 198.068 118.896C195.598 127.436 187.248 131.666 178.648 128.946C177.838 128.696 177.038 127.776 176.258 129.366C172.938 136.136 166.938 136.986 160.418 135.876C158.828 135.606 158.388 135.966 157.668 137.106C152.808 144.716 145.028 146.766 136.928 142.456C135.118 141.496 134.318 141.216 133.258 143.376C132.048 145.846 129.568 147.216 126.968 147.986C120.278 149.986 114.038 149.026 108.568 144.566C107.548 143.736 107.178 143.686 106.268 144.596C99.7677 151.026 89.1377 148.846 83.7777 143.276C82.4477 141.896 81.6777 141.536 79.7677 142.676C72.8777 146.776 64.1077 144.716 58.6677 137.986C57.7777 136.886 57.3577 136.206 55.6677 137.186C48.6077 141.286 39.7777 139.146 35.1677 132.306C34.1277 130.766 33.4277 130.166 31.3077 130.586C24.3177 131.976 17.8777 127.886 15.5177 120.946C15.0177 119.486 14.4878 118.776 12.6778 118.646C7.81775 118.306 3.95775 116.036 2.01775 111.356C0.0477501 106.606 0.80775 102.206 4.36775 98.4458C5.26775 97.4858 5.26775 96.6458 5.01775 95.4858C3.48775 88.2558 5.64775 82.4958 12.0677 78.5758C12.9578 78.0258 13.4777 77.7458 13.1277 76.3458C10.8377 67.3358 16.1777 57.9058 25.1477 55.1558C26.8677 54.6258 27.3577 53.9758 27.8477 52.2158C30.3078 43.3958 36.0277 37.6658 45.0877 35.6458C46.5778 35.3158 47.5078 34.6058 48.6777 33.7058C53.1077 30.3058 55.8277 25.7758 58.8077 21.1558C63.5377 13.8358 70.8577 10.9258 79.6277 12.8558C81.6077 13.2858 82.4677 13.2158 83.3377 10.9758C86.8677 1.92581 98.0778 -2.52419 106.538 1.47581C107.238 1.80581 108.098 2.10581 108.488 2.69581C110.888 6.29581 113.328 6.0158 117.208 4.3258C125.028 0.925797 133.548 4.5158 138.338 12.1558C139.698 14.3158 144.418 16.3258 146.848 15.7658C157.208 13.4058 166.208 18.3758 169.528 28.5058C170.068 30.1458 170.638 30.6658 172.358 30.9558C180.418 32.3158 185.038 37.5258 185.088 45.4258C185.098 47.4058 185.988 47.4058 187.338 47.7258C195.228 49.5858 200.308 55.4858 200.358 62.7758Z" fill="#CF4517"/>
<path d="M37.9278 91.9054C26.7778 90.9154 28.0478 77.3354 38.5278 77.8854C46.3878 78.5254 45.8478 91.9354 37.9278 91.9054Z" fill="#BD4018"/>
<path d="M91.7978 31.0955C89.4078 23.6755 104.448 23.2555 105.458 29.3055C108.268 40.0055 90.1978 41.5455 91.7978 31.0955Z" fill="#BD4018"/>
<path d="M70.8277 51.5155C70.8777 42.6355 85.2777 43.2155 85.0577 52.8355C85.4577 60.1355 70.1877 60.6755 70.8277 51.5155Z" fill="#BD4018"/>
<path d="M153.398 108.576C163.608 109.196 161.678 122.646 152.028 122.516C144.608 121.846 144.798 108.296 153.398 108.576Z" fill="#BD4018"/>
<path d="M89.7077 87.8858C79.2077 88.2958 79.7277 74.8258 88.8877 74.8658C96.8977 74.9858 98.3777 88.0158 89.7077 87.8858Z" fill="#BD4018"/>
<path d="M116.418 105.225C116.758 115.685 101.788 113.115 102.428 105.615C102.708 98.3054 115.888 96.9054 116.418 105.225Z" fill="#BD4018"/>
<path d="M123.838 37.8756C113.948 37.4456 116.598 24.7956 124.548 24.7856C132.318 25.2456 133.868 38.3356 123.838 37.8756Z" fill="#BD4018"/>
<path d="M147.108 41.8857C149.298 35.5357 160.028 34.6657 161.298 42.3957C161.798 52.2357 148.358 49.7557 147.108 41.8857Z" fill="#BD4018"/>
<path d="M165.248 87.4959C157.528 87.6559 158.458 75.2859 165.898 75.8959C173.828 76.0059 173.278 87.6959 165.248 87.4959Z" fill="#BD4018"/>
<path d="M137.418 95.2458C127.798 96.3058 130.348 83.9458 137.308 83.9258C143.288 84.5658 145.908 95.4758 137.418 95.2458Z" fill="#BD4018"/>
<path d="M54.7778 68.2954C47.4478 67.8354 49.3878 57.0454 55.6778 56.5654C62.3478 58.1154 64.2878 68.4654 54.7778 68.2954Z" fill="#BD4018"/>
<path d="M112.688 69.7658C104.228 69.2758 105.448 58.2758 112.828 57.9658C119.568 59.1858 119.508 69.6158 112.688 69.7658Z" fill="#BD4018"/>
<path d="M196.118 95.1255C197.268 103.045 185.408 103.065 185.148 96.4355C184.278 89.1755 196.418 88.4855 196.118 95.1255Z" fill="#BD4018"/>
<path d="M63.7378 103.206C55.8278 102.176 57.4578 93.6555 63.5078 92.1855C70.7778 92.9155 69.7678 102.216 63.7378 103.206Z" fill="#BD4018"/>
<path d="M143.238 60.7255C151.878 61.8555 148.648 69.5955 142.428 70.3255C137.198 69.3655 137.768 60.0955 143.238 60.7255Z" fill="#BD4018"/>
<path d="M173.788 64.2655C174.208 57.1955 182.368 58.0055 183.558 63.6455C183.418 68.0455 172.868 71.1855 173.788 64.2655Z" fill="#BD4018"/>
<path d="M89.3477 124.556C83.1477 123.506 82.8677 115.636 90.5477 116.096C96.3177 117.286 95.3477 124.136 89.3477 124.556Z" fill="#BD4018"/>
<path d="M147.118 41.8859C146.898 41.7659 146.908 41.7659 147.118 41.8859V41.8859Z" fill="#BD4018"/>
</svg>
