<svg width="69" height="151" viewBox="0 0 69 151" fill="none" xmlns="http://www.w3.org/2000/svg">
<path d="M53.2404 6.85411C53.2469 7.96205 53.3343 9.0797 52.9197 10.1488C51.2383 14.2533 49.8615 18.4615 48.6466 22.7216L48.6823 22.6924C48.245 23.2788 48.1121 23.9688 48.002 24.6686L48.0344 24.6362C46.7612 28.3552 45.4881 32.0743 44.2149 35.7933C44.2926 35.829 44.3704 35.8646 44.4482 35.9002C44.9147 35.1875 45.3779 34.4748 45.8444 33.7653C48.4231 30.5808 51.0018 27.3931 53.5805 24.2086C53.6972 24.0433 53.8138 23.8749 53.9304 23.7097L53.9077 23.7583C54.0276 23.6384 54.1507 23.5153 54.2706 23.3954L54.2479 23.4343C54.4779 23.3047 54.6755 23.1492 54.6723 22.8512L54.6366 22.8415C54.8893 22.8641 54.9768 22.7248 54.9768 22.4981C54.9768 22.4981 54.9703 22.5272 54.9703 22.524C55.6863 22.132 56.1722 21.523 56.561 20.8232L56.5124 20.8588C56.6355 20.7357 56.7553 20.6126 56.8784 20.4928L56.8331 20.5284C56.9529 20.4053 57.0696 20.2822 57.1894 20.1558L57.1473 20.1947C57.2704 20.0749 57.3935 19.955 57.5199 19.8351C57.5199 19.8351 57.4745 19.8772 57.4745 19.874C57.5944 19.7509 57.7143 19.6278 57.8341 19.5047L57.8114 19.5468C58.0317 19.32 58.252 19.0933 58.4723 18.8697L58.4529 18.8892C58.6894 18.7596 58.8837 18.6008 58.8805 18.2963L58.8481 18.306C59.0878 18.3158 59.2012 18.2024 59.185 17.9594L59.1721 17.9821C59.4085 17.9853 59.5252 17.8752 59.509 17.6355L59.5284 17.6678C60.0014 17.4961 60.348 17.2013 60.4938 16.7024L60.4647 16.6862C60.7044 16.696 60.821 16.5826 60.8048 16.3396L60.7951 16.3817C61.0931 16.3817 61.2616 16.1938 61.3912 15.9541L61.3556 15.98C61.8901 15.7306 62.4214 15.4779 62.9559 15.2284C65.9331 14.8786 67.9902 16.1323 68.9103 18.8632C69.1111 20.1494 68.6414 21.2832 68.1068 22.4041L68.1263 22.375C67.7861 22.8058 67.4492 23.2367 67.109 23.6708L67.1576 23.6578C67.041 23.7809 66.9244 23.9041 66.8045 24.0239L66.824 23.9915C66.4806 24.2345 66.1825 24.5066 66.0983 24.944C66.0983 24.944 66.0983 24.8986 66.1015 24.8986C65.8974 25.1383 65.6933 25.3748 65.4893 25.6145L65.5152 25.5919C65.2787 25.7247 65.0811 25.8802 65.094 26.188C65.094 26.188 65.0681 26.1718 65.0714 26.1718C64.7118 26.2495 64.5271 26.4925 64.4591 26.8391C64.4591 26.8391 64.485 26.8359 64.4882 26.8359C63.8468 27.0886 63.5714 27.6782 63.228 28.2062L63.2734 28.1933C63.1568 28.3131 63.0401 28.4362 62.9267 28.5561L62.9462 28.5269C62.5931 28.7634 62.308 29.0485 62.227 29.4891L62.2432 29.4405C61.9257 29.583 61.7378 29.8357 61.6147 30.15L61.6406 30.1305C60.9603 30.6748 60.442 31.3519 60.0014 32.097L60.0241 32.0775C59.6645 32.3108 59.3988 32.6088 59.2984 33.0364L59.3535 33.004C59.1235 33.0332 59.0457 33.1952 59.0101 33.3928L59.0619 33.3604C58.9453 33.4835 58.8287 33.6066 58.7153 33.7297L58.7347 33.6941C58.2553 34.0245 57.9702 34.504 57.7305 35.0158L57.7564 34.9802C56.9691 35.7577 56.2953 36.6227 55.7737 37.5978L55.7997 37.5589C55.5502 37.6917 55.3915 37.8829 55.3882 38.1809L55.4044 38.1615C55.0384 38.2684 54.9152 38.5794 54.8051 38.8969C54.8051 38.8969 54.831 38.858 54.831 38.8612C54.5751 38.9908 54.4163 39.1852 54.4196 39.4832L54.4747 39.4865C53.8235 39.8752 53.4833 40.5037 53.1788 41.1613C53.1788 41.1613 53.208 41.1225 53.208 41.1257C52.8452 41.3687 52.6411 41.7185 52.5277 42.1332L52.5536 42.0943C52.2879 42.2304 52.1519 42.4442 52.1648 42.7455C52.1648 42.7455 52.1324 42.7034 52.1357 42.7034C51.5817 43.1634 51.2221 43.7627 50.9273 44.4074L50.9532 44.375C50.7297 44.7119 50.5062 45.0456 50.2827 45.3825L50.3053 45.3534C49.638 46.1503 49.0775 47.0185 48.6402 47.9645L48.6693 47.9288C47.9955 48.7258 47.461 49.6102 47.0431 50.5658L47.0657 50.5367C46.1878 51.7742 45.3649 53.0474 44.7818 54.4533L44.8045 54.4242C44.6846 54.651 44.5615 54.8745 44.4417 55.098L44.4676 55.0591C44.1857 55.2017 44.1469 55.4738 44.1145 55.7459L44.1371 55.7071C42.4396 58.3797 41.0952 61.2306 39.8965 64.1559C39.8965 64.1559 39.9322 64.13 39.9322 64.1332C35.2477 73.7937 31.8332 83.9109 29.0958 94.2711C27.5116 100.041 26.3194 105.901 25.0042 111.736C24.9458 111.995 24.8519 112.244 24.7741 112.497C20.3845 109.316 15.7065 107.2 10.0988 108.561C12.6548 100.157 15.2012 91.7507 17.4818 83.2695C17.5369 83.0654 17.5499 82.8516 17.5823 82.641C18.0358 80.937 18.5671 79.2459 18.6708 77.4674L18.6286 77.5095C19.066 76.2331 19.3154 74.9308 19.2506 73.5734L19.2442 73.5799C20.0573 71.6199 20.0314 69.5207 20.1836 67.4668C20.8866 57.923 19.8856 48.499 17.8641 39.1819C16.889 34.6886 15.9366 30.1694 14.0835 25.9191C14.0835 25.9191 14.1224 25.9417 14.1191 25.9417C13.7401 24.4613 13.2315 23.0326 12.4767 21.6979L12.5155 21.7335C11.9389 19.8092 11.1744 17.9594 10.196 16.2035L10.2252 16.2295C9.19821 13.9779 8.80946 11.7264 10.196 9.46521C13.0242 7.02904 14.2714 6.90593 16.8048 8.81081C17.1158 9.19308 17.2551 9.74058 17.8285 9.87016L17.8123 9.86692C21.0842 16.6603 23.8087 23.6676 25.9209 30.8821C26.1477 25.783 26.3713 20.6839 26.598 15.5848C26.6077 15.2608 26.6142 14.9336 26.6239 14.6097C26.7147 12.7761 26.8021 10.9392 26.8928 9.10561C26.909 8.79137 26.9252 8.47713 26.9414 8.16289C26.9511 7.83893 26.9609 7.51822 26.9706 7.19426C27.5181 5.72673 28.4122 4.57668 29.8538 3.87693C33.061 2.31221 35.8244 3.88988 35.8503 7.45019C35.8892 13.4305 35.7985 19.414 35.7596 25.3943C35.7563 25.877 35.7596 26.3564 35.928 26.8812C36.9129 23.9753 37.9009 21.0726 38.8858 18.1667C39.132 17.4152 39.6665 16.7672 39.7086 15.9379L39.673 15.9638C40.4343 14.263 41.2053 12.5687 41.6168 10.7384L41.6005 10.7643C42.7927 8.84321 43.1782 6.57874 44.2214 4.59287L44.1987 4.62527C44.6458 4.19765 45.0896 3.77002 45.5367 3.33915L45.4945 3.36183C46.1392 3.20309 46.7839 3.04759 47.4286 2.89209C47.6391 2.89209 47.8465 2.89209 48.057 2.89209C49.2524 2.91153 50.2567 3.48493 51.2804 3.99355L51.2545 3.94496C51.3744 4.05834 51.4975 4.17497 51.6174 4.28835L51.5914 4.26891C51.8117 4.49245 52.032 4.71921 52.2523 4.94274L52.2296 4.92331C52.4499 5.25374 52.6702 5.58742 52.8905 5.91786C52.8905 5.91786 52.8646 5.88871 52.8646 5.89195C52.9326 6.24506 52.9456 6.60142 53.2404 6.85411Z" fill="#8C9F27"/>
<path d="M25.8108 31.2841C26.0635 47.5339 23.3293 64.5449 18.3565 79.7321C18.4667 78.9805 18.5768 78.2289 18.6869 77.4741C18.9558 76.4666 19.3834 74.8598 19.2636 73.5769L19.2539 73.5931C22.2602 57.8163 19.3122 40.9704 14.0932 25.9226L14.1321 25.942C13.7563 24.4615 13.2379 23.0329 12.4864 21.6981C12.0717 20.0136 11.129 17.8916 10.2025 16.2038C6.9564 10.5281 13.1958 4.0748 17.8285 9.88014C17.8285 9.88014 17.8058 9.88014 17.809 9.88014C21.1231 16.7707 23.9415 23.8492 25.8108 31.2841Z" fill="#7D8F29"/>
<path d="M44.843 33.6975C43.8354 36.2146 42.1088 38.3171 40.7967 40.6594C38.5614 44.6473 36.1803 48.5477 34.4893 52.8143C34.4147 53.0022 34.4115 53.2484 33.9126 53.2937C34.2366 51.0131 34.5994 48.781 34.8586 46.5392C35.189 43.6624 35.7333 40.8084 35.743 37.8927C35.7559 34.0376 36.3974 30.202 36.0928 26.3371C36.0475 25.7637 36.7764 25.4722 36.6209 24.8631C37.2073 22.8611 37.7936 20.8622 38.38 18.8602L38.3573 18.8926C38.8011 18.6787 38.6489 18.2446 38.7266 17.8948L38.6975 17.9369C39.0052 17.7781 39.0344 17.5125 38.9826 17.2112C39.0247 17.1497 39.0311 17.0849 39.0052 17.0136C39.4652 16.7804 39.3519 16.2879 39.5009 15.9186C39.7633 15.1703 40.2816 14.5159 40.3335 13.6866L40.2978 13.7157C41.0591 12.0149 41.8301 10.3141 42.2448 8.48701L42.2254 8.51616C43.4208 6.59185 43.8031 4.32414 44.8527 2.34151L44.8268 2.37715C45.2738 1.94953 45.7209 1.51866 46.168 1.09104L46.1258 1.11695C48.1668 0.294095 50.0814 0.640735 51.9117 1.74867L51.8826 1.6936C52.0057 1.81022 52.1288 1.92361 52.2519 2.04023L52.2227 2.01756C52.443 2.24433 52.6666 2.46786 52.8869 2.69463L52.8609 2.67196C53.0812 3.00564 53.3048 3.33931 53.525 3.66975C53.525 3.66975 53.4959 3.63735 53.4991 3.63735C53.5639 3.97427 53.5672 4.33711 53.8652 4.58655C53.8685 5.69449 53.9624 6.81214 53.5413 7.87797C51.8729 11.9858 50.4863 16.1907 49.2747 20.454L49.3136 20.4216C48.8762 21.008 48.7467 21.7013 48.63 22.401L48.6657 22.3654C47.386 26.1428 46.1161 29.9201 44.843 33.6975Z" fill="#7D8F29"/>
<path d="M10.1019 108.574C15.7096 107.217 20.3875 109.329 24.7772 112.51C24.0094 116.576 23.2837 120.648 22.4674 124.704C21.2687 130.662 20.2742 136.658 18.6479 142.528C17.1415 147.971 13.1503 150.698 8.53715 150.663C3.46072 150.624 0.295637 147.206 0.0591468 142.182C-0.12551 138.207 1.25779 134.643 2.54715 131.076C5.14853 123.878 7.52316 116.612 9.77143 109.3C9.84918 109.047 9.99172 108.814 10.1019 108.574Z" fill="url(#paint0_linear_61_3412)"/>
<defs>
<linearGradient id="paint0_linear_61_3412" x1="13.3378" y1="128.198" x2="8.98446" y2="139.053" gradientUnits="userSpaceOnUse">
<stop stop-color="#A8B71F"/>
<stop offset="1" stop-color="#FEDF94"/>
</linearGradient>
</defs>
</svg>
