<svg width="307" height="252" viewBox="0 0 307 252" fill="none" xmlns="http://www.w3.org/2000/svg">
<path d="M192.523 237.618C189.973 235.478 186.653 235.558 183.693 234.658C163.783 228.578 147.153 218.138 136.333 199.758C135.423 198.218 134.703 196.438 132.183 197.348C124.653 200.068 116.683 200.988 108.913 202.698L109.123 202.688C108.893 202.078 108.543 202.218 108.163 202.538C94.4829 203.138 80.8629 202.748 67.3229 200.478C50.4329 196.548 35.5129 188.678 23.0629 176.758C-4.74706 150.138 -7.40708 109.478 16.2929 78.0181C26.5129 64.4581 39.8029 54.5981 55.0329 47.3281C62.2729 43.8781 69.3029 40.2181 75.1129 34.5781C82.1729 37.6581 89.5129 38.8181 97.2429 38.7381C104.743 38.6681 111.913 37.0981 119.113 35.3881C131.823 46.1781 148.183 51.3981 160.533 62.8881C167.823 69.6681 174.103 77.0881 178.993 85.6581C180.613 88.4881 182.093 88.8481 184.913 87.6581C191.373 84.9381 197.763 82.1681 203.173 77.5781C217.503 83.7081 232.113 83.6081 246.893 79.4781C252.413 86.7881 259.993 91.6581 267.383 96.7681C289.023 111.718 303.413 131.708 305.703 158.208C308.243 187.498 296.843 210.768 271.233 226.358C259.393 233.568 246.533 237.738 232.873 239.658C226.243 239.888 219.643 240.958 212.983 240.538C206.153 239.588 199.343 238.608 192.523 237.618Z" fill="#FDD272"/>
<path d="M119.113 35.4181C111.913 37.1281 104.743 38.6881 97.243 38.7681C89.513 38.8481 82.1729 37.6781 75.1129 34.6081C78.9529 28.8881 79.9529 22.4181 80.3929 15.7081C81.1329 4.17805 86.883 -0.411946 98.433 0.988054C98.763 1.02805 99.073 1.17805 99.403 1.21805C112.483 3.10805 113.813 4.58805 114.093 17.9881C114.213 24.2581 115.913 30.0481 119.113 35.4181Z" fill="#8A7C1D"/>
<path d="M246.893 79.5084C232.113 83.6284 217.513 83.7384 203.173 77.6084C208.653 70.6284 209.303 62.0284 211.073 53.8284C211.683 51.0084 212.123 48.2584 215.133 46.9384C221.463 46.0884 227.913 47.4384 234.203 45.8584C240.893 47.0684 243.163 49.5184 243.093 55.9284C243.013 64.0184 243.363 72.0084 246.893 79.5084Z" fill="#8A7C1D"/>
<path d="M67.3229 200.488C80.8529 202.758 94.4829 203.148 108.163 202.548C108.483 202.598 108.803 202.648 109.123 202.698L108.913 202.708C109.043 203.498 109.033 204.338 109.313 205.068C110.703 208.648 111.163 212.198 106.923 213.908C103.173 215.428 99.3729 215.328 97.0729 211.008C96.8629 210.608 96.4429 210.318 96.1129 209.978C90.2129 216.248 84.5129 218.558 79.7329 208.398C76.6229 211.308 73.113 213.108 69.153 210.378C65.453 207.828 66.0729 204.138 67.3229 200.488Z" fill="#B25218"/>
<path d="M192.523 237.618C199.343 238.598 206.163 239.578 212.983 240.558C211.903 241.088 210.443 240.028 209.503 241.298C216.133 241.298 222.733 241.578 229.283 241.168C232.193 240.988 232.873 242.238 232.963 244.378C233.023 245.808 232.473 247.258 232.193 248.708L232.273 248.608C231.363 248.628 230.523 248.788 230.143 249.768L230.223 249.608C227.833 249.508 225.453 249.408 223.063 249.308C221.673 249.218 221.223 246.428 218.803 248.718C213.413 253.818 208.093 252.558 204.483 245.948C203.613 246.738 202.853 247.628 201.913 248.248C199.183 250.038 196.323 250.158 193.533 248.408C190.853 246.728 190.863 244.018 191.263 241.338C191.473 240.078 192.093 238.868 192.523 237.618Z" fill="#B25218"/>
<path d="M232.203 248.718C232.483 247.278 233.033 245.818 232.973 244.388C232.883 242.248 232.203 240.998 229.293 241.178C222.743 241.588 216.143 241.308 209.513 241.308C210.453 240.038 211.913 241.088 212.993 240.568C219.653 240.988 226.253 239.908 232.883 239.688C233.913 242.788 235.773 245.958 232.203 248.718Z" fill="#743B11"/>
<path d="M234.203 45.8477C227.913 47.4177 221.463 46.0777 215.133 46.9277C221.373 44.4877 227.843 46.1277 234.203 45.8477Z" fill="#8A7C1D"/>
<path d="M223.083 249.318C225.473 249.418 227.853 249.518 230.243 249.618C227.783 251.208 225.413 250.808 223.083 249.318Z" fill="#743B11"/>
<path d="M230.153 249.778C230.533 248.788 231.373 248.638 232.283 248.618C231.863 249.528 230.993 249.628 230.153 249.778Z" fill="#743B11"/>
<path d="M109.113 202.698C108.793 202.648 108.473 202.598 108.153 202.548C108.533 202.228 108.883 202.088 109.113 202.698Z" fill="#FEE6B5"/>
<path d="M224.463 239.078C261.523 184.798 258.003 164.188 244.663 84.8076C274.043 121.738 277.273 220.308 224.463 239.078Z" fill="#F6C15A"/>
<path d="M195.203 235.718C171.403 174.458 179.503 155.178 210.473 80.8877C173.493 110.208 148.013 205.468 195.203 235.718Z" fill="#F6C15A"/>
<path d="M99.3529 199.258C141.293 143.388 136.353 122.948 117.603 44.208C153.803 79.828 161.283 178.178 99.3529 199.258Z" fill="#F6C15A"/>
<path d="M64.5429 197.188C34.0529 137.018 42.9429 117.388 76.9229 41.7881C34.1529 72.7081 7.46293 169.028 64.5429 197.188Z" fill="#F6C15A"/>
</svg>
