<svg width="203" height="201" viewBox="0 0 203 201" fill="none" xmlns="http://www.w3.org/2000/svg">
<path d="M133.13 89.6092C135.186 85.8894 136.74 82.9877 138.37 80.1342C139.676 77.8514 141.622 77.0675 144.193 77.7826C146.064 78.3052 147.975 78.6628 149.832 79.206C156.632 81.1931 158.523 84.2666 157.388 91.2594C155.58 102.405 159.733 111.124 168.355 118C176.283 124.319 185.222 129.331 192.05 137.074C202.749 149.21 205.698 165.093 198.493 179.01C193.824 188.031 181.44 196.894 169.022 193.951C164.663 192.92 160.407 193.037 156.206 196.255C147.652 202.807 138.438 201.343 129.561 196.502C127.382 195.313 125.443 195.216 123.064 195.436C111.877 196.475 102.113 193.827 94.7074 184.531C91.0701 179.973 87.9828 175.214 86.7658 169.569C84.4486 158.822 86.2501 148.591 92.0671 139.267C94.0611 136.07 92.3009 135.905 89.9837 135.403C86.6007 134.667 84.1048 136.943 81.1963 137.782C70.903 140.752 60.9192 140.615 51.5405 134.791C50.3991 134.083 49.512 134.138 48.35 134.454C43.3719 135.802 38.2012 136.008 33.113 136.592C25.4326 137.472 19.093 134.179 13.606 129.132C6.18002 122.297 1.77943 113.854 0.775547 103.753C-0.40711 91.8714 3.28526 81.475 10.615 72.2544C16.3908 64.9934 23.9611 59.8915 31.6278 54.9065C36.4203 51.7848 40.6765 48.1199 44.5958 43.8706C50.9904 36.9328 51.6573 28.778 50.6328 20.1831C50.2959 17.3571 50.2959 14.5105 49.8146 11.6776C49.3333 8.85158 51.4442 6.74067 53.6789 5.23485C57.5362 2.64263 61.985 1.3362 66.4956 0.737996C69.5141 0.339193 72.2851 1.52185 73.9628 4.54725C76.0806 8.37714 77.5176 12.4752 78.8859 16.587C80.8662 22.5347 82.9702 28.4479 85.7275 34.0518C88.361 39.3875 93.0435 43.0524 97.6985 46.5729C103.708 51.1178 109.8 55.5666 115.418 60.5928C124.013 68.2595 131.005 76.9988 133.13 89.6092Z" fill="#FFE398"/>
<path d="M43.5916 130.665C24.3872 112.121 26.5118 67.5446 51.2651 56.2681C19.911 121.39 67.3617 129.558 43.5916 130.665Z" fill="#FEDB82"/>
<path d="M122.679 194.123C107.153 180.316 102.14 141.681 124.762 134.805C104.478 179.031 141.195 193.779 122.679 194.123Z" fill="#FEDB82"/>
<path d="M163.205 186.581C176.854 167.466 171.924 156.636 170.411 137.521C187.979 142.815 183.063 190.129 163.205 186.581Z" fill="#FEDB82"/>
<path d="M99.8639 132.928C119.068 114.383 116.944 69.8068 92.1904 58.5303C123.538 123.652 76.087 131.821 99.8639 132.928Z" fill="#FEDB82"/>
</svg>
