<svg width="55" height="151" viewBox="0 0 55 151" fill="none" xmlns="http://www.w3.org/2000/svg">
<path d="M0.944403 77.6128C0.908281 78.8891 1.25345 79.6476 2.55783 79.8403C3.86221 80.6952 5.36725 81.0202 6.83217 81.4055C18.0819 84.3474 29.4802 84.512 40.9146 82.9266C45.3134 82.3166 49.7082 81.4136 53.6173 79.0617C53.7497 79.0296 53.8782 78.9934 54.0106 78.9613C54.0387 89.9101 54.0708 100.863 54.0909 111.812C54.0949 114.549 54.0547 117.286 54.0347 120.019C53.8781 120.124 53.7216 120.228 53.5691 120.332C50.6192 122.395 47.28 123.551 43.8204 124.326C35.075 126.284 26.2173 126.328 17.3716 125.341C11.8129 124.719 6.27029 123.78 1.39391 120.693C1.28555 120.697 1.12903 120.661 1.07685 120.718" fill="#743B11"/>
<path d="M0.944403 77.6128C0.908281 78.8891 1.25345 79.6476 2.55783 79.8403C3.86221 80.6952 5.36725 81.0202 6.83217 81.4055C18.0819 84.3474 29.4802 84.512 40.9146 82.9266C45.3134 82.3166 49.7082 81.4136 53.6173 79.0617C53.7497 79.0296 53.8782 78.9934 54.0106 78.9613C54.0387 89.9101 54.0708 100.863 54.0909 111.812C54.0949 114.549 54.0547 117.286 54.0347 120.019C53.8781 120.124 53.7216 120.228 53.5691 120.332C50.6192 122.395 47.28 123.551 43.8204 124.326C35.075 126.284 26.2173 126.328 17.3716 125.341C11.8129 124.719 6.27029 123.78 1.39391 120.693C1.28555 120.697 1.12903 120.661 1.07685 120.718" fill="#EB950D"/>
<path d="M36.6964 9.21933C30.7204 8.33235 24.7443 9.14708 18.7722 9.23939C18.3227 9.24742 17.8772 9.46415 17.4277 9.58054C14.835 7.44135 14.8069 4.84463 17.3474 2.68939C18.4431 1.75826 19.7034 1.03183 21.1121 0.967611C25.9002 0.750883 30.7244 0.180966 35.4322 1.54154C37.4108 2.11546 38.3219 3.84528 38.6189 5.73161C38.8557 7.24469 38.4824 8.69356 36.6964 9.21933Z" fill="#EB950D"/>
<path d="M0.944446 77.6132C0.908325 78.8894 1.25349 79.648 2.55787 79.8406C3.85824 80.6955 5.36729 81.0206 6.83221 81.4059C18.082 84.3478 29.4803 84.5123 40.9147 82.927C45.3134 82.317 49.7082 81.4139 53.6173 79.062C53.7498 79.0299 53.8782 78.9938 54.0106 78.9617C54.0468 75.6626 54.2394 72.3635 53.8902 69.0725C53.8581 68.6792 53.8621 68.2778 53.7899 67.8925C52.6942 62.2415 49.4955 57.7705 45.6265 53.745C43.7562 51.8025 42.9936 49.575 42.7007 46.9703C42.2712 43.1735 41.8137 39.3647 40.726 35.6723C40.0156 30.0414 38.6591 24.5389 37.2905 19.0445C37.1099 18.3261 36.853 17.6237 37.3266 16.9414C39.245 14.1922 38.3741 11.6757 36.6965 9.2195C30.7204 8.33252 24.7444 9.14725 18.7723 9.23956C18.3228 9.24759 17.8773 9.46432 17.4278 9.58071C15.8706 11.9326 15.9147 14.3246 17.2913 16.7287C17.6004 17.2665 17.7208 17.704 17.5402 18.3782C15.5093 25.9035 13.9963 33.5372 12.7762 41.235C12.4872 42.9167 11.9615 44.5983 11.9655 46.28C11.9735 49.274 10.95 51.6821 8.89514 53.8213C6.30244 56.5223 4.00271 59.4602 2.66622 63.0282C1.59462 65.0309 1.08089 67.1862 0.904297 69.4337C0.928378 72.1629 1.02472 74.892 0.944446 77.6132Z" fill="#743B11"/>
<path d="M53.5689 120.337C50.619 122.399 47.2798 123.555 43.8202 124.33C35.0748 126.288 26.2171 126.333 17.3714 125.345C11.8127 124.723 6.27011 123.784 1.39373 120.698C1.28537 120.702 1.12885 120.666 1.07668 120.722C1.00042 120.81 0.968304 120.959 0.968304 121.083C0.948237 127.2 0.928163 133.316 0.912109 139.437C1.10074 140.649 1.47399 141.785 2.20845 142.784C4.31553 146.46 7.97582 147.789 11.7164 148.812C20.4939 151.212 29.4439 150.943 38.3498 149.884C41.7974 149.474 45.2731 148.583 48.3514 146.741C51.2652 144.995 53.4646 142.704 53.9181 139.144C54.2271 132.77 54.0345 126.397 54.0385 120.023C53.882 120.124 53.7255 120.232 53.5689 120.337Z" fill="#743B11"/>
</svg>
