<svg width="154" height="179" viewBox="0 0 154 179" fill="none" xmlns="http://www.w3.org/2000/svg">
<path d="M105.79 45.7485C108.87 50.1285 113.29 53.2185 116.81 57.1785C120.06 60.8185 123.13 64.5685 125.35 68.9385C125.9 70.0185 126.47 71.1085 126.36 72.3885C119.42 75.0085 112.4 77.4385 105.55 80.2985C93.6803 85.2485 81.9303 90.4985 70.1103 95.5485C65.6603 97.4485 65.4203 98.0185 68.0603 102.098C68.4203 102.658 68.7703 103.228 69.2003 103.728C75.1903 110.888 79.6403 118.968 83.2703 127.528C84.8303 131.198 85.2703 131.298 88.7003 129.298C89.5603 128.798 90.3603 128.178 91.2503 127.738C107.44 119.588 124.7 114.108 141.6 107.738C143.07 107.178 144.14 107.418 145.2 108.398C151.81 117.448 155.21 127.328 153.07 138.668C151.29 148.078 146.03 155.288 138.15 160.198C124.91 168.448 110.53 174.608 95.2403 177.478C82.1903 179.938 71.3303 174.658 63.5403 163.668C58.6703 156.798 55.7303 149.028 53.0403 141.158C46.9403 123.298 40.0003 105.848 29.6303 89.9185C23.6703 80.7485 16.4703 72.6185 9.35031 64.3985C1.62031 55.4685 -1.08966 45.1585 0.810336 33.4485C1.81034 27.2585 5.82031 23.2685 10.4103 20.2385C23.8003 11.4085 38.2403 4.62849 53.9103 0.848486C67.2203 -2.36151 78.4203 3.72849 82.1903 15.8685C81.4103 17.1285 80.0403 17.3285 78.8003 17.7685C73.3803 19.6885 67.8603 21.3685 62.5403 23.5485C50.6503 28.4185 38.8703 33.5485 27.0403 38.5585C23.9203 39.8785 23.6703 40.6885 26.3603 42.7985C31.7103 46.9985 35.3503 52.4985 38.8503 58.1685C40.8203 61.3685 42.4903 64.7585 44.8503 67.7385C46.3403 69.6185 47.5003 70.2185 49.8203 68.9085C55.9003 65.4885 61.8703 61.8985 68.3003 59.0885C79.0803 54.3785 90.0003 50.0485 100.99 45.8985C102.55 45.3085 104.15 44.8885 105.79 45.7485Z" fill="#E1760E"/>
<mask id="mask0_58_984" style="mask-type:luminance" maskUnits="userSpaceOnUse" x="0" y="0" width="154" height="179">
<path d="M105.79 45.7485C108.87 50.1285 113.29 53.2185 116.81 57.1785C120.06 60.8185 123.13 64.5685 125.35 68.9385C125.9 70.0185 126.47 71.1085 126.36 72.3885C119.42 75.0085 112.4 77.4385 105.55 80.2985C93.6803 85.2485 81.9303 90.4985 70.1103 95.5485C65.6603 97.4485 65.4203 98.0185 68.0603 102.098C68.4203 102.658 68.7703 103.228 69.2003 103.728C75.1903 110.888 79.6403 118.968 83.2703 127.528C84.8303 131.198 85.2703 131.298 88.7003 129.298C89.5603 128.798 90.3603 128.178 91.2503 127.738C107.44 119.588 124.7 114.108 141.6 107.738C143.07 107.178 144.14 107.418 145.2 108.398C151.81 117.448 155.21 127.328 153.07 138.668C151.29 148.078 146.03 155.288 138.15 160.198C124.91 168.448 110.53 174.608 95.2403 177.478C82.1903 179.938 71.3303 174.658 63.5403 163.668C58.6703 156.798 55.7303 149.028 53.0403 141.158C46.9403 123.298 40.0003 105.848 29.6303 89.9185C23.6703 80.7485 16.4703 72.6185 9.35031 64.3985C1.62031 55.4685 -1.08966 45.1585 0.810336 33.4485C1.81034 27.2585 5.82031 23.2685 10.4103 20.2385C23.8003 11.4085 38.2403 4.62849 53.9103 0.848486C67.2203 -2.36151 78.4203 3.72849 82.1903 15.8685C81.4103 17.1285 80.0403 17.3285 78.8003 17.7685C73.3803 19.6885 67.8603 21.3685 62.5403 23.5485C50.6503 28.4185 38.8703 33.5485 27.0403 38.5585C23.9203 39.8785 23.6703 40.6885 26.3603 42.7985C31.7103 46.9985 35.3503 52.4985 38.8503 58.1685C40.8203 61.3685 42.4903 64.7585 44.8503 67.7385C46.3403 69.6185 47.5003 70.2185 49.8203 68.9085C55.9003 65.4885 61.8703 61.8985 68.3003 59.0885C79.0803 54.3785 90.0003 50.0485 100.99 45.8985C102.55 45.3085 104.15 44.8885 105.79 45.7485Z" fill="white"/>
</mask>
<g mask="url(#mask0_58_984)">
<path d="M152.65 138.438C150.97 148.168 145.24 155.218 137.65 161.038C137.29 161.168 136.88 161.268 136.93 161.788L136.97 161.638C136.37 161.648 135.86 161.828 135.57 162.408L135.65 162.348C134.06 163.248 132.48 164.158 130.89 165.058L130.97 165.008C130.6 165.128 130.07 165.088 130.2 165.738L130.21 165.568C128.03 166.088 125.96 166.838 124.25 168.368L124.23 168.268C122.53 168.298 121.2 169.328 119.71 169.938C112.79 172.468 105.87 174.998 98.9504 177.528C91.0004 179.428 83.2403 178.898 75.6903 175.738C75.6903 175.738 75.7604 175.788 75.7604 175.798C74.8604 175.288 73.9704 174.788 73.0704 174.278C72.8403 174.128 72.6104 173.988 72.3904 173.838C71.9304 173.578 71.4803 173.308 71.0203 173.048L71.1404 173.088C70.6704 172.368 70.0203 171.868 69.2103 171.588L69.1703 171.748C68.9903 170.968 68.3703 170.638 67.7203 170.368C67.7203 170.368 67.8003 170.488 67.8003 170.478C67.5403 170.228 67.2903 169.978 67.0303 169.718L67.1203 169.818C66.8703 169.568 66.6103 169.318 66.3603 169.058L66.4603 169.148C66.2103 168.888 65.9603 168.628 65.7103 168.378L65.8503 168.398C65.4103 167.918 64.9703 167.438 64.5303 166.958L64.6203 166.988C64.6003 166.778 64.5104 166.618 64.3304 166.508C62.8004 164.258 61.2703 162.008 59.7403 159.758C59.5103 159.318 59.2803 158.888 59.0503 158.448L59.0804 158.488C57.7404 155.578 56.4004 152.668 55.0704 149.758L55.1303 149.818C54.8503 148.608 54.5603 147.398 53.7403 146.408L53.8103 146.488C53.3103 144.918 52.8803 143.318 52.3103 141.778C48.5703 131.668 45.4903 121.298 40.4103 111.728L40.4803 111.808C40.3803 111.258 40.3203 110.688 39.7503 110.378L39.8303 110.468C39.7303 109.918 39.6903 109.338 39.0903 109.038L39.1703 109.118C38.7503 107.618 38.1003 106.248 37.0903 105.048L37.1603 105.128C36.9203 104.098 36.4703 103.178 35.7203 102.418L35.7603 102.458C35.0803 100.758 34.2403 99.1483 33.0603 97.7383L33.1103 97.8083C32.6403 96.5483 32.0103 95.3683 31.0603 94.3983L31.1203 94.4783C30.8503 93.6583 30.5203 92.8683 29.7503 92.3683L29.8103 92.4783C29.5503 92.0183 29.2803 91.5683 29.0203 91.1083L29.0503 91.1483C28.8003 90.7083 28.5403 90.2783 28.2903 89.8383C24.0503 82.9283 19.0203 76.6383 13.5703 70.6583C11.1103 67.9683 8.78033 65.1683 6.39033 62.4083C6.19033 62.1583 5.98034 61.9083 5.78034 61.6583L5.82032 61.7683C5.34032 60.4983 4.69035 59.3383 3.72035 58.3683L3.79032 58.4483C-0.559678 49.9883 -1.52966 41.1183 0.59034 31.8783C1.74034 29.7783 2.21034 27.2783 4.28034 25.7383C3.93034 28.8183 6.66032 29.1283 8.41032 30.1283C13.7603 33.1983 19.2503 36.0283 23.6603 40.4683C24.2603 43.4383 27.2303 44.2083 28.9503 46.1283C33.4703 51.1683 37.1103 56.7883 40.4703 62.6483C42.1803 65.6383 43.5604 69.0283 47.0704 70.5583C47.0303 71.4183 47.5004 72.0183 48.0804 72.5583C53.7704 77.9083 57.8103 84.4183 61.4803 91.2383C62.6203 93.3683 63.0203 96.1883 65.7303 97.2783C65.5103 100.028 67.0003 102.078 68.4003 104.238C70.2503 107.108 72.7303 109.448 74.5403 112.398C78.4003 118.688 81.1203 125.568 84.9903 131.828C85.1103 132.258 85.1003 132.778 85.3603 133.088C89.5903 138.388 92.5603 144.178 92.7703 151.158C92.8103 152.468 93.5204 153.338 95.2604 152.828C98.3404 151.928 101.58 151.548 104.6 150.508C117.54 146.018 130.74 142.068 142.86 135.608C146.56 133.638 151.66 132.128 152.31 126.548C152.46 126.888 152.61 127.218 152.76 127.558C153.2 131.148 153.2 134.798 152.65 138.438Z" fill="#CF6316"/>
</g>
<path d="M145.19 108.399C144.13 107.419 143.07 107.179 141.59 107.739C124.69 114.109 107.43 119.579 91.2403 127.739C90.3503 128.189 89.5504 128.799 88.6904 129.299C85.2704 131.299 84.8204 131.199 83.2604 127.529C79.6304 118.969 75.1804 110.889 69.1904 103.729C68.7704 103.219 68.4103 102.649 68.0503 102.099C65.4103 98.0087 65.6503 97.4487 70.1003 95.5487C81.9303 90.4987 93.6703 85.2487 105.54 80.2987C112.38 77.4487 119.41 75.0187 126.35 72.3887C129.52 79.2587 134.93 84.6487 138.65 91.1687C141.75 96.5787 144.1 102.239 145.19 108.399Z" fill="#CF4517"/>
<path d="M105.79 45.7484C104.16 44.8884 102.55 45.3084 100.97 45.9084C89.9703 50.0584 79.0503 54.3984 68.2803 59.0984C61.8503 61.9084 55.8803 65.4984 49.8003 68.9184C47.4803 70.2284 46.3204 69.6284 44.8304 67.7484C42.4704 64.7584 40.8103 61.3784 38.8303 58.1784C35.3403 52.5084 31.6903 46.9984 26.3403 42.8084C23.6503 40.6984 23.9003 39.8884 27.0203 38.5684C38.8503 33.5584 50.6303 28.4384 62.5203 23.5584C67.8403 21.3784 73.3603 19.6884 78.7803 17.7784C80.0203 17.3384 81.3903 17.1384 82.1703 15.8784C83.7403 18.5984 86.0803 20.5884 88.4303 22.6084C95.9203 29.0184 102.83 35.9084 105.79 45.7484Z" fill="#CF4517"/>
</svg>
