<svg width="149" height="148" viewBox="0 0 149 148" fill="none" xmlns="http://www.w3.org/2000/svg">
<path d="M113.813 0.0162519C133.713 -0.563748 146.123 14.4562 148.293 32.9362C150.613 52.6562 145.163 70.8363 136.283 88.1063C123.473 113.036 104.573 131.776 78.5632 142.756C62.4832 149.546 46.5733 148.726 31.2033 140.306C29.5533 139.396 28.6132 139.396 27.2832 140.826C24.3932 143.916 20.7433 145.156 16.4533 144.786C10.0833 144.236 6.61326 139.976 7.70326 133.726C7.86326 132.806 8.51325 132.016 7.13325 131.276C3.43325 129.296 2.07326 126.016 3.00326 122.016C3.93326 118.016 6.89326 115.676 10.7833 115.276C14.1233 114.936 15.2332 113.746 15.4432 110.386C16.3432 95.4363 24.5833 84.8762 36.3833 76.6162C39.6533 74.3262 42.8433 71.8363 46.3633 70.0163C60.8233 62.5663 69.1333 50.4163 73.6733 35.2263C75.5433 28.9463 77.8132 22.8263 81.3732 17.2763C88.6732 5.88626 98.8632 -0.343748 113.813 0.0162519Z" fill="#BD4018"/>
<path d="M25.2532 141.916C25.0332 142.106 24.8132 142.306 24.5932 142.496C24.2332 142.816 23.8733 143.136 23.5233 143.456C18.2933 146.466 13.1133 146.696 8.00326 143.156C7.46326 142.596 6.91326 142.046 6.37326 141.486C6.15326 141.046 5.92326 140.606 5.70326 140.166C5.43326 138.096 4.98326 135.946 5.79326 133.966C6.46326 132.346 5.31325 132.376 4.49325 131.976C4.22325 131.816 3.95325 131.656 3.68325 131.486C3.24325 131.036 2.80326 130.586 2.37326 130.136C2.18326 129.886 1.99326 129.636 1.79326 129.386C0.323256 126.376 0.393248 123.346 1.72325 120.306C2.50325 119.526 3.28325 118.746 4.05325 117.966C4.85325 117.446 5.64325 116.916 6.44325 116.396C8.57325 115.956 10.6932 115.386 12.9032 115.496C20.0432 116.626 26.3932 118.856 29.7232 126.176C30.8232 128.606 33.1132 130.336 31.6232 133.626C30.5432 136.016 29.5732 138.336 27.6532 140.146C26.3932 140.146 25.9332 141.186 25.2532 141.916Z" fill="#CF4517"/>
<path d="M138.763 31.8261C138.933 36.8761 130.073 39.0561 130.343 32.9861C129.893 28.1661 138.793 25.8961 138.763 31.8261Z" fill="#8E2C14"/>
<path d="M87.9133 64.7164C78.7033 63.7664 91.6533 50.6164 92.8133 60.4264C92.6033 63.2964 91.1633 64.7564 87.9133 64.7164Z" fill="#8E2C14"/>
</svg>
