<svg width="189" height="151" viewBox="0 0 189 151" fill="none" xmlns="http://www.w3.org/2000/svg">
<path d="M187.746 82.2985C188.95 86.52 187.26 90.2893 182.756 93.2957C181.061 94.426 179.207 95.2567 176.998 95.8557C178.495 97.1612 179.868 98.3592 181.242 99.5573C181.886 100.524 182.536 101.49 183.18 102.462C183.18 102.462 183.118 102.405 183.118 102.411C183.564 103.892 183.751 105.378 183.174 106.87C183.174 106.87 183.225 106.808 183.22 106.808C182.445 107.559 181.666 108.311 180.891 109.063L180.976 109.029C180.507 109.102 180.032 109.153 179.772 109.633L179.835 109.566C176.246 110.605 172.59 111.086 168.685 110.837C168.962 112.052 169.289 113.109 168.996 114.2C168.996 114.2 169.052 114.103 169.052 114.109C168.51 114.725 167.973 115.341 167.43 115.957C163.446 118.167 159.671 117.522 156.049 115.092C155.116 114.465 154.24 113.759 153.342 113.086C153.302 112.945 153.206 112.866 153.059 112.838L152.929 112.934C152.76 112.289 152.285 111.996 151.692 111.826C151.692 111.826 151.72 111.928 151.72 111.922C151.505 111.69 151.296 111.464 151.081 111.233C150.923 111.091 150.759 110.956 150.601 110.814C150.335 110.425 150.081 110.018 149.51 110.063L149.567 110.029C149.414 109.277 148.826 108.91 148.25 108.526L148.273 108.548C147.888 108.147 147.504 107.74 147.114 107.339C146.956 107.175 146.798 107.017 146.634 106.853C146.216 106.265 145.763 105.706 145.001 105.542L145.006 105.598C144.989 105.186 144.752 105.022 144.368 105.011L144.407 105.084C144.39 104.66 144.091 104.547 143.746 104.491L143.808 104.519C140.389 102.033 138.62 102.14 134.546 105.073L134.625 105.028C134.145 105.09 133.676 105.163 133.444 105.678L133.5 105.627C132.788 105.824 132.155 106.141 131.726 106.78L131.799 106.734C131.319 106.791 130.884 106.926 130.658 107.412L130.709 107.384C130.409 107.588 130.115 107.785 129.816 107.989C127.832 108.955 126.075 110.244 124.458 111.736C123.95 112.035 123.283 112.165 123.187 112.911C123.187 112.911 123.176 112.855 123.176 112.86C122.661 112.871 122.345 113.148 122.13 113.589L122.192 113.555C120.83 114.256 119.728 115.268 118.785 116.46L118.813 116.426C117.57 116.33 117.643 117.562 117.072 118.144L117.134 118.116C116.931 118.325 116.722 118.528 116.518 118.737L116.569 118.681C116.366 118.884 116.157 119.093 115.953 119.297L116.004 119.246C115.801 119.455 115.597 119.659 115.394 119.868L115.417 119.811C114.801 120.19 114.269 120.631 114.117 121.393L114.168 121.405C112.63 122.06 111.952 123.394 111.427 124.858C108.03 130.339 104.866 135.974 101.023 141.178C99.6836 142.992 98.3838 144.84 96.598 146.253C94.6314 147.807 92.4953 148.141 90.3874 146.615C88.2003 145.032 88.1438 142.874 89.1328 140.585C90.3309 137.799 92.2918 135.499 94.0719 133.091C98.6946 126.841 103.272 120.568 106.917 113.674C107.036 113.527 107.109 113.363 107.126 113.171L107.064 113.199C109.601 109.26 111.732 105.118 113.275 100.682L113.229 100.721C114.411 98.8113 115.224 96.7543 115.66 94.556L115.592 94.5333C117.338 91.3235 118.123 87.7915 118.965 84.2877C119.293 82.9314 118.932 81.6995 117.756 80.8179L117.79 80.8801C117.587 80.671 117.377 80.4562 117.174 80.2471L117.236 80.3093C117.027 80.1058 116.812 79.9024 116.603 79.7046L116.654 79.7555C116.451 79.552 116.242 79.3542 116.038 79.1508L116.078 79.179C115.134 78.1166 113.998 77.3424 112.681 76.8225L112.743 76.8733C111.562 75.6922 110.184 74.788 108.714 74.0138L108.782 74.0534C108.358 73.4487 107.844 72.9627 107.092 72.8045L107.121 72.9006C106.945 72.2563 106.386 72.0077 105.883 71.7025C105.719 71.5612 105.561 71.4143 105.397 71.273C105.177 71.0752 104.956 70.8774 104.73 70.6796L104.77 70.7022C104.549 70.2784 104.244 69.9676 103.73 69.9506L103.786 69.9958C103.266 68.8373 102.294 68.0688 101.373 67.255L101.413 67.2889C100.836 66.5204 100.26 65.7574 99.6836 64.9889L99.7288 65.0454C99.0281 63.6213 98.2708 62.2254 97.6435 60.7731C95.8464 56.6025 95.027 52.398 97.4627 48.1596L97.3892 48.1935C97.5983 47.9844 97.8074 47.7753 98.0165 47.5662L97.96 47.6397C99.9266 46.4699 101.825 46.8937 103.86 48.1992C103.346 43.3335 104.623 39.1742 106.533 35.1618L106.488 35.2296C106.906 35.0036 107.217 34.7041 107.205 34.1842C107.205 34.1842 107.149 34.1842 107.149 34.1785C107.584 34.2181 107.765 34.0034 107.737 33.5852V33.6643C108.239 33.653 108.562 33.3704 108.782 32.9409L108.714 32.9918C110.76 32.2006 112.806 32.065 114.851 33.0031L114.784 32.9635C115.422 33.7152 116.174 34.3142 117.084 34.7041C117.084 34.7041 116.988 34.6589 116.993 34.6589C117.157 35.2353 117.434 35.7157 118.067 35.8795L118.231 35.84L118.067 35.8852C118.073 36.3995 118.395 36.6877 118.807 36.9137L118.762 36.8742C119.079 37.2924 119.395 37.7162 119.711 38.1344L119.762 38.1287C119.937 39.0047 120.356 39.7393 121.039 40.3157L120.989 40.2536C121.073 40.5644 121.079 40.943 121.559 40.9148L121.497 40.9035C122.334 43.0001 123.17 45.0967 124.001 47.1876C123.955 42.4462 124.956 37.9535 125.747 33.4439L125.69 33.523C127.154 30.2736 128.273 26.8602 130.245 23.8538L130.194 23.916C130.76 23.3282 131.325 22.7405 131.89 22.1584L131.85 22.1867C132.065 21.9889 132.28 21.7911 132.489 21.599L132.444 21.6837C134.139 21.113 135.772 19.6945 137.637 21.2486C139.225 22.571 139.315 24.5319 139.937 26.4025C140.338 25.4926 140.74 24.5884 141.141 23.6786L141.259 23.5599C141.259 23.5599 141.197 23.4017 141.192 23.4017C142.09 22.3958 142.989 21.3899 143.322 20.0223L143.311 20.0562C143.757 20.0844 143.887 19.8245 143.887 19.4402L143.831 19.4741C144.266 19.4684 144.385 19.1802 144.418 18.8129L144.345 18.8807C144.972 18.6942 145.283 18.2195 145.492 17.6488L145.424 17.7053C145.633 17.4962 145.843 17.2871 146.052 17.078L145.99 17.1402C146.204 16.9367 146.419 16.7333 146.639 16.5298L146.583 16.6146C147.159 16.2077 147.73 15.8065 148.306 15.3996L148.25 15.4448C153.054 13.5912 155.433 15.1905 155.563 20.4574C155.619 22.7801 155.472 25.114 155.416 27.4423C155.325 27.7475 155.229 28.047 155.139 28.3521C155.048 29.0472 154.958 29.7423 154.868 30.4431C154.353 32.3023 153.845 34.1559 153.263 36.2525C155.02 35.2636 156.489 34.3142 158.06 33.5795C159.982 32.6753 162.112 32.1611 163.909 33.6247C165.763 35.1392 165.407 37.2924 164.831 39.3494C163.604 43.763 161.016 47.4419 158.456 51.1378C158.032 51.7481 157.625 52.3754 157.207 52.997C156.699 53.5282 156.19 54.0594 155.681 54.5907C155.489 54.9015 154.726 55.0428 155.212 55.5175C155.461 55.7548 156.032 55.5062 156.241 55.0315C159.688 53.7769 163.192 53.0536 166.865 53.8334L166.82 53.8051C167.21 54.0199 167.594 54.2346 167.984 54.455C168.148 54.6133 168.312 54.7715 168.476 54.9298C170.256 57.6988 168.267 59.8915 167.357 62.248L167.402 62.1972C166.955 62.4402 166.741 62.8301 166.712 63.3274L166.803 63.2596C166.605 63.4857 166.413 63.7061 166.215 63.9321L166.249 63.8643C165.464 64.4746 164.774 65.1584 164.469 66.1417L164.542 66.0909C163.169 67.0064 161.948 68.0744 161.061 69.4872C161.061 69.4872 161.067 69.4025 161.067 69.4081C160.293 69.928 159.518 70.4423 158.422 71.177C160.061 71.3126 161.129 73.2735 162.401 71.3352L162.361 71.3578C162.937 70.9679 163.514 70.5835 164.096 70.1936L164.056 70.2219C164.65 69.8489 165.249 69.4816 165.842 69.1086L165.763 69.1595C166.221 69.0634 166.696 69.0069 166.944 68.5209L166.882 68.5661C167.34 68.487 167.831 68.47 168.086 67.9671C168.086 67.9671 168.029 68.0292 168.029 68.0236C171.708 66.5599 175.432 66.0852 179.258 67.4302L179.168 67.4359C181.36 70.171 182.598 73.0362 180.371 76.3704L180.405 76.3252C179.959 76.5682 179.738 76.9525 179.716 77.4554L179.592 77.4045C179.021 77.8058 178.45 78.207 177.879 78.6026C180.716 78.6478 183.09 78.9134 185.452 79.3147L185.373 79.326C186.175 80.3093 186.961 81.3039 187.746 82.2985ZM134.749 95.6184L134.715 95.658C137.722 92.4989 137.343 88.3453 137.987 84.4968C138.055 84.1069 137.767 83.8978 137.343 83.7621C135.603 83.2027 129.833 85.0167 128.759 86.5143C125.832 92.3068 123.718 98.4327 120.972 104.847C124.718 102.338 128.007 100.128 131.296 97.9241C132.574 97.3363 133.789 96.6639 134.749 95.6184Z" fill="#7D8F29"/>
<path d="M77.723 35.6592C82.0913 36.1 84.9678 39.0669 86.0924 44.362C86.5162 46.3569 86.601 48.3857 86.341 50.6575C88.1099 49.7476 89.7318 48.9169 91.348 48.0805C92.4839 47.8375 93.6254 47.5945 94.7613 47.3515L94.6878 47.3911C96.2306 47.5211 97.6773 47.8997 98.8528 48.9847L98.8132 48.9169C99.2258 49.9172 99.6383 50.9174 100.051 51.9177V51.8273C99.9435 52.2907 99.8191 52.7541 100.17 53.1722L100.13 53.0931C99.7683 56.8116 98.8641 60.3888 97.1857 63.9208C98.4177 64.113 99.5196 64.2034 100.424 64.8759L100.356 64.7911C100.729 65.5201 101.102 66.2491 101.469 66.9838C102.051 71.5047 100.056 74.7711 96.4567 77.2351C95.5299 77.868 94.5466 78.4162 93.5915 79.0095C93.4446 78.9982 93.3316 79.0547 93.2581 79.1791L93.2977 79.3317C92.6365 79.2525 92.1844 79.586 91.8114 80.072L91.9131 80.0832C91.6192 80.1963 91.331 80.3093 91.0372 80.4223C90.8507 80.5184 90.6586 80.6145 90.4721 80.7106C90.0143 80.8179 89.5396 80.9027 89.3701 81.4452L89.3588 81.3831C88.6015 81.2474 88.0421 81.66 87.4713 82.0499L87.4995 82.0386C86.9853 82.2477 86.4654 82.4568 85.9511 82.6659C85.742 82.7563 85.5329 82.8411 85.3238 82.9315C84.6174 83.1067 83.9393 83.3158 83.5041 83.9657L83.555 83.9826C83.1651 83.847 82.9277 84.0052 82.7751 84.3612L82.8599 84.3556C82.4586 84.2143 82.2439 84.4516 82.0631 84.7511C82.0631 84.7511 82.1139 84.7003 82.1139 84.706C78.5367 86.9608 77.9829 88.6448 79.2036 93.5162L79.1866 93.4258C79.0679 93.8948 78.9606 94.3582 79.3505 94.7651L79.3279 94.6916C79.2488 95.4263 79.311 96.1327 79.7404 96.7656L79.7235 96.6809C79.5991 97.1499 79.5652 97.602 79.9269 97.9919L79.9212 97.9354C80.0004 98.2858 80.0739 98.6361 80.153 98.9865C80.3169 101.185 80.865 103.293 81.6506 105.35C81.741 105.932 81.6166 106.599 82.2722 106.966L82.2157 106.955C82.0348 107.435 82.1761 107.836 82.5095 108.192L82.4982 108.119C82.6452 109.645 83.1764 111.041 83.9336 112.357L83.9166 112.318C83.3685 113.437 84.5383 113.827 84.8661 114.573L84.8604 114.505C84.9791 114.77 85.0921 115.042 85.2108 115.307L85.1769 115.239C85.2899 115.505 85.4086 115.776 85.5216 116.042L85.4934 115.974C85.612 116.24 85.7251 116.505 85.8437 116.771C85.8437 116.771 85.7985 116.731 85.8042 116.731C85.9285 117.443 86.1432 118.105 86.7931 118.523L86.8214 118.478C86.8609 120.15 87.8499 121.275 89.014 122.298C92.8512 127.486 96.9144 132.509 100.328 138.002C101.515 139.918 102.752 141.811 103.402 143.993C104.12 146.394 103.639 148.502 101.441 149.898C99.1636 151.345 97.1405 150.599 95.3773 148.836C93.2298 146.688 91.8227 144.021 90.246 141.472C86.1489 134.866 82.0122 128.288 76.9544 122.354C76.864 122.19 76.734 122.06 76.5645 121.976L76.5701 122.049C73.8519 118.234 70.7889 114.719 67.24 111.651L67.2626 111.707C65.9289 109.905 64.3183 108.39 62.4308 107.169L62.3856 107.22C60.046 104.412 57.0622 102.372 54.1122 100.298C52.9707 99.4951 51.6992 99.3708 50.439 100.139L50.5068 100.134C50.2355 100.247 49.9642 100.36 49.693 100.473L49.7721 100.439C49.5065 100.563 49.2409 100.682 48.9753 100.806L49.0431 100.778C48.7775 100.897 48.5175 101.01 48.2519 101.128L48.2915 101.1C46.9578 101.58 45.8163 102.355 44.8443 103.383L44.9178 103.344C43.3806 104.005 42.0356 104.949 40.7698 106.028L40.8319 105.977C40.1142 106.147 39.4756 106.446 39.0462 107.085L39.1479 107.09C38.4867 107.017 38.0459 107.441 37.5768 107.797C37.3847 107.893 37.1926 107.989 36.9948 108.091C36.7292 108.221 36.4635 108.356 36.1979 108.486L36.2318 108.458C35.7571 108.509 35.3559 108.673 35.1525 109.147L35.2146 109.113C33.9431 109.17 32.875 109.792 31.7787 110.34L31.8296 110.317C30.9028 110.571 29.976 110.82 29.0548 111.074L29.1226 111.052C27.5403 111.176 25.9636 111.363 24.3813 111.408C19.8434 111.538 15.6332 110.741 12.5985 106.91L12.6042 106.989C12.4855 106.717 12.3725 106.446 12.2538 106.175L12.299 106.254C11.9373 103.994 13.0337 102.383 15.0003 100.981C10.2929 99.659 6.90214 96.9352 3.87309 93.6744L3.91828 93.7422C3.86742 93.2675 3.70353 92.8719 3.21188 92.6911L3.18929 92.7419C3.38708 92.352 3.25711 92.1034 2.85023 91.979L2.92366 92.0073C3.09885 91.5326 2.95757 91.1314 2.6411 90.7697L2.66373 90.8545C2.68633 88.6562 3.31925 86.7065 4.9468 85.1581L4.88464 85.2089C5.81709 84.8981 6.65347 84.4177 7.35422 83.717L7.27509 83.7848C7.87412 83.847 8.4223 83.7678 8.80658 83.2366L8.83483 83.0728L8.81789 83.2423C9.29824 83.4288 9.68817 83.2366 10.0442 82.9371L9.99332 82.9654C10.5019 82.8241 11.0105 82.6885 11.5135 82.5472C11.5135 82.5472 11.5248 82.502 11.5248 82.4963C12.4007 82.6546 13.2428 82.5415 14.0283 82.1177L13.9548 82.1403C14.2769 82.1742 14.6273 82.3098 14.7799 81.8577L14.746 81.9086C17.0008 81.9086 19.2556 81.9086 21.5105 81.903C17.0856 80.1906 13.288 77.5967 9.38863 75.195L9.43951 75.2741C6.95863 72.7141 4.20652 70.4141 2.14383 67.4641L2.18336 67.532C1.84428 66.7917 1.51088 66.0513 1.17746 65.3054L1.18877 65.3506C1.08705 65.0793 0.979651 64.8081 0.87793 64.5368L0.940119 64.6103C1.03619 62.8245 0.324134 60.7844 2.45464 59.6203C4.26867 58.6313 6.1279 59.2755 8.09452 59.3886C7.39942 58.6822 6.70433 57.9701 6.00923 57.2637L5.94142 57.1111C5.94142 57.1111 5.77189 57.1112 5.77189 57.1168C5.16721 55.9074 4.56816 54.7037 3.42097 53.89C3.42097 53.89 3.44925 53.9126 3.44925 53.9182C3.64139 53.517 3.44924 53.2966 3.08757 53.1553L3.09888 53.2231C3.25146 52.8162 3.03106 52.6015 2.70329 52.4319L2.7372 52.528C2.79936 51.8781 2.47158 51.4147 2.01948 51.0079L2.04773 51.0926C1.92906 50.8213 1.81604 50.5501 1.69736 50.2788L1.73127 50.358C1.62389 50.081 1.51089 49.8041 1.40352 49.5329L1.46002 49.6176C1.29613 48.9339 1.13226 48.2501 0.974025 47.5663L0.996617 47.6397C1.05313 42.4915 3.42099 40.8752 8.35449 42.7006C10.5359 43.5087 12.6438 44.509 14.7856 45.4188C15.0342 45.6166 15.2772 45.8144 15.5259 46.0122C16.1418 46.3513 16.7522 46.696 17.3682 47.035C18.9053 48.1992 20.4368 49.3633 22.1717 50.6744C21.9004 48.6795 21.567 46.9616 21.4596 45.2267C21.3296 43.1075 21.6404 40.9374 23.6636 39.8072C25.7545 38.643 27.6251 39.7733 29.3261 41.0674C32.9768 43.8421 35.435 47.6058 37.9216 51.3469C38.3341 51.9685 38.7636 52.5789 39.1874 53.1892C39.4926 53.8561 39.7978 54.5285 40.1086 55.1954C40.3233 55.4892 40.1764 56.2522 40.798 55.9752C41.1088 55.834 41.0919 55.2067 40.7245 54.8394C40.8319 51.1717 41.4592 47.651 43.5389 44.5259L43.4936 44.5598C43.8384 44.2773 44.1831 44.0004 44.5278 43.7178C44.7369 43.6217 44.946 43.5313 45.1551 43.4352C48.3876 42.808 49.6873 45.464 51.5353 47.182L51.507 47.1255C51.5692 47.6284 51.8461 47.9732 52.3038 48.1879L52.2756 48.0805C52.4112 48.3461 52.5469 48.6117 52.6825 48.8773L52.6316 48.8208C52.9085 49.7759 53.2872 50.6688 54.0896 51.3187L54.067 51.2282C54.4117 52.8388 54.9486 54.3703 55.9376 55.7153L55.8641 55.6814C56.0563 56.5912 56.254 57.5011 56.5253 58.7895C57.26 57.3202 59.4752 57.049 58.1415 55.1558L58.1472 55.201C58.0003 54.5229 57.8533 53.8391 57.7064 53.161L57.7177 53.2118C57.5934 52.5224 57.4691 51.8273 57.3447 51.1378L57.3617 51.2282C57.4408 50.7648 57.5651 50.3014 57.2035 49.8946L57.2261 49.968C57.3221 49.5103 57.486 49.0469 57.113 48.6287L57.1469 48.7022C57.1469 44.7463 58.0907 41.107 60.7524 38.0497L60.7241 38.1401C64.081 37.1115 67.2004 37.0268 69.4722 40.3271L69.4439 40.2819C69.5061 40.7905 69.7774 41.1352 70.2408 41.3386C70.2408 41.3386 70.1447 41.4347 70.1503 41.4347C70.3142 42.1129 70.4725 42.791 70.6307 43.4691C71.7214 40.847 72.8459 38.7447 74.0949 36.6934L74.0779 36.7725C75.2929 36.3826 76.5079 36.0209 77.723 35.6592ZM70.4894 89.8203L70.512 89.8655C68.6923 85.904 64.6913 84.7229 61.3514 82.6941C61.0123 82.485 60.7128 82.6772 60.4303 83.0219C59.2661 84.4347 58.8197 90.4645 59.8087 92.013C64.1092 96.873 69.0144 101.106 73.9592 106.028C73.0098 101.62 72.1791 97.7489 71.3427 93.8722C71.2862 92.482 71.1111 91.1031 70.4894 89.8203Z" fill="#8C9F27"/>
<path d="M133.354 30.6015C136.976 33.088 138.072 37.0665 136.518 42.2543C135.93 44.2096 135.032 46.0293 133.715 47.8942C135.704 47.945 137.524 47.9902 139.344 48.0411C140.457 48.3745 141.57 48.7079 142.689 49.0413H142.605C143.893 49.8947 144.984 50.9232 145.492 52.4434V52.3642C145.374 53.438 145.255 54.5117 145.136 55.5911L145.181 55.512C144.865 55.868 144.532 56.2127 144.639 56.7496L144.645 56.6592C142.542 59.7447 140.033 62.4517 136.869 64.746C137.858 65.5033 138.779 66.1136 139.248 67.1365L139.231 67.0291C139.208 67.8485 139.18 68.6679 139.157 69.4874C137.496 73.7314 134.179 75.6415 129.838 76.071C128.72 76.1841 127.595 76.1954 126.47 76.2519C126.346 76.1728 126.222 76.1671 126.097 76.2406C126.097 76.2406 126.058 76.3932 126.058 76.3988C125.515 76.0145 124.961 76.088 124.396 76.3366L124.481 76.3932C124.17 76.3536 123.859 76.314 123.549 76.2745C123.34 76.2688 123.125 76.2632 122.91 76.2575C122.458 76.1275 122 75.975 121.593 76.3706L121.616 76.3084C121.023 75.828 120.327 75.9184 119.644 75.9862L119.672 75.9919C119.118 75.9297 118.564 75.8619 118.01 75.7998C117.784 75.7772 117.558 75.7546 117.332 75.732C116.632 75.5455 115.931 75.4042 115.241 75.7659L115.281 75.8054C115.004 75.5003 114.716 75.5229 114.416 75.7602L114.495 75.7941C114.213 75.4777 113.908 75.5794 113.608 75.7602L113.676 75.7432C109.455 76.0089 108.16 77.2182 106.895 82.0726L106.923 81.9878C106.595 82.3382 106.279 82.6999 106.426 83.2424C106.426 83.2424 106.437 83.1633 106.437 83.1689C106.013 83.7736 105.73 84.4235 105.804 85.1864L105.832 85.1016C105.499 85.452 105.25 85.8363 105.38 86.3506L105.403 86.2941C105.301 86.6388 105.199 86.9835 105.103 87.3282C104.193 89.3344 103.656 91.4479 103.363 93.6293C103.159 94.1831 102.73 94.7087 103.131 95.3473L103.086 95.3134C102.696 95.6468 102.628 96.0706 102.747 96.5397L102.775 96.4718C102.17 97.879 101.967 99.3596 102.001 100.88V100.835C100.983 101.552 101.825 102.456 101.752 103.265L101.78 103.202C101.752 103.491 101.729 103.785 101.701 104.073L101.707 103.999C101.679 104.287 101.65 104.581 101.628 104.87L101.633 104.796C101.611 105.084 101.582 105.372 101.56 105.661L101.543 105.604C101.311 106.288 101.181 106.966 101.549 107.65C101.549 107.65 101.594 107.622 101.599 107.622C100.831 109.108 101.159 110.572 101.69 112.03C102.566 118.421 103.719 124.779 104.075 131.238C104.199 133.487 104.374 135.742 103.899 137.969C103.374 140.421 101.944 142.043 99.3446 142.207C96.6546 142.382 95.2362 140.755 94.5354 138.364C93.6821 135.454 93.7273 132.43 93.5691 129.441C93.1509 121.682 92.6762 113.923 91.0882 106.288C91.0882 106.096 91.0373 105.926 90.93 105.768C90.93 105.768 90.9017 105.83 90.8961 105.83C90.3422 101.174 89.342 96.6245 87.7031 92.2278L87.6918 92.29C87.3866 90.0634 86.6972 87.9668 85.6348 85.9889L85.567 86.0115C84.8662 82.423 83.2217 79.2018 81.6337 75.9693C81.0178 74.7147 79.961 73.997 78.486 74.0649L78.5482 74.0931C78.2543 74.0592 77.9604 74.031 77.6722 73.997L77.757 74.0027C77.4632 73.9801 77.1749 73.9631 76.8811 73.9405C76.8811 73.9405 76.9545 73.9518 76.9545 73.9462C76.6663 73.9236 76.3781 73.901 76.0956 73.8727L76.1408 73.867C74.7393 73.6523 73.366 73.7766 72.021 74.2118H72.1002C70.4387 74.0536 68.7998 74.24 67.1723 74.5791L67.2514 74.5678C66.5394 74.37 65.8386 74.3248 65.1549 74.6808L65.2396 74.7374C64.6914 74.3531 64.1037 74.517 63.5216 74.6017C63.3069 74.5961 63.0865 74.5848 62.8717 74.5791C62.5722 74.5678 62.2784 74.5565 61.9845 74.5452L62.0297 74.5395C61.5889 74.3531 61.1594 74.3079 60.7525 74.6243H60.826C59.6845 74.0648 58.4469 74.0931 57.2205 74.0535H57.2771C56.3446 73.8331 55.4122 73.6071 54.4797 73.3867L54.5475 73.4037C53.1008 72.7538 51.6258 72.1604 50.2187 71.4427C46.1724 69.3744 42.8665 66.6561 42.0414 61.8357L42.0075 61.9091C42.0358 61.6153 42.0641 61.3214 42.0923 61.0275V61.1179C42.8609 58.9648 44.5958 58.0776 46.9975 57.7894C43.4995 54.3704 41.8324 50.3524 40.7473 46.0406L40.7529 46.1197C40.9338 45.6789 40.9847 45.2494 40.6399 44.8595L40.5947 44.8934C40.9564 44.6447 40.9621 44.3678 40.6682 44.0626L40.719 44.1248C41.0977 43.7914 41.1655 43.3732 41.0638 42.8985L41.0412 42.9833C42.1149 41.0675 43.6068 39.6603 45.7769 39.0783L45.6977 39.0896C46.6697 39.2648 47.6305 39.2422 48.5799 38.9653L48.4782 38.9879C48.9755 39.3269 49.4897 39.5191 50.0831 39.2422L50.1848 39.1122L50.0887 39.2535C50.4222 39.649 50.8516 39.666 51.315 39.5756H51.2585C51.7728 39.6999 52.2814 39.8186 52.7956 39.9429C52.7956 39.9429 52.8296 39.909 52.8296 39.9034C53.5247 40.4628 54.3102 40.768 55.2087 40.7736L55.1296 40.7567C55.3952 40.9432 55.6382 41.2314 55.9942 40.9036L55.9377 40.9319C57.9157 42.0113 59.8992 43.0963 61.8771 44.1757C58.8198 40.5532 56.7289 36.4505 54.4628 32.472L54.4684 32.5681C53.5247 29.1322 52.2136 25.7923 51.8123 22.2151C51.8123 22.2151 51.818 22.2942 51.8123 22.2942C51.8745 21.4805 51.9367 20.6723 51.9932 19.8586L51.9762 19.9038C52.0158 19.6155 52.0553 19.3273 52.0949 19.0391L52.1119 19.1352C53.0556 17.6094 53.406 15.4845 55.836 15.4845C57.9043 15.4902 59.2211 16.9482 60.8938 17.988C60.6226 17.033 60.357 16.0779 60.0857 15.1229L60.1027 14.9533C60.1027 14.9533 59.9557 14.8742 59.9501 14.8742C60.0009 13.5236 60.0518 12.1786 59.4358 10.9127L59.4471 10.9466C59.8088 10.6867 59.7466 10.4041 59.498 10.1046L59.4754 10.1667C59.8031 9.88419 59.7127 9.58467 59.5093 9.28516L59.4923 9.38122C59.854 8.83871 59.7918 8.2736 59.5941 7.70283L59.5771 7.78758C59.6053 7.49372 59.6336 7.19986 59.6619 6.90599L59.6506 6.99078C59.6901 6.69691 59.724 6.40305 59.7579 6.10919L59.7692 6.21091C59.9557 5.53276 60.1422 4.85463 60.323 4.17649L60.3061 4.24996C62.8265 -0.237095 65.6804 -0.525331 69.1333 3.44746C70.6591 5.20499 72.0267 7.09249 73.4734 8.92348C73.5977 9.21734 73.7164 9.50554 73.8351 9.7994C74.2081 10.3928 74.5867 10.9862 74.9597 11.5795C75.7508 13.3371 76.5364 15.0946 77.4292 17.0782C78.1526 15.1963 78.6782 13.5292 79.4185 11.9582C80.3227 10.0368 81.6337 8.27925 83.9564 8.26229C86.3525 8.24534 87.4432 10.1328 88.3191 12.0825C90.1897 16.2644 90.54 20.7515 90.9243 25.2272C90.9865 25.9675 91.0712 26.7078 91.1447 27.4538C91.0938 28.1884 91.043 28.9231 90.9865 29.6521C91.0317 30.0137 90.5344 30.6128 91.2182 30.6637C91.5629 30.6919 91.8454 30.1324 91.6985 29.6351C93.5521 26.4705 95.79 23.6788 99.1185 21.9382L99.0677 21.9495C99.5028 21.8704 99.938 21.7856 100.379 21.7065C100.605 21.7234 100.837 21.7404 101.063 21.7574C104.199 22.7576 104.063 25.7132 104.86 28.1093V28.0415C104.674 28.5162 104.753 28.9513 105.047 29.3526L105.075 29.2452C105.064 29.5447 105.058 29.8386 105.052 30.1381L105.035 30.0646C104.821 31.0366 104.725 32.003 105.114 32.958L105.137 32.8676C104.662 34.4499 104.402 36.0492 104.623 37.705C104.623 37.705 104.572 37.6372 104.572 37.6429C104.306 38.5358 104.041 39.423 103.662 40.6889C105.013 39.7508 107.087 40.5758 106.827 38.2758L106.81 38.3154C107.008 37.6485 107.205 36.9817 107.403 36.3149L107.392 36.3657C107.612 35.6989 107.838 35.032 108.059 34.3708L108.03 34.4612C108.324 34.0939 108.652 33.7492 108.533 33.218L108.516 33.2914C108.822 32.9354 109.189 32.6077 109.059 32.0651L109.053 32.1443C110.952 28.6744 113.523 25.9336 117.327 24.5321L117.259 24.5943C120.695 25.3063 123.47 26.7247 123.882 30.7088L123.876 30.6523C123.684 31.127 123.763 31.5622 124.069 31.9634L123.939 32.003C123.758 32.6755 123.571 33.348 123.385 34.0205C125.6 32.246 127.595 30.9406 129.675 29.7425C129.675 29.7425 129.624 29.799 129.624 29.8047C130.878 30.0759 132.116 30.3415 133.354 30.6015ZM101.012 74.6469V74.6978C101.317 70.3464 98.3726 67.3908 96.4173 64.0114C96.2195 63.6667 95.8635 63.6893 95.4509 63.8531C93.7499 64.5313 90.4665 69.6061 90.5909 71.4427C92.0263 77.772 94.3037 83.8358 96.276 90.5325C97.5588 86.2093 98.689 82.4117 99.8136 78.6141C100.43 77.3595 100.938 76.071 101.012 74.6469Z" fill="#889828"/>
</svg>
