<svg width="251" height="129" viewBox="0 0 251 129" fill="none" xmlns="http://www.w3.org/2000/svg">
<path d="M181.352 110.906C177.693 113.638 173.929 111.871 170.319 110.192C159.515 107.846 148.881 107.61 138.562 109.838C117.27 109.266 123.38 112.876 133.39 100.541C124.297 101.059 103.274 119.391 96.6133 115.321C106.609 107.916 120.066 102.127 131.584 97.4545C119.57 88.6907 101.594 116.562 73.454 109.608C67.208 109.659 61.6187 106.252 56.6436 103.77C45.8614 106.542 34.8522 99.0039 25.3409 98.2837C21.8729 100.686 17.1249 96.8584 19.5398 93.1392C12.8761 92.0861 5.55279 88.9691 3.17725 82.1844C13.7144 83.6552 57.9207 65.5768 27.5379 62.593C14.25 65.7463 27.8799 59.4882 28.3035 54.15C36.3138 43.4252 50.6821 36.6103 63.4616 32.1891C65.2047 24.085 42.4569 37.4304 50.3643 29.4504C53.6507 26.0671 65.356 16.0293 66.9175 24.1667C70.3038 31.7594 77.146 50.4823 85.5406 48.0553C62.2663 13.8293 64.7931 -6.30081 86.2456 46.1972C90.1827 39.3853 84.321 31.5475 81.773 25.1562C81.0194 23.6795 81.0739 23.4525 82.6687 23.1923C90.4732 21.5944 97.966 18.5955 104.297 13.7294C108.582 10.1162 103.634 5.27127 99.4065 4.8809C104.421 4.11528 105.843 5.35298 109.574 1.95459C119.564 4.15764 129.272 7.72853 138.538 12.0983C169.608 29.4837 119.467 6.66029 111.324 6.06716C102.66 11.8653 154.395 32.6309 151.983 17.6029C151.048 14.9187 148.993 13.1847 146.948 11.2722C156.771 12.7096 170.122 15.5482 175.996 24.3785C164.787 23.9095 147.689 20.7199 139.282 29.5109C151.293 28.591 163.949 26.8267 176.247 28.2218C178.175 28.9844 179.53 28.7907 181.152 27.1444C184.36 25.7312 186.127 29.7379 185.096 31.8168C178.017 30.8515 119.461 29.6743 148.361 37.1369C155.282 31.9318 165.462 39.2794 174.095 34.8007C189.072 29.0993 205.767 42.6051 210.207 56.7222C201.422 48.7755 190.276 35.9536 177.606 37.2458C185.595 43.4071 195.4 48.5092 202.665 56.0867C207.25 58.9404 215.291 72.8245 212.603 60.8015C217.654 69.8528 215.726 69.0357 226.333 71.4657C231.72 72.2253 230.561 78.9131 229.85 76.7646C220.441 79.1492 207.45 85.7886 197.249 90.7092C201.443 91.4748 206.415 87.0626 210.037 89.1446C213.224 89.7711 216.537 86.0156 219.915 85.9036C212.261 93.6325 202.75 98.0567 192.552 101.243C179.176 107.84 167.084 96.3893 152.97 99.3943C118.169 106.424 178.144 101.08 181.352 110.906ZM197.424 72.7973C186.969 69.7711 173.136 84.0304 168.715 92.6732C173.215 100.118 202.941 78.432 197.424 72.7973ZM137.167 71.0935C134.64 58.4895 116.32 42.9683 121.047 29.3142C126.164 38.777 128.397 51.7442 135.92 61.1253C137.403 63.3526 140.602 64.6115 139.797 68.1884C141.461 63.6219 141.159 58.3836 139.767 53.7687C114.985 -4.76654 107.656 52.2132 137.167 71.0935ZM69.3475 100.656C82.9986 104.236 100.541 98.1051 113.902 92.5582C122.327 83.979 105.226 81.9212 99.3399 84.4238C90.7516 87.0687 70.7274 89.2052 69.1084 96.6738C130.01 79.821 123.065 89.6591 69.3475 100.656ZM153.502 38.4865C158.934 42.5961 185.716 65.3166 178.986 69.4019C169.883 60.5988 163.701 47.1353 151.269 41.5399C148.113 43.5917 155.524 50.3975 157.261 53.221C196.477 100.938 181.945 41.1768 153.502 38.4865ZM45.9128 92.3857C55.7146 87.5166 65.3257 75.3695 76.3228 75.2333C74.8188 80.7137 46.1186 91.6806 49.0843 97.2275C97.3971 81.8304 72.1679 54.9126 45.9128 92.3857ZM121.921 73.9381C117.751 75.3211 132.274 78.5349 134.108 79.9057C138.943 82.5809 150.025 84.2725 150.388 90.2946C140.284 87.9402 128.785 79.7696 117.675 76.7313C110.391 76.0504 131.248 87.6527 133.605 89.0115C173.257 101.134 141.652 71.9318 121.921 73.9381ZM176.398 41.0376C181.37 53.5841 194.498 60.2447 204.999 67.6074C219.424 70.8302 180.91 42.6596 176.398 41.0376ZM31.5264 56.1684C43.3799 54.6463 61.9122 43.2981 64.6781 34.7522C60.3023 37.158 26.8147 52.5794 31.5264 56.1684ZM164.675 84.1121C162.808 55.0578 128.854 51.7926 157.291 84.327C170.394 91.6049 144.039 66.3697 149.411 63.2285C152.945 64.1152 154.649 71.1329 157.648 73.9018C159.815 76.7555 163.104 79.9814 164.675 84.1121ZM112.492 52.8366C101.576 54.5918 85.7978 68.0038 84.0002 77.2609C93.1998 71.9984 100.172 63.634 109.647 58.5228C112.268 56.6103 120.302 52.7156 112.492 52.8366ZM55.2213 70.3521C45.3863 73.7354 33.448 86.7025 23.5101 94.0259C22.4146 104.142 53.8475 75.545 55.2213 70.3521ZM88.597 80.9891C99.7303 79.2188 112.47 68.8269 116.123 58.4895C112.84 62.1996 82.2753 78.5107 88.597 80.9891ZM51.0906 54.4375C63.7703 54.5797 76.7616 55.5027 88.5576 59.3157C86.9205 47.671 59.1644 48.5485 51.0906 54.4375ZM85.0412 62.0755C81.3432 60.744 45.6284 55.4815 53.3421 60.626C62.935 62.9834 76.4893 68.8209 85.0412 62.0755ZM93.3571 35.8689C97.9025 29.4958 107.123 23.3708 114.552 18.6863C110.864 12.6461 87.8102 28.4427 93.3571 35.8689ZM226.276 74.507C216.531 73.1907 199.679 78.5742 195.478 87.9644C205.74 84.5993 215.796 78.1203 226.276 74.507ZM50.5217 67.0233C40.5505 70.573 24.0457 82.2904 22.5387 90.8211C32.861 83.4645 42.7202 69.5653 55.0791 68.3488C54.4436 66.1124 51.9652 67.4107 50.5217 67.0233ZM97.9025 37.0551C106.17 37.0551 117.382 28.7362 117.866 20.6745C110.5 24.8203 104.161 31.2419 97.9025 37.0551ZM97.2518 50.4066C124.469 45.5163 101.11 30.6851 93.4812 47.4349C97.1974 46.4938 104.282 39.7394 107.187 42.2299C108.464 46.7934 91.1571 49.299 97.2518 50.4066Z" fill="#A65117"/>
<path d="M101.201 4.49959C107.777 10.1162 108.485 13.0455 94.5795 19.4731C91.4565 21.9727 81.3007 21.4159 81.7607 25.1472C84.3027 31.5384 90.1855 39.3823 86.2394 46.1912C81.4157 35.1698 76.1895 24.0123 70.4821 13.454C63.7277 11.2207 83.1224 47.7496 85.9186 48.3851C75.4935 49.2809 64.0243 22.9108 65.3588 14.5102C66.4997 12.183 68.8419 11.3236 70.9391 12.8972C80.2688 11.5475 89.8224 2.45389 101.201 4.49959ZM101.915 8.41545C98.4772 8.43058 72.0648 15.4755 79.1672 17.3971C86.4966 18.1053 94.0378 12.6309 101.827 11.95C104.121 11.9833 103.234 8.82701 101.915 8.41545Z" fill="#CF731B"/>
<path d="M147.51 11.0603C166.33 33.9865 116.504 18.3261 110.122 8.42145C108.373 0.299205 142.448 18.0114 147.277 19.3641C153.148 14.5979 115.572 3.29511 109.568 1.95452C122.342 -1.88266 136.341 5.30449 147.51 11.0603Z" fill="#CF731B"/>
<path d="M20.5927 63.9787C51.1117 58.7525 35.5995 76.0743 16.8917 79.6392C-13.146 88.9235 3.50394 67.6343 20.5927 63.9787ZM32.301 66.1213C27.3139 67.9612 -3.95557 75.6022 3.39803 80.7709C5.91883 77.6025 40.8197 66.899 32.301 66.1213Z" fill="#CF731B"/>
<path d="M222.871 118.862C213.805 116.87 201.882 114.319 196.08 106.488C195.654 92.2645 244.575 116.029 222.871 118.862ZM198.205 104.557C189.181 106.006 225.186 118.048 225.434 115.621C219.657 109.138 206.648 108.17 198.205 104.557Z" fill="#CF731B"/>
<path d="M181.352 110.906C172.232 101.265 152.692 106.173 142.288 103.332C144.252 95.4363 188.691 98.3444 181.352 110.906Z" fill="#CF731B"/>
<path d="M212.591 60.7982C215.272 72.8182 207.238 58.9402 202.65 56.0834C195.381 48.5059 185.585 43.4008 177.59 37.2425C191.396 36.5223 204.871 50.2671 212.591 60.7982Z" fill="#CF731B"/>
<path d="M185.61 32.8669C174.474 34.3134 163.682 38.4713 152.655 34.6614C148.046 37.972 143.355 37.2548 138.607 33.4842C151.629 29.6894 167.226 30.9089 180.771 31.6655C184.524 33.5477 186.418 31.0935 184.696 27.7314C187.429 29.1084 188.924 31.2358 185.61 32.8669Z" fill="#CF731B"/>
<path d="M48.2068 32.8306C51.6899 31.4416 64.1124 26.394 63.4587 32.1861C50.6913 36.6073 36.2958 43.4253 28.2976 54.147C20.475 56.3924 42.8112 33.3754 48.2068 32.8306Z" fill="#CF731B"/>
<path d="M222.768 98.5922C222.502 89.4622 240.74 89.3775 248.055 90.3156C259.539 96.1258 230.285 103.643 224.847 99.9691C220.259 96.8733 248.206 98.3228 248.046 91.3384C245.709 89.1747 243.522 92.0647 241.588 92.7002C235.711 95.3511 226.151 93.1087 222.768 98.5922Z" fill="#CF731B"/>
<path d="M182.913 26.8296C169.813 29.6651 153.457 26.7993 139.27 29.5138C149.665 20.3324 170.337 22.5021 182.913 26.8296Z" fill="#CF731B"/>
<path d="M99.6727 108.863C106.557 105.495 128.007 88.264 130.416 98.0113C123.213 97.8903 85.713 124.775 99.6727 108.863Z" fill="#CF731B"/>
<path d="M97.5273 116.679C109.517 113.118 120.614 105.141 132.428 100.423C133.073 107.168 105.922 120.099 97.5273 116.679Z" fill="#CF731B"/>
<path d="M229.834 76.7612C226.524 83.7668 218.069 86.1121 211.414 89.2321C207.501 87.5314 203.918 90.2973 199.488 90.3306C197.351 89.2321 222.759 78.6586 229.834 76.7612Z" fill="#CF731B"/>
<path d="M144.681 109.465C153.496 105.815 166.379 109.289 175.394 112.201C171.218 113.889 152.622 113.753 144.681 109.465Z" fill="#CF731B"/>
<path d="M174.758 126.627C166.218 121.322 186.751 123.222 190.261 122.193C192.564 121.065 196.459 119.573 197.391 123.885C190.591 126.282 182.196 125.359 174.758 126.627Z" fill="#A65117"/>
<path d="M222.769 98.5923C226.149 93.1089 235.715 95.3513 241.585 92.6973C243.029 91.5897 249.314 88.5605 247.859 93.006C240.656 96.7342 230.736 98.3653 222.769 98.5923Z" fill="#A65117"/>
<path d="M174.758 126.627C182.193 125.359 190.594 126.282 197.391 123.882C194.186 130.89 181.058 128.143 174.758 126.627Z" fill="#CF731B"/>
<path d="M192.313 120.586C188.397 125.525 177.385 120.356 172.074 124.272C175.657 119.343 186.161 119.951 192.313 120.586Z" fill="#CF731B"/>
<path d="M124.136 109.801C125.05 109.765 125.97 109.559 126.86 109.946C125.949 109.928 125.032 110.067 124.136 109.801Z" fill="#CF731B"/>
<path d="M219.866 85.8761C219.821 85.4373 219.866 85.1165 220.417 85.4615C220.232 85.5977 220.051 85.7369 219.866 85.8761Z" fill="#A65117"/>
<path d="M137.167 71.0938C107.605 52.1258 115.04 -4.70268 139.767 53.769C141.162 58.39 141.458 63.6162 139.797 68.1887C140.602 64.6118 137.4 63.3529 135.918 61.1256C128.394 51.7445 126.161 38.7743 121.047 29.3145C116.332 42.9958 134.625 58.4596 137.167 71.0938Z" fill="#CF731B"/>
<path d="M69.3474 100.656C123.322 89.5802 129.762 79.8783 69.1113 96.6796C70.7576 89.1898 90.7212 87.0836 99.3367 84.4206C105.217 81.921 122.342 83.9757 113.905 92.558C100.556 98.1049 82.9863 104.239 69.3474 100.656Z" fill="#CF731B"/>
<path d="M153.503 38.4863C184.475 43.3585 195.388 101.63 155.4 51.0419C151.091 46.1062 146.812 37.0247 156.629 44.7566C163.752 50.8936 170.231 57.3757 174.928 65.5221C194.459 81.0404 159.5 39.5425 153.503 38.4863Z" fill="#CF731B"/>
<path d="M45.9131 92.3858C72.265 54.8552 97.3126 81.9001 49.0845 97.2277C46.1824 91.6232 74.7434 80.7714 76.3231 75.2335C65.3169 75.3757 55.7239 87.5106 45.9131 92.3858Z" fill="#CF731B"/>
<path d="M121.921 73.938C141.682 71.9438 173.23 101.131 133.602 89.0144C131.181 87.6254 110.479 76.1017 117.673 76.7281C128.776 79.7664 140.293 87.9431 150.386 90.2975C150.022 84.2663 138.944 82.5838 134.108 79.9026C132.21 78.4924 117.836 75.3754 121.921 73.938Z" fill="#CF731B"/>
<path d="M197.424 72.7972C202.947 78.4077 173.263 100.105 168.718 92.6761C173.139 84.0454 186.926 69.7649 197.433 72.8062C158.044 92.552 170.479 102.705 197.424 72.7972Z" fill="#CF731B"/>
<path d="M176.398 41.0376C180.792 42.5749 219.47 70.8545 204.999 67.6104C194.501 60.2508 181.364 53.5811 176.398 41.0376Z" fill="#CF731B"/>
<path d="M31.5263 56.1687C26.8387 52.5675 60.2083 37.2036 64.6749 34.7524C61.8757 43.3195 43.4131 54.6253 31.5263 56.1687Z" fill="#CF731B"/>
<path d="M164.675 84.1119C161.001 76.4194 155.031 71.6956 151.018 63.8669C142.92 61.4308 157.276 78.0808 158.517 81.1191C158.753 82.7138 162.436 84.9865 161.359 85.7673C154.132 84.699 150.752 75.3602 147.577 69.5439C146.99 64.6748 142.412 63.6399 148.285 60.7378C157.494 62.4355 165.495 74.5977 164.675 84.1119Z" fill="#CF731B"/>
<path d="M112.491 52.8364C120.287 52.7244 112.279 56.6009 109.647 58.5225C100.169 63.6337 93.1995 71.9981 84.0029 77.2636C85.8096 67.9914 101.558 54.6067 112.491 52.8364Z" fill="#CF731B"/>
<path d="M55.2214 70.3521C53.899 75.4844 22.4268 104.151 23.5072 94.0288C33.427 86.7146 45.4045 73.7172 55.2214 70.3521Z" fill="#CF731B"/>
<path d="M88.5972 80.9889C82.1878 78.5983 112.864 62.1631 116.117 58.4863C112.471 68.8268 99.7365 79.2186 88.5972 80.9889Z" fill="#CF731B"/>
<path d="M51.0903 54.4374C59.1157 48.5515 86.9414 47.6709 88.5574 59.3125C76.7583 55.5026 63.773 54.5796 51.0903 54.4374Z" fill="#CF731B"/>
<path d="M85.0411 62.0755C76.4891 68.8238 62.9349 62.9863 53.3419 60.629C45.6434 55.4875 81.2463 60.7258 85.0411 62.0755Z" fill="#CF731B"/>
<path d="M93.357 35.8687C87.807 28.4516 110.857 12.6459 114.552 18.6861C107.123 23.3706 97.8993 29.4956 93.357 35.8687Z" fill="#CF731B"/>
<path d="M226.276 74.5071C215.799 78.1173 205.74 84.6024 195.481 87.9675C199.679 78.5773 216.525 73.1907 226.276 74.5071Z" fill="#CF731B"/>
<path d="M50.5216 67.023C51.962 67.4104 54.4586 66.1091 55.079 68.3485C42.7141 69.568 32.8669 83.4582 22.5386 90.8178C24.0698 82.2689 40.5261 70.5909 50.5216 67.023Z" fill="#CF731B"/>
<path d="M97.9023 37.055C104.16 31.2447 110.506 24.8171 117.866 20.6743C117.373 28.7391 106.179 37.0489 97.9023 37.055Z" fill="#CF731B"/>
<path d="M97.2516 50.4065C91.1538 49.3049 108.461 46.7902 107.183 42.2297C104.275 39.7362 97.2031 46.4906 93.481 47.4317C101.134 30.6728 124.448 45.5343 97.2516 50.4065Z" fill="#CF731B"/>
<path d="M229.765 76.7008C229.843 76.5828 229.88 76.256 230.013 76.4406C229.937 76.5283 229.88 76.8491 229.765 76.7008Z" fill="#CF731B"/>
<path d="M101.915 8.41553C103.22 8.83314 104.133 11.9804 101.827 11.9501C94.0411 12.631 86.4939 18.1053 79.1675 17.3972C72.0711 15.4786 98.42 8.44276 101.915 8.41553Z" fill="#A65117"/>
<path d="M32.3012 66.1216C40.9864 66.7994 5.80712 77.6785 3.40434 80.7743C-3.95531 75.6086 27.2657 67.9766 32.3012 66.1216Z" fill="#A65117"/>
<path d="M198.205 104.557C206.639 108.164 219.664 109.141 225.438 115.617C225.501 118.114 189.084 106.003 198.205 104.557Z" fill="#A65117"/>
<path d="M197.424 72.7973C193.339 80.7864 182.048 85.5102 174.903 91.4415C163.909 93.4902 194.226 72.0831 197.424 72.7973Z" fill="#A65117"/>
</svg>
