<svg width="247" height="198" viewBox="0 0 247 198" fill="none" xmlns="http://www.w3.org/2000/svg">
<path d="M96.9816 150.731C91.0416 154.741 84.9916 158.701 77.5516 158.931C69.6616 159.171 61.6916 159.201 55.0516 153.751C59.1916 149.071 59.3615 147.961 54.9715 143.451C48.6115 136.931 46.5416 128.681 46.2516 120.211C45.7116 104.881 50.1015 90.7508 58.8415 78.0508C60.5315 75.5908 62.0915 73.0308 63.5315 70.4108C64.3615 68.9008 64.5816 67.1608 63.0616 65.8508C61.6516 64.6408 60.1715 64.5708 58.5115 65.6808C56.2815 67.1808 54.3815 68.8608 52.7615 71.0808C45.1615 81.4908 40.6116 93.2008 38.4216 105.741C37.3816 111.711 35.5116 117.651 36.3116 123.931C37.7816 135.381 42.1616 145.221 51.1216 152.771C41.9916 157.741 32.9415 155.811 24.5115 151.461C-5.45848 135.991 -5.50846 101.551 11.5315 78.8008C18.4315 69.5908 27.7416 63.2908 37.7416 57.7708C53.1216 49.2708 62.1215 36.6108 62.1515 18.4208C62.1615 15.1208 62.7915 11.8308 63.1315 8.53084C63.3215 6.70084 64.4315 5.36084 65.8815 4.57084C72.2115 1.12084 78.7516 -0.679157 85.9316 2.12084C90.1716 3.77084 92.2815 6.38085 92.1515 11.1308C91.9515 18.0908 91.8115 25.0608 93.6415 31.9408C96.4915 42.6508 103.362 50.2808 111.972 56.5908C124.122 65.5008 134.872 75.8208 143.652 88.0708C145.642 90.8408 146.102 90.1508 148.012 87.9108C158.972 75.0708 161.232 60.4408 157.812 44.4308C157.152 41.3508 156.652 38.2408 156.212 35.1208C155.722 31.7108 156.872 28.9708 159.702 26.8608C168.262 20.4908 177.132 22.9508 181.312 32.8208C183.462 37.9108 184.852 43.2208 185.812 48.6008C187.412 57.5808 192.682 63.9008 199.742 69.0308C214.052 79.4308 227.352 90.7608 236.982 105.961C249.202 125.251 249.682 148.291 237.352 166.041C230.542 175.841 221.272 182.251 209.312 184.371C207.822 184.631 206.332 184.871 205.022 183.791C207.332 179.961 210.162 176.341 211.842 172.251C218.122 157.041 218.712 141.251 214.822 125.421C213.802 121.251 213.752 116.381 210.022 113.151C208.372 111.721 206.732 110.301 204.262 111.591C201.552 113.001 201.932 115.351 202.282 117.671C202.402 118.471 202.932 119.191 203.182 119.981C207.602 133.921 210.062 147.911 205.732 162.461C203.542 169.831 199.522 176.381 197.092 183.611C191.042 185.751 187.162 191.221 181.212 193.671C164.342 200.601 149.822 198.441 136.102 187.181C134.542 185.901 133.222 184.571 130.952 184.641C116.922 185.101 104.862 172.451 105.102 156.371C105.122 155.041 105.192 153.711 105.242 152.381C107.182 147.281 109.142 142.191 111.062 137.091C112.272 133.901 115.102 131.601 115.132 127.661C115.202 117.191 115.322 106.711 112.912 96.4708C111.472 90.3408 109.572 84.2608 105.642 79.1408C104.262 77.3508 102.332 76.1808 99.9816 77.3308C97.5616 78.5108 96.7715 80.5908 97.4515 83.1708C97.7915 84.4508 98.3315 85.6808 98.7115 86.9608C103.432 102.791 104.652 118.921 101.982 135.181C101.122 140.481 98.6916 145.551 96.9816 150.731ZM173.062 112.921C173.062 111.091 173.182 109.241 173.042 107.421C172.712 103.271 170.392 102.021 166.532 103.651C163.742 104.831 163.262 107.161 163.092 109.741C161.562 133.661 152.562 153.721 132.992 168.411C128.912 171.471 128.752 173.621 132.302 178.161C134.842 181.411 137.382 178.991 139.642 177.551C163.262 162.481 170.622 138.961 173.062 112.921Z" fill="#F9D68E"/>
<path d="M51.1315 152.761C42.1715 145.211 37.7915 135.371 36.3215 123.921C35.5115 117.631 37.3816 111.701 38.4316 105.731C40.6216 93.1911 45.1715 81.4811 52.7715 71.0711C54.3915 68.8511 56.2915 67.1711 58.5215 65.6711C60.1715 64.5611 61.6615 64.6311 63.0715 65.8411C64.5915 67.1511 64.3616 68.8911 63.5416 70.4011C62.1016 73.0211 60.5516 75.5811 58.8516 78.0411C50.1016 90.7511 45.7215 104.881 46.2615 120.201C46.5615 128.671 48.6216 136.911 54.9816 143.441C59.3716 147.941 59.2016 149.061 55.0616 153.741C53.7516 153.421 52.4415 153.091 51.1315 152.761Z" fill="#F6C15A"/>
<path d="M96.9816 150.731C98.6916 145.551 101.112 140.491 101.992 135.171C104.662 118.911 103.442 102.781 98.7216 86.951C98.3416 85.681 97.8015 84.451 97.4615 83.161C96.7815 80.581 97.5716 78.501 99.9916 77.321C102.352 76.171 104.282 77.341 105.652 79.131C109.582 84.251 111.482 90.331 112.922 96.461C115.342 106.701 115.212 117.181 115.142 127.651C115.112 131.591 112.282 133.881 111.072 137.081C109.142 142.181 107.192 147.281 105.252 152.371C102.302 152.791 99.6116 151.941 96.9816 150.731Z" fill="#F6C15A"/>
<path d="M197.102 183.591C199.522 176.361 203.542 169.821 205.742 162.441C210.072 147.891 207.622 133.901 203.192 119.961C202.942 119.171 202.412 118.441 202.292 117.651C201.942 115.331 201.562 112.981 204.272 111.571C206.742 110.281 208.382 111.701 210.032 113.131C213.762 116.361 213.802 121.241 214.832 125.401C218.722 141.231 218.132 157.021 211.852 172.231C210.162 176.321 207.332 179.931 205.032 183.771C202.382 183.721 199.742 183.661 197.102 183.591Z" fill="#F6C15A"/>
<path d="M173.062 112.921C170.622 138.961 163.262 162.481 139.642 177.561C137.382 179.001 134.842 181.431 132.302 178.171C128.752 173.621 128.912 171.481 132.992 168.421C152.562 153.741 161.562 133.671 163.092 109.751C163.262 107.171 163.742 104.831 166.532 103.661C170.392 102.031 172.712 103.271 173.042 107.431C173.182 109.241 173.062 111.081 173.062 112.921Z" fill="#F6C15A"/>
</svg>
