<svg width="183" height="91" viewBox="0 0 183 91" fill="none" xmlns="http://www.w3.org/2000/svg">
<path d="M0.0290527 53.9567C48.2691 106.247 141.219 99.8467 182.469 48.6067C146.689 -17.2033 31.9791 -9.25328 0.0290527 53.9567Z" fill="#8E2C14"/>
<path d="M107.689 43.4968C100.929 42.7068 93.099 38.7868 86.379 32.7568C83.769 30.4168 82.289 27.1468 83.779 23.4068C85.279 19.6468 88.479 18.3468 92.169 17.7868C101.779 16.3468 109.789 20.0968 116.999 25.8368C120.569 28.6768 123.189 32.4068 121.569 37.4068C120.219 41.5268 116.239 43.5068 107.689 43.4968Z" fill="#CF4517"/>
<path d="M137.689 30.4868C147.489 32.1068 155.689 36.8468 161.509 45.1068C163.939 48.5468 164.169 52.7868 161.269 56.2968C158.599 59.5168 154.949 60.5968 150.779 59.6268C141.429 57.4468 134.659 51.4868 128.889 44.3068C126.849 41.7668 126.839 38.4268 128.519 35.4868C130.449 32.0768 133.789 30.9568 137.689 30.4868Z" fill="#CF4517"/>
<path d="M49.979 48.8966C46.079 48.5166 42.329 48.3266 40.569 44.1866C38.789 40.0266 40.209 36.5966 43.119 33.5966C49.599 26.9166 57.819 23.7566 66.809 22.6366C71.639 22.0266 76.259 25.2166 77.649 29.2766C78.979 33.1666 77.259 37.5566 72.939 40.3466C65.879 44.8966 58.289 48.1566 49.979 48.8966Z" fill="#CF4517"/>
<path d="M87.8191 42.4664C90.1791 42.3764 92.4791 42.5764 94.6791 43.4764C100.679 45.9164 102.239 52.7364 97.9091 57.5864C97.6891 57.8364 97.4491 58.0664 97.1791 58.2564C88.0391 64.7864 77.9191 67.1464 67.0891 64.1464C60.5991 62.3464 59.6791 56.9364 64.1791 51.8264C70.4991 44.6664 78.8891 42.9264 87.8191 42.4664Z" fill="#CF4517"/>
<path d="M45.749 77.0767C39.399 76.7667 33.579 73.9167 27.939 70.9367C24.999 69.3867 23.449 66.2767 23.909 62.7367C24.369 59.2267 26.579 57.0167 29.849 55.7967C38.329 52.6167 50.789 55.8367 56.739 62.7467C58.689 65.0167 59.569 67.6967 58.489 70.4667C57.039 74.1967 53.689 75.8367 50.009 76.7367C48.729 77.0467 47.359 76.9667 45.749 77.0767Z" fill="#CF4517"/>
<path d="M129.609 75.5765C120.689 75.2165 113.989 70.9065 109.339 63.5165C105.039 56.6965 108.199 50.8165 116.399 49.9065C122.129 49.2665 126.749 51.8465 130.999 55.2065C132.899 56.7165 134.579 58.5365 136.229 60.3265C138.839 63.1565 141.439 66.2465 139.599 70.3565C137.749 74.5065 133.959 75.7565 129.609 75.5765Z" fill="#CF4517"/>
<path d="M125.859 21.3568C118.899 21.4268 112.409 19.6368 106.039 17.3468C102.459 16.0568 99.909 12.8368 100.149 10.0468C100.469 6.32684 103.079 4.35683 106.289 3.41683C116.579 0.406834 125.969 2.69683 134.559 8.78683C137.019 10.5368 137.979 12.9968 137.629 16.0368C137.319 18.6868 136.059 20.3468 133.339 20.7268C130.829 21.0868 128.329 21.6868 125.859 21.3568Z" fill="#CF4517"/>
<path d="M30.109 36.6167C30.019 46.2967 24.979 53.6767 17.089 55.7367C12.979 56.8067 9.30899 55.9367 6.43899 52.8467C3.68899 49.8667 3.37899 46.2567 4.98899 42.6067C7.52899 36.8467 10.819 31.5867 16.479 28.3867C22.979 24.7267 30.189 29.1467 30.109 36.6167Z" fill="#CF4517"/>
<path d="M149.319 11.9865C158.739 12.0765 170.909 20.5965 172.759 28.3865C173.779 32.6465 173.299 33.5265 169.379 35.2065C166.769 36.3265 164.159 37.0465 161.339 36.0865C154.779 33.8565 148.649 30.8465 143.299 26.3865C141.349 24.7565 140.189 22.6265 139.949 20.0865C139.479 14.9365 142.989 11.9165 149.319 11.9865Z" fill="#CF4517"/>
<path d="M70.0291 20.1365C67.4191 20.4665 64.6991 19.7665 61.9891 19.2965C58.1291 18.6265 56.2291 14.5665 57.7591 10.7665C59.1191 7.40649 61.6591 5.05649 64.8291 3.57649C71.5691 0.436494 78.6691 -0.283505 85.9191 1.2865C89.9591 2.1565 92.7791 4.7165 94.4691 8.4965C95.4591 10.7065 94.8991 12.3365 92.3791 12.4665C87.8091 12.7065 84.1991 14.9865 80.6491 17.4665C77.4991 19.6765 73.9491 20.2465 70.0291 20.1365Z" fill="#CF4517"/>
<path d="M93.2391 85.4268C88.5991 85.6368 84.3691 84.6368 80.2691 83.3068C76.9291 82.2168 74.3591 79.8868 74.0791 76.1868C73.7991 72.4868 76.2791 69.9268 79.3891 68.8668C87.3291 66.1668 95.3991 65.4268 103.159 69.7368C103.929 70.1668 104.609 70.7568 105.269 71.3568C110.259 75.8768 109.149 81.7968 102.809 84.0268C99.6591 85.1268 96.3691 85.6468 93.2391 85.4268Z" fill="#CF4517"/>
<path d="M46.059 9.29641C46.829 9.29641 47.619 9.22641 48.379 9.30641C54.489 9.92641 56.939 14.7864 53.189 19.6464C48.269 26.0264 41.839 30.0464 33.429 30.2564C29.879 30.3464 27.929 28.1264 26.359 25.5564C24.789 22.9764 25.639 20.3864 27.519 18.2864C32.449 12.7664 38.579 9.59641 46.059 9.29641Z" fill="#CF4517"/>
</svg>
