<svg width="293" height="270" viewBox="0 0 293 270" fill="none" xmlns="http://www.w3.org/2000/svg">
<path d="M70.7326 215.853C52.0926 212.853 35.6926 205.443 23.0425 191.053C12.0425 178.543 6.64255 163.373 3.66255 147.323C-1.27745 120.703 -1.03745 94.2534 8.99255 68.7034C15.2025 52.8734 25.1525 39.8835 41.6026 33.4335C60.6426 25.9735 78.6526 29.7135 95.4526 40.0635C100.143 42.9535 100.943 41.7334 102.573 37.4534C108.173 22.6734 117.053 10.8535 133.163 6.31346C144.603 3.09346 155.923 3.94345 166.963 8.08345C192.293 17.5735 211.663 34.6334 227.463 56.1434C233.393 64.2134 238.423 72.8335 242.483 81.9935C243.423 84.1235 244.623 85.2535 246.993 85.9635C273.493 93.9635 287.693 112.613 291.553 139.303C296.293 172.113 285.043 200.643 266.053 226.553C252.933 244.453 236.933 259.133 215.063 265.684C178.593 276.604 138.633 263.923 121.763 220.723C120.433 217.323 119.213 213.853 118.353 210.313C117.633 207.333 116.483 207.083 113.923 208.393C106.603 212.133 98.7225 214.163 90.6825 215.653C84.0325 216.573 77.3826 216.653 70.7326 215.853Z" fill="#F8AD2D"/>
<path d="M227.112 53.3138C210.302 30.5238 189.762 12.2838 162.422 3.26377C145.252 -2.39623 128.522 -1.20625 114.032 10.8937C105.092 18.3537 100.242 28.5838 96.7925 39.5038C96.8225 42.0938 99.2725 42.5638 100.702 43.9038C111.612 54.0338 121.192 65.0638 128.332 77.7738C130.622 80.2937 132.462 82.8037 134.932 85.3237C133.002 82.9737 131.012 80.6538 128.972 78.3438C131.002 80.6438 133.002 82.9737 134.932 85.3237C142.802 94.9137 149.582 104.994 153.182 116.364C156.472 113.574 159.922 110.944 163.492 108.484C187.692 91.7838 213.652 80.7638 243.802 82.6638C239.532 72.1538 233.832 62.4138 227.112 53.3138Z" fill="#BF8025"/>
<ellipse cx="112.945" cy="169.641" rx="57" ry="88.5" transform="rotate(-14.1532 112.945 169.641)" fill="#BF8025"/>
</svg>
