<svg width="198" height="160" viewBox="0 0 198 160" fill="none" xmlns="http://www.w3.org/2000/svg">
<path d="M105.284 0.407242C223.564 6.95724 231.834 149.267 110.774 159.097C62.9436 153.107 -38.2765 119.137 16.8035 57.9172C43.1735 32.7272 62.8835 -4.29276 105.284 0.407242Z" fill="#FADA90"/>
<path d="M68.4336 63.8571C76.8236 22.0471 141.134 19.2671 154.364 59.2271C170.264 120.167 60.3636 125.517 68.4336 63.8571Z" fill="#E1760E"/>
<path d="M118.654 30.8372C114.534 30.2272 110.404 30.4272 106.274 30.6372C106.034 30.4572 105.794 30.2872 105.544 30.1072C109.934 29.9572 114.394 28.6872 118.654 30.8372Z" fill="#FCE6B7"/>
<path d="M100.424 57.6316C105.12 51.869 105.852 44.6916 102.059 41.6005C98.2653 38.5095 91.3835 40.6752 86.6876 46.4379C81.9917 52.2005 81.2599 59.3779 85.0531 62.4689C88.8464 65.56 95.7282 63.3943 100.424 57.6316Z" fill="#F0900E"/>
</svg>
