<svg width="69" height="151" viewBox="0 0 69 151" fill="none" xmlns="http://www.w3.org/2000/svg">
<path d="M53.0312 18.9883C52.5061 26.997 54.7229 34.2641 58.6898 41.1644C63.1859 48.9857 66.0527 57.4361 67.4903 66.3408C67.832 68.4492 68.0111 70.6077 68.0236 72.7453C68.0819 83.5042 68.0653 94.2631 68.0653 105.022C68.0653 112.497 68.157 119.973 67.9945 127.444C67.9236 130.74 67.5695 134.036 66.6569 137.278C65.4235 141.645 62.7984 144.67 58.819 146.712C54.8688 148.741 50.6269 149.658 46.2808 150.179C41.1764 150.791 36.0386 150.687 30.9133 150.587C24.238 150.458 17.671 149.462 11.4248 147.028C6.12451 144.966 3.27437 140.774 2.24098 135.311C1.00341 128.765 1.00758 122.123 0.990914 115.493C0.957579 103.693 0.799235 91.888 1.04091 80.0915C1.23259 70.691 1.94929 61.2822 5.25363 52.3442C6.73704 48.3357 8.5038 44.4104 10.6706 40.7061C14.2916 34.5016 16.6126 27.9387 16.3917 20.6467C16.3667 19.8341 16.5042 19.1341 17.1959 18.6341C28.8882 21.3551 40.5763 21.6467 52.2686 18.6216C52.5187 18.7383 52.7728 18.8633 53.0312 18.9883ZM7.65793 99.4092C7.65377 99.4092 7.64959 99.4092 7.64542 99.4092C7.64542 107.672 7.57041 115.931 7.68708 124.194C7.72458 127.015 8.0371 129.869 8.59963 132.632C9.10799 135.124 10.0414 137.478 12.5249 138.945C18.6418 142.557 25.488 142.582 32.2134 143.02C35.4844 143.232 38.8012 142.891 42.0931 142.691C46.6725 142.416 51.2227 141.866 55.3438 139.649C57.5231 138.478 59.144 136.761 59.9857 134.294C61.1024 131.019 61.2149 127.623 61.3274 124.252C61.6108 115.814 61.4316 107.372 61.6775 98.9258C61.9316 90.2087 62.2108 81.4624 61.4149 72.737C61.2358 70.7952 60.344 69.5618 58.7023 68.6534C52.8478 65.4241 46.3266 65.3157 39.9513 64.949C35.5177 64.6949 31.0258 64.5574 26.5381 65.1574C21.4087 65.8449 16.1959 65.9574 11.2456 67.6784C9.51636 68.2784 8.30796 69.3493 8.01211 71.3285C7.80793 72.7036 7.64543 74.062 7.64959 75.4538C7.67043 83.4417 7.65793 91.4254 7.65793 99.4092Z" fill="#B8D7D8"/>
<path d="M53.8727 19.8633C53.8643 19.8674 53.8602 19.8674 53.8518 19.8716C53.8477 19.8799 53.8435 19.8841 53.8394 19.8883L53.8727 19.8633Z" fill="#D7393A"/>
<path d="M56.6106 7.16255C56.5731 6.82086 56.1898 6.51251 55.9523 6.18749C55.8356 4.19989 55.8064 4.16655 54.3064 4.48324C53.1896 3.98321 52.0687 3.48318 50.952 2.98316C49.9728 1.99144 48.6435 1.86643 47.3935 1.62892C40.0722 0.237178 32.7094 0.578863 25.3548 1.2289C23.5339 1.39141 21.6963 1.61642 19.9337 2.07061C18.7045 2.38729 17.2211 2.39563 16.4335 3.72903L16.421 3.68736C15.7335 3.71236 15.1542 3.96654 14.7334 4.52907L14.7834 4.54157C13.9208 4.52491 13.5458 5.0041 13.4917 5.81247C13.4792 6.53335 13.5917 7.27505 13.15 7.92509C12.5458 8.83763 12.3749 15.1796 12.9333 16.0255C12.9708 15.9672 13.0125 15.913 13.0458 15.8547C13.075 15.7922 13.0958 15.7255 13.1166 15.663C13.3 18.2548 14.8959 19.634 17.196 20.4091C28.8883 23.1301 40.5765 23.4217 52.2687 20.3966C52.7979 20.2216 53.3313 20.0466 53.8605 19.8674C54.0438 19.5257 54.323 19.3882 54.7064 19.459C54.7022 19.4674 54.698 19.4715 54.6938 19.4799C55.4106 19.1423 56.0939 18.6382 56.2481 17.8923C56.9815 14.3463 56.9856 10.7544 56.6106 7.16255Z" fill="#D7393A"/>
<path d="M7.65783 99.409C7.65783 91.4253 7.67033 83.4415 7.64949 75.4578C7.64532 74.066 7.80783 72.7076 8.01201 71.3325C8.30786 69.3533 9.51626 68.2866 11.2455 67.6824C16.1958 65.9614 21.4086 65.8489 26.538 65.1614C31.0216 64.5614 35.5135 64.6989 39.9512 64.953C46.3224 65.3197 52.8435 65.4281 58.7022 68.6574C60.3439 69.5616 61.2398 70.795 61.4148 72.741C62.2107 81.4664 61.9315 90.2127 61.6773 98.9298C61.4315 107.376 61.6107 115.818 61.3273 124.256C61.2148 127.623 61.1023 131.019 59.9856 134.298C59.1439 136.761 57.523 138.478 55.3437 139.653C51.2226 141.87 46.6724 142.415 42.093 142.695C38.8011 142.895 35.4843 143.236 32.2133 143.024C25.4838 142.582 18.6417 142.561 12.5248 138.949C10.0413 137.482 9.10789 135.132 8.59953 132.636C8.037 129.873 7.72448 127.019 7.68698 124.198C7.57031 115.939 7.64532 107.676 7.64532 99.4132C7.64949 99.409 7.65367 99.409 7.65783 99.409Z" fill="white"/>
</svg>
