<svg width="153" height="197" viewBox="0 0 153 197" fill="none" xmlns="http://www.w3.org/2000/svg">
<path d="M89.5945 144.123C88.1123 143.759 89.9697 141.329 91.1474 141.381C101.638 139.962 111.189 133.799 121.157 130.177C130.656 128.776 132.803 118.735 121.331 122.903C116.602 123.75 84.5942 141.526 86.9123 133.903C74.6642 154.562 90.9356 95.5314 82.1535 93.1093C88.1606 83.9854 97.1618 77.0087 105.35 69.9541C116.754 48.7566 67.6541 89.5541 77.3575 95.7357C68.8577 81.8344 53.3516 75.363 36.066 70.593C16.1948 77.7034 77.1792 78.5021 75.3589 116.491C74.705 128.264 72.9293 171.769 66.7625 146.385C58.8051 137.391 45.2382 133.472 34.1305 128.58C15.4555 130.322 60.8706 145.936 63.8871 150.345C59.0243 157.928 68.7166 166.706 64.2735 175.403C63.694 181.978 54.4512 191.15 59.5741 196.663C75.931 192.859 72.4389 155.212 90.0626 145.286C91.4 146.831 91.3257 144.097 89.5945 144.123Z" fill="#676E24"/>
<path d="M109.265 96.0406C110.417 95.6171 111.535 95.1305 112.623 94.5807C111.271 94.5026 110.216 95.1416 109.265 96.0406Z" fill="#676E24"/>
<path d="M67.6768 144.584C68.364 142.856 68.9918 136.229 67.6879 132.867C68.5015 136.686 68.2377 140.62 67.6768 144.584Z" fill="#676E24"/>
<path d="M107.129 96.5049C102.177 98.1915 96.9986 97.7308 92.0132 97.6677C95.8544 99.0533 108.586 97.0621 107.129 96.5049Z" fill="#676E24"/>
<path d="M87.1615 131.949C87.1392 132.116 87.1206 132.279 87.1021 132.447C87.1392 132.279 87.1652 132.112 87.1615 131.949Z" fill="#676E24"/>
<path d="M74.3597 76.8825C73.5609 69.0589 80.5933 63.1484 77.7923 55.4956C75.4481 48.9796 75.1361 16.9643 65.455 22.5887C61.0528 35.0189 81.0168 69.2966 68.5495 72.8295C69.1104 75.2034 75.2104 70.7417 74.3597 76.8825Z" fill="#676E24"/>
<path d="M91.207 146.381C91.6863 146.92 92.1766 147.433 92.6744 147.919C92.3958 147.236 91.9054 146.723 91.207 146.381Z" fill="#676E24"/>
<path d="M99.4654 152.805C99.3799 152.712 99.2722 152.664 99.1533 152.645C99.2573 152.697 99.3614 152.753 99.4654 152.805Z" fill="#676E24"/>
<path d="M97.0132 151.408C97.3067 151.597 97.6001 151.779 97.8973 151.954C97.719 151.586 97.4033 151.437 97.0132 151.408Z" fill="#676E24"/>
<path d="M98.4551 152.273C98.4997 152.299 98.5442 152.325 98.5888 152.348C98.548 152.314 98.5034 152.292 98.4551 152.273Z" fill="#676E24"/>
<path d="M95.9136 150.657C96.0696 150.769 96.2293 150.876 96.3891 150.988C96.2888 150.791 96.1328 150.68 95.9136 150.657Z" fill="#676E24"/>
<path d="M101.843 153.826C105.383 155.141 109.161 155.62 113.073 155.379C109.262 155.487 105.628 153.941 101.843 153.826Z" fill="#676E24"/>
<path d="M99.8701 152.994C100.416 153.25 100.966 153.488 101.523 153.704C101.23 152.86 100.554 152.92 99.8701 152.994Z" fill="#676E24"/>
<path d="M94.8364 149.836C95.0556 150.011 95.2748 150.182 95.494 150.345C95.3751 150.044 95.1485 149.881 94.8364 149.836Z" fill="#676E24"/>
<path d="M67.6245 145.011C67.5577 145.293 67.4908 145.579 67.4165 145.861C67.5354 145.613 67.5874 145.308 67.6245 145.011Z" fill="#717925"/>
<path d="M63.8873 150.342C54.1653 144.301 43.0502 138.305 31.9871 134.167C21.8751 119.051 62.1859 140.345 65.9045 145.044C68.947 148.971 68.3155 135.27 67.6914 132.863C61.0082 98.4737 -3.14133 110.833 0.967388 142.176C14.0997 160.138 50.2163 173.382 63.8873 150.342Z" fill="#717925"/>
<path d="M55.7666 1.89292C55.7815 1.88177 55.7889 1.86691 55.7926 1.85205C55.7889 1.85205 55.7666 1.89292 55.7666 1.89292Z" fill="#717925"/>
<path d="M92.522 21.3066C92.5145 21.3326 92.5368 21.3364 92.5591 21.3438L92.522 21.3066Z" fill="#717925"/>
<path d="M75.7642 1.44336C75.7716 1.45079 75.7753 1.46936 75.7864 1.46936L75.7642 1.44336Z" fill="#717925"/>
<path d="M56.1525 1.45832C56.1711 1.45461 56.1897 1.45461 56.2008 1.43604C56.2008 1.43604 56.1488 1.45832 56.1525 1.45832Z" fill="#717925"/>
<path d="M92.1545 20.4937C92.1434 20.5197 92.1694 20.5197 92.188 20.5271C92.1917 20.5234 92.1545 20.4937 92.1545 20.4937Z" fill="#717925"/>
<path d="M74.5457 0.663086C74.5494 0.681661 74.5568 0.692805 74.5791 0.689091C74.5754 0.689091 74.542 0.663086 74.5457 0.663086Z" fill="#717925"/>
<path d="M73.5092 72.3097C71.7483 55.7262 64.7419 38.9235 65.4515 22.5889C75.1177 16.9014 75.4632 49.0244 77.7962 55.4921C77.4953 69.1334 87.9083 49.89 95.4013 48.014C96.6532 33.6446 90.687 20.2857 80.1589 10.7085C53.5265 -14.0218 39.4543 37.5973 49.6556 56.9707C60.0908 59.3631 64.8422 73.6842 73.5092 72.3097Z" fill="#717925"/>
<path d="M90.869 146.233C90.9878 146.277 91.0993 146.329 91.2107 146.381C91.0473 146.229 90.8429 145.828 90.869 146.233Z" fill="#717925"/>
<path d="M90.8651 146.252C90.8725 146.237 90.8576 146.229 90.8428 146.226C90.8465 146.226 90.8651 146.252 90.8651 146.252Z" fill="#717925"/>
<path d="M142.711 142.629C142.692 142.648 142.677 142.663 142.659 142.681C142.659 142.685 142.711 142.629 142.711 142.629Z" fill="#717925"/>
<path d="M93.6104 149.157C93.5956 149.131 93.5621 149.116 93.5361 149.094L93.6104 149.157Z" fill="#717925"/>
<path d="M142.298 143.042C142.28 143.045 142.269 143.06 142.254 143.071C142.254 143.075 142.298 143.042 142.298 143.042Z" fill="#717925"/>
<path d="M131.611 151.059C131.592 151.055 131.592 151.073 131.592 151.088C131.592 151.088 131.611 151.062 131.611 151.059Z" fill="#717925"/>
<path d="M95.5868 150.721C95.5831 150.698 95.5831 150.68 95.5571 150.691L95.5868 150.721Z" fill="#717925"/>
<path d="M98.0015 152.233C98.1724 152.214 98.3284 152.222 98.4585 152.27C98.1873 152.173 97.7675 151.72 98.0015 152.233Z" fill="#717925"/>
<path d="M127.606 153.024C127.587 153.016 127.58 153.042 127.569 153.053L127.606 153.024Z" fill="#717925"/>
<path d="M98.7783 152.667C99.4359 152.637 98.8823 152.556 98.5889 152.348C98.6743 152.415 98.7375 152.519 98.7783 152.667Z" fill="#717925"/>
<path d="M99.5954 153.024C100.089 153.009 99.6734 152.927 99.4653 152.805C99.5173 152.86 99.5619 152.935 99.5954 153.024Z" fill="#717925"/>
<path d="M98.7893 152.701C98.7819 152.682 98.7819 152.66 98.7596 152.671C98.7559 152.671 98.7893 152.701 98.7893 152.701Z" fill="#717925"/>
<path d="M94.4462 149.866C94.4314 149.855 94.4202 149.829 94.3979 149.832C94.3979 149.836 94.4462 149.866 94.4462 149.866Z" fill="#717925"/>
<path d="M101.564 153.838C101.657 153.83 101.75 153.83 101.847 153.826C101.724 153.812 101.449 153.592 101.564 153.838Z" fill="#717925"/>
<path d="M101.575 153.875C101.568 153.863 101.572 153.841 101.561 153.837L101.575 153.875Z" fill="#717925"/>
<path d="M95.5796 150.687C96.1182 150.665 95.7319 150.568 95.4941 150.349C95.535 150.446 95.5647 150.557 95.5796 150.687Z" fill="#717925"/>
<path d="M96.4896 151.352L96.6159 151.408C97.5298 151.616 96.0512 150.583 96.4896 151.352Z" fill="#717925"/>
<path d="M99.6138 153.061C99.6064 153.042 99.6027 153.016 99.5767 153.028C99.5767 153.024 99.6138 153.061 99.6138 153.061Z" fill="#717925"/>
<path d="M98.0127 152.27C98.009 152.244 98.0016 152.225 97.9756 152.236L98.0127 152.27Z" fill="#717925"/>
<path d="M144.969 140.516C144.943 140.527 144.936 140.556 144.917 140.575C144.917 140.571 144.973 140.516 144.969 140.516Z" fill="#717925"/>
<path d="M87.0981 132.447C86.9904 132.882 86.8009 133.331 86.8752 133.755C86.983 133.339 87.0498 132.889 87.0981 132.447Z" fill="#717925"/>
<path d="M150.676 114.207C150.694 114.225 150.713 114.24 150.732 114.259L150.676 114.207Z" fill="#717925"/>
<path d="M152.199 116.302C152.195 116.32 152.206 116.328 152.221 116.335L152.199 116.302Z" fill="#717925"/>
<path d="M147.087 137.462C147.069 137.469 147.05 137.48 147.054 137.503C147.05 137.499 147.087 137.462 147.087 137.462Z" fill="#717925"/>
<path d="M151.816 115.488C151.816 115.503 151.834 115.511 151.842 115.525L151.816 115.488Z" fill="#717925"/>
<path d="M149.035 134.26C149.027 134.264 149.019 134.271 149.019 134.279C149.019 134.283 149.035 134.26 149.035 134.26Z" fill="#717925"/>
<path d="M92.6743 147.923C92.8192 148.741 93.4767 148.834 94.0377 149.491C95.6908 150.632 93.3839 148.559 92.6743 147.923Z" fill="#717925"/>
<path d="M151.916 129.152C151.898 129.159 151.872 129.159 151.883 129.182C151.879 129.178 151.916 129.152 151.916 129.152Z" fill="#717925"/>
<path d="M143.109 142.232C143.097 142.247 143.079 142.254 143.079 142.277C143.075 142.277 143.109 142.232 143.109 142.232Z" fill="#717925"/>
<path d="M149.413 113.088C149.424 113.095 149.435 113.11 149.45 113.114C149.453 113.114 149.413 113.088 149.413 113.088Z" fill="#717925"/>
<path d="M100.732 108.604C100.706 108.638 100.817 108.634 100.829 108.645C100.825 108.645 100.732 108.604 100.732 108.604Z" fill="#717925"/>
<path d="M148.904 112.423C148.908 112.449 148.937 112.449 148.956 112.46L148.904 112.423Z" fill="#717925"/>
<path d="M101.958 107.909C101.988 107.917 101.991 107.898 101.999 107.872L101.958 107.909Z" fill="#717925"/>
<path d="M147.745 111.599C147.752 111.606 147.759 111.621 147.771 111.625L147.745 111.599Z" fill="#717925"/>
<path d="M148.792 128.461C154.591 108.304 121.799 104.288 107.92 107.862C91.8979 109.388 71.841 149.231 102.363 130.786C110.317 128.342 118.608 122.16 127.286 122.064C133.918 125.392 124.534 129.085 121.161 130.177C111.197 133.807 101.639 139.966 91.1512 141.389C89.9625 141.355 88.1124 143.733 89.5984 144.127C104.93 165.93 140.939 152.708 148.792 128.461Z" fill="#717925"/>
<path d="M108.875 96.4452C109.626 95.7282 108.86 96.252 108.366 96.3523C108.533 96.3671 108.704 96.3932 108.875 96.4452Z" fill="#878D25"/>
<path d="M86.6113 96.2262C88.049 96.2931 90.9764 98.8378 92.0128 97.6713C90.72 97.5562 86.8082 95.825 86.6113 96.2262Z" fill="#878D25"/>
<path d="M123.861 87.4404C123.85 87.4479 123.839 87.4553 123.832 87.4701C123.832 87.4664 123.861 87.4404 123.861 87.4404Z" fill="#878D25"/>
<path d="M117.943 92.2363C117.925 92.2438 117.914 92.2512 117.903 92.2698C117.899 92.2698 117.943 92.2363 117.943 92.2363Z" fill="#878D25"/>
<path d="M135.218 64.103C135.196 64.1216 135.17 64.1327 135.155 64.155C135.155 64.1588 135.218 64.103 135.218 64.103Z" fill="#878D25"/>
<path d="M74.341 78.6544C74.3595 81.3255 74.4413 84.1785 75.8975 86.5561C75.4926 84.6763 74.2629 74.4714 74.341 78.6544Z" fill="#878D25"/>
<path d="M125.358 83.3686C161.144 30.7391 75.5299 39.0011 74.356 76.8823C75.1472 82.6182 75.9645 93.5624 81.2843 83.4838C83.7622 78.0934 114.344 52.438 105.35 69.954C97.1582 77.0012 88.157 83.9816 82.1499 93.1017C95.3416 103.247 116.186 96.891 125.358 83.3686Z" fill="#878D25"/>
<path d="M96.0068 47.6796C95.3901 47.713 95.3195 48.4597 95.3753 49.043C96.4489 48.4931 97.946 47.3267 96.0068 47.6796Z" fill="#878D25"/>
<path d="M78.8213 62.1752C83.6358 60.2992 89.0337 51.6917 95.3751 49.0429C91.4261 48.4002 82.722 57.695 78.8213 62.1752Z" fill="#878D25"/>
<path d="M60.8968 100.056C60.8783 100.064 60.8634 100.078 60.8523 100.093C60.8485 100.093 60.8968 100.056 60.8968 100.056Z" fill="#878D25"/>
<path d="M69.0881 75.27C67.6207 71.3916 69.3444 82.6813 69.6602 84.6131C70.5109 81.6002 69.6342 78.3385 69.0881 75.27Z" fill="#878D25"/>
<path d="M23.2235 96.8949C23.2123 96.88 23.1938 96.8651 23.1789 96.854C23.1752 96.8577 23.2235 96.8949 23.2235 96.8949Z" fill="#878D25"/>
<path d="M18.5018 93.269C18.4907 93.2504 18.4795 93.2318 18.4609 93.2207C18.4609 93.2207 18.5055 93.269 18.5018 93.269Z" fill="#878D25"/>
<path d="M67.2752 93.3844C59.3401 82.9083 44.2575 81.9907 33.4321 75.4561C30.1296 63.6909 53.9832 77.5848 59.3327 79.4534C62.5424 80.1926 68.1854 85.4047 69.6676 84.6134C68.9544 75.8127 68.0516 70.7567 61.1084 64.5082C48.2064 53.6977 29.2528 52.8544 12.5393 62.086C-10.1329 81.3331 50.9889 120.771 67.2752 93.3844Z" fill="#878D25"/>
<path d="M49.6556 56.9701C49.4624 56.8958 49.2655 56.7249 49.0798 56.7063C48.2848 56.5577 50.1088 57.5161 49.6556 56.9701Z" fill="#878D25"/>
<path d="M67.55 71.6371C64.0246 64.9651 55.77 59.7753 49.748 57.2046C56.1415 60.7338 62.9361 64.6233 66.4356 71.2656C66.8033 72.6142 68.984 73.6543 67.55 71.6371Z" fill="#878D25"/>
</svg>
