<svg width="222" height="266" viewBox="0 0 222 266" fill="none" xmlns="http://www.w3.org/2000/svg">
<path d="M151.373 53.3709C148.543 56.1209 145.003 58.1109 142.853 61.6109C141.873 63.2009 140.373 62.6509 138.853 62.1909C122.183 57.1109 105.423 55.8309 88.5427 61.2009C88.3827 61.2509 88.2427 61.3609 88.0827 61.3909C85.2827 61.8509 75.8627 51.6509 76.3727 48.7209L76.3927 48.7109C76.6927 48.4509 76.9927 48.1809 77.2927 47.9209C84.3727 41.4509 92.6427 37.0809 101.983 35.2509C105.763 34.5109 107.753 32.6809 109.393 29.5909C113.853 21.1609 119.133 13.3309 126.433 7.03093C130.423 3.59093 134.853 1.08093 140.233 0.780929C147.003 0.400929 150.633 2.94094 152.973 9.51094C155.683 17.1309 154.723 21.2709 149.113 25.3709C145.623 27.9209 141.833 30.0209 138.603 32.9409C135.623 35.6309 134.343 37.5609 139.053 40.1009C144.533 43.0309 148.883 47.4509 151.373 53.3709Z" fill="#8A7C1D"/>
<path d="M151.373 50.1608C264.243 9.41075 208.283 174.661 202.223 230.971C194.023 261.341 164.393 262.671 139.493 257.471C121.823 273.901 93.0327 261.901 73.8227 254.971C-0.427307 267.691 19.3927 173.511 4.36269 128.581C-8.80731 91.5608 13.9327 41.5607 56.7427 43.5207C73.0527 43.5207 76.7827 50.1207 88.0827 58.1807C109.633 46.0307 136.003 68.6408 151.373 50.1608Z" fill="#DF4814"/>
<mask id="mask0_61_2919" style="mask-type:luminance" maskUnits="userSpaceOnUse" x="0" y="43" width="222" height="223">
<path d="M151.373 50.1608C264.243 9.41075 208.283 174.661 202.223 230.971C194.023 261.341 164.393 262.671 139.493 257.471C121.823 273.901 93.0327 261.901 73.8227 254.971C-0.427307 267.691 19.3927 173.511 4.36269 128.581C-8.80731 91.5608 13.9327 41.5607 56.7427 43.5207C73.0527 43.5207 76.7827 50.1207 88.0827 58.1807C109.633 46.0307 136.003 68.6408 151.373 50.1608Z" fill="white"/>
</mask>
<g mask="url(#mask0_61_2919)">
<path d="M139.133 268.031L73.5527 261.881L88.0827 48.4111H142.343L139.133 268.031Z" fill="#E54F10"/>
</g>
<path d="M77.3027 44.7012C77.0027 44.9612 76.7027 45.2311 76.4027 45.4911C76.7027 45.2311 77.0027 44.9712 77.3027 44.7012Z" fill="#DF4814"/>
</svg>
