<svg width="147" height="178" viewBox="0 0 147 178" fill="none" xmlns="http://www.w3.org/2000/svg">
<path d="M43.8121 19.6528C55.4921 32.4828 63.3021 47.6828 69.8021 63.5028C78.6422 85.0128 93.0621 101.533 112.282 114.273C120.332 119.603 128.162 125.273 135.432 131.673C138.122 134.033 140.442 136.723 142.462 139.653C149.382 149.743 147.172 162.343 137.352 169.703C130.542 174.803 122.772 177.093 114.452 177.713C88.7421 179.633 66.2221 171.053 45.7321 156.313C23.8021 140.553 9.40215 119.523 3.12215 93.1728C-1.60785 73.3328 0.0721493 53.9828 8.44215 35.3028C10.1121 31.5728 12.0721 27.9728 13.8921 24.3128C14.4121 23.9228 14.9521 23.5628 15.4421 23.1428C23.4821 16.2928 34.5221 14.9328 43.8121 19.6528Z" fill="#E1760E"/>
<path d="M43.8121 19.6529C34.5221 14.9229 23.4821 16.2929 15.4521 23.1429C14.9621 23.5629 14.4221 23.9229 13.9021 24.3129C15.2521 19.7829 16.5621 15.2429 17.9721 10.7329C20.3921 2.96287 28.8021 -1.60712 36.6521 0.522876C41.0621 1.72288 43.9321 5.39288 43.9621 10.0229C43.9821 13.2329 43.8621 16.4429 43.8121 19.6529Z" fill="#905415"/>
<path d="M23.9021 48.2728C26.9121 97.7428 67.7421 137.873 112.382 154.253C118.432 156.473 121.042 146.813 115.042 144.603C74.8321 129.843 36.6321 92.9628 33.9121 48.2628C33.5221 41.8728 23.5121 41.8328 23.9021 48.2728Z" fill="#CF6316"/>
<g opacity="0.49">
<path d="M21.1122 72.223C17.9122 65.813 25.7322 61.953 28.9522 67.843C31.2422 72.353 23.7522 76.553 21.1122 72.223Z" fill="#A65217"/>
<path d="M72.3122 81.1629C75.5522 77.3729 80.8322 85.4229 77.8722 88.0029C72.9822 93.1329 66.0822 83.8029 72.3122 81.1629Z" fill="#A65217"/>
<path d="M54.1522 76.5932C59.0122 73.6432 63.5222 81.6732 58.2122 84.7832C54.3622 87.4532 48.9522 79.3232 54.1522 76.5932Z" fill="#A65217"/>
<path d="M50.7721 140.723C53.8621 146.493 45.8821 149.953 42.7221 144.653C40.6021 140.383 48.0421 135.943 50.7721 140.723Z" fill="#A65217"/>
<path d="M40.6721 99.0831C36.9221 93.4931 44.4421 89.2631 47.4921 94.2631C50.1121 98.6731 43.5121 103.853 40.6721 99.0831Z" fill="#A65217"/>
<path d="M40.1921 119.453C34.6121 123.143 30.9821 114.133 35.2821 111.963C39.3521 109.663 44.5421 116.373 40.1921 119.453Z" fill="#A65217"/>
<path d="M79.3622 100.893C76.2822 95.3632 84.0522 92.5632 86.7322 96.8832C89.1022 101.283 82.4822 106.513 79.3622 100.893Z" fill="#A65217"/>
<path d="M84.9922 114.923C89.1822 113.983 93.2622 119.543 89.4722 122.823C84.2822 126.393 81.1222 118.243 84.9922 114.923Z" fill="#A65217"/>
<path d="M66.2322 140.103C63.5522 135.953 70.6022 132.303 72.7722 136.563C75.3722 140.923 68.8222 144.543 66.2322 140.103Z" fill="#A65217"/>
<path d="M52.6721 127.543C48.8721 122.653 56.4521 119.903 58.8021 123.683C60.4621 127.163 55.4021 132.243 52.6721 127.543Z" fill="#A65217"/>
<path d="M39.6222 73.4832C37.4122 69.3332 43.9422 66.7732 46.3122 70.0332C47.7122 74.1932 42.7322 78.7232 39.6222 73.4832Z" fill="#A65217"/>
<path d="M58.2522 105.523C55.6822 100.753 62.0822 97.7231 64.7222 101.643C66.3222 105.723 60.6322 109.193 58.2522 105.523Z" fill="#A65217"/>
<path d="M72.4321 159.483C68.5021 162.773 64.5121 156.313 68.0321 153.953C71.7021 151.033 76.1521 157.413 72.4321 159.483Z" fill="#A65217"/>
<path d="M23.6221 90.0827C21.5321 85.4227 26.7221 83.4527 29.5521 86.2627C31.5821 90.4627 26.1821 93.0327 23.6221 90.0827Z" fill="#A65217"/>
<path d="M73.4322 119.133C75.7222 124.223 70.4122 125.063 67.9322 121.913C66.6922 118.743 71.9422 115.943 73.4322 119.133Z" fill="#A65217"/>
<path d="M81.7522 136.963C85.7422 134.823 88.0422 139.533 85.3722 142.073C82.9222 143.473 77.6722 138.783 81.7522 136.963Z" fill="#A65217"/>
<path d="M20.5722 111.193C19.0622 107.463 23.2622 104.673 25.5822 109.003C26.8822 112.553 22.8222 114.323 20.5722 111.193Z" fill="#A65217"/>
<path d="M85.0021 114.923C84.9921 114.763 84.9921 114.763 85.0021 114.923V114.923Z" fill="#A65217"/>
</g>
</svg>
