<svg width="171" height="144" viewBox="0 0 171 144" fill="none" xmlns="http://www.w3.org/2000/svg">
<path d="M168.871 34.3382C164.939 58.8362 177.897 90.392 162.166 110.791C141.482 124.102 119.46 147.975 93.0489 142.304C70.2597 133.234 10.7513 136.472 2.67817 113.262C7.0862 86.5783 -8.44714 40.5973 10.3055 21.6218C45.5079 5.46312 80.4254 -6.57848 119.095 4.39206C139.086 9.50587 177.897 3.33338 168.871 34.3382Z" fill="#FEDF94"/>
<mask id="mask0_61_3116" style="mask-type:luminance" maskUnits="userSpaceOnUse" x="0" y="0" width="171" height="144">
<path d="M168.871 34.3382C164.939 58.8362 177.897 90.392 162.166 110.791C141.482 124.102 119.46 147.975 93.0489 142.304C70.2597 133.234 10.7513 136.472 2.67817 113.262C7.0862 86.5783 -8.44714 40.5973 10.3055 21.6218C45.5079 5.46312 80.4254 -6.57848 119.095 4.39206C139.086 9.50587 177.897 3.33338 168.871 34.3382Z" fill="white"/>
</mask>
<g mask="url(#mask0_61_3116)">
<path d="M103.406 151.139C-43.5381 161.601 8.151 138.837 -0.361696 22.0366C128.406 41.6003 101.995 27.2804 103.406 151.139Z" fill="#FFEBA5"/>
</g>
<mask id="mask1_61_3116" style="mask-type:luminance" maskUnits="userSpaceOnUse" x="0" y="0" width="171" height="144">
<path d="M168.871 34.3382C164.939 58.8362 177.897 90.392 162.166 110.791C141.482 124.102 119.46 147.975 93.0489 142.304C70.2597 133.234 10.7513 136.472 2.67817 113.262C7.0862 86.5783 -8.44714 40.5973 10.3055 21.6218C45.5079 5.46312 80.4254 -6.57848 119.095 4.39206C139.086 9.50587 177.897 3.33338 168.871 34.3382Z" fill="white"/>
</mask>
<g mask="url(#mask1_61_3116)">
<path d="M208.822 145.616C86.9198 145.963 95.9464 166.548 99.3081 39.8171C99.3019 39.8233 169.391 11.0039 169.391 11.0039L208.822 145.616Z" fill="#FEDB82"/>
</g>
</svg>
