<svg width="310" height="172" viewBox="0 0 310 172" fill="none" xmlns="http://www.w3.org/2000/svg">
<path d="M126.499 71.1315C143.099 50.1815 161.559 31.0715 182.659 14.5815C188.599 9.94152 195.189 6.45151 201.889 3.07151C208.369 -0.188489 214.609 0.151504 221.069 3.0015C231.599 7.6415 240.359 14.7215 248.619 22.5215C268.669 41.4515 286.469 62.2815 301.779 85.2315C304.189 88.8415 306.229 92.6215 307.889 96.6415C310.619 103.262 309.089 109.002 304.409 114.092C298.109 120.942 289.849 124.512 281.309 127.412C258.649 135.082 235.219 137.072 211.449 136.652C198.419 136.422 185.619 134.682 172.939 131.801C171.949 131.581 170.999 131.252 170.169 132.142C162.739 118.362 153.849 105.552 144.259 93.2015C138.479 85.7315 132.429 78.4815 126.499 71.1315ZM220.599 39.1615C220.029 36.1115 218.579 33.7515 214.909 33.6215C212.319 33.5315 210.219 34.3915 209.779 37.2115C209.369 39.8315 212.929 43.3815 215.809 43.3615C218.439 43.3315 220.279 42.2515 220.599 39.1615ZM177.279 54.3315C176.859 51.2615 175.139 49.6815 172.289 49.7715C169.559 49.8615 166.789 50.5415 166.669 53.9715C166.559 57.0015 168.319 59.1415 171.409 59.1315C174.459 59.1215 176.509 57.2515 177.279 54.3315ZM206.799 83.3115C209.739 82.6815 212.359 81.7015 212.429 78.0915C212.489 75.2615 210.969 73.6215 208.159 73.7715C204.809 73.9415 202.249 75.9615 202.019 79.1715C201.849 81.6215 204.219 83.0215 206.799 83.3115ZM230.789 117.192C233.839 117.452 236.399 115.532 236.389 112.822C236.379 110.592 235.699 108.472 233.099 108.012C230.449 107.542 226.189 110.761 226.159 113.231C226.109 116.391 228.719 116.602 230.789 117.192ZM277.559 101.382C277.599 99.9615 276.419 98.5715 273.679 98.6815C270.309 98.8215 269.069 101.061 268.979 103.921C268.909 106.081 269.999 107.662 272.629 107.512C275.819 107.342 277.489 105.822 277.559 101.382ZM248.379 77.7415C249.939 77.3615 252.909 78.5615 252.499 75.2515C252.109 72.0915 249.829 70.3515 246.529 70.4915C244.389 70.5815 241.579 70.6615 241.649 73.5015C241.739 77.5615 245.089 77.7515 248.379 77.7415ZM174.949 91.7315C177.889 91.8715 179.759 90.8915 179.779 87.5515C179.799 84.7215 178.129 84.3115 175.879 84.3515C173.099 84.4015 170.759 85.2715 170.529 88.3415C170.309 91.2915 172.619 91.7115 174.949 91.7315Z" fill="#010202"/>
<path d="M126.499 71.1319C132.429 78.4819 138.479 85.7319 144.269 93.1919C153.849 105.532 162.749 118.352 170.179 132.132C176.669 145.142 173.429 154.032 159.799 159.492C144.589 165.592 128.569 168.512 112.379 170.262C85.139 173.212 58.249 171.032 31.859 163.472C24.999 161.502 18.309 159.032 11.979 155.672C-0.0210428 149.292 -2.72103 141.442 3.36897 129.352C12.649 110.952 25.3089 94.8718 38.5189 79.2418C48.2989 67.6618 58.599 56.5319 70.989 47.5919C82.549 39.2619 88.7189 39.1518 100.399 47.2918C108.499 52.9318 115.379 59.9618 122.199 67.0418C123.579 68.4618 124.619 70.2519 126.499 71.1319ZM49.479 130.592C52.119 128.862 55.9789 128.432 55.4689 124.562C55.0389 121.282 52.7689 118.802 49.1389 118.712C45.5489 118.622 42.269 121.892 42.739 124.852C43.359 128.702 47.239 128.622 49.479 130.592ZM93.069 135.502C89.549 135.522 87.509 136.942 87.699 140.262C87.859 143.282 89.7889 145.422 92.7789 145.322C96.2789 145.212 98.909 143.162 98.689 139.312C98.479 135.722 95.079 136.252 93.069 135.502ZM135.919 147.542C138.809 147.402 141.219 145.872 141.239 142.962C141.259 140.042 139.419 137.632 135.949 137.582C133.119 137.542 130.719 138.002 130.539 141.742C130.339 145.602 132.439 147.032 135.919 147.542ZM77.3889 84.4318C79.7089 83.5918 82.549 82.8119 82.309 79.7519C82.039 76.3119 79.469 74.6218 76.069 74.6118C73.399 74.6018 71.789 76.9219 72.049 78.7819C72.399 81.3919 73.8689 84.1118 77.3889 84.4318ZM112.449 99.5819C114.399 99.7119 116.309 98.1019 116.039 95.8819C115.729 93.2419 114.459 90.2618 110.759 90.6218C108.229 90.8718 105.409 91.6019 105.799 94.8419C106.169 97.9419 108.499 99.5819 112.449 99.5819Z" fill="white"/>
<path d="M220.599 39.1616C220.279 42.2516 218.439 43.3415 215.819 43.3615C212.939 43.3815 209.379 39.8316 209.789 37.2116C210.229 34.3916 212.329 33.5315 214.919 33.6215C218.579 33.7515 220.019 36.1116 220.599 39.1616Z" fill="#616160"/>
<path d="M177.279 54.3312C176.509 57.2512 174.459 59.1212 171.399 59.1312C168.309 59.1412 166.549 57.0012 166.659 53.9712C166.779 50.5412 169.559 49.8612 172.279 49.7712C175.139 49.6812 176.849 51.2612 177.279 54.3312Z" fill="#616160"/>
<path d="M206.799 83.3112C204.219 83.0212 201.849 81.6112 202.029 79.1712C202.259 75.9612 204.819 73.9512 208.169 73.7712C210.979 73.6212 212.499 75.2612 212.439 78.0912C212.359 81.7112 209.739 82.6812 206.799 83.3112Z" fill="#616160"/>
<path d="M230.789 117.192C228.719 116.592 226.109 116.382 226.149 113.232C226.179 110.762 230.449 107.542 233.089 108.012C235.689 108.472 236.379 110.592 236.379 112.822C236.399 115.532 233.839 117.462 230.789 117.192Z" fill="#616160"/>
<path d="M277.559 101.382C277.489 105.822 275.809 107.342 272.629 107.512C269.999 107.652 268.909 106.082 268.979 103.922C269.069 101.062 270.309 98.8219 273.679 98.6819C276.419 98.5719 277.599 99.9619 277.559 101.382Z" fill="#9C9B9B"/>
<path d="M248.379 77.7413C245.089 77.7513 241.739 77.5713 241.649 73.5013C241.589 70.6713 244.389 70.5913 246.529 70.4913C249.829 70.3413 252.109 72.0913 252.499 75.2513C252.909 78.5513 249.939 77.3513 248.379 77.7413Z" fill="#9C9B9B"/>
<path d="M174.959 91.7311C172.619 91.7111 170.319 91.3011 170.539 88.3411C170.769 85.2611 173.109 84.3911 175.889 84.3511C178.139 84.3111 179.809 84.7211 179.789 87.5511C179.759 90.8911 177.889 91.8611 174.959 91.7311Z" fill="#9C9B9B"/>
<path d="M49.4789 130.591C47.2389 128.621 43.3589 128.701 42.7389 124.851C42.2589 121.891 45.5489 118.631 49.1389 118.711C52.7689 118.801 55.0389 121.281 55.4689 124.561C55.9789 128.441 52.1189 128.861 49.4789 130.591Z" fill="#DBDBDB"/>
<path d="M93.069 135.502C95.079 136.252 98.479 135.722 98.679 139.312C98.899 143.172 96.2789 145.212 92.7689 145.322C89.7789 145.422 87.849 143.282 87.689 140.262C87.519 136.942 89.549 135.522 93.069 135.502Z" fill="#DBDBDB"/>
<path d="M135.919 147.542C132.439 147.032 130.349 145.602 130.539 141.732C130.719 137.992 133.129 137.532 135.949 137.572C139.419 137.622 141.259 140.032 141.239 142.952C141.219 145.872 138.809 147.402 135.919 147.542Z" fill="#DBDBDB"/>
<path d="M77.389 84.4314C73.869 84.1214 72.399 81.3914 72.039 78.7814C71.789 76.9214 73.389 74.6014 76.059 74.6114C79.459 74.6214 82.029 76.3114 82.299 79.7514C82.549 82.8114 79.709 83.5914 77.389 84.4314Z" fill="#DBDBDB"/>
<path d="M112.449 99.5815C108.499 99.5815 106.169 97.9415 105.799 94.8415C105.409 91.5915 108.229 90.8615 110.759 90.6215C114.459 90.2615 115.729 93.2415 116.039 95.8815C116.309 98.1015 114.389 99.7115 112.449 99.5815Z" fill="#DBDBDB"/>
</svg>
