<svg width="163" height="155" viewBox="0 0 163 155" fill="none" xmlns="http://www.w3.org/2000/svg">
<path d="M114.546 25.1034C123.241 27.0453 131.899 29.1242 139.175 34.6762C155.725 47.3112 162.933 64.1788 162.31 84.8431C161.725 104.269 153.795 120.221 139.959 133.348C129.11 143.637 115.872 149.506 101.326 152.593C91.7715 154.622 82.124 155.033 72.4454 154.236C52.0114 152.562 33.7185 145.759 19.0419 130.921C10.4837 122.263 4.9317 111.881 2.28642 99.974C-3.88797 72.1644 7.81972 45.6743 31.0795 31.2902C36.4074 27.9976 42.1274 25.7133 48.3889 24.9229C50.4554 27.6988 52.8268 30.0454 56.1692 31.3275C60.8746 33.1388 60.9058 33.4811 57.47 37.3525C57.1277 37.7384 56.7356 38.0808 56.3808 38.4604C55.1173 39.8235 53.6484 41.0559 52.6338 42.5871C50.418 45.9357 51.7811 48.6557 55.7521 49.1225C59.6609 49.5831 63.4017 48.9233 66.9059 47.1805C70.0553 45.6183 73.2048 44.0311 76.211 42.2199C79.4476 40.2717 82.3543 40.2157 85.8025 42.0456C91.7341 45.1888 97.9148 47.9088 104.687 48.7864C107.064 49.0913 109.143 48.7552 110.357 46.1598C111.589 43.5207 111.21 41.4045 109.143 39.4439C107.718 38.087 106.38 36.643 104.979 35.2612C103.292 33.5931 102.826 32.4292 105.788 31.6014C109.473 30.5682 112.56 28.5142 114.546 25.1034Z" fill="#DF4814"/>
<path d="M114.546 25.1036C112.56 28.5206 109.473 30.5684 105.794 31.5954C102.825 32.417 103.298 33.5871 104.985 35.2552C106.386 36.637 107.724 38.081 109.149 39.4378C111.209 41.3985 111.595 43.5209 110.363 46.1537C109.149 48.7492 107.07 49.0916 104.693 48.7803C97.9208 47.9027 91.7402 45.189 85.8085 42.0395C82.3603 40.2096 79.4598 40.2657 76.217 42.2138C73.2108 44.0251 70.0613 45.6122 66.9119 47.1745C63.4077 48.9173 59.6607 49.577 55.7582 49.1164C51.7871 48.6496 50.424 45.9297 52.6398 42.581C53.6544 41.0499 55.1171 39.8175 56.3868 38.4544C56.7416 38.0747 57.1275 37.7324 57.476 37.3465C60.918 33.4751 60.8807 33.1327 56.1752 31.3215C52.839 30.0393 50.4614 27.6928 48.395 24.9168C46.9385 17.8212 49.1107 15.7548 56.4553 17.3047C61.7956 18.4312 67.192 19.3337 72.0344 22.1533C73.9265 23.255 73.6963 21.2508 73.8768 20.3856C74.7917 16.0411 75.5822 11.6655 76.4349 7.30862C77.0075 4.3957 77.7171 1.66327 81.2835 0.916368C84.9807 0.14457 87.7505 1.58236 90.0596 4.22764C91.3107 5.6592 91.4041 7.4331 90.9746 9.21944C90.1281 12.7237 89.2069 16.2154 88.3791 19.7258C88.1799 20.5786 87.8127 21.5247 88.8895 22.228C89.7609 22.8006 90.4331 22.4334 91.1924 22.0661C96.1531 19.6636 101.493 18.4561 106.815 17.2175C111.153 16.2092 114.178 17.703 115.162 20.9333C115.647 22.5267 114.726 23.7156 114.546 25.1036Z" fill="#8A7C1D"/>
</svg>
