<svg width="248" height="263" viewBox="0 0 248 263" fill="none" xmlns="http://www.w3.org/2000/svg">
<path d="M187.906 14.5171C304.956 78.9671 215.116 137.797 199.796 233.197C167.856 297.177 72.5255 236.397 23.4155 224.347C-34.1645 193.737 35.9655 116.737 33.6555 70.6371C27.0955 -7.6629 135.076 -11.6829 187.906 14.5171Z" fill="#D67813"/>
<path d="M126.376 14.4971C146.286 14.9071 168.246 20.707 187.846 33.057C205.006 43.867 219.186 58.0071 224.146 78.7671C227.266 91.8471 224.416 103.587 213.486 112.297C209.476 115.487 208.106 119.737 206.856 124.207C197.006 159.247 187.256 194.307 177.326 229.327C173.076 244.317 161.676 250.357 144.356 246.297C108.576 237.917 73.1455 228.287 38.9255 214.647C34.5355 212.897 30.6856 210.367 27.0256 207.447C20.2956 202.067 18.2356 195.197 20.4556 186.967C25.9956 166.407 32.9655 146.297 39.1855 125.947C43.7055 111.157 48.3056 96.3971 52.8956 81.6371C54.4256 76.7271 54.3156 71.5771 53.5056 66.7771C49.6956 44.3271 68.1155 25.687 84.2255 20.347C96.8555 16.157 109.816 14.7571 126.376 14.4971ZM165.726 72.7271C165.846 72.7871 165.966 72.8471 166.086 72.9071C165.976 72.8371 165.856 72.7671 165.746 72.6971C166.476 72.3671 167.196 71.9971 167.956 71.7071C172.146 70.1471 174.146 66.467 173.096 62.317C172.156 58.597 170.176 55.797 166.036 55.927C162.226 56.037 158.516 61.007 159.006 65.437C159.446 69.257 160.216 73.3371 165.726 72.7271ZM88.7556 182.537C88.8856 177.847 86.7055 174.887 82.9955 174.707C78.2855 174.487 74.1656 178.587 74.1456 183.537C74.1256 187.667 77.6956 191.677 81.3856 191.647C85.3956 191.617 88.6056 187.647 88.7556 182.537ZM77.7756 128.137C77.8456 122.587 76.1655 120.747 70.9955 120.687C66.2355 120.627 63.3655 123.417 63.1555 128.307C62.9555 132.867 66.2556 136.737 70.3256 136.707C74.9256 136.667 77.7056 133.477 77.7756 128.137ZM144.666 200.667C139.696 200.687 136.756 203.697 136.756 208.757C136.756 213.607 139.426 216.637 143.716 216.667C147.106 216.687 151.696 211.267 151.686 207.267C151.666 203.467 148.676 200.657 144.666 200.667ZM124.716 99.237C124.806 95.527 121.016 91.1371 117.526 90.9171C114.036 90.6971 109.956 94.7471 109.856 98.5371C109.736 103.027 112.986 107.537 116.456 107.687C120.086 107.847 124.616 103.217 124.716 99.237ZM106.756 50.617C106.716 46.297 104.296 43.8071 100.036 43.7071C95.9855 43.6071 92.7856 47.297 92.7556 52.117C92.7256 56.667 95.7956 60.537 99.5156 60.617C102.806 60.697 106.796 55.187 106.756 50.617ZM140.756 155.027C140.716 149.907 138.686 147.627 134.166 147.677C129.956 147.717 126.666 151.397 126.766 155.947C126.866 160.477 129.606 163.617 133.506 163.687C138.196 163.777 140.796 160.667 140.756 155.027ZM182.756 121.497C182.706 116.167 180.476 113.607 175.996 113.717C171.676 113.817 168.726 117.477 168.766 122.657C168.806 126.447 171.936 129.747 175.486 129.717C179.806 129.677 182.796 126.297 182.756 121.497Z" fill="#F8AD2D"/>
</svg>
