<svg width="593" height="912" viewBox="0 0 593 912" fill="none" xmlns="http://www.w3.org/2000/svg">
<rect x="68.4785" y="79.5072" width="410" height="828" rx="20" fill="#EDF2C9"/>
<rect x="62.7432" y="570.65" width="409.714" height="42.5628" fill="#61240B"/>
<rect x="62.458" y="83.0389" width="36" height="442.163" fill="#61240B"/>
<rect x="449.456" y="83.0389" width="36" height="442.163" fill="#61240B"/>
<rect x="41.458" y="98.8873" width="36" height="456.124" transform="rotate(-90 41.458 98.8873)" fill="#4D1F0D"/>
<path d="M445.797 280.521L445.318 280.569C428.788 271.92 430.469 260.46 434.712 244.634C443.939 250.276 452.141 257.185 450.417 269.236C450.032 271.93 445.845 278.354 445.797 280.521Z" fill="#829F45"/>
<path d="M453.248 301.873C453.021 301.865 452.241 301.069 452.205 301.021C451.375 299.737 450.721 293.484 450.786 291.789C451.2 280.931 464.337 273.456 461.69 261.848C468.987 264.793 473.601 276.522 471.612 283.917C469.158 293.017 454.364 296.017 453.248 301.873Z" fill="#829F45"/>
<path d="M449.294 300.832C448.983 301.523 448.329 301.98 448.539 302.833C442.964 295.741 435.306 298.07 428.636 293.795C418.686 287.413 416.747 270.494 422.191 261.041C419.318 275.668 435.327 277.34 442.54 286.377C445.864 290.538 447.784 295.778 449.294 300.832Z" fill="#829F45"/>
<path d="M462.81 344.161C463.063 345.237 463.922 345.788 463.099 347.014C457.005 339.377 439.198 349.722 428.926 337.012C426.103 333.521 424.429 330.006 424.156 325.474C429.48 333.436 438.149 326.96 446.1 328.542C454.051 330.125 458.227 338.543 462.819 344.15L462.81 344.161Z" fill="#829F45"/>
<path d="M489.281 316.009C489.374 323.533 484.162 331.625 477.504 334.985C474.948 336.273 466.322 337.98 465.23 339.593C465.51 338.505 464.634 338.285 464.606 338.216C463.146 332.94 465.937 323.909 470.248 320.344C475.67 315.853 484.321 315.811 487.98 310.377C489.263 311.153 489.252 314.705 489.271 316.01L489.281 316.009Z" fill="#829F45"/>
<path d="M456.411 323.659C456.417 323.71 455.665 323.704 456.029 324.655C452.848 322.312 443.262 323.9 438.801 323.034C429.143 321.161 422.169 310.834 421 301.525C427.94 309.591 436.423 304.328 445.11 309.417C448.371 311.331 456.017 320.066 456.4 323.65L456.411 323.659Z" fill="#829F45"/>
<path d="M459.647 322.375L458.124 321.572C457.931 313.358 457.562 304.019 464.662 298.319C470.754 293.431 480.84 295.364 480.631 285.165C483.371 295.252 479.729 306.653 471.429 313.01C466.683 316.65 460.422 316.008 459.636 322.376L459.647 322.375Z" fill="#829F45"/>
<path d="M452.194 301.022C452.231 301.08 453.021 301.865 453.238 301.874C451.972 308.486 456.735 316.793 457.813 323.281C459.628 323.004 458.135 321.982 458.124 321.572L459.646 322.375C458.884 328.565 461.972 334.973 462.975 341.026L464.615 338.215C464.633 338.285 465.52 338.504 465.239 339.593C464.55 340.619 464.281 344.774 464.462 346.155C464.604 347.252 469.026 361.748 469.48 362.474C469.591 362.658 470.277 363.33 470.476 362.857C470.652 361.45 471.619 360.426 472.02 359.099L473.063 359.95C467.864 363.79 476.261 382.083 475.881 387.782L477.187 386.446C477.215 386.525 478.556 386.76 478.278 387.776C477.104 389.902 478.674 414.752 479.694 415.986C479.765 416.082 479.679 416.554 480.221 416.417C479.014 418.721 479.464 433.845 479.488 437.641C479.496 439.647 479.37 442.469 480.163 444.303C479.145 444.108 478.045 443.612 477.828 445.023C477.534 444.971 477.288 445.078 477.3 444.593C477.373 444.4 477.408 443.831 477.635 443.118C478.845 439.322 479.13 436.339 477.474 432.081C476.805 430.142 478.499 430.814 478.732 430.276C478.441 429.935 477.632 430.285 477.713 429.659C477.718 429.607 478.626 429.731 478.637 429.329C478.799 423.312 478.113 410.332 472.969 406.592C472.907 406.289 472.964 405.934 472.873 405.644L478.28 411.581C477.254 404.799 477.483 394.453 473.56 388.748L473.991 388.22C474.383 388.839 474.593 389.394 474.897 390.053C476.012 390.496 471.842 373.607 471.43 372.383C470.567 369.856 469.548 366.502 467.304 364.866C468.278 365.035 468.165 364.326 468.202 364.291C468.366 364.182 469.077 364.388 469.126 363.961C469.231 363.065 463.809 347.94 463.089 347.025C463.912 345.799 463.053 345.248 462.8 344.172C461.859 340.161 459.011 326.875 456.02 324.677C455.656 323.725 456.408 323.732 456.403 323.681C457.071 324.889 457.702 324.825 457.326 323.351C456.097 318.525 451.521 306.669 448.521 302.856C448.312 302.012 448.974 301.544 449.275 300.855C449.299 300.791 450.148 300.941 450.199 300.525C450.549 297.679 444.607 284.84 445.299 280.591L445.778 280.543C445.655 285.835 450.917 295.924 450.822 301.902L452.176 301.045L452.194 301.022Z" fill="#829F45"/>
<path d="M468.213 364.28C468.213 364.28 468.288 365.024 467.314 364.855C462.537 361.386 452.803 366.087 446.527 366.002C437.034 365.862 429.389 357.744 425.188 349.895C433.837 355.627 443.426 347.575 452.548 349.533C458.533 350.81 465.874 358.671 468.224 364.289L468.213 364.28Z" fill="#829F45"/>
<path d="M495.965 334.557C496.256 335.402 496.856 336.34 497.201 337.314C496.928 345.997 491.942 356.834 482.812 358.953C480.439 359.502 474.517 358.856 473.063 359.94L472.019 359.088C473.096 355.49 472.872 351.86 474.745 347.996C479.154 338.884 487.23 337.531 495.975 334.556L495.965 334.557Z" fill="#829F45"/>
<path d="M506.128 359C505.934 365.421 503.734 371.541 500.252 376.896C499.057 377.089 499.201 377.702 498.442 378.036C496.107 379.065 493.51 381.057 490.925 382.163C487.177 383.767 480.444 383.852 478.278 387.766C478.546 386.751 477.215 386.515 477.186 386.435C476.022 383.373 479.397 372.39 481.229 369.446C487.68 359.057 496.489 362.806 505.456 357.144C505.764 357.843 505.915 358.528 506.128 359Z" fill="#829F45"/>
<path d="M474 388.209L473.57 388.736C467.172 379.422 453.408 388.935 444.065 386.917C444.036 386.128 443.904 385.328 443.823 384.534C443.721 383.422 443.598 382.313 443.486 381.202C443.722 380.489 444.463 378.757 443.431 378.326C442.811 380.633 441.09 382.443 439.965 384.441C433.675 380.971 427.574 374.281 426.911 367.021C432.197 376.129 443.621 370.444 451.803 370.748C462.279 371.138 468.934 380.252 474 388.209Z" fill="#829F45"/>
<path d="M441.382 493.419C438.584 499.809 436.836 506.48 435.616 513.287L437.065 512.374C436.907 512.631 435.456 516.108 435.235 516.715C434.884 517.645 435.101 517.802 435.181 518.62C435.211 518.895 435.225 519.295 435.16 519.571L431.021 517.363C432.075 514.068 432.055 510.364 432.622 507.108C433.097 504.413 434.661 501.462 434.379 498.384L437.991 491.611L441.374 493.415L441.382 493.419Z" fill="#5C8B45"/>
<path d="M543.7 358.636C542.144 360.681 540.086 362.387 539.524 365.108C541.064 363.56 546.583 361.435 547.659 360.271L548.037 360.473C534.292 371.368 520.855 382.231 513.936 399.042C519.87 392.494 528.391 388.619 535.224 383.585C534.959 384.043 535.379 384.226 535.771 384.363C530.006 388.56 523.331 392.095 517.995 396.863C513.885 400.535 510.507 405.395 506.61 409.151C502.798 412.828 497.291 416.055 494.502 420.081C497.873 417.504 501.618 415.291 505.361 413.316C507.366 412.254 511.71 411.343 513.158 410.471C513.619 410.634 513.326 410.912 513.334 411.051C513.343 411.19 513.046 411.456 513.511 411.632C511.261 411.797 498.99 418.182 496.613 419.769C495.254 420.669 483.821 429.363 484.789 430.613C499.754 421.289 513.715 418.599 530.948 422.866C532.218 423.181 541.238 425.313 540.663 426.838C529.84 432.236 519.377 433.079 507.684 430.256C498.169 427.964 498.917 423.905 488.913 429.668C479.874 434.881 470.698 445.317 465.481 454.129C466.702 453.798 467.796 451.961 468.598 451.447C475.163 447.284 485.107 447.064 492.613 448.078C487.666 444.922 480.225 448.07 475.007 446.663C494.436 437.62 512.035 438.815 530.088 451.164C519.816 454.56 509.335 459.355 498.304 459.575C488.185 459.774 480.582 456.536 471.721 451.913C460.862 458.658 454.447 469.387 448 480.079L445.589 477.345C449.143 470.779 455.765 464.608 452.636 455.988L454.743 455.664C454.405 457.48 455.11 460.949 455.217 462.92C460.318 455.451 466.247 448.446 469.837 440.047L471.519 441.431C476.876 430.748 487.534 423.409 491.55 412.021C491.743 412.279 492.884 413.126 493.434 413.026C492.29 414.764 491.452 418.527 489.521 420.362C499.792 414.255 516.395 396.702 517.078 384.095L518.029 384.116C517.414 385.733 516.756 388.268 516.829 389.993C519.919 384.121 524.358 379.269 528.589 374.285C532.243 369.975 538.904 365.573 540.497 360.103C540.816 359.001 540.183 355.436 540.673 353.432C542.395 346.324 548.025 338.775 554.036 334.72C552.084 342.006 546.131 346.826 543.327 353.886C542.649 355.603 541.024 359.505 543.675 358.664L543.7 358.636Z" fill="#5C8B45"/>
<path d="M563.459 390.421C563.459 390.421 563.375 390.21 562.878 390.597L562.538 388.967C560.819 390.192 558.122 390.574 556.454 391.763C552.201 394.791 546.796 401.435 541.982 405.301C541.423 405.748 540.086 406.607 541.458 407.194C534.712 411.406 528.761 413.042 520.705 413.038C518.774 413.032 515.226 411.481 513.491 411.611C513.03 411.448 513.323 411.17 513.315 411.03L516.45 411.493L541.375 399.185C539.364 398.826 526.046 406.205 525.087 405.714C524.926 405.628 524.394 402.727 523.072 402.705C537.312 393.636 550.602 389.604 567.156 386.61C567.084 387.968 564.464 389.622 563.438 390.42L563.459 390.421Z" fill="#5C8B45"/>
<path d="M478.562 391.998L476.208 390.981L474.751 431.745C473.89 433.727 472.331 435.895 470.993 433.361C470.457 429.672 467.373 424.769 466.656 420.663C464.563 408.664 472.352 395.379 477.133 384.709C477.908 387.057 478.107 389.573 478.566 391.99L478.562 391.998Z" fill="#5C8B45"/>
<path d="M497.071 398.974C497.28 400.037 498.255 399.74 498.655 400.543C495.786 398.785 496.254 403.958 495.669 405.229C495.127 406.419 492.812 412.022 491.23 410.837C485.006 393.377 492.759 381.168 501.558 366.105C503.711 368.256 502.911 372.257 502.559 375.089C501.853 380.816 499.353 385.368 498.351 390.233C498.276 390.586 499.467 390.177 499.276 391.213C499.047 392.456 496.963 398.44 497.071 398.974Z" fill="#5C8B45"/>
<path d="M456.248 450.146L456.626 450.348C456.154 452.455 455.149 453.584 454.768 455.636L452.661 455.96C451.226 451.998 445.6 448.874 445.167 443.75C445.331 443.289 445.314 442.06 445.424 441.466C446.481 440.996 448.5 440.159 448.919 438.986C447.538 439.791 445.92 439.993 444.494 440.495C444.336 439.645 444.052 438.666 443.993 437.807C443.921 436.797 443.364 433.613 443.443 433.407C443.553 433.104 447.463 429.614 447.581 428.363C447.533 427.893 446.568 427.606 446.174 427.375C445.575 427.024 444.39 426.92 443.339 426.349C445.056 424.255 446.359 426.098 449.308 424.215C449.657 423.988 449.756 423.917 450.086 423.668L454.399 451.808L455.35 451.829C455.627 451.253 455.988 450.711 456.252 450.138L456.248 450.146Z" fill="#5C8B45"/>
<path d="M501.959 401.581L497.071 398.974C496.962 398.44 499.047 392.456 499.276 391.213C499.467 390.177 498.276 390.586 498.35 390.233C499.36 385.372 501.853 380.816 502.559 375.089C502.911 372.257 503.711 368.256 501.558 366.105C502.161 365.071 502.664 363.954 503.263 362.908C509.525 373.685 507.801 390.629 501.959 401.581Z" fill="#5C8B45"/>
<path d="M478.563 391.999C480.627 403.061 483.488 415.386 478.717 426.133C476.434 431.267 471.824 435.645 471.542 441.391L469.859 440.007C471.256 436.728 471.483 436.808 470.986 433.357C472.323 435.891 473.883 433.723 474.744 431.741L476.201 390.977L478.555 391.994L478.563 391.999Z" fill="#5C8B45"/>
<path d="M564.816 353.472C561.966 350.204 563.381 350.886 565.908 348.262C561.38 349.674 561.15 354.196 556.924 349.262C565.745 340.81 572.614 338.288 584.364 335.4C579.463 343.172 572.409 348.698 564.824 353.476L564.816 353.472Z" fill="#5C8B45"/>
<path d="M528.459 350.983C527.501 350.337 526.208 355.068 526.153 355.308C525.232 359.13 524.628 363.131 523.37 366.867C523.126 367.596 516.38 380.982 518.804 380.858C521.214 379.423 521.887 375.913 524.568 375.481C524.326 375.859 523.673 376.442 523.185 377.164C520.915 380.546 519.515 380.223 518.046 384.084L517.095 384.063C517.21 382.025 515.804 379.754 515.842 377.354C515.998 367.579 523.6 356.139 526.749 346.937C528.044 347.669 528.107 349.781 528.455 350.991L528.459 350.983Z" fill="#5C8B45"/>
<path d="M528.46 350.983C531.158 360.47 529.978 367.143 524.568 375.481C521.887 375.913 521.21 379.431 518.804 380.858C516.38 380.982 523.127 367.595 523.37 366.867C524.628 363.131 525.232 359.129 526.153 355.307C526.208 355.068 527.505 350.329 528.46 350.983Z" fill="#5C8B45"/>
<path d="M456.627 450.348L456.248 450.146C457.335 447.799 457.121 444.126 457.906 441.607L452.441 421.056C452.542 420.965 452.547 420.781 452.643 420.678C453.39 419.938 455.618 418.416 456.155 417.72C462.786 429.491 459.295 438.479 456.631 450.34L456.627 450.348Z" fill="#5C8B45"/>
<path d="M564.816 353.472C559.568 356.775 554.507 360.096 548.042 360.465L547.663 360.263C550.954 356.692 552.517 353.47 556.916 349.258C561.147 354.183 561.38 349.674 565.9 348.257C563.369 350.89 561.954 350.207 564.808 353.467L564.816 353.472Z" fill="#5C8B45"/>
<path d="M543.701 358.636C541.049 359.477 542.662 355.579 543.353 353.858C546.156 346.798 552.11 341.978 554.061 334.692C554.718 334.256 555.343 333.762 556.009 333.31C554.564 343.97 549.952 350.406 543.713 358.632L543.701 358.636Z" fill="#5C8B45"/>
<path d="M513.335 411.031C513.33 410.904 513.624 410.626 513.159 410.45C516.088 408.682 519.463 405.01 523.085 402.701C524.411 402.715 524.939 405.624 525.1 405.71C526.059 406.201 539.368 398.818 541.388 399.181L516.463 411.489L513.327 411.027L513.335 411.031Z" fill="#5C8B45"/>
<path d="M501.959 401.581C499.476 406.236 495.956 409.189 493.455 412.986C492.914 413.09 491.764 412.239 491.571 411.981C491.125 411.381 491.313 411.088 491.222 410.832C492.799 412.025 495.115 406.423 495.661 405.225C496.245 403.954 495.782 398.773 498.646 400.538C498.247 399.736 497.279 400.037 497.062 398.97L501.951 401.577L501.959 401.581Z" fill="#5C8B45"/>
<path d="M431.875 492.218C432.566 492.959 434.274 497.262 434.379 498.384C434.661 501.462 433.097 504.413 432.622 507.108C430.601 505.699 430.586 504.253 427.734 504.501C427.231 502.36 427.094 499.805 425.028 498.713C425.834 497.261 426.263 495.1 427.072 493.524C426.007 494.415 425.024 495.328 423.955 496.207L423.976 495.256C425.277 494.388 427.192 492.058 427.913 490.59C429.875 490.654 429.997 490.212 431.875 492.218Z" fill="#5C8B45"/>
<path d="M457.048 477.622C456.939 477.709 454.862 477.977 454.261 478.308C445.757 483.102 445.339 484.369 441.373 493.415L437.991 491.611C440.529 486.852 443.044 482.059 445.615 477.317L448.026 480.051C450.552 476.981 455.046 476.585 457.884 475.162C457.943 475.886 457.581 477.203 457.06 477.618L457.048 477.622Z" fill="#5C8B45"/>
<path d="M494.911 466.423C494.601 467.489 492.909 468.179 492.556 469.035L492.177 468.833L478.427 469.713L460.786 473.348C476.739 465.895 477.842 466.949 494.907 466.431L494.911 466.423Z" fill="#5C8B45"/>
<path d="M562.886 390.601C556.042 395.888 548.61 402.744 541.474 407.203C540.109 406.62 541.451 405.753 541.998 405.31C546.811 401.443 552.212 394.808 556.469 391.772C558.138 390.583 560.827 390.196 562.553 388.976L562.894 390.606L562.886 390.601Z" fill="#5C8B45"/>
<path d="M490.42 470.306C491.215 469.261 489.919 469.48 489.391 469.52C483.222 469.974 476.949 470.486 470.923 471.989C466.678 473.045 460.05 474.476 457.422 477.832L457.043 477.63C457.569 477.207 457.926 475.898 457.868 475.173C458.91 474.654 459.769 473.819 460.778 473.343L478.419 469.708L492.169 468.829C491.997 469.927 490.899 469.931 490.415 470.314L490.42 470.306Z" fill="#5C8B45"/>
<path d="M468.61 451.423C466.334 449.64 473.933 447.145 475.033 446.635C480.238 448.046 487.691 444.895 492.638 448.05C485.124 447.032 475.188 447.256 468.623 451.419L468.61 451.423Z" fill="#5C8B45"/>
<path d="M535.776 384.355C535.383 384.218 534.963 384.035 535.229 383.577C537.136 382.174 539.038 378.782 541.026 377.246C551.659 369.004 566.007 364.968 576.564 356.345C571.461 369.522 560.098 381.284 545.9 383.952C543.832 384.338 537.613 384.983 535.788 384.351L535.776 384.355Z" fill="#5C8B45"/>
<path d="M557.251 372.618C558.12 374.209 554.341 374.758 553.834 375.864L542.942 380.44L557.259 372.622L557.251 372.618Z" fill="#5C8B45"/>
<path d="M456.248 450.146C455.984 450.719 455.622 451.261 455.346 451.837L454.395 451.816L450.081 423.676C450.932 423.013 451.725 421.739 452.436 421.064L457.901 441.615C457.121 444.126 457.33 447.807 456.243 450.154L456.248 450.146Z" fill="#5C8B45"/>
<path d="M490.419 470.306C490.14 470.519 489.487 471.453 489.238 471.61C488.419 472.136 487.593 472.367 486.529 473.062C484.211 474.577 481.887 476.296 479.358 477.45C472.46 480.608 464.359 480.922 457.414 477.828C460.042 474.471 466.669 473.041 470.915 471.985C476.94 470.482 483.213 469.969 489.383 469.515C489.91 469.476 491.206 469.257 490.411 470.302L490.419 470.306Z" fill="#5C8B45"/>
<path d="M462.616 497.98C462.147 499.054 461.849 500.116 461.388 501.194C460.862 502.413 460.391 503.528 459.962 504.778L453.047 506.882C451.195 506.38 449.06 507.745 448.261 507.712C446.687 507.638 445.319 506.381 443.722 506.253C447.309 498.867 457.735 497.57 464.811 494.796C464.309 495.852 463.249 496.559 462.628 497.976L462.616 497.98Z" fill="#5C8B45"/>
<path d="M467.203 490.29C466.868 491.383 465.755 492.889 465.197 494.051C461.918 494.401 458.028 495.875 454.916 497.018C452.071 498.066 447.715 501.732 445.412 499.438C447.905 495.927 462.078 488.611 466.522 487.03C467.001 487.255 467.248 490.128 467.203 490.29Z" fill="#5C8B45"/>
<path d="M465.197 494.051C465.072 494.305 464.919 494.554 464.798 494.8C457.722 497.573 447.297 498.871 443.709 506.257C443.619 506.25 442.458 507.089 441.98 506.783C443.384 504.635 443.792 501.718 445.412 499.438C447.711 501.74 452.071 498.066 454.915 497.018C458.028 495.875 461.917 494.401 465.197 494.051Z" fill="#5C8B45"/>
<path d="M172.297 47.483C174.104 62.8496 175.044 82.7319 171.025 97.7125C170.968 97.8376 170.9 97.7526 170.86 97.7496C170.328 97.7159 168.824 99.7276 168.269 100.279C161.861 106.629 154.043 112.908 145.034 114.757C135.348 116.747 126.152 113.705 117.773 108.805C118.572 107.266 119.759 105.887 120.585 104.365C120.751 104.414 120.741 104.324 120.75 104.327C133.335 108.027 146.818 108.794 159.541 105.354L162.097 104.217C162.166 104.196 163.34 103.939 162.897 103.734C152.208 105.781 141.152 105.598 130.526 103.17C130.438 102.866 129.829 102.881 129.591 102.861C129.141 102.751 128.66 102.677 128.224 102.562C128.024 102.524 127.741 102.434 127.491 102.382C125.897 101.938 124.281 101.538 122.721 100.986C124.74 98.0663 126.388 94.84 128.44 91.9552C139.476 93.6566 150.959 92.6685 161.433 88.7431C160.872 88.0966 161.877 88.6689 162.014 88.0496C163.315 87.6042 164.573 87.0257 165.89 86.6177C166.075 86.4349 165.727 86.406 165.67 86.4087C163.596 86.4678 159.352 88.484 156.972 88.5354C148.429 89.9161 139.649 90.0267 131.081 88.6795L130.708 88.3737C134.843 81.6018 138.679 74.5928 143.051 67.9873C151.235 67.6634 159.487 66.6405 167.064 63.3315C158.79 65.4516 150.34 66.7825 141.77 66.3288C143.219 63.5402 144.944 60.8871 146.566 58.1974C146.927 58.6115 147.543 58.485 148.046 58.4283C154.725 57.6683 163.003 54.3194 168.382 50.3132C169.365 49.5803 170.983 47.7763 171.857 47.2823C172.143 47.1193 172.098 47.3965 172.293 47.4889L172.297 47.483Z" fill="#5C8B45"/>
<path d="M172.297 47.483C172.104 47.3918 172.148 47.1166 171.861 47.2764C170.987 47.7704 169.37 49.5724 168.385 50.3073C163.005 54.3155 154.729 57.6624 148.049 58.4224C147.547 58.4791 146.929 58.6076 146.57 58.1915C151.466 50.0785 156.437 42.0048 161.222 33.8247L140.342 65.3466C140.13 65.4571 138.63 62.407 138.494 62.1262C135.28 55.5538 133.274 48.1656 132.098 40.9702C131.789 40.9104 132.102 44.12 132.13 44.3824C131.529 44.4851 131.792 46.4858 131.829 47.0899C132.236 53.9322 134.31 60.9717 136.844 67.299C136.803 67.3013 136.538 67.7028 136.157 67.7117C130.56 67.8732 124.024 66.1514 118.549 65.0434L114.392 63.6837C114.094 62.7335 113.708 61.7892 113.447 60.8238C113.134 59.661 111.873 52.4116 111.537 52.1212C111.453 52.0483 111.316 51.9447 111.203 51.9786C111.035 52.1167 111.529 54.6916 111.538 55.0196C111.544 55.2122 111.274 55.4244 111.294 55.8537C111.403 58.2176 111.881 60.5545 112.057 62.9103C107.274 60.7318 102.848 58.2845 98.4274 55.4104C105.301 48.9252 114.851 43.6762 123.374 39.6821C137.537 33.0451 152.858 28.1723 168.193 25.1642L167.993 23.6952C168.711 24.9781 170.081 32.8305 170.439 34.7881C171.21 38.9767 171.798 43.2555 172.295 47.485L172.297 47.483Z" fill="#5C8B45"/>
<path d="M112.056 62.9155L112.157 62.9795C113.77 71.9495 117.428 80.5472 122.554 88.0835C122.491 88.249 122.596 88.3156 122.629 88.4138L116.835 97.1144C116.782 97.1417 115.962 96.5111 115.858 96.4257C113.944 94.8192 110.717 90.2839 109.184 88.0988C103.642 80.1998 99.5824 71.2944 97.1727 61.9726C96.7943 61.8024 97.0284 62.648 97.0415 62.7369C96.9153 63.296 97.1689 63.9178 97.2152 64.4722C98.2209 76.7613 106.502 91.7596 114.595 100.43C114.671 100.511 114.655 100.579 114.733 100.659C113.521 101.519 112.569 104.664 111.698 105.452C111.314 105.798 109.389 105.496 108.83 105.403C102.698 104.382 98.1643 100.736 94.4086 97.2598C94.3919 97.2381 94.4726 97.0447 94.2478 96.7329C94.2128 96.6829 93.6156 96.3492 93.5914 96.3172C93.5827 96.309 93.7365 96.1758 93.6699 96.0836C93.5783 95.9561 93.4183 96.0992 93.354 96.0252C92.4153 94.7918 91.5125 92.8698 90.4441 91.3542C90.436 91.3407 90.1541 91.04 90.1282 91.2959C87.0446 85.5786 85.859 79.3518 86.7803 72.9172C87.1618 72.8587 86.998 72.9551 87.105 72.6283C89.4967 65.3634 92.8968 60.6346 98.4304 55.4149C102.85 58.2889 107.275 60.735 112.06 62.9148L112.056 62.9155Z" fill="#5C8B45"/>
<path d="M170.86 97.7495C170.763 97.8547 170.932 98.0533 170.934 98.0799C171.143 100.146 167.24 107.854 165.973 109.71C154.97 125.817 127.517 127.999 117.437 110.006C117.512 109.353 117.469 109.39 117.773 108.805C126.153 113.705 135.348 116.747 145.034 114.757C154.044 112.906 161.863 106.627 168.269 100.279C168.826 99.7288 170.329 97.7158 170.86 97.7495Z" fill="url(#paint0_linear_267_839)"/>
<path d="M116.458 102.176C115.825 103.295 114.723 104.67 113.992 105.847C106.521 106.536 99.1467 102.922 94.4071 97.2618C98.1628 100.737 102.698 104.382 108.829 105.405C109.387 105.498 111.313 105.8 111.696 105.454C112.567 104.666 113.519 101.521 114.731 100.661C114.924 100.861 116.039 102.131 116.141 102.12C116.267 102.105 116.86 101.173 116.844 101.01C116.833 100.913 115.551 99.677 115.422 99.684C115.367 99.6879 114.806 100.341 114.595 100.433C106.502 91.7628 98.2214 76.7645 97.2156 64.4754C97.1694 63.921 96.9158 63.2992 97.042 62.7401C99.2091 76.8982 107.395 90.5365 117.073 100.871C116.832 101.244 116.651 101.837 116.457 102.178L116.458 102.176Z" fill="#4E7F37"/>
<path d="M120.584 104.367C119.759 105.889 118.571 107.268 117.772 108.807C117.468 109.392 117.511 109.355 117.436 110.008C116.956 109.148 116.613 108.22 116.146 107.355C116.92 106.155 117.637 104.896 118.447 103.722C119.16 103.929 119.87 104.159 120.582 104.369L120.584 104.367Z" fill="#4E7F37"/>
<path d="M118.538 103.352C118.483 103.426 118.58 103.529 118.447 103.72C117.637 104.893 116.92 106.153 116.147 107.353C112.3 113.327 108.577 119.382 104.74 125.365C104.541 125.478 102.428 124.357 102.585 123.859C106.351 117.833 110.238 111.879 113.992 105.847C114.723 104.67 115.824 103.295 116.457 102.176L118.54 103.354L118.538 103.352Z" fill="#356740"/>
<path d="M146.571 58.1946C144.949 60.8824 143.223 63.5375 141.774 66.3261C150.344 66.7798 158.793 65.4508 167.068 63.3288C159.493 66.639 151.239 67.6606 143.055 67.9845C142.671 67.9994 140.84 67.8236 140.669 67.9572L128.219 88.0649C128.137 88.4543 130.784 88.6304 131.083 88.6755C139.651 90.0226 148.433 89.9133 156.974 88.5313C159.354 88.48 163.597 86.4658 165.672 86.4046C165.728 86.404 166.076 86.4329 165.892 86.6137C164.576 87.0217 163.317 87.6002 162.016 88.0456C151.83 91.539 141.429 91.6649 130.829 90.6343C129.56 90.5111 128.309 90.2612 127.039 90.1432C124.737 93.5112 122.657 97.0283 120.489 100.487C120.355 100.699 119.887 101.109 120.028 101.325L120.588 100.55C122.804 101.456 125.358 101.92 127.49 102.375C127.745 102.445 127.986 102.495 128.223 102.556C128.829 102.673 128.888 102.794 129.589 102.854C129.843 102.915 130.114 103.07 130.524 103.163C141.147 105.592 152.205 105.776 162.895 103.728C163.338 103.933 162.162 104.188 162.095 104.21C152.678 107.174 141.094 106.914 131.439 105.295C127.4 104.619 123.355 103.816 119.492 102.395C119.281 102.408 118.675 103.158 118.537 103.346L116.454 102.169C116.647 101.829 116.83 101.234 117.071 100.862C107.393 90.5267 99.2067 76.8884 97.0395 62.7304C97.0264 62.6415 96.7923 61.7959 97.1707 61.9661C99.5804 71.2879 103.64 80.1933 109.182 88.0922C110.715 90.2774 113.942 94.8127 115.856 96.4191L118.303 99.0302L124.921 88.802C119.661 80.8587 115.101 72.2171 112.913 62.8914C112.091 59.3812 111.643 55.7223 111.534 52.1218C111.872 52.4134 113.13 59.6616 113.444 60.8244C113.707 61.7911 114.09 62.7341 114.389 63.6843C116.712 71.0761 120.126 78.4221 124.66 84.7493C124.816 84.9677 125.9 86.9407 126.199 86.7852L138.995 67.2496L139.137 66.9148C135.714 59.9435 132.944 52.1436 132.13 44.3822C132.101 44.1198 131.792 40.9096 132.098 40.9701C133.273 48.1655 135.279 55.5536 138.494 62.1261C138.63 62.4068 140.13 65.4569 140.341 65.3465L161.222 33.8246C156.437 42.0046 151.466 50.0784 146.57 58.1913L146.571 58.1946Z" fill="#356740"/>
<path d="M131.084 88.6788C130.786 88.6318 128.138 88.4576 128.221 88.0682L140.67 67.9606C140.841 67.827 142.672 68.0028 143.056 67.9879C138.684 74.5934 134.846 81.6032 130.713 88.3743L131.086 88.6801L131.084 88.6788Z" fill="#61903A"/>
<path d="M128.443 91.9544C128.64 91.6789 129.072 90.8216 129.242 90.6932C129.492 90.5043 130.526 90.9899 130.832 90.6389C141.432 91.6694 151.831 91.5422 162.019 88.0501C161.883 88.6674 160.879 88.0951 161.438 88.7436C150.964 92.669 139.481 93.6571 128.445 91.9557L128.443 91.9544Z" fill="#4E7F37"/>
<path d="M128.443 91.9544C126.391 94.8392 124.743 98.0656 122.724 100.985C124.286 101.538 125.902 101.939 127.495 102.381C125.363 101.926 122.807 101.46 120.593 100.556L120.492 100.491C122.659 97.0348 124.739 93.5177 127.042 90.1477C128.312 90.2657 129.563 90.5157 130.832 90.6389C130.527 90.9899 129.495 90.5036 129.242 90.6932C129.072 90.8216 128.64 91.6789 128.443 91.9544Z" fill="#4E7F37"/>
<path d="M136.157 67.7169L124.662 84.7539C120.129 78.4267 116.717 71.082 114.392 63.6889L118.548 65.0486C124.023 66.1566 130.559 67.8784 136.157 67.7169Z" fill="#5C8B45"/>
<path d="M138.995 67.253L126.199 86.7885C125.899 86.946 124.818 84.9722 124.66 84.7526L136.154 67.7156C136.534 67.7035 136.8 67.3052 136.841 67.3029C136.917 67.2959 137.218 67.5975 137.295 67.5905C137.881 67.5338 138.431 67.4069 138.993 67.2517L138.995 67.253Z" fill="#73A14D"/>
<path d="M138.996 67.2529C138.431 67.4068 137.882 67.5337 137.298 67.5917C137.221 67.5987 136.92 67.2971 136.843 67.3041C134.311 60.9748 132.235 53.9341 131.829 47.095C131.794 46.4922 131.53 44.4914 132.129 44.3875C132.943 52.1488 135.714 59.9488 139.137 66.9201L138.994 67.2549L138.996 67.2529Z" fill="#89B15A"/>
<path d="M111.537 52.1263C111.646 55.7268 112.094 59.3858 112.916 62.8959L112.156 62.9815L112.055 62.9174C111.88 60.5616 111.401 58.2247 111.292 55.8608C111.272 55.4315 111.543 55.2194 111.537 55.0268C111.528 54.6988 111.033 52.1239 111.201 51.9858C111.314 51.9519 111.451 52.0554 111.536 52.1283L111.537 52.1263Z" fill="#73A14D"/>
<path d="M115.857 96.4257C115.96 96.5131 116.78 97.1405 116.835 97.1144L122.628 88.4138C122.655 88.4978 123.519 89.8672 123.607 89.8814C125.055 89.0086 124.328 88.0014 123.41 87.0696C123.307 87.2882 122.579 88.0217 122.556 88.0847C117.428 80.5505 113.77 71.9495 112.159 62.9808L112.919 62.8952C115.103 72.2217 119.667 80.8625 124.927 88.8059L118.309 99.034L115.861 96.4229L115.857 96.4257Z" fill="#4E7F37"/>
<path d="M122.628 88.4139C122.596 88.3156 122.493 88.2503 122.554 88.0835C122.577 88.0204 123.306 87.287 123.408 87.0684C124.327 88.0002 125.054 89.0054 123.606 89.8802C123.519 89.8672 122.654 88.4966 122.626 88.4126L122.628 88.4139Z" fill="#3C6630"/>
<path d="M114.731 100.661C114.656 100.582 114.669 100.513 114.593 100.431C114.804 100.34 115.365 99.6866 115.42 99.6827C115.552 99.677 116.832 100.91 116.842 101.008C116.858 101.171 116.265 102.104 116.139 102.119C116.038 102.13 114.921 100.861 114.729 100.659L114.731 100.661Z" fill="#3C6630"/>
<path d="M120.748 104.329L121.501 103.25L131.44 105.302C141.097 106.922 152.68 107.18 162.096 104.217L159.54 105.354C146.818 108.794 133.332 108.026 120.749 104.327L120.748 104.329Z" fill="#4E7F37"/>
<path d="M120.749 104.329C120.749 104.329 120.75 104.416 120.584 104.367C119.871 104.157 119.161 103.927 118.448 103.72C118.58 103.529 118.484 103.426 118.539 103.352C118.677 103.165 119.285 102.416 119.494 102.401C123.357 103.822 127.402 104.625 131.441 105.302L121.502 103.25L120.749 104.329Z" fill="#3C6630"/>
<path d="M129.594 102.86C128.894 102.798 128.834 102.679 128.227 102.562C128.663 102.676 129.143 102.752 129.594 102.86Z" fill="#4E7F37"/>
<path d="M130.531 103.172C130.12 103.079 129.849 102.924 129.595 102.864C129.833 102.883 130.441 102.871 130.531 103.172Z" fill="#4E7F37"/>
<path d="M128.23 102.563C127.995 102.5 127.753 102.452 127.497 102.382C127.749 102.436 128.031 102.526 128.23 102.563Z" fill="#4E7F37"/>
<path d="M120.492 100.491L120.593 100.556L120.032 101.331C119.892 101.114 120.36 100.705 120.494 100.493L120.492 100.491Z" fill="#AEB0A0"/>
<path d="M138.529 175.63C123.058 175.829 103.186 174.695 88.7045 169.14C88.586 169.07 88.6777 169.011 88.6848 168.972C88.7736 168.447 86.9293 166.741 86.4385 166.132C80.7896 159.098 75.3581 150.669 74.4559 141.517C73.4846 131.676 77.4665 122.847 83.2122 115.023C84.6594 115.978 85.9075 117.302 87.3358 118.281C87.2693 118.441 87.3595 118.44 87.3555 118.449C82.367 130.581 80.2011 143.912 82.2993 156.923L83.1643 159.584C83.1776 159.654 83.3109 160.848 83.5609 160.429C82.6375 149.585 83.9696 138.609 87.4899 128.293C87.8007 128.236 87.8499 127.629 87.8943 127.395C88.0504 126.959 88.174 126.488 88.3335 126.067C88.3925 125.871 88.5111 125.6 88.5895 125.357C89.1961 123.817 89.763 122.251 90.4736 120.757C93.1676 123.069 96.205 125.044 98.8607 127.385C96.0204 138.184 95.8086 149.708 98.6231 160.532C99.3244 160.042 98.6508 160.982 99.2524 161.182C99.56 162.523 100.004 163.835 100.273 165.187C100.436 165.39 100.501 165.047 100.504 164.989C100.661 162.921 99.0973 158.49 99.2938 156.117C98.8093 147.478 99.6126 138.734 101.844 130.352L102.187 130.013C108.492 134.83 115.064 139.374 121.179 144.41C120.649 152.583 120.808 160.897 123.311 168.777C122.063 160.327 121.618 151.784 122.961 143.308C125.584 145.04 128.043 147.031 130.55 148.924C130.1 149.24 130.162 149.866 130.166 150.372C130.227 157.094 132.697 165.675 136.122 171.442C136.748 172.496 138.374 174.292 138.775 175.213C138.907 175.515 138.636 175.442 138.524 175.625L138.529 175.63Z" fill="url(#paint1_linear_267_839)"/>
<path d="M138.529 175.63C138.64 175.448 138.909 175.52 138.78 175.218C138.379 174.297 136.755 172.502 136.127 171.446C132.7 165.678 130.232 157.099 130.171 150.376C130.167 149.87 130.104 149.243 130.555 148.929C138.115 154.642 145.627 160.426 153.265 166.037L124.087 141.99C123.999 141.768 127.188 140.594 127.482 140.488C134.353 137.974 141.91 136.748 149.188 136.327C149.28 136.026 146.055 136.003 145.791 136.004C145.752 135.395 143.734 135.449 143.13 135.423C136.282 135.116 129.065 136.447 122.509 138.308C122.511 138.268 122.139 137.962 122.17 137.582C122.591 131.998 124.984 125.677 126.655 120.347L128.44 116.355C129.416 116.157 130.395 115.871 131.383 115.712C132.572 115.521 139.913 115.022 140.237 114.718C140.318 114.642 140.435 114.516 140.413 114.4C140.293 114.218 137.681 114.443 137.354 114.417C137.162 114.403 136.979 114.112 136.55 114.087C134.187 113.95 131.813 114.183 129.452 114.112C132.116 109.582 135.011 105.434 138.329 101.337C144.064 108.848 148.291 118.892 151.377 127.784C156.505 142.56 159.757 158.306 161.154 173.87L162.635 173.824C161.285 174.405 153.332 174.951 151.348 175.103C147.102 175.434 142.785 175.574 138.527 175.628L138.529 175.63Z" fill="url(#paint2_linear_267_839)"/>
<path d="M129.448 114.111L129.374 114.205C120.285 114.875 111.353 117.618 103.325 121.933C103.166 121.853 103.089 121.951 102.988 121.973L94.9375 115.306C94.9159 115.25 95.6284 114.5 95.7242 114.405C97.5211 112.669 102.367 109.932 104.7 108.634C113.133 103.944 122.412 100.833 131.934 99.4058C132.143 99.0471 131.277 99.192 131.188 99.1958C130.645 99.0121 130 99.1997 129.444 99.188C117.117 98.9099 101.338 105.585 91.8734 112.732C91.7844 112.8 91.7183 112.777 91.6311 112.846C90.9011 111.551 87.8724 110.277 87.1797 109.329C86.8752 108.912 87.3763 107.028 87.5263 106.482C89.1802 100.49 93.2783 96.3596 97.1259 92.9859C97.1492 92.9714 97.3331 93.0719 97.6667 92.8807C97.72 92.851 98.114 92.2918 98.1484 92.2711C98.1575 92.2633 98.274 92.4302 98.3726 92.3735C98.5089 92.2957 98.3832 92.1216 98.4635 92.0654C99.7879 91.2601 101.793 90.5621 103.412 89.6572C103.426 89.6505 103.755 89.4015 103.503 89.3491C109.51 86.877 115.826 86.3455 122.13 87.9312C122.148 88.3168 122.07 88.1438 122.384 88.2842C129.36 91.4187 133.71 95.2923 138.325 101.339C135.007 105.436 132.114 109.582 129.448 114.114L129.448 114.111Z" fill="url(#paint3_linear_267_839)"/>
<path d="M88.6853 168.972C88.5908 168.864 88.3757 169.011 88.349 169.011C86.2726 169.004 79.0124 164.32 77.2979 162.867C62.4233 150.248 63.1085 122.717 82.0526 114.564C82.6943 114.706 82.6621 114.659 83.2127 115.023C77.467 122.847 73.4851 131.676 74.4564 141.517C75.3605 150.671 80.7919 159.1 86.439 166.132C86.9284 166.743 88.7741 168.447 88.6853 168.972Z" fill="url(#paint4_linear_267_839)"/>
<path d="M89.9414 114.404C88.8947 113.658 87.6416 112.42 86.5477 111.57C86.6393 104.068 91.0009 97.1094 97.1234 92.9844C93.2758 96.3582 89.1795 100.49 87.5237 106.481C87.3738 107.027 86.8726 108.91 87.1772 109.327C87.8699 110.276 90.8986 111.55 91.6286 112.845C91.4097 113.016 90.0302 113.993 90.0304 114.095C90.0319 114.222 90.8979 114.909 91.0618 114.91C91.1586 114.908 92.5216 113.763 92.5282 113.633C92.53 113.578 91.9386 112.952 91.8695 112.733C101.334 105.586 117.113 98.9103 129.44 99.1884C129.996 99.2001 130.641 99.0125 131.184 99.1962C116.877 99.8787 102.461 106.602 91.1754 115.152C90.8303 114.873 90.2588 114.631 89.9396 114.403L89.9414 114.404Z" fill="#4E7F37"/>
<path d="M87.3346 118.28C85.9063 117.301 84.6582 115.976 83.2111 115.021C82.6605 114.658 82.6926 114.704 82.051 114.562C82.9563 114.174 83.9153 113.929 84.824 113.555C85.9365 114.449 87.115 115.294 88.198 116.221C87.9177 116.909 87.6149 117.592 87.3327 118.278L87.3346 118.28Z" fill="#4E7F37"/>
<path d="M88.5553 116.351C88.4878 116.289 88.3758 116.374 88.1993 116.222C87.1163 115.295 85.9378 114.45 84.8253 113.556C79.284 109.109 73.6491 104.776 68.0973 100.338C68.0058 100.128 69.3407 98.1437 69.8196 98.3516C75.4206 102.724 80.9379 107.209 86.5477 111.57C87.6415 112.419 88.8946 113.658 89.9413 114.404L88.5538 116.353L88.5553 116.351Z" fill="#356740"/>
<path d="M130.552 148.929C128.048 147.037 125.587 145.044 122.964 143.313C121.621 151.789 122.064 160.33 123.314 168.781C120.809 160.903 120.652 152.588 121.181 144.414C121.206 144.03 121.572 142.228 121.457 142.044L102.753 127.57C102.375 127.447 101.924 130.062 101.848 130.355C99.6168 138.736 98.812 147.482 99.298 156.12C99.1015 158.493 100.663 162.922 100.508 164.992C100.503 165.048 100.438 165.391 100.277 165.19C100.009 163.838 99.5642 162.526 99.2566 161.185C96.8418 150.691 97.7986 140.333 99.9262 129.898C100.181 128.649 100.559 127.431 100.809 126.18C97.6987 123.54 94.417 121.106 91.2027 118.59C91.0056 118.434 90.647 117.926 90.4167 118.043L91.1299 118.682C89.9985 120.791 89.2711 123.283 88.5966 125.356C88.5002 125.603 88.4257 125.837 88.3406 126.066C88.1609 126.657 88.0343 126.703 87.9014 127.394C87.8149 127.64 87.6324 127.893 87.4969 128.292C83.9763 138.604 82.6427 149.583 83.568 160.429C83.318 160.847 83.1861 159.651 83.1714 159.583C81.2037 149.909 82.6672 138.414 85.2814 128.979C86.3746 125.033 87.594 121.093 89.4088 117.399C89.4174 117.188 88.7344 116.508 88.5622 116.351L89.9498 114.402C90.2671 114.628 90.8405 114.872 91.1856 115.151C102.471 106.6 116.887 99.8774 131.194 99.1949C131.284 99.191 132.149 99.0462 131.94 99.4048C122.418 100.832 113.139 103.943 104.706 108.633C102.374 109.931 97.5273 112.668 95.7305 114.404L92.879 116.567L102.363 124.213C110.811 119.807 119.88 116.171 129.382 114.965C132.959 114.513 136.645 114.448 140.237 114.714C139.912 115.02 132.572 115.517 131.383 115.708C130.394 115.869 129.416 116.153 128.44 116.351C120.847 117.893 113.186 120.523 106.421 124.374C106.188 124.507 104.113 125.38 104.236 125.693L122.335 140.452L122.653 140.629C129.942 137.949 137.988 136.005 145.792 136.003C146.056 136.002 149.281 136.029 149.189 136.327C141.91 136.747 134.354 137.974 127.482 140.487C127.189 140.593 123.999 141.768 124.087 141.99L153.266 166.036C145.628 160.426 138.115 154.642 130.556 148.929L130.552 148.929Z" fill="#356740"/>
<path d="M101.845 130.356C101.923 130.064 102.372 127.448 102.751 127.571L121.454 142.045C121.569 142.228 121.204 144.031 121.179 144.415C115.064 139.379 108.491 134.832 102.187 130.018L101.844 130.357L101.845 130.356Z" fill="#61903A"/>
<path d="M98.8612 127.388C99.1147 127.612 99.9225 128.131 100.033 128.313C100.194 128.582 99.6038 129.56 99.9211 129.901C97.7935 140.335 96.8382 150.691 99.2515 161.187C98.6517 160.989 99.3253 160.049 98.6222 160.537C95.8077 149.713 96.0195 138.189 98.8597 127.39L98.8612 127.388Z" fill="#4E7F37"/>
<path d="M98.8613 127.388C96.2056 125.047 93.1683 123.072 90.4743 120.761C89.7622 122.256 89.1953 123.822 88.5902 125.36C89.2647 123.287 89.9935 120.794 91.1235 118.686L91.1977 118.592C94.4102 121.107 97.6918 123.541 100.804 126.183C100.554 127.434 100.176 128.651 99.9212 129.901C99.6039 129.56 100.195 128.585 100.033 128.314C99.9226 128.131 99.1149 127.612 98.8613 127.388Z" fill="#4E7F37"/>
<path d="M122.165 137.581L106.416 124.377C113.181 120.526 120.84 117.897 128.435 116.353L126.65 120.346C124.979 125.676 122.587 131.997 122.165 137.581Z" fill="#73A14D"/>
<path d="M122.331 140.453L104.233 125.694C104.107 125.379 106.183 124.509 106.418 124.375L122.166 137.579C122.139 137.958 122.507 138.265 122.505 138.305C122.504 138.382 122.173 138.65 122.172 138.727C122.168 139.315 122.237 139.875 122.332 140.451L122.331 140.453Z" fill="#73A14D"/>
<path d="M122.331 140.453C122.236 139.875 122.167 139.315 122.17 138.728C122.171 138.651 122.503 138.384 122.504 138.307C129.062 136.447 136.281 135.114 143.125 135.422C143.728 135.45 145.745 135.395 145.786 136.002C137.982 136.004 129.937 137.948 122.647 140.628L122.329 140.451L122.331 140.453Z" fill="#89B15A"/>
<path d="M140.232 114.717C136.64 114.451 132.954 114.515 129.378 114.968L129.372 114.203L129.446 114.109C131.807 114.18 134.181 113.947 136.544 114.084C136.973 114.109 137.156 114.4 137.348 114.415C137.675 114.44 140.287 114.216 140.407 114.397C140.429 114.513 140.312 114.639 140.23 114.715L140.232 114.717Z" fill="#73A14D"/>
<path d="M95.7233 114.405C95.6256 114.498 94.9163 115.248 94.9365 115.306L102.987 121.973C102.901 121.991 101.449 122.708 101.426 122.794C102.143 124.324 103.221 123.707 104.243 122.89C104.036 122.766 103.382 121.965 103.322 121.935C111.349 117.619 120.284 114.875 129.371 114.206L129.377 114.971C119.874 116.173 110.806 119.813 102.358 124.219L92.874 116.572L95.7255 114.41L95.7233 114.405Z" fill="#4E7F37"/>
<path d="M102.988 121.973C103.089 121.951 103.165 121.855 103.325 121.933C103.385 121.963 104.039 122.764 104.245 122.888C103.223 123.705 102.148 124.324 101.428 122.792C101.45 122.708 102.903 121.989 102.99 121.971L102.988 121.973Z" fill="#3C6630"/>
<path d="M91.6287 112.845C91.7144 112.778 91.782 112.798 91.8711 112.731C91.9402 112.95 92.5316 113.576 92.5297 113.631C92.5217 113.763 91.162 114.908 91.0634 114.908C90.8995 114.907 90.0335 114.22 90.032 114.093C90.0318 113.991 91.4094 113.012 91.6302 112.843L91.6287 112.845Z" fill="#3C6630"/>
<path d="M87.3546 118.447L88.3495 119.308L85.2752 128.98C82.6596 138.416 81.1975 149.909 83.1653 159.583L82.3002 156.922C80.2021 143.911 82.3694 130.579 87.3564 118.449L87.3546 118.447Z" fill="#4E7F37"/>
<path d="M87.3545 118.447C87.3545 118.447 87.2683 118.439 87.3348 118.279C87.6169 117.593 87.9197 116.911 88.2 116.223C88.3765 116.374 88.4885 116.289 88.556 116.351C88.7281 116.508 89.4097 117.191 89.4025 117.4C87.5878 121.094 86.3684 125.034 85.2751 128.98L88.3494 119.308L87.3545 118.447Z" fill="#3C6630"/>
<path d="M87.895 127.398C88.0298 126.709 88.1545 126.661 88.3343 126.07C88.1748 126.491 88.0493 126.961 87.895 127.398Z" fill="#4E7F37"/>
<path d="M87.4879 128.297C87.6233 127.898 87.8058 127.644 87.8923 127.399C87.8479 127.633 87.7969 128.239 87.4879 128.297Z" fill="#4E7F37"/>
<path d="M88.3335 126.072C88.4205 125.844 88.4931 125.608 88.5895 125.362C88.5096 125.607 88.391 125.878 88.3335 126.072Z" fill="#4E7F37"/>
<path d="M91.1985 118.592L91.1243 118.686L90.4111 118.048C90.6413 117.93 91 118.438 91.197 118.594L91.1985 118.592Z" fill="#AEB0A0"/>
<path d="M296.293 299.56C308.651 301.907 324.104 311.363 327.555 324.199C328.373 327.241 329.037 333.13 327.138 335.801C327.431 338.109 326.343 340.155 323.873 341.93C312.973 350.506 301.997 358.935 290.936 367.233C289.708 366.562 289.191 367.218 288.574 368.183L289.901 370.259C290.225 381.621 290.303 392.976 290.14 404.315C285.069 410.715 294.293 417.314 291.947 408.106L293.205 406.739C292.85 393.308 292.541 379.977 292.286 366.739C302.229 358.842 312.371 351.185 322.723 343.767C324.529 340.834 326.513 339.205 328.682 338.873C349.554 343.428 354.903 366.315 359.149 384.362C364.375 406.546 366.907 429.225 369.647 451.757C371.932 470.568 376.1 493.378 375.753 512.035C375.683 515.64 374.17 525.018 370.318 526.261C370.295 526.717 370.179 527.435 369.824 527.496C364.151 528.492 344.629 528.338 339.828 526.385C339.62 526.3 339.527 525.937 339.465 525.489C332.317 522.896 334.695 511.664 333.29 505.443L328.674 509.295C327.686 512.367 323.695 510.02 324.313 506.801C327.779 491.186 323.132 483.521 314.386 471.765L307.956 453.393C298.925 453.193 290.017 452.93 281.225 452.59L280.87 451.456L279.295 449.055C277.69 426.06 276.578 399.337 278.014 376.403C278.516 368.352 279.21 359.9 282.46 352.59C272.055 355.384 261.619 354.728 251.468 351.262C256.408 361.475 256.786 373.308 257.095 384.655C257.651 405.203 256.848 428.021 255.459 448.546L253.876 451.456L253.761 452.506C245.162 452.722 236.447 453.069 227.601 453.54C225.161 465.643 219.774 475.972 211.445 485.011C210.688 493 210.657 500.981 211.344 508.963L210.395 510.538C223.903 514.575 238.508 515.331 252.371 513.872L253.112 515.47C255.258 516.967 255.297 519.391 253.112 520.866C254.587 521.298 254.594 521.977 253.112 522.409C255.158 523.035 255.158 524.316 253.112 526.269C255.505 527.28 255.081 531.495 252.34 531.665C243.077 537.346 227.639 533.749 217.458 531.194C215.459 531.441 214.494 531.086 214.555 530.128C214.347 530.792 214.085 530.785 213.784 530.128C203.741 526.771 208.99 519.715 207.577 512.043C207.083 509.341 203.533 507.164 202.985 504.679C201.325 501.56 200.761 497.562 200.538 493.911C201.009 497.562 201.572 501.151 202.22 504.679C203.17 509.032 202.236 519.661 200.09 523.753C199.496 524.88 197.821 525.675 197.597 526.269C194.849 528.26 189.206 528.322 185.509 528.338C179.519 528.369 172.263 527.342 166.751 526.269C166.551 525.644 163.617 522.27 162.853 519.762C159.742 509.573 162.575 479.275 163.679 467.288C165.184 450.846 168.01 432.845 170.742 416.512C173.984 397.137 179.411 356.789 195.358 344.732C199.102 341.899 204.49 340.533 207.631 338.109L209.677 338.696C215.551 345.62 222.668 351.44 231.012 356.156C235.505 359.53 239.357 362.563 242.522 367.079C242.869 380.07 242.807 393.038 242.336 405.967C244.212 407.187 243.78 408.445 241.564 408.283C241.001 409.611 241.047 410.8 241.564 412.143C243.016 412.312 246.157 412.652 246.466 410.676C244.498 397.214 244.536 383.173 245.27 369.487L246.968 368.19C243.95 366.098 241.024 363.79 238.006 361.197C227.747 354.095 218.014 346.407 208.797 338.117L208.411 336.573C203.949 332.304 209.739 318.865 213.058 314.612C217.442 308.993 232.085 298.773 239.256 299.56C241.348 296.743 251.537 304.338 246.968 306.5C248.82 307.912 249.191 308.398 246.968 309.587V310.359L245.401 312.227C217.906 317.106 234.347 334.018 246.057 345.983L247.74 345.836L249.87 345.311C260.615 350.676 274.015 351.023 284.953 346.013L287.068 346.608C288.99 346.199 290.457 344.91 291.484 342.748C305.278 330.452 315.042 316.102 289.237 311.378C286.157 309.811 286.219 306.515 289.384 304.963C286.52 302.578 297.559 294.828 296.323 299.568L296.293 299.56Z" fill="#D35E34"/>
<path d="M281.643 525.512C284.051 525.767 283.627 531.448 281.643 532.452C287.779 534.999 294.325 534.59 300.825 533.926L321.018 531.603L321.743 533.216C322.083 533.818 322.376 534.397 321.743 534.76C320.609 546.686 320.423 558.828 321.195 571.194L321.743 572.552C322.893 573.811 322.893 575.154 321.743 576.412C321.133 593.456 321.164 611.796 321.396 629.264C321.411 630.16 322.029 631.364 322.515 631.935C322.87 632.136 322.839 632.398 322.515 632.707C322.531 633.734 322.5 634.76 322.515 635.795C322.994 637.076 323.31 638.489 322.515 639.654C322.067 640.249 321.844 640.72 322.515 641.198C322.523 641.97 322.507 642.742 322.515 643.514C321.975 644.293 321.936 645.042 322.515 645.83C322.531 646.856 322.5 647.883 322.515 648.917C321.936 649.658 322.168 650.422 322.515 651.233C322.515 651.75 322.515 652.26 322.515 652.777C322.291 669.936 322.291 687.412 322.515 705.212C322.546 705.722 322.492 706.239 322.515 706.756L323.287 708.3C323.357 709.319 323.225 710.361 323.287 711.388C322.23 712.113 321.898 715.826 323.287 718.327C323.295 718.844 323.279 719.354 323.287 719.871C322.662 731.148 322.098 743.29 323.287 754.576C323.966 754.954 325.456 754.784 326.182 755.525C328.096 757.478 327.093 771.65 326.182 774.815C325.055 778.705 321.334 778.682 317.891 779.246L316.394 781.029C306.668 782.202 296.772 782.048 287.038 780.998L285.502 779.246C280.933 778.605 276.587 778.729 274.703 773.85C274.094 768.732 273.97 763.545 274.703 758.427C275.452 756.907 277.698 756.351 278.177 755.363C279.034 753.611 278.632 745.961 278.547 743.398C277.876 722.603 276.803 701.221 276.239 680.542C275.46 676.544 275.66 672.275 276.239 668.207C276.201 666.671 276.278 665.119 276.239 663.583C274.672 656.343 275.012 648.616 275.468 641.221C275.437 639.677 275.498 638.134 275.468 636.598C273.862 629.797 274.178 622.055 274.696 615.007C274.696 614.49 274.688 613.981 274.696 613.463V612.692C274.649 606.292 274.572 600.573 274.472 595.54L273.924 594.181C273.044 592.645 272.82 590.16 273.924 588.786C274.163 580.827 274.117 573.741 273.792 567.543L273.152 566.423C273.152 565.906 273.152 565.397 273.152 564.88C273.515 564.571 273.515 564.316 273.152 564.108C273.152 563.853 273.152 563.591 273.152 563.336C272.465 563.197 272.488 562.934 273.152 562.564C273.476 560.395 273.731 558.342 273.924 556.396C273.939 554.636 284.213 554.945 284.607 555.37C284.854 555.64 284.993 556.003 285.109 556.396C284.746 555.061 286.104 554.451 287.038 554.081C287.139 554.552 286.953 554.783 286.521 554.914C284.051 555.679 254.217 555.902 252.858 554.876C252.619 554.698 252.465 554.405 252.341 554.081C255.027 555.308 258.432 555.74 262.546 555.393C261.967 558.596 261.095 563.992 262.368 564.88C262.314 565.906 262.422 566.941 262.368 567.967C262.214 568.924 262.036 569.797 261.519 568.932C261.071 575.679 261.095 582.302 261.596 588.786C261.55 590.584 261.627 592.39 261.596 594.181C261.434 595.138 261.272 596.003 260.763 595.146C260.284 602.41 260.307 609.542 260.824 616.543C260.824 617.315 260.824 618.087 260.824 618.859V619.631C260.701 639.6 260.23 659.585 259.412 679.585L258.516 681.322C257.86 686.177 257.868 691.125 258.516 695.973C258.486 696.999 258.547 698.034 258.516 699.06C258.354 700.017 258.192 700.882 257.675 700.025C257.243 707.551 257.266 714.938 257.745 722.194C257.698 723.73 257.791 725.282 257.745 726.818C257.582 727.775 257.42 728.64 256.903 727.783C256.479 735.301 256.502 742.696 256.973 749.952C256.926 751.457 257.142 753.148 256.973 754.576C256.672 755.147 256.332 755.641 255.869 755.888C249.501 759.246 252.689 756.482 256.973 755.348C258.138 755.417 259.543 756.258 260.107 757.223C261.89 760.249 260.755 775.51 258.516 778.482C255.977 779.832 252.766 780.674 250.033 780.025C248.968 782.55 241.118 783.19 239.62 780.797C238.879 783.36 229.253 783.159 228.049 780.797C227.069 783.244 218.856 782.55 217.636 780.025C217.443 780.705 217.189 780.689 216.864 780.025C214.502 779.67 208.898 777.617 208.397 774.993C207.972 772.769 207.98 760.288 208.397 758.065C208.929 755.263 212.017 754.946 212.248 754.028C212.982 751.025 212.194 742.241 212.233 738.381C212.41 737.393 212.557 736.575 213.059 737.416C213.607 713.379 213.592 689.543 213.005 665.899C213.051 662.294 212.966 658.674 213.005 655.1C213.182 654.112 213.329 653.286 213.831 654.135C214.379 633.711 214.356 613.471 213.769 593.409C213.769 592.637 213.769 591.866 213.769 591.094C214.309 590.314 214.348 589.565 213.769 588.778C213.769 588.261 213.769 587.751 213.769 587.234C214.309 586.454 214.348 585.706 213.769 584.918C213.769 583.892 213.769 582.865 213.769 581.831C214.124 581.522 214.124 581.267 213.769 581.059C213.769 580.032 213.769 579.006 213.769 577.971V564.092C213.939 562.726 214.209 562.402 214.595 563.12L214.526 539.623C214.031 529.727 214.927 529.928 222.399 532.83C230.79 534.536 245.047 536.466 252.333 531.703C253.26 529.233 252.951 528.778 253.105 526.308C253.059 522.24 261.01 522.934 263.132 524.764C263.433 524.748 263.711 524.764 263.928 524.895C264.977 525.52 265.093 548.515 264.159 549.303C263.873 549.542 263.511 549.696 263.132 549.82C266.691 551.132 270.134 551.148 273.453 549.866L274.703 550.978C274.124 550.978 273.437 550.924 273.16 550.46C272.557 549.442 273.399 529.812 273.545 526.825C273.576 526.284 274.101 526.022 274.703 525.914C273.955 526.408 273.167 526.346 272.388 525.914C272.766 525.929 273.129 525.976 273.414 526.145C274.387 526.732 273.738 547.774 273.414 548.917C273.345 549.164 272.912 549.318 272.388 549.434C273.082 551.595 265.209 551.024 264.337 549.874C264.414 541.252 264.259 532.629 263.866 524.015C264.414 523.32 279.952 523.05 280.909 523.753L281.643 525.528V525.512Z" fill="#374856"/>
<path d="M318.655 789.242C327.578 789.003 327.933 794.144 329.454 801.577L328.867 803.121C326.173 802.627 309.762 807.976 319.095 806.533L330.449 803.237C331.53 803.067 332.225 803.623 332.534 804.665C332.634 804.865 335.405 806.216 336.393 806.98L335.274 808.517C326.621 807.297 313.19 817.656 331.059 810.053C334.332 808.517 336.887 808.517 338.709 810.068C341.827 809.991 341.488 810.763 343.333 811.612L342.769 813.14C339.388 813.742 330.133 815.819 330.681 819.972C334.664 816.104 339.813 814.738 345.231 813.928L346.405 815.471C347.161 815.618 348.311 817.031 349.485 817.401C357.211 819.84 366.034 822.334 368.937 831.11C369.492 832.793 369.4 836.074 369.539 836.298C369.338 837.154 369.068 838.096 368.342 838.667C361.58 843.962 335.158 844.495 327.3 841.299L325.586 839.385C324.375 839.123 325.054 836.097 325.062 836.267C325.085 837.386 325.015 838.876 324.05 839.385C323.495 839.663 322.923 839.902 322.337 840.041C319.288 840.767 301.912 834.375 297.752 832.538L295.521 830.13C295.135 829.79 294.795 829.428 294.594 828.995C293.691 827.058 294.988 827.722 294.664 829.458C294.618 829.713 294.332 829.929 293.985 830.13C289.909 831.38 281.989 828.625 280.106 824.734C279.488 816.761 278.446 808.864 280.461 800.797C281.233 797.725 282.375 792.453 286.273 796.197C287.74 796.683 289.044 797.779 290.171 799.493C292.263 800.458 293.668 801.677 294.371 803.136C295.366 800.635 304.328 800.751 305.556 803.136C302.236 801.623 301.495 795.564 303.603 792.523C305.417 789.906 314.888 786.502 317.119 789.258C317.373 788.586 317.636 788.586 317.891 789.258C318.029 788.563 318.292 788.594 318.662 789.258L318.655 789.242Z" fill="#D35E34"/>
<path d="M213.784 790.014C213.915 788.918 215.05 788.895 215.328 790.014C215.853 789.767 216.339 789.613 216.872 790.014C217.011 789.327 217.273 789.35 217.644 790.014C217.752 789.358 218.053 788.609 218.647 788.547C226.76 787.729 236.98 792.669 231.685 802.264C238.146 803.731 246.004 802.195 247.547 794.738L249.261 793.866C249.477 793.194 249.74 793.202 250.033 793.866C250.82 793.827 251.43 793.966 251.94 794.622C255.413 799.092 254.448 818.412 254.657 824.711C253.051 828.493 245.402 831.28 241.55 830.107C239.96 830.446 240.886 822.125 240.84 822.534C241.272 826.108 240.739 828.887 239.234 830.879C232.526 836.02 221.457 839.902 213.012 839.362C211.36 838.227 210.334 838.227 209.925 839.362C205.726 842.959 196.918 843.484 191.106 843.7C186.204 843.885 170.334 842.805 167.092 839.949C165.602 838.636 165.694 837.509 165.965 835.502C167.331 827.189 170.596 823.445 178.269 819.663C181.302 818.173 187.694 817.239 189.099 814.684C190.187 812.754 192.348 812.716 195.583 814.568C212.758 823.476 203.819 813.958 193.692 812.469L192.958 810.825C193.344 810.331 193.877 810.068 194.502 810.053C194.811 809.165 195.691 808.787 196.586 808.779L211.229 813.102C211.414 811.998 210.65 811.195 208.937 810.709L198.987 808.046L198.362 806.193C199.581 805.537 200.793 804.804 202.221 804.649C203.726 802.858 205.996 802.588 209.022 803.846C211.862 806.502 227.879 807.822 217.628 804.541C213.962 803.368 210.064 802.712 206.227 802.264L205.309 800.79C206.914 795.101 207.277 791.071 213.792 789.991L213.784 790.014Z" fill="#D35E34"/>
<path d="M196.046 540.935C203.094 552.367 203.279 566.069 205.294 579.037C202.715 585.961 196.293 586.015 193.73 578.72L192.271 575.447C190.728 563.815 186.158 570.237 189.879 576.404C190.048 577.663 189.747 578.975 190.064 580.441C191.09 585.312 202.422 602.117 190.265 601.916C185.757 601.839 185.826 599.461 182.939 597.995C180.739 594.737 179.713 594.22 179.852 596.451C177.266 595.108 176.625 596.574 173.823 592.838C164.792 580.773 165.154 555.316 170.596 541.699L172.125 540.387C180.006 540.194 187.748 540.024 195.359 539.893L196.046 540.935Z" fill="#B75D3B"/>
<path d="M367.238 540.935C369.261 553.703 372.109 590.615 357.211 596.458C355.629 596.127 354.347 596.381 353.352 597.23C350.858 597.832 349.955 601.252 346.752 601.831C334.401 604.054 343.155 588.076 344.868 583.351C345.555 580.58 347.84 568.778 345.926 567.396C345.656 567.203 345.277 567.157 344.868 567.157C342.861 570.955 343.108 578.187 339.812 581.769C338.014 583.73 333.822 585.081 331.738 582.981C329.044 580.264 333.066 567.497 333.861 563.475C335.459 555.362 335.798 548.029 341.017 540.943L343.865 539.476C348.867 539.114 359.411 539.137 364.328 539.631C365.417 539.739 366.366 540.318 367.23 540.943L367.238 540.935Z" fill="#B75D3B"/>
<path d="M165.972 835.518C165.123 838.266 168.89 838.999 170.773 839.593C184.838 844.032 196.331 842.171 209.932 839.377C210.156 836.93 211.986 837.478 213.02 839.377C221.966 837.193 230.642 834.012 239.242 830.894C239.967 828.91 240.739 828.648 241.557 830.122C245.957 828.408 250.511 827.019 254.664 824.726C254.664 824.827 255.413 825.599 255.467 826.594C255.791 833.24 255.166 834.136 249.539 836.953C241.488 840.99 228.057 845.105 219.203 847.49C205.509 851.18 182.391 856.135 169.562 848.524C163.849 845.128 165.108 840.828 165.98 835.525L165.972 835.518Z" fill="#F1DFC1"/>
<path d="M293.985 830.115C294.294 828.092 294.903 828.169 295.529 830.115C304.614 833.218 314.27 837.201 324.058 839.37C324.483 837.895 325.17 837.88 325.602 839.37C339.898 842.295 356.27 843.746 369.554 836.282C369.593 836.352 370.882 835.973 371.106 836.784C375.305 852.322 345.239 852.592 336.092 851.62C325.425 850.493 292.611 840.89 283.425 835.657C278.408 832.801 280.469 829.404 280.106 824.711C284.498 827.058 289.307 828.486 293.985 830.107V830.115Z" fill="#F1DFC1"/>
<path d="M328.682 511.634C328.998 519.553 330.426 524.193 324.058 529.372C323.232 529.881 322.46 530.136 321.742 530.144C321.38 530.623 321.001 531.062 320.523 531.364C318.014 532.946 292.788 534.806 288.519 534.289C286.157 534.003 283.88 533.224 281.642 532.452C281.264 531.209 281.68 527.288 281.642 525.512C280.306 524.347 279.017 523.32 277.782 522.425L277.543 521.607C280.214 521.707 281.58 520.958 281.642 519.345C279.573 518.125 279.565 516.705 281.642 515.485L283.371 514.497C297.373 514.644 311.252 513.455 325.007 510.939L328.682 511.626V511.634Z" fill="#D35E34"/>
<path d="M317.891 779.223V779.995C318.439 782.056 318.57 784.132 317.891 786.162C317.922 787.451 317.667 788.478 317.119 789.25C314.95 789.435 309.416 790.554 307.447 791.527C301.496 794.46 304.599 798.196 305.556 803.129H294.371C291.6 803.129 286.706 799.462 286.274 796.189C285.571 790.894 285.641 784.611 285.502 779.223C294.664 780.512 308.798 780.728 317.891 779.223Z" fill="#38292B"/>
<path d="M202.214 504.687C201.635 502.047 199.481 499.476 199.103 495.076C195.992 458.72 206.027 419.051 201.357 381.776C200.94 378.441 198.107 369.256 198.346 367.033C198.47 365.875 199.033 365.118 200.284 365.095C201.256 365.08 204.035 377.175 204.305 378.82C209.238 408.847 203.117 447.156 202.183 478.04C201.982 484.694 201.673 498.666 202.986 504.679H202.214V504.687Z" fill="#A23A1E"/>
<path d="M280.87 451.479C285.625 452.799 306.76 449.912 309.037 452.228C309.963 453.17 313.8 467.048 315.444 470.499C319.334 478.658 326.058 482.811 326.397 491.927C326.544 495.786 326.274 499.661 326.297 503.451C326.305 505.08 324.467 507.519 326.382 508.955C327.053 509.457 328.551 509.202 328.674 509.318C328.775 509.411 328.651 511.055 328.674 511.634C313.128 515.702 297.628 515.871 281.634 515.493C279.326 515.439 279.504 512.051 281.634 511.634L282.97 510.615C287.663 511.726 319.975 510.298 321.264 508.878C322.005 508.06 322.275 489.843 321.449 487.334C313.391 478.581 308.736 468.26 306.003 456.52L281.974 456.126L280.87 454.567C279.365 453.594 279.373 452.459 280.87 451.479Z" fill="#A23A1E"/>
<path d="M197.589 527.828C197.242 531.063 197.705 534.907 197.589 538.272C197.543 539.754 198.377 541.368 196.046 540.935C188.635 540.742 177.674 543.12 170.596 541.707C164.907 540.573 167.161 532.012 166.736 527.828L168.133 527.003C177.875 528.523 187.408 528.585 196.717 527.165L197.582 527.828H197.589Z" fill="#D35E34"/>
<path d="M370.326 528.592C370.326 531.224 370.851 537.739 370.218 539.669C369.717 541.198 368.435 540.819 367.239 540.935C358.3 541.815 349.956 541.136 341.017 540.935C337.474 537.986 339.481 531.58 339.473 527.056C348.929 528.137 358.64 528.052 368.327 527.612C369.199 527.573 369.84 527.697 370.319 528.592H370.326Z" fill="#D35E34"/>
<path d="M328.682 338.889C328.635 339.344 324.506 344.23 323.649 345.033C315.003 353.13 302.282 358.981 293.591 367.411L293.212 406.747L291.437 405.327C290.765 399.73 290.372 394.111 290.248 388.461L291.669 386.693C292.263 385.481 292.302 384.053 291.669 382.833C289.554 381.884 289.561 380.695 291.669 379.746C292.155 378.704 292.17 377.708 291.669 376.658C289.461 376.612 289.561 374.867 291.669 374.342C292.147 373.385 292.147 372.359 291.669 371.255C290.611 370.545 289.577 369.518 288.581 368.167C288.635 367.743 288.38 367.225 288.743 366.809C291.653 365.049 294.054 362.586 296.709 360.487C306.111 353.046 320.229 345.496 327.138 335.778C326.937 336.828 328.728 338.433 328.682 338.866V338.889Z" fill="#A23A1E"/>
<path d="M208.38 336.581C208.511 336.712 209.654 336.643 210.31 337.306C221.31 348.399 232.896 354.528 244.258 364.346C244.922 364.925 245.084 366.06 245.64 366.454C246.265 366.901 247.539 366.523 247.709 366.654C248.257 367.102 246.945 368.105 246.937 368.19C246.327 369.58 245.679 369.526 244.536 368.893C245.146 381.328 244.976 393.64 244.035 405.844L242.305 405.983L241.904 367.442C238.299 364.115 234.525 360.888 230.657 357.862C222.799 351.718 212.232 347.202 207.601 338.117C207.886 337.893 208.087 336.967 208.372 336.573L208.38 336.581Z" fill="#A23A1E"/>
<path d="M256.964 754.545C256.933 754.8 257.01 755.07 256.964 755.317C256.169 759.369 245.702 759.755 241.958 759.979C238.215 760.203 213.938 760.134 212.996 757.247C212.873 756.868 212.718 755.263 213.444 755.309C227.856 756.976 242.769 758.35 256.964 754.553V754.545Z" fill="#38292B"/>
<path d="M262.368 564.841C259.798 565.181 261.094 563.915 261.195 562.525C261.28 561.336 262.106 556.875 261.596 556.358C260.77 555.524 251.963 558.257 252.341 554.05H287.046C287.702 555.177 285.942 556.365 285.116 556.365H273.931C273.615 556.365 274.695 561.993 273.159 562.533C271.731 561.475 272.272 558.442 273.159 557.137L272.387 556.365L271.855 557.16C269.369 556.095 264.745 556.543 262.36 557.909C262.252 560.209 262.476 562.548 262.36 564.849L262.368 564.841Z" fill="#38292B"/>
<path d="M321.743 530.136C322.384 530.36 322.376 530.615 321.743 530.908V533.224C319.25 531.711 295.058 537.029 287.625 535.339C287.023 535.2 281.735 532.776 281.643 532.46C295.035 534.366 308.505 532.112 321.743 530.144V530.136Z" fill="#38292B"/>
<path d="M205.301 800.813C207.501 800.234 221.333 803.507 222.19 804.734C223.209 806.201 222.051 808.648 219.651 808.509C214.564 808.223 208.566 804.001 202.213 804.665C201.928 803.453 204.537 801.006 205.301 800.805V800.813Z" fill="#F1DFC1"/>
<path d="M370.326 526.284V528.6C360.391 529.549 348.867 530.7 339.48 527.056C339.48 526.539 339.48 526.03 339.48 525.512C345.409 527.666 353.058 525.018 359.226 526.979C361.935 525.574 368.435 526.894 370.326 526.284Z" fill="#A23A1E"/>
<path d="M192.957 810.84C195.319 810.855 206.226 814.838 206.79 816.722C207.315 818.474 205.424 820.257 203.556 819.987C200.236 819.501 193.891 814.074 189.105 814.699C190.024 813.024 188.611 810.817 192.965 810.84H192.957Z" fill="#F1DFC1"/>
<path d="M197.59 526.285C197.467 526.609 197.644 527.334 197.59 527.828C195.946 528.94 194.587 529.249 192.611 529.411C184.228 530.082 175.012 529.11 166.737 527.828C166.691 527.327 166.853 526.655 166.737 526.285C172.287 524.741 179.088 527.111 184.861 527.103C189.03 527.103 193.252 525.659 197.582 526.285H197.59Z" fill="#A23A1E"/>
<path d="M213.012 665.86C214.286 666.663 213.784 668.786 213.799 670.091C214.023 691.519 214.633 714.375 213.784 735.687C213.722 737.177 214.579 738.782 212.24 738.35C212.503 714.236 212.719 690.013 213.012 665.86Z" fill="#38292B"/>
<path d="M343.333 811.612C345.626 812.669 347.069 811.38 346.421 815.471C344.638 815.124 337.436 817.247 335.622 818.165C333.291 819.339 330.728 823.623 329.045 820.087C327.015 815.811 339.944 811.288 343.341 811.62L343.333 811.612Z" fill="#F1DFC1"/>
<path d="M198.361 806.208C201.457 807.528 211.028 808.354 212.626 811.604C212.966 812.299 213.282 814.398 213.005 814.684C211.908 815.826 197.752 809.975 194.502 810.06C194.649 808.115 196.764 807.057 198.361 806.201V806.208Z" fill="#F1DFC1"/>
<path d="M336.393 806.98C337.528 807.86 338.732 808.208 338.709 810.068C336.787 810.114 333.846 810.855 331.939 811.396C329.593 812.059 322.522 816.073 321.086 813.819C318.67 810.037 328.79 807.42 331.484 807.065C333.12 806.849 334.765 806.996 336.401 806.98H336.393Z" fill="#F1DFC1"/>
<path d="M329.454 801.585C333.615 801.793 331.963 803.538 332.542 804.672C328.489 804.209 317.621 809.983 314.78 808.161C313.87 807.575 313.893 807.127 314.394 806.193C315.668 803.816 326.683 801.446 329.454 801.585Z" fill="#F1DFC1"/>
<path d="M353.36 597.23C354.703 591.51 357.089 586.03 358.401 580.295C358.895 578.149 359.721 568.5 360.315 567.929C362.407 565.922 361.913 572.823 361.836 573.695C361.164 580.858 358.015 587.396 356.016 594.15C355.46 596.026 355.854 595.493 357.22 596.458C355.499 597.13 354.68 596.914 353.36 597.23Z" fill="#A23A1E"/>
<path d="M179.85 596.458C178.198 587.767 174.076 578.056 175.219 569.071C175.396 567.674 174.956 567.813 176.763 567.929C176.917 578.288 179.812 588.261 182.938 598.002C181.965 597.508 180.807 596.952 179.85 596.458Z" fill="#A23A1E"/>
<path d="M322.515 705.189C321.596 689.327 321.535 673.062 321.728 656.984C321.743 655.679 321.234 653.556 322.515 652.754C322.669 668.856 323.611 684.888 323.31 700.982C323.279 702.449 323.681 704.016 322.515 705.197V705.189Z" fill="#38292B"/>
<path d="M321.743 534.768C322.661 535.1 322.159 536.883 321.743 537.855V542.479C322.345 550.955 322.345 559.446 321.743 567.929C321.743 569.21 321.743 570.499 321.743 571.788C321.743 572.043 321.743 572.305 321.743 572.56C319.404 572.992 320.261 571.379 320.199 569.897C319.774 559.121 320.075 547.473 320.484 536.721C320.538 535.347 319.311 534.467 321.743 534.775V534.768Z" fill="#38292B"/>
<path d="M213.784 593.371C215.057 594.174 214.556 596.296 214.571 597.601C214.756 615.509 215.266 634.591 214.556 652.399C214.494 653.888 215.351 655.494 213.012 655.062C213.236 634.56 213.66 613.965 213.784 593.371Z" fill="#38292B"/>
<path d="M273.159 566.385C274.487 565.706 274.556 566.339 274.71 567.52C275.313 572.221 274.772 579.492 274.71 584.517C274.695 585.822 275.205 587.944 273.923 588.747C272.873 588.639 273.035 587.366 273.151 586.432C273.151 585.405 273.151 584.378 273.151 583.344C272.495 577.724 272.487 572.005 273.151 566.377L273.159 566.385Z" fill="#38292B"/>
<path d="M189.878 576.404C187.439 576.844 188.573 575.192 188.319 573.757C187.763 570.6 186.906 567.257 187.94 564.069L191.538 569.75C192.387 572.622 192.749 575.918 193.73 578.712C191.499 576.227 190.488 572.753 190.642 569.457C187.817 568.708 189.646 574.66 189.878 576.397V576.404Z" fill="#A23A1E"/>
<path d="M344.876 583.352C345.316 577.995 346.582 572.483 344.876 567.157C345.378 566.215 346.86 565.003 347.578 564.077C347.964 570.924 347.223 576.875 344.876 583.352Z" fill="#A23A1E"/>
<path d="M273.931 594.143C276.262 593.71 275.421 595.324 275.475 596.806C275.652 602.232 274.827 607.651 274.703 612.653C274.471 613.031 274.209 613.024 273.931 612.653C273.831 612.221 273.977 611.611 273.931 611.109V610.337C273.931 609.565 273.916 608.793 273.931 608.022C273.553 603.336 273.553 598.712 273.931 594.143Z" fill="#38292B"/>
<path d="M323.286 754.545C322.298 753.989 322.584 753.611 322.476 752.684C321.534 744.811 322.399 732.445 322.507 724.07C322.522 722.765 322.013 720.643 323.294 719.84C323.518 731.388 323.124 742.989 323.294 754.545H323.286Z" fill="#38292B"/>
<path d="M258.507 778.451C256.022 781.747 251.197 780.373 250.788 780.759C249.754 781.747 251.745 790.369 251.606 791.843C251.552 792.399 249.429 792.299 250.024 793.873H249.252C247.291 790.67 247.546 782.858 250.024 779.995C252.888 779.748 255.643 778.713 258.507 778.451Z" fill="#F1DFC1"/>
<path d="M261.596 594.143C261.457 601.592 260.816 608.979 260.824 616.505C259.55 615.702 260.052 613.579 260.037 612.275C259.983 607.157 259.851 601.916 260.052 596.806C260.114 595.324 259.257 593.71 261.596 594.143Z" fill="#38292B"/>
<path d="M257.736 726.779C257.512 734.421 257.211 742.21 256.964 749.913C255.691 749.111 256.192 746.988 256.177 745.683C256.123 740.311 255.976 734.807 256.192 729.442C256.254 727.96 255.397 726.347 257.736 726.779Z" fill="#38292B"/>
<path d="M258.508 699.022C258.261 706.617 257.96 714.452 257.736 722.156C256.462 721.353 256.964 719.23 256.949 717.926C256.895 712.553 256.748 707.049 256.964 701.685C257.026 700.203 256.169 698.589 258.508 699.022Z" fill="#38292B"/>
<path d="M262.367 567.921C262.028 574.868 261.788 581.738 261.595 588.74C260.322 587.937 260.823 585.814 260.808 584.509C260.762 579.901 260.638 575.185 260.823 570.584C260.885 569.102 260.028 567.489 262.367 567.921Z" fill="#38292B"/>
<path d="M217.635 790.014C217.38 789.999 217.118 790.014 216.863 790.014C216.354 789.659 215.875 789.798 215.319 790.014C214.818 790.045 214.247 789.937 213.776 790.014C213.081 787.536 215.906 789.049 216.138 788.046C216.593 786.124 216.169 782.287 216.856 779.995C217.103 780.033 217.373 779.971 217.627 779.995C220.098 780.728 219.997 789.065 217.627 790.022L217.635 790.014Z" fill="#F1DFC1"/>
<path d="M258.508 688.223C258.431 690.785 258.585 693.371 258.508 695.934C257.219 691.796 257.211 685.482 258.508 681.283C258.438 683.591 258.577 685.915 258.508 688.223Z" fill="#38292B"/>
<path d="M323.287 711.357C323.433 713.641 323.233 716.004 323.287 718.296C322.847 718.227 321.835 718.412 321.743 718.296C321.542 718.041 321.65 712.129 321.712 711.812C321.889 710.955 322.607 711.434 323.279 711.349L323.287 711.357Z" fill="#38292B"/>
<path d="M318.655 789.242C318.401 789.242 318.138 789.227 317.883 789.242C317.513 788.586 317.513 787.552 317.883 786.154V779.987C319.574 782.334 318.269 786.317 318.655 789.242Z" fill="#F1DFC1"/>
<path d="M322.514 648.894C322.522 649.666 322.506 650.438 322.514 651.21C320.059 651.804 320.214 648.223 322.514 648.894Z" fill="#38292B"/>
<path d="M321.742 537.848V533.224C323 533.988 323 537.006 321.742 537.848Z" fill="#F1DFC1"/>
<path d="M324.058 529.364C323.325 529.967 322.753 530.684 321.742 530.908V530.136C322.082 530.082 323.124 528.978 324.058 529.364Z" fill="#F1DFC1"/>
<path d="M323.286 708.277C321.549 708.57 321.078 707.906 322.514 706.733C322.514 706.818 323.185 706.903 323.286 708.277Z" fill="#38292B"/>
<path d="M213.784 587.203C213.784 586.432 213.784 585.66 213.784 584.888C214.942 584.996 214.942 587.095 213.784 587.203Z" fill="#38292B"/>
<path d="M213.784 591.063C213.784 590.291 213.784 589.519 213.784 588.747C214.942 588.855 214.942 590.955 213.784 591.063Z" fill="#38292B"/>
<path d="M322.514 645.814C321.356 645.706 321.356 643.606 322.514 643.498C322.522 644.27 322.506 645.042 322.514 645.814Z" fill="#38292B"/>
<path d="M260.824 619.593C260.824 619.554 259.82 618.79 260.824 618.821C260.824 619.075 260.824 619.338 260.824 619.593Z" fill="#38292B"/>
<path d="M213.784 581.808C213.784 581.553 213.784 581.29 213.784 581.036L214.541 581.422L213.784 581.808Z" fill="#38292B"/>
<path d="M273.159 564.841C273.159 564.586 273.159 564.324 273.159 564.069L273.916 564.455L273.159 564.841Z" fill="#38292B"/>
<path d="M253.884 451.479C254.108 425.45 257.805 388.175 253.807 363.258C252.904 357.608 250.542 353.308 248.496 348.144C260.407 353.617 273.205 354.589 285.501 349.688C284.166 352.791 282.661 355.377 281.881 358.781C276.416 382.671 280.661 425.69 280.878 451.479C280.885 452.506 280.87 453.532 280.878 454.567C283.448 472.019 283.224 490.298 280.878 507.774C280.893 508.554 280.631 508.909 279.974 508.917C271.661 508.955 263.332 508.963 255.019 508.924C254.324 508.924 253.984 508.577 253.892 507.774C251.553 490.553 251.321 472.529 253.892 455.339C252.386 454.096 252.379 452.722 253.892 451.479H253.884Z" fill="#BDB4AA"/>
<path d="M246.945 309.587L249.377 309.857C259.658 320.124 275.158 321.081 286.112 311.293C289.246 309.533 289.477 310.459 290.095 313.593C290.643 316.357 290.596 321.49 288.582 323.474C290.705 324.74 290.349 328.46 289.84 330.73C286.011 347.912 256.671 348.63 247.879 334.929C246.274 332.428 243.78 325.573 246.937 324.238C244.359 321.019 244.645 313.786 246.937 310.359C246.93 310.104 246.945 309.842 246.937 309.587H246.945Z" fill="#B75D3B"/>
<path d="M289.354 304.963C289.038 305.874 288.196 309.085 288.605 309.564C288.868 309.865 294.896 310.992 296.278 311.54C320.23 321.089 298.424 337.391 288.196 348.152L287.038 346.608L286.66 344.964C289.123 341.042 296.008 327.217 289.261 325.519L288.582 323.474C288.737 319.383 288.474 315.23 288.582 311.139C275.861 323.389 258.779 322.223 246.946 309.595C246.907 308.591 247.069 307.472 246.946 306.507C257.683 311.602 267.409 313.871 278.964 309.61C282.716 308.229 285.479 305.519 289.362 304.971L289.354 304.963Z" fill="#A23A1E"/>
<path d="M287.038 346.6C276.54 352.884 257.945 352.405 247.709 345.828C247.408 346.122 247.1 346.353 246.768 346.407C243.688 346.886 237.814 327.519 242.43 323.937C243.95 322.756 246.42 322.023 246.938 324.23C247.115 327.658 246.883 329.117 248.335 332.467C253.715 344.848 277.273 346.415 285.471 336.156C289.284 331.386 288.366 329.032 288.574 323.451C290.226 324.416 293.746 325.28 293.784 327.503C293.854 331.679 290.658 344.408 287.038 346.585V346.6Z" fill="#BDB4AA"/>
<path d="M337.166 365.11C337.884 365.805 334.41 382.031 334.101 384.794C331.515 407.959 335.653 435.254 336.425 458.774C336.733 468.09 338.084 496.674 334.263 503.706C331.894 508.06 332.457 497.708 332.542 495.833C334.14 460.256 328.042 424.061 330.188 389.371C330.419 385.651 333.129 367.905 334.773 365.566C335.244 364.894 336.957 364.917 337.15 365.11H337.166Z" fill="#A23A1E"/>
<path d="M246.945 310.359C247.115 314.96 246.706 319.645 246.945 324.238C242.445 324.423 242.113 326.006 242.283 330.043C242.452 334.08 244.444 343.729 247.717 345.828L246.945 348.53C232.232 334.636 214.44 316.048 246.945 310.351V310.359Z" fill="#A23A1E"/>
<path d="M253.884 451.479C253.876 452.76 253.9 454.049 253.884 455.339L251.684 456.504C244.096 456.265 236.64 455.956 229.314 455.57C229.029 466.94 221.873 477.917 214.131 485.952C213.621 486.933 212.703 507.558 213.699 508.037C216.84 509.542 224.745 510.329 228.643 510.707C235.667 511.394 242.715 511.541 249.762 511.093L253.12 512.406C255.235 513.023 255.289 514.899 253.12 515.493C249.708 514.737 245.702 516.273 242.707 516.265C234.54 516.25 220.075 515.107 212.232 512.807C204.86 510.646 209.754 510.152 209.994 508.222C210.789 501.823 208.511 490.144 210.279 484.609C210.928 482.579 215.065 478.982 216.439 476.89C218.955 473.069 221.626 467.944 223.27 463.667C224.127 461.421 225.933 453.007 226.505 452.243C227.863 450.437 249.986 452.05 253.9 451.494L253.884 451.479Z" fill="#A23A1E"/>
<path d="M253.112 512.406C249.786 510.924 251.545 509.557 254.463 508.924C257.227 508.322 277.505 508.43 280.669 508.917C283.224 509.31 284.429 510.329 281.642 511.634V515.493C281.642 516.775 281.688 518.071 281.642 519.353L281.248 521.059C272.348 521.615 263.379 521.808 254.34 521.63L253.105 520.889C253.136 519.09 253.051 517.284 253.105 515.493C253.136 514.474 253.004 513.417 253.105 512.406H253.112Z" fill="#BDB4AA"/>
<path d="M256.964 522.425C258.932 521.753 261.163 521.753 263.131 522.425C263.062 521.167 265.771 521.306 266.219 522.425C266.419 522.07 266.674 522.101 266.991 522.425C267.979 521.391 269.067 521.421 270.078 522.425C270.279 522.07 270.541 522.101 270.85 522.425C271.321 521.475 271.915 521.475 272.394 522.425C273.081 522.023 273.59 522.023 273.938 522.425C274.833 521.437 276.971 521.344 277.797 522.425C279.079 522.494 280.375 522.371 281.657 522.425C281.68 523.452 281.634 524.486 281.657 525.512C275.96 523.058 270.572 524.895 264.69 524.748C266.466 528.176 264.59 548.554 265.455 549.426C265.702 549.673 272.402 549.766 272.402 549.426V525.906C272.402 524.764 274.717 524.764 274.717 525.906V550.97C274.717 551.603 263.147 553.263 263.147 549.812V524.748C259.966 525.343 254.771 523.204 253.119 526.292C253.197 525.049 253.081 523.714 253.119 522.433C253.289 521.182 256.601 521.19 256.979 522.433L256.964 522.425Z" fill="#38292B"/>
<path d="M246.946 368.198C245.811 377.222 246.567 393.725 246.915 403.312C247.054 407.063 250.311 412.459 244.985 413.671C241.465 414.474 242.175 413.656 241.55 412.15C241.025 410.9 240.948 409.549 241.55 408.291C241.797 407.503 242.106 406.801 242.322 405.975C242.523 405.234 243.017 404.918 243.148 403.366C244.167 391.695 242.268 378.488 243.094 366.646L246.946 368.183V368.198Z" fill="#F1DFC1"/>
<path d="M291.668 371.278C292 372.32 292.316 373.362 291.668 374.366V376.681C292.185 377.708 292.185 378.758 291.668 379.769C291.683 380.796 291.629 381.83 291.668 382.857C292.316 384.053 292.293 385.52 291.668 386.716C291.869 392.814 292.247 400.973 293.212 406.763C293.474 408.314 295.165 412.035 293.266 413.362C290.742 415.13 287.438 413.316 287.067 410.151C286.72 407.172 288.295 406.492 288.634 404.1C290.139 393.409 287.144 379.02 288.596 368.198C292.1 366.122 291.266 369.248 291.683 371.286L291.668 371.278Z" fill="#F1DFC1"/>
<path d="M252.341 531.68C250.681 536.111 244.822 535.648 240.345 535.57C235.49 535.486 226.575 534.953 222.105 533.764C220.145 533.239 218.307 530.677 215.32 531.672C215.027 541.553 215.714 551.518 215.32 561.398C215.258 562.881 216.115 564.494 213.776 564.062C213.792 560.912 213.722 557.693 213.738 554.459C213.776 546.323 213.421 538.172 214.548 530.129C220.994 532.004 231.275 533.062 238.037 533.247C242.777 533.378 248.08 533.811 252.333 531.672L252.341 531.68Z" fill="#38292B"/>
<path d="M281.642 519.345C281.619 519.947 281.766 521.56 281.642 521.653C281.341 521.892 279.126 521.406 278.315 521.807L277.783 522.425C276.509 522.355 275.205 522.448 273.923 522.425C273.406 522.077 272.935 522.224 272.379 522.425C271.862 522.425 271.353 522.425 270.836 522.425C270.527 522.07 270.272 522.07 270.064 522.425C269.037 522.417 268.01 522.425 266.976 522.425C266.667 522.07 266.413 522.07 266.204 522.425H263.117C261.125 521.761 258.941 521.769 256.949 522.425H253.09C253.105 521.915 253.082 521.398 253.09 520.881C261.472 520.325 270.72 521.614 278.995 520.935C280.546 520.812 280.886 520.827 281.619 519.337L281.642 519.345Z" fill="#F1DFC1"/>
<path d="M241.542 412.15C241.31 411.595 240.7 411.348 240.685 410.213C240.669 408.947 241.426 408.661 241.542 408.299V412.158V412.15Z" fill="#A23A1E"/>
<path d="M250.025 779.995C249.878 784.387 249.832 789.566 249.253 793.874C248.064 802.75 240.152 805.406 231.908 803.893C227.215 803.036 233.877 796.791 230.542 793.295C228.643 791.303 220.561 790.199 217.636 790.014V779.987C220.253 780.249 225.826 780.759 228.049 780.759H239.62C241.935 780.759 247.261 780.226 250.033 779.987L250.025 779.995Z" fill="#38292B"/>
<path d="M323.279 755.317C323.456 757.471 321.604 758.034 319.944 758.528C316.255 759.64 305.317 760.674 301.264 760.736C297.212 760.797 289.207 760.288 285.193 759.856C283.148 759.632 277.551 758.767 279.736 756.073C294.178 757.663 308.883 757.077 323.279 755.317Z" fill="#38292B"/>
<path d="M322.514 628.848C322.151 629.156 322.151 629.411 322.514 629.62C322.522 630.391 322.506 631.163 322.514 631.935C320.175 632.368 321.032 630.754 320.97 629.272C320.345 613.471 320.792 596.536 320.955 580.642C320.97 579.338 320.461 577.215 321.742 576.412C321.881 593.903 322.321 611.372 322.514 628.848Z" fill="#38292B"/>
<path d="M322.515 639.639C322.515 640.156 322.515 640.665 322.515 641.183C320.593 642.07 319.944 639.052 322.515 639.639Z" fill="#38292B"/>
<path d="M324.059 839.37C323.534 833.905 326.174 828.949 327.911 823.955C322.346 821.855 316.008 817.617 311.709 813.542C309.362 811.319 305.858 807.999 305.557 804.665C313.206 812.229 321.466 820.257 331.763 823.955C332.072 825.753 329.98 826.417 329.115 827.853C326.915 831.473 326.112 835.201 325.595 839.37C325.124 839.277 324.515 839.47 324.052 839.37H324.059Z" fill="#A23A1E"/>
<path d="M293.985 830.115C293.066 825.676 292.495 818.474 290.697 814.507C288.775 810.253 281.472 808.903 282.036 803.121L291.963 813.21C293.908 818.59 295.042 824.41 295.529 830.115C295.12 829.976 294.386 830.253 293.985 830.115Z" fill="#A23A1E"/>
<path d="M342.56 819.331C341.835 820.72 332.965 824.302 332.541 823.947C331.097 822.758 333.629 822.287 334.061 822.033C336.593 820.543 339.534 819.246 342.56 819.331Z" fill="#A23A1E"/>
<path d="M317.891 789.242C317.636 789.257 317.374 789.219 317.119 789.242L317.891 786.154V789.242Z" fill="#374856"/>
<path d="M343.719 818.551C344.22 818.806 344.22 819.068 343.719 819.323V818.551Z" fill="#A23A1E"/>
<path d="M209.925 839.37C208.296 834.846 208.605 829.906 204.939 826.232C202.237 823.53 195.066 820.659 191.423 818.891C190.303 818.351 189.493 819.053 189.879 817.008C192.851 816.429 202.098 823.098 203.233 823.028C206.104 822.851 214.796 817.664 217.575 815.788C221.89 812.862 224.298 810.307 228.042 806.98C229.169 807.529 227.895 808.872 227.548 809.574C224.128 816.429 213.213 819.439 207.656 824.456L213.013 839.385C212.156 839.594 210.836 839.2 209.925 839.385V839.37Z" fill="#A23A1E"/>
<path d="M239.226 830.886C240.993 823.862 238.716 816.328 243.07 809.875C243.363 809.435 247.771 804.811 248.103 804.68C252.302 802.936 244.513 811.257 244.274 811.65C241.078 816.783 241.549 824.294 241.541 830.122C240.808 830.408 239.99 830.616 239.226 830.894V830.886Z" fill="#A23A1E"/>
<path d="M216.863 790.014C216.354 790.006 215.829 789.983 215.319 790.014L216.469 789.25L216.863 790.014Z" fill="#BDB4AA"/>
<path d="M228.82 805.437C229.322 805.691 229.322 805.954 228.82 806.209V805.437Z" fill="#A23A1E"/>
<path d="M253.883 455.339C253.721 472.799 254.007 490.314 253.883 507.774H280.877C280.761 490.051 281.031 472.29 280.877 454.567L307.13 454.922C309.677 463.552 311.676 471.603 316.809 479.167C318.639 481.861 322.985 485.443 323.332 488.067C324.212 494.69 322.606 503.228 323.286 510.074C317.512 511.379 284.119 514.227 281.649 511.626C281.518 511.487 282.058 510.229 281.17 510.051L253.575 510.074C252.695 510.198 253.189 511.688 253.119 512.406C239.549 513.494 225.531 512.892 212.347 509.218C211.699 508.214 212.069 486.701 212.648 485.427C213.081 484.478 217.442 480.225 218.723 478.388C223.687 471.255 227.43 463.351 228.48 454.605C236.824 454.983 245.755 453.625 253.891 455.339H253.883Z" fill="#D35E34"/>
<path d="M291.669 386.7C291.623 385.419 291.723 384.13 291.669 382.841C292.888 383.35 292.888 386.191 291.669 386.7Z" fill="#BDB4AA"/>
<path d="M291.669 374.366V371.278C291.823 372.027 293.406 372.992 291.669 374.366Z" fill="#BDB4AA"/>
<path d="M291.669 379.761C291.654 378.735 291.669 377.708 291.669 376.674C292.726 377.615 292.742 378.781 291.669 379.761Z" fill="#BDB4AA"/>
<path d="M273.16 557.13L272.388 556.358C272.967 556.466 273.052 556.543 273.16 557.13Z" fill="#BDB4AA"/>
<path d="M322.514 629.619L321.758 629.233L322.514 628.848C322.514 629.102 322.514 629.365 322.514 629.619Z" fill="#374856"/>
<path d="M263.131 522.425H256.964C258.176 521.128 261.95 521.136 263.131 522.425Z" fill="#D35E34"/>
<path d="M273.932 522.425C273.414 522.417 272.905 522.425 272.388 522.425L273.538 521.661L273.932 522.425Z" fill="#D35E34"/>
<path d="M266.991 522.425C266.736 522.425 266.473 522.425 266.219 522.425L266.605 521.668L266.991 522.425Z" fill="#D35E34"/>
<path d="M270.843 522.425C270.588 522.425 270.326 522.425 270.071 522.425L270.457 521.668L270.843 522.425Z" fill="#D35E34"/>
<path d="M268.535 140.71C268.751 140.818 269.16 141.991 270.079 142.253C270.542 142.632 271.059 142.632 271.623 142.253C272.502 142.13 274.17 141.343 274.71 140.71C274.888 139.374 275.883 139.59 277.026 139.938C285.687 139.86 289.531 137.352 297.443 143.813C298.801 144.916 302.53 149.741 302.923 149.833C303.587 149.996 308.134 149.031 310.488 149.285C318.03 150.096 323.163 154.928 325.849 161.566C326.258 162.578 327.092 164.199 327.13 164.376C327.524 166.044 326.629 169.71 327.254 170.683C327.478 171.038 332.804 172.744 334.788 174.326C338.825 177.545 341.804 183.674 341.712 188.83C341.642 192.798 337.736 199.259 337.929 201.204C338.06 202.555 340.893 206.144 341.58 208.406C344.066 216.565 341.735 222.207 337.181 228.807C336.648 229.579 335.529 229.795 334.857 230.938C335.027 233.531 334.68 236.125 334.085 238.649C333.946 239.004 333.545 239.745 333.313 240.193C332.611 242.856 331.067 245.164 328.69 247.132C328.219 247.441 327.64 247.619 327.146 247.904L325.455 247.541C322.198 237.013 314.957 238.942 310.604 247.318C309.268 249.294 307.578 249.649 306.258 247.395C304.699 233.647 302.885 220.015 300.824 206.491C297.643 208.128 295.366 208.305 293.985 207.032C290.179 207.472 286.219 207.85 282.414 207.032C281.858 209.479 274.641 209.347 273.931 207.032C273.784 208.452 271.816 207.912 270.843 207.032C270.843 209.286 268.265 209.193 267.755 207.032C266.273 208.406 260.808 208.39 259.272 207.032C258.716 209.479 251.499 209.347 250.789 207.032C248.049 207.642 245.216 207.642 242.306 207.032C240.399 208.313 237.975 208.205 235.026 206.715C235.505 208.529 229.291 242.763 226.258 244.307C225.069 244.909 224.204 244.948 223.178 244.099C219.364 239.444 212.07 239.853 209.337 245.365L207.601 245.588C202.977 243.805 198.268 236.719 197.643 232.026C196.647 224.554 198.986 226.322 194.494 219.367L193.722 217.823C193.537 217.53 193.12 217.321 192.95 217.051C189.607 211.038 187.84 204.114 191.406 197.769C191.483 197.53 191.321 197.221 191.406 196.997L192.178 196.225C193.174 194.079 197.365 189.363 197.373 188.907C197.373 188.529 196.339 187.842 196.308 187.24C196.115 183.867 195.983 180.185 196.809 176.943C196.863 172.003 200.507 167.873 204.521 165.372C204.791 165.133 205.015 164.832 205.293 164.6C207.809 163.018 210.657 162.014 213.838 161.597C214.092 158.981 214.841 156.642 216.092 154.573C220.407 148.514 225.656 144.693 233.444 145.318C234.926 145.434 237.859 146.831 238.5 146.507C238.979 146.267 243.61 140.794 244.629 139.922C245.964 139.05 247.246 138.533 248.489 138.378C249.067 138.162 249.801 137.661 250.032 137.607C256.401 134.92 263.456 136.379 268.543 140.694L268.535 140.71Z" fill="#38292B"/>
<path d="M242.313 207.024C245.216 207.634 248.041 207.634 250.797 207.024H259.28C262.005 208.406 266.574 208.259 267.763 207.024H270.851C272.294 207.943 273.321 207.943 273.938 207.024H282.422C286.235 207.834 290.156 207.456 293.993 207.024C295.228 206.723 302.005 204.214 302.468 204.708L307.879 247.896C310.519 245.828 311.538 242.076 314.425 240.185C321.056 235.832 325.679 241.852 327.154 247.896C328.79 254.627 327.895 263.188 323.935 268.969C318.724 276.588 309.369 272.968 307.949 274.188C307.447 274.62 305.185 284.585 304.159 286.978C302.036 291.934 299.049 295.153 296.308 299.56C295.922 299.483 295.22 298.642 294.873 298.873C294.71 298.981 294.525 300.116 293.939 300.625C291.769 302.47 290.287 302.339 289.369 304.963C282.53 311.594 271.661 314.311 262.02 313.038C257.304 312.412 249.106 310.652 246.953 306.507C246.806 305.357 247.169 304.971 246.165 303.844C245.316 302.887 240.553 299.714 239.234 299.568C237.126 295.315 233.467 293.23 231.105 288.807C229.724 286.214 227.215 276.318 226.729 275.832C226.312 275.415 217.913 273.138 215.69 271.826C207.879 267.21 204.915 253.863 207.616 245.588C209.237 240.617 214.957 238.132 219.82 239.946C221.372 239.552 224.521 244.091 225.339 243.273C226.157 242.454 229.839 228.645 230.372 226.314C231.993 219.197 233.012 211.956 233.838 204.716C236.555 205.596 239.519 206.491 242.313 207.032V207.024Z" fill="#B75D3B"/>
<path d="M334.078 238.641C334.256 235.824 333.407 233.392 334.85 230.93C336.595 233.662 335.074 236.117 334.078 238.641Z" fill="#F1DFC1"/>
<path d="M328.683 247.125C330.443 244.909 332.017 242.717 333.306 240.185L334.063 240.563C332.642 243.358 331.353 245.38 328.683 247.125Z" fill="#F1DFC1"/>
<path d="M267.763 207.024C267.693 207.742 268.18 208.367 267.276 208.583C266.535 208.761 259.596 208.807 259.272 208.568C259.148 208.475 259.349 207.456 259.272 207.024H267.755H267.763Z" fill="#D35E34"/>
<path d="M293.985 207.024C290.426 207.889 285.78 208.653 282.414 207.024H293.985Z" fill="#D35E34"/>
<path d="M250.797 207.024C248.427 208.946 244.861 207.51 242.313 207.024H250.797Z" fill="#D35E34"/>
<path d="M273.931 207.024C274.533 209.471 271.662 209.108 270.844 207.024H273.931Z" fill="#D35E34"/>
<path d="M296.601 242.269C296.679 242.524 297.721 242.478 297.728 242.841C297.906 250.336 291.476 262.015 282.8 256.38C272.487 249.68 278.894 227.788 291.19 234.11C294.571 235.847 295.59 239.035 296.609 242.262L296.601 242.269Z" fill="#F1DFC1"/>
<path d="M241.542 254.064C239.334 250.559 238.238 246.6 239.226 242.493C245.293 224.315 263.603 235.214 256.995 251.393C254.023 258.664 246.736 259.884 241.542 254.064Z" fill="#F1DFC1"/>
<path d="M250.658 217.236C254.224 217.151 259.705 218.217 259.273 222.748C258.725 228.498 250.751 224.925 245.849 225.596C242.8 226.013 237.698 229.726 235.428 226.615C230.774 220.208 246.721 217.321 250.658 217.236Z" fill="#38292B"/>
<path d="M299.172 221.104C301.318 223.373 299.65 227.449 296.64 227.866C294.023 228.228 289.731 225.627 286.621 225.504C283.865 225.395 278.917 227.812 277.404 224.762C272.34 214.589 295.922 217.661 299.172 221.096V221.104Z" fill="#38292B"/>
<path d="M250.025 280.286C250.179 280.193 250.835 277.206 251.955 277.213C252.225 277.213 254.842 280.301 255.922 280.942C261.688 284.384 273.228 284.408 279.11 281.212C280.538 280.44 281.496 278.819 282.437 278.364C287.092 276.125 285.116 280.062 284.738 282.586C280.924 289.618 267.154 290.112 259.898 288.136C256.37 287.179 249.045 284.377 250.04 280.27L250.025 280.286Z" fill="#38292B"/>
<path d="M250.025 280.286C257.459 289.896 275.521 289.363 284.73 282.601C284.684 282.91 286.104 284.029 283.989 286.106C282.538 287.534 275.606 290.722 273.483 291.015C267.648 291.81 258.501 290.073 253.105 287.626C252.457 287.333 249.276 285.318 248.998 284.986C248.721 284.655 247.532 280.455 247.709 280.293C247.98 280.046 249.655 280.509 250.025 280.293V280.286Z" fill="#A23A1E"/>
<path d="M268.528 245.588C270.682 247.719 248.343 272.451 268.845 270.205C269.979 270.081 275.452 267.325 274.696 270.637C273.993 273.732 256.896 276.025 257.227 265.365C257.359 261.297 263.588 250.413 266.004 246.553C266.706 245.426 267.895 244.971 268.52 245.588H268.528Z" fill="#A23A1E"/>
<path d="M215.328 246.36C217.203 244.485 221.642 250.382 222.398 252.003C223.232 253.778 226.775 264.299 224.174 264.863C221.217 263.134 221.542 257.476 220.09 254.311C219.342 252.667 214.208 247.48 215.32 246.368L215.328 246.36Z" fill="#A23A1E"/>
<path d="M317.883 246.36C318.824 247.433 314.432 255.237 313.66 257.167C312.842 259.205 313.537 263.281 310.179 263.319C310.009 259.807 310.943 255.986 312.34 252.767C312.742 251.841 316.586 244.886 317.883 246.368V246.36Z" fill="#A23A1E"/>
<path d="M241.542 254.064C238.308 250.444 237.744 246.947 239.226 242.493C238.74 246.592 240.237 250.305 241.542 254.064Z" fill="#A23A1E"/>
<path d="M285.285 237.236C295.15 234.349 292.943 260.046 283.556 251.771C279.481 248.174 280.484 238.641 285.285 237.236Z" fill="#38292B"/>
<path d="M248.265 237.236C256.246 234.89 257.628 252.281 250.364 253.323C243.093 254.365 242.213 239.02 248.265 237.236Z" fill="#38292B"/>
<rect x="64.7432" y="560.202" width="419.746" height="351" fill="#782F11"/>
<rect x="64.7432" y="560.202" width="51.4683" height="351" fill="#61240B"/>
<rect x="433.021" y="560.202" width="51.4683" height="351" fill="#61240B"/>
<rect x="64.7432" y="866.787" width="419.746" height="42.5628" fill="#61240B"/>
<rect x="64.7432" y="771.702" width="419.746" height="19.6326" fill="#61240B"/>
<rect x="64.7432" y="676.617" width="419.746" height="19.6326" fill="#61240B"/>
<path d="M455.581 642.083H0.360352L21.7227 601.202L42.3604 563.447H476.049L455.581 601.702V642.083Z" fill="#441C0C"/>
<path fill-rule="evenodd" clip-rule="evenodd" d="M476.049 563.447H497.581V523.202L476.049 563.447Z" fill="#441C0C"/>
<path d="M455.581 642.083L497.581 563.447H476.049L455.581 601.702V642.083Z" fill="#441C0C"/>
<path fill-rule="evenodd" clip-rule="evenodd" d="M0.360352 642.083L21.7227 601.202H0.360352V642.083Z" fill="#441C0C"/>
<path d="M0.347656 601.265L455.581 601.897L497.581 523.262H42.3604L0.347656 601.265Z" fill="#4D1F0D"/>
<defs>
<linearGradient id="paint0_linear_267_839" x1="153.328" y1="91.9733" x2="133.468" y2="121.941" gradientUnits="userSpaceOnUse">
<stop stop-color="#629238"/>
<stop offset="1" stop-color="#4A7E34"/>
</linearGradient>
<linearGradient id="paint1_linear_267_839" x1="133.88" y1="177.735" x2="72.8749" y2="130.694" gradientUnits="userSpaceOnUse">
<stop stop-color="#90B944"/>
<stop offset="1" stop-color="#5C8F3E"/>
</linearGradient>
<linearGradient id="paint2_linear_267_839" x1="167.369" y1="160.924" x2="121.308" y2="125.21" gradientUnits="userSpaceOnUse">
<stop stop-color="#ADD350"/>
<stop offset="1" stop-color="#7EAE49"/>
</linearGradient>
<linearGradient id="paint3_linear_267_839" x1="126.569" y1="115.823" x2="98.1448" y2="92.4687" gradientUnits="userSpaceOnUse">
<stop stop-color="#73A143"/>
<stop offset="1" stop-color="#5B8D3E"/>
</linearGradient>
<linearGradient id="paint4_linear_267_839" x1="96.2541" y1="152.135" x2="68.5151" y2="129.265" gradientUnits="userSpaceOnUse">
<stop stop-color="#629238"/>
<stop offset="1" stop-color="#4A7E34"/>
</linearGradient>
</defs>
</svg>
