<svg width="593" height="912" viewBox="0 0 593 912" fill="none" xmlns="http://www.w3.org/2000/svg">
<rect x="68.2783" y="79.5072" width="410" height="828" rx="20" fill="#EE284A"/>
<rect x="62.543" y="570.65" width="409.714" height="42.5628" fill="#61240B"/>
<rect x="62.2578" y="83.0389" width="36" height="442.163" fill="#61240B"/>
<rect x="449.256" y="83.0389" width="36" height="442.163" fill="#61240B"/>
<rect x="41.2578" y="98.8873" width="36" height="456.124" transform="rotate(-90 41.2578 98.8873)" fill="#4D1F0D"/>
<path d="M445.596 280.521L445.118 280.569C428.588 271.92 430.268 260.46 434.512 244.634C443.738 250.276 451.941 257.185 450.217 269.236C449.831 271.93 445.645 278.354 445.596 280.521Z" fill="#829F45"/>
<path d="M453.048 301.873C452.821 301.865 452.04 301.069 452.005 301.021C451.175 299.737 450.521 293.484 450.586 291.789C451 280.931 464.137 273.456 461.49 261.848C468.786 264.793 473.401 276.522 471.412 283.917C468.958 293.017 454.164 296.017 453.048 301.873Z" fill="#829F45"/>
<path d="M449.094 300.832C448.783 301.523 448.129 301.98 448.339 302.833C442.763 295.741 435.105 298.07 428.436 293.795C418.486 287.413 416.546 270.494 421.991 261.041C419.118 275.668 435.127 277.34 442.34 286.377C445.664 290.538 447.584 295.778 449.094 300.832Z" fill="#829F45"/>
<path d="M462.61 344.161C462.863 345.237 463.721 345.788 462.899 347.014C456.805 339.377 438.997 349.722 428.726 337.012C425.902 333.521 424.229 330.006 423.956 325.474C429.28 333.436 437.948 326.96 445.899 328.542C453.851 330.125 458.027 338.543 462.619 344.15L462.61 344.161Z" fill="#829F45"/>
<path d="M489.081 316.009C489.174 323.533 483.962 331.625 477.304 334.985C474.748 336.273 466.122 337.98 465.029 339.593C465.31 338.505 464.434 338.285 464.406 338.216C462.946 332.94 465.736 323.909 470.048 320.344C475.47 315.853 484.121 315.811 487.78 310.377C489.063 311.153 489.052 314.705 489.071 316.01L489.081 316.009Z" fill="#829F45"/>
<path d="M456.211 323.659C456.216 323.71 455.464 323.704 455.828 324.655C452.648 322.312 443.062 323.9 438.6 323.034C428.942 321.161 421.969 310.834 420.8 301.525C427.74 309.591 436.223 304.328 444.91 309.417C448.17 311.331 455.817 320.066 456.2 323.65L456.211 323.659Z" fill="#829F45"/>
<path d="M459.446 322.375L457.924 321.572C457.731 313.358 457.362 304.019 464.462 298.319C470.554 293.431 480.64 295.364 480.431 285.165C483.171 295.252 479.529 306.653 471.229 313.01C466.483 316.65 460.222 316.008 459.436 322.376L459.446 322.375Z" fill="#829F45"/>
<path d="M451.994 301.022C452.031 301.08 452.82 301.865 453.038 301.874C451.772 308.486 456.534 316.793 457.613 323.281C459.427 323.004 457.935 321.982 457.924 321.572L459.446 322.375C458.683 328.565 461.771 334.973 462.775 341.026L464.415 338.215C464.433 338.285 465.319 338.504 465.038 339.593C464.35 340.619 464.081 344.774 464.262 346.155C464.404 347.252 468.825 361.748 469.28 362.474C469.391 362.658 470.077 363.33 470.276 362.857C470.452 361.45 471.419 360.426 471.82 359.099L472.863 359.95C467.663 363.79 476.061 382.083 475.681 387.782L476.986 386.446C477.015 386.525 478.356 386.76 478.078 387.776C476.904 389.902 478.473 414.752 479.494 415.986C479.565 416.082 479.479 416.554 480.021 416.417C478.813 418.721 479.264 433.845 479.288 437.641C479.296 439.647 479.17 442.469 479.963 444.303C478.945 444.108 477.845 443.612 477.627 445.023C477.334 444.971 477.087 445.078 477.1 444.593C477.173 444.4 477.208 443.831 477.434 443.118C478.645 439.322 478.93 436.339 477.274 432.081C476.604 430.142 478.299 430.814 478.532 430.276C478.24 429.935 477.432 430.285 477.513 429.659C477.518 429.607 478.426 429.731 478.436 429.329C478.599 423.312 477.913 410.332 472.769 406.592C472.707 406.289 472.764 405.934 472.673 405.644L478.08 411.581C477.054 404.799 477.283 394.453 473.36 388.748L473.79 388.22C474.182 388.839 474.393 389.394 474.696 390.053C475.812 390.496 471.642 373.607 471.23 372.383C470.367 369.856 469.348 366.502 467.103 364.866C468.078 365.035 467.965 364.326 468.002 364.291C468.166 364.182 468.877 364.388 468.926 363.961C469.031 363.065 463.609 347.94 462.889 347.025C463.711 345.799 462.853 345.248 462.6 344.172C461.659 340.161 458.811 326.875 455.82 324.677C455.456 323.725 456.208 323.732 456.203 323.681C456.87 324.889 457.502 324.825 457.126 323.351C455.897 318.525 451.321 306.669 448.32 302.856C448.111 302.012 448.774 301.544 449.075 300.855C449.099 300.791 449.948 300.941 449.999 300.525C450.349 297.679 444.407 284.84 445.099 280.591L445.578 280.543C445.455 285.835 450.716 295.924 450.622 301.902L451.976 301.045L451.994 301.022Z" fill="#829F45"/>
<path d="M468.012 364.28C468.012 364.28 468.088 365.024 467.113 364.855C462.337 361.386 452.603 366.087 446.327 366.002C436.834 365.862 429.189 357.744 424.987 349.895C433.636 355.627 443.226 347.575 452.347 349.533C458.333 350.81 465.674 358.671 468.024 364.289L468.012 364.28Z" fill="#829F45"/>
<path d="M495.765 334.557C496.056 335.402 496.655 336.34 497.001 337.314C496.727 345.997 491.742 356.834 482.612 358.953C480.238 359.502 474.317 358.856 472.862 359.94L471.819 359.088C472.896 355.49 472.672 351.86 474.545 347.996C478.954 338.884 487.03 337.531 495.775 334.556L495.765 334.557Z" fill="#829F45"/>
<path d="M505.927 359C505.734 365.421 503.533 371.541 500.051 376.896C498.856 377.089 499.001 377.702 498.242 378.036C495.907 379.065 493.31 381.057 490.725 382.163C486.977 383.767 480.244 383.852 478.078 387.766C478.345 386.751 477.015 386.515 476.986 386.435C475.822 383.373 479.197 372.39 481.029 369.446C487.48 359.057 496.289 362.806 505.256 357.144C505.563 357.843 505.715 358.528 505.927 359Z" fill="#829F45"/>
<path d="M473.8 388.209L473.37 388.736C466.972 379.422 453.208 388.935 443.864 386.917C443.836 386.128 443.703 385.328 443.623 384.534C443.521 383.422 443.398 382.313 443.286 381.202C443.522 380.489 444.263 378.757 443.231 378.326C442.611 380.633 440.89 382.443 439.764 384.441C433.475 380.971 427.374 374.281 426.711 367.021C431.997 376.129 443.421 370.444 451.603 370.748C462.078 371.138 468.734 380.252 473.8 388.209Z" fill="#829F45"/>
<path d="M441.181 493.419C438.384 499.809 436.636 506.48 435.415 513.287L436.865 512.374C436.707 512.631 435.255 516.108 435.035 516.715C434.684 517.645 434.901 517.802 434.981 518.62C435.011 518.895 435.025 519.295 434.96 519.571L430.821 517.363C431.875 514.068 431.854 510.364 432.422 507.108C432.897 504.413 434.461 501.462 434.179 498.384L437.791 491.611L441.173 493.415L441.181 493.419Z" fill="#5C8B45"/>
<path d="M543.5 358.636C541.944 360.681 539.886 362.387 539.324 365.108C540.863 363.56 546.383 361.435 547.459 360.271L547.837 360.473C534.092 371.368 520.655 382.231 513.736 399.042C519.67 392.494 528.191 388.619 535.024 383.585C534.759 384.043 535.179 384.226 535.571 384.363C529.805 388.56 523.13 392.095 517.795 396.863C513.684 400.535 510.306 405.395 506.41 409.151C502.598 412.828 497.09 416.055 494.302 420.081C497.673 417.504 501.418 415.291 505.161 413.316C507.165 412.254 511.509 411.343 512.957 410.471C513.418 410.634 513.125 410.912 513.134 411.051C513.143 411.19 512.846 411.456 513.311 411.632C511.061 411.797 498.79 418.182 496.413 419.769C495.054 420.669 483.621 429.363 484.588 430.613C499.553 421.289 513.515 418.599 530.748 422.866C532.017 423.181 541.038 425.313 540.463 426.838C529.639 432.236 519.177 433.079 507.483 430.256C497.969 427.964 498.717 423.905 488.713 429.668C479.674 434.881 470.498 445.317 465.281 454.129C466.502 453.798 467.596 451.961 468.397 451.447C474.962 447.284 484.906 447.064 492.413 448.078C487.466 444.922 480.025 448.07 474.807 446.663C494.236 437.62 511.835 438.815 529.888 451.164C519.615 454.56 509.134 459.355 498.104 459.575C487.985 459.774 480.382 456.536 471.521 451.913C460.662 458.658 454.246 469.387 447.799 480.079L445.389 477.345C448.943 470.779 455.565 464.608 452.435 455.988L454.543 455.664C454.205 457.48 454.91 460.949 455.017 462.92C460.117 455.451 466.047 448.446 469.637 440.047L471.319 441.431C476.676 430.748 487.334 423.409 491.35 412.021C491.543 412.279 492.684 413.126 493.234 413.026C492.09 414.764 491.252 418.527 489.321 420.362C499.592 414.255 516.194 396.702 516.878 384.095L517.828 384.116C517.214 385.733 516.555 388.268 516.628 389.993C519.719 384.121 524.158 379.269 528.389 374.285C532.042 369.975 538.704 365.573 540.297 360.103C540.616 359.001 539.983 355.436 540.473 353.432C542.195 346.324 547.825 338.775 553.836 334.72C551.884 342.006 545.93 346.826 543.127 353.886C542.449 355.603 540.823 359.505 543.475 358.664L543.5 358.636Z" fill="#5C8B45"/>
<path d="M563.259 390.421C563.259 390.421 563.174 390.21 562.678 390.597L562.337 388.967C560.619 390.192 557.922 390.574 556.253 391.763C552.001 394.791 546.595 401.435 541.782 405.301C541.223 405.748 539.885 406.607 541.258 407.194C534.512 411.406 528.561 413.042 520.505 413.038C518.574 413.032 515.026 411.481 513.291 411.611C512.83 411.448 513.123 411.17 513.114 411.03L516.25 411.493L541.175 399.185C539.163 398.826 525.846 406.205 524.887 405.714C524.726 405.628 524.194 402.727 522.872 402.705C537.112 393.636 550.402 389.604 566.956 386.61C566.884 387.968 564.264 389.622 563.238 390.42L563.259 390.421Z" fill="#5C8B45"/>
<path d="M478.362 391.998L476.008 390.981L474.551 431.745C473.69 433.727 472.13 435.895 470.793 433.361C470.257 429.672 467.173 424.769 466.456 420.663C464.363 408.664 472.152 395.379 476.933 384.709C477.708 387.057 477.907 389.573 478.366 391.99L478.362 391.998Z" fill="#5C8B45"/>
<path d="M496.871 398.974C497.08 400.037 498.055 399.74 498.455 400.543C495.586 398.785 496.054 403.958 495.469 405.229C494.927 406.419 492.612 412.022 491.03 410.837C484.806 393.377 492.558 381.168 501.358 366.105C503.51 368.256 502.711 372.257 502.359 375.089C501.653 380.816 499.152 385.368 498.15 390.233C498.076 390.586 499.267 390.177 499.076 391.213C498.847 392.456 496.762 398.44 496.871 398.974Z" fill="#5C8B45"/>
<path d="M456.048 450.146L456.426 450.348C455.954 452.455 454.949 453.584 454.568 455.636L452.461 455.96C451.026 451.998 445.4 448.874 444.967 443.75C445.13 443.289 445.114 442.06 445.223 441.466C446.281 440.996 448.3 440.159 448.718 438.986C447.338 439.791 445.719 439.993 444.293 440.495C444.136 439.645 443.852 438.666 443.793 437.807C443.721 436.797 443.164 433.613 443.243 433.407C443.353 433.104 447.263 429.614 447.381 428.363C447.332 427.893 446.368 427.606 445.974 427.375C445.375 427.024 444.19 426.92 443.139 426.349C444.856 424.255 446.159 426.098 449.107 424.215C449.456 423.988 449.556 423.917 449.885 423.668L454.199 451.808L455.15 451.829C455.427 451.253 455.788 450.711 456.052 450.138L456.048 450.146Z" fill="#5C8B45"/>
<path d="M501.759 401.581L496.871 398.974C496.762 398.44 498.847 392.456 499.076 391.213C499.266 390.177 498.076 390.586 498.15 390.233C499.16 385.372 501.652 380.816 502.359 375.089C502.711 372.257 503.51 368.256 501.358 366.105C501.961 365.071 502.464 363.954 503.063 362.908C509.325 373.685 507.6 390.629 501.759 401.581Z" fill="#5C8B45"/>
<path d="M478.363 391.999C480.427 403.061 483.287 415.386 478.517 426.133C476.234 431.267 471.623 435.645 471.341 441.391L469.659 440.007C471.056 436.728 471.282 436.808 470.785 433.357C472.123 435.891 473.683 433.723 474.544 431.741L476.001 390.977L478.354 391.994L478.363 391.999Z" fill="#5C8B45"/>
<path d="M564.615 353.472C561.766 350.204 563.181 350.886 565.708 348.262C561.18 349.674 560.95 354.196 556.723 349.262C565.545 340.81 572.414 338.288 584.164 335.4C579.263 343.172 572.209 348.698 564.624 353.476L564.615 353.472Z" fill="#5C8B45"/>
<path d="M528.259 350.983C527.3 350.337 526.008 355.068 525.953 355.308C525.031 359.13 524.428 363.131 523.17 366.867C522.926 367.596 516.179 380.982 518.604 380.858C521.014 379.423 521.686 375.913 524.368 375.481C524.125 375.859 523.473 376.442 522.984 377.164C520.715 380.546 519.315 380.223 517.845 384.084L516.895 384.063C517.009 382.025 515.603 379.754 515.642 377.354C515.797 367.579 523.399 356.139 526.549 346.937C527.844 347.669 527.907 349.781 528.255 350.991L528.259 350.983Z" fill="#5C8B45"/>
<path d="M528.259 350.983C530.958 360.47 529.777 367.143 524.368 375.481C521.687 375.913 521.01 379.431 518.604 380.858C516.18 380.982 522.926 367.595 523.17 366.867C524.428 363.131 525.032 359.129 525.953 355.307C526.008 355.068 527.305 350.329 528.259 350.983Z" fill="#5C8B45"/>
<path d="M456.427 450.348L456.048 450.146C457.135 447.799 456.921 444.126 457.706 441.607L452.241 421.056C452.342 420.965 452.346 420.781 452.443 420.678C453.189 419.938 455.418 418.416 455.955 417.72C462.586 429.491 459.095 438.479 456.431 450.34L456.427 450.348Z" fill="#5C8B45"/>
<path d="M564.615 353.472C559.367 356.775 554.307 360.096 547.842 360.465L547.463 360.263C550.754 356.692 552.317 353.47 556.715 349.258C560.946 354.183 561.18 349.674 565.7 348.257C563.169 350.89 561.753 350.207 564.607 353.467L564.615 353.472Z" fill="#5C8B45"/>
<path d="M543.501 358.636C540.849 359.477 542.462 355.579 543.153 353.858C545.956 346.798 551.909 341.978 553.861 334.692C554.518 334.256 555.143 333.762 555.808 333.31C554.364 343.97 549.752 350.406 543.513 358.632L543.501 358.636Z" fill="#5C8B45"/>
<path d="M513.135 411.031C513.13 410.904 513.423 410.626 512.958 410.45C515.888 408.682 519.263 405.01 522.884 402.701C524.211 402.715 524.739 405.624 524.9 405.71C525.859 406.201 539.168 398.818 541.188 399.181L516.263 411.489L513.127 411.027L513.135 411.031Z" fill="#5C8B45"/>
<path d="M501.759 401.581C499.276 406.236 495.756 409.189 493.255 412.986C492.714 413.09 491.564 412.239 491.371 411.981C490.925 411.381 491.113 411.088 491.021 410.832C492.599 412.025 494.914 406.423 495.46 405.225C496.045 403.954 495.581 398.773 498.446 400.538C498.047 399.736 497.079 400.037 496.862 398.97L501.751 401.577L501.759 401.581Z" fill="#5C8B45"/>
<path d="M431.675 492.218C432.366 492.959 434.074 497.262 434.179 498.384C434.461 501.462 432.897 504.413 432.422 507.108C430.401 505.699 430.386 504.253 427.534 504.501C427.031 502.36 426.894 499.805 424.828 498.713C425.634 497.261 426.062 495.1 426.872 493.524C425.807 494.415 424.823 495.328 423.755 496.207L423.776 495.256C425.077 494.388 426.992 492.058 427.712 490.59C429.675 490.654 429.797 490.212 431.675 492.218Z" fill="#5C8B45"/>
<path d="M456.848 477.622C456.739 477.709 454.662 477.977 454.061 478.308C445.556 483.102 445.139 484.369 441.173 493.415L437.791 491.611C440.329 486.852 442.844 482.059 445.415 477.317L447.825 480.051C450.352 476.981 454.846 476.585 457.684 475.162C457.743 475.886 457.381 477.203 456.86 477.618L456.848 477.622Z" fill="#5C8B45"/>
<path d="M494.711 466.423C494.401 467.489 492.709 468.179 492.355 469.035L491.977 468.833L478.226 469.713L460.586 473.348C476.539 465.895 477.642 466.949 494.706 466.431L494.711 466.423Z" fill="#5C8B45"/>
<path d="M562.686 390.601C555.842 395.888 548.41 402.744 541.274 407.203C539.909 406.62 541.251 405.753 541.797 405.31C546.611 401.443 552.012 394.808 556.269 391.772C557.938 390.583 560.626 390.196 562.353 388.976L562.694 390.606L562.686 390.601Z" fill="#5C8B45"/>
<path d="M490.219 470.306C491.015 469.261 489.719 469.48 489.191 469.52C483.021 469.974 476.749 470.486 470.723 471.989C466.478 473.045 459.85 474.476 457.222 477.832L456.843 477.63C457.369 477.207 457.726 475.898 457.667 475.173C458.71 474.654 459.569 473.819 460.578 473.343L478.219 469.708L491.969 468.829C491.797 469.927 490.699 469.931 490.215 470.314L490.219 470.306Z" fill="#5C8B45"/>
<path d="M468.41 451.423C466.134 449.64 473.733 447.145 474.832 446.635C480.038 448.046 487.491 444.895 492.438 448.05C484.923 447.032 474.987 447.256 468.422 451.419L468.41 451.423Z" fill="#5C8B45"/>
<path d="M535.576 384.355C535.183 384.218 534.763 384.035 535.029 383.577C536.936 382.174 538.838 378.782 540.826 377.246C551.459 369.004 565.807 364.968 576.364 356.345C571.26 369.522 559.898 381.284 545.7 383.952C543.632 384.338 537.413 384.983 535.588 384.351L535.576 384.355Z" fill="#5C8B45"/>
<path d="M557.051 372.618C557.92 374.209 554.141 374.758 553.634 375.864L542.742 380.44L557.059 372.622L557.051 372.618Z" fill="#5C8B45"/>
<path d="M456.048 450.146C455.783 450.719 455.422 451.261 455.146 451.837L454.195 451.816L449.881 423.676C450.731 423.013 451.524 421.739 452.236 421.064L457.701 441.615C456.921 444.126 457.13 447.807 456.043 450.154L456.048 450.146Z" fill="#5C8B45"/>
<path d="M490.219 470.306C489.94 470.519 489.287 471.453 489.037 471.61C488.219 472.136 487.392 472.367 486.329 473.062C484.011 474.577 481.687 476.296 479.158 477.45C472.26 480.608 464.159 480.922 457.213 477.828C459.841 474.471 466.469 473.041 470.715 471.985C476.74 470.482 483.013 469.969 489.182 469.515C489.71 469.476 491.006 469.257 490.211 470.302L490.219 470.306Z" fill="#5C8B45"/>
<path d="M462.416 497.98C461.946 499.054 461.649 500.116 461.188 501.194C460.662 502.413 460.191 503.528 459.762 504.778L452.847 506.882C450.994 506.38 448.86 507.745 448.06 507.712C446.486 507.638 445.119 506.381 443.522 506.253C447.109 498.867 457.535 497.57 464.61 494.796C464.109 495.852 463.049 496.559 462.428 497.976L462.416 497.98Z" fill="#5C8B45"/>
<path d="M467.003 490.29C466.668 491.383 465.555 492.889 464.997 494.051C461.717 494.401 457.828 495.875 454.715 497.018C451.871 498.066 447.515 501.732 445.212 499.438C447.705 495.927 461.878 488.611 466.321 487.03C466.801 487.255 467.048 490.128 467.003 490.29Z" fill="#5C8B45"/>
<path d="M464.997 494.051C464.872 494.305 464.718 494.554 464.598 494.8C457.522 497.573 447.096 498.871 443.509 506.257C443.419 506.25 442.258 507.089 441.78 506.783C443.184 504.635 443.592 501.718 445.211 499.438C447.511 501.74 451.87 498.066 454.715 497.018C457.828 495.875 461.717 494.401 464.997 494.051Z" fill="#5C8B45"/>
<path d="M172.096 47.483C173.904 62.8496 174.844 82.7319 170.825 97.7125C170.768 97.8376 170.7 97.7526 170.66 97.7496C170.128 97.7159 168.624 99.7276 168.069 100.279C161.661 106.629 153.843 112.908 144.834 114.757C135.147 116.747 125.952 113.705 117.573 108.805C118.372 107.266 119.559 105.887 120.384 104.365C120.55 104.414 120.54 104.324 120.55 104.327C133.135 108.027 146.618 108.794 159.34 105.354L161.897 104.217C161.965 104.196 163.139 103.939 162.697 103.734C152.008 105.781 140.952 105.598 130.326 103.17C130.238 102.866 129.628 102.881 129.391 102.861C128.941 102.751 128.46 102.677 128.024 102.562C127.823 102.524 127.541 102.434 127.291 102.382C125.696 101.938 124.081 101.538 122.521 100.986C124.539 98.0663 126.188 94.84 128.24 91.9552C139.276 93.6566 150.759 92.6685 161.232 88.7431C160.672 88.0966 161.677 88.6689 161.813 88.0496C163.115 87.6042 164.373 87.0257 165.69 86.6177C165.875 86.4349 165.527 86.406 165.47 86.4087C163.396 86.4678 159.152 88.484 156.772 88.5354C148.229 89.9161 139.449 90.0267 130.881 88.6795L130.508 88.3737C134.643 81.6018 138.479 74.5928 142.851 67.9873C151.035 67.6634 159.287 66.6405 166.864 63.3315C158.59 65.4516 150.14 66.7825 141.57 66.3288C143.019 63.5402 144.744 60.8871 146.366 58.1974C146.726 58.6115 147.343 58.485 147.845 58.4283C154.525 57.6683 162.802 54.3194 168.181 50.3132C169.165 49.5803 170.783 47.7763 171.657 47.2823C171.943 47.1193 171.898 47.3965 172.093 47.4889L172.096 47.483Z" fill="#5C8B45"/>
<path d="M172.096 47.483C171.904 47.3918 171.948 47.1166 171.66 47.2764C170.786 47.7704 169.17 49.5724 168.185 50.3073C162.805 54.3155 154.529 57.6624 147.849 58.4224C147.346 58.4791 146.729 58.6076 146.37 58.1915C151.266 50.0785 156.237 42.0048 161.022 33.8247L140.141 65.3466C139.93 65.4571 138.43 62.407 138.294 62.1262C135.08 55.5538 133.073 48.1656 131.898 40.9702C131.589 40.9104 131.901 44.12 131.93 44.3824C131.328 44.4851 131.592 46.4858 131.629 47.0899C132.036 53.9322 134.11 60.9717 136.644 67.299C136.603 67.3013 136.338 67.7028 135.957 67.7117C130.359 67.8732 123.823 66.1514 118.349 65.0434L114.192 63.6837C113.894 62.7335 113.508 61.7892 113.247 60.8238C112.933 59.661 111.673 52.4116 111.337 52.1212C111.253 52.0483 111.116 51.9447 111.002 51.9786C110.834 52.1167 111.329 54.6916 111.338 55.0196C111.344 55.2122 111.074 55.4244 111.093 55.8537C111.202 58.2176 111.681 60.5545 111.856 62.9103C107.074 60.7318 102.647 58.2845 98.2272 55.4104C105.101 48.9252 114.651 43.6762 123.173 39.6821C137.336 33.0451 152.658 28.1723 167.993 25.1642L167.792 23.6952C168.511 24.9781 169.881 32.8305 170.239 34.7881C171.01 38.9767 171.598 43.2555 172.095 47.485L172.096 47.483Z" fill="#5C8B45"/>
<path d="M111.856 62.9155L111.957 62.9795C113.57 71.9495 117.227 80.5472 122.354 88.0835C122.291 88.249 122.396 88.3156 122.428 88.4138L116.635 97.1144C116.582 97.1417 115.762 96.5111 115.657 96.4257C113.743 94.8192 110.517 90.2839 108.984 88.0988C103.442 80.1998 99.3822 71.2944 96.9725 61.9726C96.5941 61.8024 96.8282 62.648 96.8413 62.7369C96.7151 63.296 96.9687 63.9178 97.015 64.4722C98.0207 76.7613 106.301 91.7596 114.394 100.43C114.47 100.511 114.455 100.579 114.533 100.659C113.321 101.519 112.368 104.664 111.497 105.452C111.114 105.798 109.189 105.496 108.63 105.403C102.498 104.382 97.9641 100.736 94.2084 97.2598C94.1917 97.2381 94.2724 97.0447 94.0476 96.7329C94.0126 96.6829 93.4154 96.3492 93.3912 96.3172C93.3825 96.309 93.5363 96.1758 93.4697 96.0836C93.3781 95.9561 93.2181 96.0992 93.1538 96.0252C92.2151 94.7918 91.3123 92.8698 90.2439 91.3542C90.2358 91.3407 89.9539 91.04 89.928 91.2959C86.8444 85.5786 85.6588 79.3518 86.5801 72.9172C86.9616 72.8587 86.7978 72.9551 86.9048 72.6283C89.2965 65.3634 92.6966 60.6346 98.2302 55.4149C102.65 58.2889 107.075 60.735 111.859 62.9148L111.856 62.9155Z" fill="#5C8B45"/>
<path d="M170.66 97.7495C170.563 97.8547 170.732 98.0533 170.734 98.0799C170.943 100.146 167.04 107.854 165.773 109.71C154.77 125.817 127.317 127.999 117.237 110.006C117.312 109.353 117.269 109.39 117.573 108.805C125.952 113.705 135.148 116.747 144.834 114.757C153.844 112.906 161.663 106.627 168.069 100.279C168.626 99.7288 170.129 97.7158 170.66 97.7495Z" fill="url(#paint0_linear_267_839)"/>
<path d="M116.258 102.176C115.624 103.295 114.523 104.67 113.792 105.847C106.321 106.536 98.9465 102.922 94.2069 97.2618C97.9626 100.737 102.498 104.382 108.629 105.405C109.187 105.498 111.113 105.8 111.496 105.454C112.367 104.666 113.319 101.521 114.531 100.661C114.724 100.861 115.839 102.131 115.941 102.12C116.067 102.105 116.66 101.173 116.644 101.01C116.632 100.913 115.351 99.677 115.222 99.684C115.167 99.6879 114.606 100.341 114.395 100.433C106.302 91.7628 98.0212 76.7645 97.0154 64.4754C96.9692 63.921 96.7156 63.2992 96.8418 62.7401C99.0089 76.8982 107.195 90.5365 116.873 100.871C116.632 101.244 116.45 101.837 116.257 102.178L116.258 102.176Z" fill="#4E7F37"/>
<path d="M120.383 104.367C119.558 105.889 118.371 107.268 117.572 108.807C117.268 109.392 117.311 109.355 117.236 110.008C116.755 109.148 116.413 108.22 115.946 107.355C116.72 106.155 117.437 104.896 118.247 103.722C118.96 103.929 119.67 104.159 120.382 104.369L120.383 104.367Z" fill="#4E7F37"/>
<path d="M118.338 103.352C118.283 103.426 118.379 103.529 118.247 103.72C117.437 104.893 116.72 106.153 115.946 107.353C112.1 113.327 108.376 119.382 104.54 125.365C104.341 125.478 102.228 124.357 102.385 123.859C106.151 117.833 110.038 111.879 113.791 105.846C114.522 104.67 115.624 103.295 116.257 102.176L118.34 103.354L118.338 103.352Z" fill="#356740"/>
<path d="M146.37 58.1946C144.749 60.8824 143.023 63.5374 141.574 66.326C150.144 66.7798 158.593 65.4507 166.868 63.3288C159.293 66.639 151.039 67.6606 142.855 67.9845C142.47 67.9994 140.64 67.8236 140.469 67.9572L128.019 88.0648C127.937 88.4542 130.584 88.6304 130.883 88.6754C139.451 90.0226 148.233 89.9133 156.774 88.5313C159.154 88.4799 163.397 86.4657 165.472 86.4046C165.528 86.4039 165.876 86.4329 165.692 86.6137C164.375 87.0217 163.117 87.6002 161.816 88.0456C151.63 91.5389 141.229 91.6648 130.629 90.6343C129.36 90.5111 128.109 90.2612 126.839 90.1432C124.537 93.5112 122.457 97.0283 120.289 100.487C120.155 100.699 119.687 101.109 119.828 101.325L120.388 100.55C122.604 101.456 125.158 101.92 127.289 102.375C127.545 102.445 127.786 102.495 128.022 102.556C128.629 102.673 128.688 102.794 129.389 102.854C129.643 102.915 129.914 103.07 130.324 103.163C140.947 105.592 152.005 105.776 162.695 103.728C163.138 103.933 161.962 104.188 161.895 104.21C152.478 107.174 140.893 106.914 131.239 105.295C127.2 104.618 123.154 103.816 119.292 102.395C119.081 102.408 118.475 103.158 118.337 103.346L116.254 102.169C116.447 101.829 116.629 101.234 116.871 100.862C107.193 90.5267 99.0065 76.8884 96.8394 62.7304C96.8262 62.6415 96.5921 61.7959 96.9705 61.966C99.3802 71.2879 103.44 80.1932 108.982 88.0922C110.515 90.2774 113.741 94.8126 115.655 96.4191L118.103 99.0302L124.721 88.802C119.461 80.8587 114.9 72.2171 112.713 62.8913C111.89 59.3812 111.443 55.7223 111.334 52.1218C111.671 52.4134 112.93 59.6615 113.244 60.8244C113.507 61.791 113.89 62.7341 114.189 63.6843C116.512 71.0761 119.926 78.4221 124.459 84.7493C124.616 84.9677 125.7 86.9407 125.998 86.7852L138.794 67.2496L138.937 66.9148C135.514 59.9435 132.743 52.1435 131.929 44.3822C131.901 44.1198 131.592 40.9095 131.898 40.9701C133.073 48.1655 135.079 55.5536 138.294 62.1261C138.43 62.4068 139.93 65.4569 140.141 65.3465L161.022 33.8246C156.236 42.0046 151.266 50.0783 146.37 58.1913L146.37 58.1946Z" fill="#356740"/>
<path d="M130.884 88.6788C130.586 88.6318 127.938 88.4576 128.02 88.0682L140.47 67.9606C140.641 67.827 142.471 68.0028 142.856 67.9879C138.484 74.5934 134.645 81.6032 130.513 88.3743L130.886 88.6801L130.884 88.6788Z" fill="#61903A"/>
<path d="M128.243 91.9544C128.44 91.6789 128.871 90.8216 129.042 90.6932C129.292 90.5043 130.326 90.9899 130.632 90.6389C141.231 91.6694 151.631 91.5422 161.818 88.0501C161.683 88.6674 160.679 88.0951 161.238 88.7436C150.764 92.669 139.281 93.6571 128.245 91.9557L128.243 91.9544Z" fill="#4E7F37"/>
<path d="M128.243 91.9544C126.191 94.8392 124.543 98.0656 122.524 100.985C124.086 101.538 125.702 101.939 127.294 102.381C125.163 101.926 122.607 101.46 120.393 100.556L120.292 100.491C122.459 97.0348 124.539 93.5177 126.842 90.1477C128.112 90.2657 129.362 90.5157 130.632 90.6389C130.326 90.9899 129.295 90.5036 129.042 90.6932C128.872 90.8216 128.44 91.6789 128.243 91.9544Z" fill="#4E7F37"/>
<path d="M135.957 67.7169L124.462 84.7539C119.928 78.4267 116.517 71.082 114.192 63.6889L118.348 65.0486C123.823 66.1566 130.359 67.8784 135.957 67.7169Z" fill="#5C8B45"/>
<path d="M138.795 67.253L125.999 86.7885C125.699 86.946 124.618 84.9722 124.46 84.7526L135.954 67.7156C136.334 67.7035 136.6 67.3052 136.641 67.3029C136.717 67.2959 137.018 67.5975 137.095 67.5905C137.681 67.5338 138.231 67.4069 138.793 67.2517L138.795 67.253Z" fill="#73A14D"/>
<path d="M138.795 67.2529C138.231 67.4068 137.681 67.5337 137.097 67.5917C137.021 67.5987 136.72 67.2971 136.643 67.3041C134.111 60.9748 132.035 53.9341 131.629 47.095C131.594 46.4922 131.33 44.4914 131.929 44.3875C132.743 52.1488 135.514 59.9488 138.937 66.9201L138.794 67.2549L138.795 67.2529Z" fill="#89B15A"/>
<path d="M111.337 52.1263C111.446 55.7268 111.894 59.3858 112.716 62.8959L111.956 62.9815L111.855 62.9174C111.68 60.5616 111.201 58.2247 111.092 55.8608C111.072 55.4315 111.342 55.2194 111.337 55.0268C111.328 54.6988 110.833 52.1239 111.001 51.9858C111.114 51.9519 111.251 52.0554 111.336 52.1283L111.337 52.1263Z" fill="#73A14D"/>
<path d="M115.657 96.4257C115.76 96.5131 116.579 97.1405 116.635 97.1144L122.428 88.4138C122.455 88.4978 123.319 89.8672 123.407 89.8814C124.854 89.0086 124.128 88.0014 123.209 87.0696C123.107 87.2882 122.379 88.0217 122.356 88.0847C117.227 80.5505 113.569 71.9495 111.959 62.9808L112.719 62.8952C114.903 72.2217 119.466 80.8625 124.727 88.8059L118.109 99.034L115.661 96.4229L115.657 96.4257Z" fill="#4E7F37"/>
<path d="M122.428 88.4139C122.396 88.3156 122.293 88.2503 122.354 88.0835C122.377 88.0204 123.106 87.287 123.208 87.0684C124.126 88.0002 124.854 89.0054 123.406 89.8802C123.319 89.8672 122.454 88.4966 122.426 88.4126L122.428 88.4139Z" fill="#3C6630"/>
<path d="M114.531 100.661C114.456 100.582 114.469 100.513 114.393 100.431C114.604 100.34 115.165 99.6866 115.22 99.6827C115.351 99.677 116.632 100.91 116.642 101.008C116.658 101.171 116.065 102.104 115.939 102.119C115.837 102.13 114.721 100.861 114.529 100.659L114.531 100.661Z" fill="#3C6630"/>
<path d="M120.548 104.329L121.3 103.25L131.24 105.302C140.896 106.922 152.479 107.18 161.896 104.217L159.34 105.354C146.617 108.794 133.132 108.026 120.549 104.327L120.548 104.329Z" fill="#4E7F37"/>
<path d="M120.549 104.329C120.549 104.329 120.549 104.416 120.383 104.367C119.671 104.157 118.961 103.927 118.248 103.72C118.38 103.529 118.284 103.426 118.339 103.352C118.477 103.165 119.085 102.416 119.294 102.401C123.156 103.822 127.202 104.625 131.241 105.302L121.301 103.25L120.549 104.329Z" fill="#3C6630"/>
<path d="M129.394 102.86C128.694 102.798 128.633 102.679 128.027 102.562C128.463 102.676 128.943 102.752 129.394 102.86Z" fill="#4E7F37"/>
<path d="M130.33 103.172C129.92 103.079 129.649 102.924 129.395 102.864C129.633 102.883 130.241 102.871 130.33 103.172Z" fill="#4E7F37"/>
<path d="M128.03 102.563C127.794 102.5 127.552 102.452 127.297 102.382C127.549 102.436 127.831 102.526 128.03 102.563Z" fill="#4E7F37"/>
<path d="M120.292 100.491L120.393 100.556L119.832 101.331C119.692 101.114 120.159 100.705 120.294 100.493L120.292 100.491Z" fill="#AEB0A0"/>
<path d="M138.329 175.63C122.858 175.829 102.986 174.695 88.5043 169.14C88.3858 169.07 88.4775 169.011 88.4846 168.972C88.5734 168.447 86.7292 166.741 86.2383 166.132C80.5894 159.098 75.1579 150.669 74.2557 141.517C73.2844 131.676 77.2663 122.847 83.012 115.023C84.4592 115.978 85.7073 117.302 87.1356 118.281C87.0691 118.441 87.1593 118.44 87.1553 118.449C82.1668 130.581 80.0009 143.912 82.0991 156.923L82.9641 159.584C82.9774 159.654 83.1107 160.848 83.3607 160.429C82.4373 149.585 83.7694 138.609 87.2897 128.293C87.6006 128.236 87.6497 127.629 87.6941 127.395C87.8502 126.959 87.9739 126.488 88.1333 126.067C88.1923 125.871 88.3109 125.6 88.3894 125.357C88.996 123.817 89.5628 122.251 90.2734 120.757C92.9674 123.069 96.0048 125.044 98.6605 127.385C95.8202 138.184 95.6084 149.708 98.4229 160.532C99.1242 160.042 98.4506 160.982 99.0522 161.182C99.3598 162.523 99.8043 163.835 100.073 165.187C100.236 165.39 100.301 165.047 100.304 164.989C100.461 162.921 98.8971 158.49 99.0936 156.117C98.6091 147.478 99.4124 138.734 101.644 130.352L101.987 130.013C108.291 134.83 114.863 139.374 120.978 144.41C120.449 152.583 120.608 160.897 123.111 168.777C121.863 160.327 121.418 151.784 122.761 143.308C125.384 145.04 127.843 147.031 130.349 148.924C129.9 149.24 129.962 149.866 129.966 150.372C130.027 157.094 132.497 165.675 135.921 171.442C136.548 172.496 138.174 174.292 138.574 175.213C138.707 175.515 138.436 175.442 138.324 175.625L138.329 175.63Z" fill="url(#paint1_linear_267_839)"/>
<path d="M138.329 175.63C138.439 175.448 138.709 175.52 138.58 175.218C138.179 174.297 136.555 172.502 135.927 171.446C132.5 165.678 130.032 157.099 129.971 150.376C129.967 149.87 129.904 149.243 130.355 148.929C137.914 154.642 145.427 160.426 153.065 166.037L123.886 141.99C123.799 141.768 126.988 140.594 127.281 140.488C134.153 137.974 141.709 136.748 148.988 136.327C149.08 136.026 145.855 136.003 145.591 136.004C145.552 135.395 143.534 135.449 142.929 135.423C136.082 135.116 128.865 136.447 122.308 138.308C122.31 138.268 121.939 137.962 121.969 137.582C122.391 131.998 124.783 125.677 126.455 120.347L128.24 116.355C129.216 116.157 130.195 115.871 131.182 115.712C132.372 115.521 139.713 115.022 140.036 114.718C140.118 114.642 140.235 114.516 140.213 114.4C140.093 114.218 137.481 114.443 137.154 114.417C136.961 114.403 136.779 114.112 136.35 114.087C133.987 113.95 131.613 114.183 129.252 114.112C131.916 109.582 134.811 105.434 138.129 101.337C143.864 108.848 148.091 118.892 151.177 127.784C156.304 142.56 159.557 158.306 160.953 173.87L162.435 173.824C161.085 174.405 153.132 174.951 151.148 175.103C146.902 175.434 142.585 175.574 138.327 175.628L138.329 175.63Z" fill="url(#paint2_linear_267_839)"/>
<path d="M129.248 114.111L129.174 114.205C120.084 114.875 111.153 117.618 103.124 121.933C102.966 121.853 102.889 121.951 102.788 121.973L94.7373 115.306C94.7157 115.25 95.4282 114.5 95.524 114.405C97.3209 112.669 102.167 109.932 104.5 108.634C112.933 103.944 122.212 100.833 131.734 99.4058C131.943 99.0471 131.077 99.192 130.987 99.1958C130.444 99.0121 129.8 99.1997 129.243 99.188C116.916 98.9099 101.138 105.585 91.6733 112.732C91.5842 112.8 91.5181 112.777 91.4309 112.846C90.7009 111.551 87.6722 110.277 86.9795 109.329C86.675 108.912 87.1761 107.028 87.3261 106.482C88.98 100.49 93.0781 96.3596 96.9257 92.9859C96.9491 92.9714 97.1329 93.0719 97.4665 92.8807C97.5198 92.851 97.9138 92.2918 97.9482 92.2711C97.9573 92.2633 98.0738 92.4302 98.1724 92.3735C98.3087 92.2957 98.183 92.1216 98.2633 92.0654C99.5877 91.2601 101.593 90.5621 103.212 89.6572C103.226 89.6505 103.554 89.4015 103.303 89.3491C109.31 86.877 115.626 86.3455 121.93 87.9312C121.948 88.3168 121.869 88.1438 122.183 88.2842C129.16 91.4187 133.509 95.2923 138.125 101.339C134.807 105.436 131.914 109.582 129.248 114.114L129.248 114.111Z" fill="url(#paint3_linear_267_839)"/>
<path d="M88.4851 168.972C88.3906 168.864 88.1755 169.011 88.1488 169.011C86.0724 169.004 78.8122 164.32 77.0977 162.867C62.2231 150.248 62.9083 122.717 81.8524 114.564C82.4941 114.706 82.4619 114.659 83.0125 115.023C77.2668 122.847 73.2849 131.676 74.2562 141.517C75.1603 150.671 80.5917 159.1 86.2388 166.132C86.7282 166.743 88.5739 168.447 88.4851 168.972Z" fill="url(#paint4_linear_267_839)"/>
<path d="M89.7412 114.404C88.6945 113.658 87.4414 112.42 86.3475 111.57C86.4391 104.068 90.8007 97.1094 96.9232 92.9844C93.0756 96.3582 88.9793 100.49 87.3236 106.481C87.1736 107.027 86.6725 108.91 86.977 109.327C87.6697 110.276 90.6984 111.55 91.4284 112.845C91.2095 113.016 89.83 113.993 89.8303 114.095C89.8317 114.222 90.6977 114.909 90.8616 114.91C90.9584 114.908 92.3214 113.763 92.328 113.633C92.3298 113.578 91.7384 112.952 91.6693 112.733C101.134 105.586 116.912 98.9103 129.239 99.1884C129.796 99.2001 130.44 99.0125 130.983 99.1962C116.677 99.8787 102.261 106.602 90.9752 115.152C90.6301 114.873 90.0586 114.631 89.7394 114.403L89.7412 114.404Z" fill="#4E7F37"/>
<path d="M87.1344 118.28C85.7062 117.301 84.458 115.976 83.0109 115.021C82.4603 114.658 82.4924 114.704 81.8508 114.562C82.7561 114.174 83.7151 113.929 84.6238 113.555C85.7363 114.449 86.9148 115.294 87.9978 116.221C87.7175 116.909 87.4147 117.592 87.1326 118.278L87.1344 118.28Z" fill="#4E7F37"/>
<path d="M88.3551 116.351C88.2876 116.289 88.1756 116.374 87.9991 116.222C86.9161 115.295 85.7376 114.45 84.6251 113.556C79.0838 109.109 73.4489 104.776 67.8971 100.338C67.8056 100.128 69.1405 98.1437 69.6194 98.3516C75.2204 102.724 80.7377 107.209 86.3475 111.57C87.4413 112.419 88.6944 113.658 89.7411 114.404L88.3536 116.353L88.3551 116.351Z" fill="#356740"/>
<path d="M130.352 148.929C127.848 147.037 125.386 145.044 122.764 143.313C121.421 151.789 121.864 160.33 123.113 168.781C120.609 160.903 120.452 152.588 120.981 144.414C121.006 144.03 121.372 142.228 121.256 142.044L102.553 127.57C102.174 127.447 101.724 130.062 101.648 130.355C99.4166 138.736 98.6118 147.482 99.0978 156.12C98.9013 158.493 100.463 162.922 100.308 164.992C100.303 165.048 100.238 165.391 100.077 165.19C99.8085 163.838 99.364 162.526 99.0564 161.185C96.6416 150.691 97.5984 140.333 99.726 129.898C99.9806 128.649 100.359 127.431 100.609 126.18C97.4985 123.54 94.2168 121.106 91.0025 118.59C90.8054 118.434 90.4468 117.926 90.2165 118.043L90.9297 118.682C89.7983 120.791 89.0709 123.283 88.3964 125.356C88.3 125.603 88.2256 125.837 88.1404 126.066C87.9607 126.657 87.8341 126.703 87.7012 127.394C87.6147 127.64 87.4322 127.893 87.2967 128.292C83.7761 138.604 82.4426 149.583 83.3678 160.429C83.1178 160.847 82.9859 159.651 82.9712 159.583C81.0035 149.909 82.467 138.414 85.0812 128.979C86.1744 125.033 87.3938 121.093 89.2086 117.399C89.2172 117.188 88.5342 116.508 88.362 116.351L89.7496 114.402C90.0669 114.628 90.6403 114.872 90.9854 115.151C102.271 106.6 116.687 99.8774 130.994 99.1949C131.083 99.191 131.949 99.0462 131.74 99.4048C122.218 100.832 112.939 103.943 104.506 108.633C102.173 109.931 97.3271 112.668 95.5303 114.404L92.6788 116.567L102.163 124.213C110.61 119.807 119.68 116.171 129.182 114.965C132.759 114.513 136.445 114.448 140.037 114.714C139.712 115.02 132.372 115.517 131.183 115.708C130.194 115.869 129.216 116.153 128.24 116.351C120.647 117.893 112.985 120.523 106.221 124.374C105.987 124.507 103.912 125.38 104.036 125.693L122.134 140.452L122.453 140.629C129.742 137.949 137.788 136.005 145.592 136.003C145.856 136.002 149.081 136.029 148.989 136.327C141.71 136.747 134.153 137.974 127.282 140.487C126.989 140.593 123.799 141.768 123.887 141.99L153.066 166.036C145.428 160.426 137.915 154.642 130.355 148.929L130.352 148.929Z" fill="#356740"/>
<path d="M101.645 130.356C101.723 130.064 102.172 127.448 102.55 127.571L121.254 142.045C121.369 142.228 121.004 144.031 120.978 144.415C114.864 139.379 108.291 134.832 101.987 130.018L101.644 130.357L101.645 130.356Z" fill="#61903A"/>
<path d="M98.661 127.388C98.9146 127.612 99.7223 128.131 99.8323 128.313C99.9941 128.582 99.4036 129.56 99.7209 129.901C97.5933 140.335 96.638 150.691 99.0513 161.187C98.4515 160.989 99.1251 160.049 98.422 160.537C95.6075 149.713 95.8193 138.189 98.6595 127.39L98.661 127.388Z" fill="#4E7F37"/>
<path d="M98.6611 127.388C96.0054 125.047 92.9681 123.072 90.2741 120.761C89.562 122.256 88.9951 123.822 88.39 125.36C89.0645 123.287 89.7933 120.794 90.9233 118.686L90.9975 118.592C94.21 121.107 97.4916 123.541 100.604 126.183C100.354 127.434 99.9756 128.651 99.721 129.901C99.4037 129.56 99.9946 128.585 99.8324 128.314C99.7224 128.131 98.9147 127.612 98.6611 127.388Z" fill="#4E7F37"/>
<path d="M121.965 137.581L106.216 124.377C112.98 120.526 120.64 117.897 128.235 116.353L126.45 120.346C124.779 125.676 122.386 131.997 121.965 137.581Z" fill="#73A14D"/>
<path d="M122.131 140.453L104.032 125.694C103.907 125.379 105.982 124.509 106.217 124.375L121.966 137.579C121.939 137.958 122.307 138.265 122.305 138.305C122.304 138.382 121.973 138.65 121.972 138.727C121.967 139.315 122.036 139.875 122.132 140.451L122.131 140.453Z" fill="#73A14D"/>
<path d="M122.13 140.453C122.036 139.875 121.967 139.315 121.97 138.728C121.971 138.651 122.302 138.384 122.303 138.307C128.862 136.447 136.08 135.114 142.925 135.422C143.528 135.45 145.545 135.395 145.586 136.002C137.782 136.004 129.736 137.948 122.447 140.628L122.129 140.451L122.13 140.453Z" fill="#89B15A"/>
<path d="M140.032 114.717C136.44 114.451 132.754 114.515 129.178 114.968L129.171 114.203L129.246 114.109C131.607 114.18 133.981 113.947 136.343 114.084C136.772 114.109 136.955 114.4 137.147 114.415C137.475 114.44 140.087 114.216 140.207 114.397C140.229 114.513 140.112 114.639 140.03 114.715L140.032 114.717Z" fill="#73A14D"/>
<path d="M95.5231 114.405C95.4254 114.498 94.7161 115.248 94.7363 115.306L102.787 121.973C102.701 121.991 101.249 122.708 101.226 122.794C101.943 124.324 103.02 123.707 104.043 122.89C103.836 122.766 103.182 121.965 103.122 121.935C111.149 117.619 120.083 114.875 129.171 114.206L129.177 114.971C119.674 116.173 110.605 119.813 102.158 124.219L92.6738 116.572L95.5253 114.41L95.5231 114.405Z" fill="#4E7F37"/>
<path d="M102.788 121.973C102.889 121.951 102.965 121.855 103.125 121.933C103.185 121.963 103.838 122.764 104.045 122.888C103.023 123.705 101.947 124.324 101.228 122.792C101.25 122.708 102.703 121.989 102.79 121.971L102.788 121.973Z" fill="#3C6630"/>
<path d="M91.4285 112.845C91.5143 112.778 91.5818 112.798 91.6709 112.731C91.74 112.95 92.3314 113.576 92.3295 113.631C92.3215 113.763 90.9618 114.908 90.8632 114.908C90.6993 114.907 89.8333 114.22 89.8318 114.093C89.8316 113.991 91.2092 113.012 91.43 112.843L91.4285 112.845Z" fill="#3C6630"/>
<path d="M87.1544 118.447L88.1493 119.308L85.075 128.98C82.4594 138.416 80.9973 149.909 82.9651 159.583L82.1 156.922C80.0019 143.911 82.1692 130.579 87.1562 118.449L87.1544 118.447Z" fill="#4E7F37"/>
<path d="M87.1543 118.447C87.1543 118.447 87.0681 118.439 87.1346 118.279C87.4167 117.593 87.7195 116.911 87.9998 116.223C88.1763 116.374 88.2883 116.289 88.3558 116.351C88.5279 116.508 89.2095 117.191 89.2023 117.4C87.3876 121.094 86.1682 125.034 85.0749 128.98L88.1492 119.308L87.1543 118.447Z" fill="#3C6630"/>
<path d="M87.6948 127.398C87.8296 126.709 87.9543 126.661 88.1341 126.07C87.9746 126.491 87.8491 126.961 87.6948 127.398Z" fill="#4E7F37"/>
<path d="M87.2877 128.297C87.4231 127.898 87.6056 127.644 87.6921 127.399C87.6477 127.633 87.5967 128.239 87.2877 128.297Z" fill="#4E7F37"/>
<path d="M88.1333 126.072C88.2203 125.844 88.2929 125.608 88.3893 125.362C88.3094 125.607 88.1908 125.878 88.1333 126.072Z" fill="#4E7F37"/>
<path d="M90.9983 118.592L90.9241 118.686L90.2109 118.048C90.4411 117.93 90.7998 118.438 90.9968 118.594L90.9983 118.592Z" fill="#AEB0A0"/>
<path d="M296.092 293.649C308.451 295.996 323.904 305.451 327.355 318.288C328.173 321.33 328.837 327.219 326.938 329.89C327.231 332.198 326.143 334.244 323.673 336.019C312.773 344.595 301.797 353.024 290.735 361.322C289.508 360.65 288.991 361.307 288.373 362.271L289.701 364.348C290.025 375.71 290.102 387.065 289.94 398.404C284.869 404.803 294.093 411.403 291.747 402.194L293.005 400.828C292.65 387.397 292.341 374.066 292.086 360.828C302.028 352.931 312.171 345.274 322.522 337.856C324.329 334.923 326.313 333.294 328.482 332.962C349.354 337.516 354.703 360.403 358.949 378.451C364.175 400.635 366.706 423.314 369.447 445.846C371.731 464.657 375.9 487.467 375.552 506.124C375.483 509.729 373.97 519.107 370.118 520.35C370.095 520.806 369.979 521.523 369.624 521.585C363.951 522.581 344.429 522.427 339.628 520.474C339.419 520.389 339.327 520.026 339.265 519.578C332.117 516.985 334.495 505.753 333.09 499.532L328.474 503.384C327.486 506.456 323.495 504.109 324.113 500.89C327.578 485.275 322.932 477.61 314.186 465.854L307.756 447.482C298.725 447.281 289.817 447.019 281.025 446.679L280.67 445.545L279.095 443.144C277.489 420.149 276.378 393.426 277.814 370.492C278.315 362.441 279.01 353.989 282.26 346.679C271.855 349.473 261.418 348.817 251.268 345.351C256.208 355.564 256.586 367.397 256.895 378.744C257.451 399.292 256.648 422.11 255.259 442.635L253.676 445.545L253.56 446.594C244.961 446.811 236.247 447.158 227.4 447.629C224.961 459.732 219.573 470.06 211.244 479.099C210.488 487.089 210.457 495.07 211.144 503.052L210.195 504.626C223.703 508.663 238.308 509.42 252.171 507.961L252.912 509.559C255.058 511.056 255.096 513.48 252.912 514.954C254.386 515.387 254.394 516.066 252.912 516.498C254.958 517.124 254.958 518.405 252.912 520.358C255.305 521.369 254.88 525.584 252.14 525.753C242.877 531.435 227.439 527.838 217.258 525.283C215.258 525.53 214.294 525.175 214.355 524.217C214.147 524.881 213.884 524.873 213.583 524.217C203.541 520.86 208.79 513.804 207.377 506.132C206.883 503.43 203.332 501.253 202.784 498.768C201.125 495.649 200.561 491.651 200.337 487.999C200.808 491.651 201.372 495.24 202.02 498.768C202.97 503.121 202.036 513.75 199.89 517.841C199.295 518.968 197.62 519.763 197.396 520.358C194.648 522.349 189.006 522.411 185.308 522.427C179.318 522.457 172.063 521.431 166.551 520.358C166.35 519.733 163.417 516.359 162.653 513.851C159.542 503.661 162.375 473.364 163.479 461.376C164.984 444.935 167.809 426.934 170.542 410.6C173.784 391.226 179.21 350.878 195.158 338.821C198.902 335.988 204.29 334.622 207.431 332.198L209.477 332.785C215.351 339.709 222.468 345.529 230.812 350.245C235.305 353.618 239.157 356.652 242.321 361.168C242.669 374.159 242.607 387.127 242.136 400.056C244.012 401.276 243.58 402.534 241.364 402.372C240.801 403.7 240.847 404.888 241.364 406.231C242.815 406.401 245.957 406.741 246.266 404.765C244.297 391.303 244.336 377.262 245.069 363.576L246.768 362.279C243.749 360.187 240.824 357.879 237.806 355.286C227.547 348.184 217.813 340.496 208.597 332.206L208.211 330.662C203.749 326.393 209.539 312.954 212.858 308.701C217.242 303.082 231.885 292.862 239.056 293.649C241.148 290.832 251.337 298.427 246.768 300.588C248.62 302.001 248.991 302.487 246.768 303.676V304.448L245.201 306.316C217.705 311.194 234.147 328.107 245.857 340.071L247.54 339.925L249.67 339.4C260.415 344.765 273.815 345.112 284.753 340.102L286.868 340.697C288.79 340.288 290.257 338.998 291.283 336.837C305.077 324.541 314.842 310.191 289.037 305.467C285.957 303.9 286.019 300.604 289.184 299.052C286.32 296.667 297.358 288.917 296.123 293.657L296.092 293.649Z" fill="#D35E34"/>
<path d="M281.442 519.601C283.85 519.856 283.425 525.537 281.442 526.541C287.578 529.088 294.124 528.679 300.623 528.015L320.817 525.692L321.542 527.305C321.882 527.907 322.175 528.486 321.542 528.849C320.407 540.775 320.222 552.917 320.994 565.283L321.542 566.641C322.692 567.9 322.692 569.243 321.542 570.501C320.932 587.545 320.963 605.885 321.195 623.353C321.21 624.249 321.828 625.453 322.314 626.024C322.669 626.225 322.638 626.487 322.314 626.796C322.329 627.823 322.299 628.849 322.314 629.884C322.793 631.165 323.109 632.578 322.314 633.743C321.866 634.338 321.642 634.808 322.314 635.287C322.322 636.059 322.306 636.831 322.314 637.603C321.774 638.382 321.735 639.131 322.314 639.919C322.329 640.945 322.299 641.972 322.314 643.006C321.735 643.747 321.967 644.511 322.314 645.322C322.314 645.839 322.314 646.348 322.314 646.866C322.09 664.025 322.09 681.501 322.314 699.301C322.345 699.811 322.291 700.328 322.314 700.845L323.086 702.389C323.155 703.408 323.024 704.45 323.086 705.476C322.028 706.202 321.696 709.915 323.086 712.416C323.094 712.933 323.078 713.443 323.086 713.96C322.461 725.237 321.897 737.379 323.086 748.665C323.765 749.043 325.255 748.873 325.981 749.614C327.895 751.567 326.891 765.739 325.981 768.904C324.854 772.794 321.133 772.771 317.69 773.335L316.193 775.118C306.467 776.291 296.571 776.137 286.837 775.087L285.301 773.335C280.731 772.694 276.386 772.818 274.502 767.939C273.892 762.821 273.769 757.634 274.502 752.516C275.251 750.996 277.497 750.44 277.976 749.452C278.833 747.7 278.431 740.05 278.346 737.487C277.675 716.692 276.602 695.31 276.038 674.631C275.259 670.633 275.459 666.364 276.038 662.296C276 660.76 276.077 659.208 276.038 657.672C274.471 650.432 274.811 642.705 275.266 635.31C275.235 633.766 275.297 632.223 275.266 630.687C273.661 623.886 273.977 616.144 274.494 609.096C274.494 608.579 274.487 608.07 274.494 607.552V606.781C274.448 600.381 274.371 594.662 274.271 589.629L273.723 588.27C272.843 586.734 272.619 584.249 273.723 582.875C273.962 574.916 273.916 567.83 273.591 561.632L272.951 560.512C272.951 559.995 272.951 559.486 272.951 558.969C273.313 558.66 273.313 558.405 272.951 558.197C272.951 557.942 272.951 557.68 272.951 557.425C272.264 557.286 272.287 557.023 272.951 556.653C273.275 554.484 273.53 552.431 273.723 550.485C273.738 548.725 284.012 549.034 284.406 549.459C284.653 549.729 284.792 550.092 284.907 550.485C284.545 549.15 285.903 548.54 286.837 548.17C286.938 548.641 286.752 548.872 286.32 549.003C283.85 549.768 254.016 549.991 252.657 548.965C252.418 548.787 252.264 548.494 252.14 548.17C254.826 549.397 258.23 549.829 262.345 549.482C261.766 552.685 260.893 558.081 262.167 558.969C262.113 559.995 262.221 561.03 262.167 562.056C262.013 563.013 261.835 563.886 261.318 563.021C260.87 569.768 260.893 576.391 261.395 582.875C261.349 584.673 261.426 586.479 261.395 588.27C261.233 589.227 261.071 590.092 260.562 589.235C260.083 596.499 260.106 603.631 260.623 610.632C260.623 611.404 260.623 612.176 260.623 612.948V613.72C260.5 633.689 260.029 653.674 259.211 673.674L258.315 675.411C257.659 680.266 257.667 685.214 258.315 690.062C258.284 691.088 258.346 692.122 258.315 693.149C258.153 694.106 257.991 694.971 257.474 694.114C257.042 701.64 257.065 709.027 257.543 716.283C257.497 717.819 257.59 719.371 257.543 720.907C257.381 721.864 257.219 722.729 256.702 721.872C256.277 729.39 256.301 736.785 256.771 744.041C256.725 745.546 256.941 747.237 256.771 748.665C256.47 749.236 256.131 749.73 255.668 749.977C249.299 753.335 252.487 750.571 256.771 749.437C257.937 749.506 259.342 750.347 259.905 751.312C261.689 754.338 260.554 769.599 258.315 772.571C255.776 773.921 252.565 774.763 249.832 774.114C248.767 776.638 240.917 777.279 239.419 774.886C238.678 777.449 229.052 777.248 227.848 774.886C226.868 777.333 218.655 776.638 217.435 774.114C217.242 774.794 216.987 774.778 216.663 774.114C214.301 773.759 208.697 771.706 208.195 769.082C207.771 766.858 207.779 754.377 208.195 752.154C208.728 749.352 211.816 749.035 212.047 748.117C212.781 745.114 211.993 736.33 212.032 732.47C212.209 731.482 212.356 730.664 212.858 731.505C213.406 707.468 213.39 683.632 212.804 659.988C212.85 656.383 212.765 652.763 212.804 649.189C212.981 648.201 213.128 647.375 213.63 648.224C214.178 627.8 214.155 607.56 213.568 587.498C213.568 586.726 213.568 585.955 213.568 585.183C214.108 584.403 214.147 583.654 213.568 582.867C213.568 582.35 213.568 581.84 213.568 581.323C214.108 580.543 214.147 579.795 213.568 579.007C213.568 577.981 213.568 576.954 213.568 575.92C213.923 575.611 213.923 575.356 213.568 575.148C213.568 574.121 213.568 573.095 213.568 572.06V558.181C213.738 556.815 214.008 556.491 214.394 557.209L214.324 533.712C213.83 523.816 214.726 524.017 222.198 526.919C230.588 528.625 244.846 530.555 252.132 525.792C253.059 523.322 252.75 522.867 252.904 520.397C252.858 516.329 260.809 517.023 262.931 518.853C263.232 518.837 263.51 518.853 263.726 518.984C264.776 519.609 264.892 542.604 263.958 543.392C263.672 543.631 263.31 543.785 262.931 543.909C266.49 545.221 269.932 545.236 273.252 543.955L274.502 545.067C273.923 545.067 273.236 545.013 272.958 544.549C272.356 543.531 273.198 523.901 273.344 520.914C273.375 520.373 273.9 520.111 274.502 520.003C273.753 520.497 272.966 520.435 272.186 520.003C272.565 520.018 272.927 520.065 273.213 520.234C274.186 520.821 273.537 541.863 273.213 543.006C273.144 543.253 272.711 543.407 272.186 543.523C272.881 545.684 265.008 545.113 264.135 543.963C264.213 535.341 264.058 526.718 263.665 518.104C264.213 517.409 279.751 517.139 280.708 517.842L281.442 519.617V519.601Z" fill="#374856"/>
<path d="M318.455 783.331C327.378 783.092 327.733 788.233 329.254 795.666L328.667 797.21C325.973 796.716 309.562 802.065 318.895 800.622L330.249 797.326C331.33 797.156 332.025 797.712 332.333 798.754C332.434 798.955 335.205 800.305 336.193 801.07L335.074 802.606C326.421 801.386 312.989 811.745 330.859 804.142C334.132 802.606 336.687 802.606 338.509 804.157C341.627 804.08 341.288 804.852 343.132 805.701L342.569 807.229C339.188 807.831 329.933 809.908 330.481 814.061C334.464 810.193 339.612 808.827 345.031 808.017L346.205 809.56C346.961 809.707 348.111 811.12 349.284 811.49C357.011 813.929 365.834 816.423 368.737 825.199C369.292 826.882 369.2 830.163 369.339 830.387C369.138 831.243 368.868 832.185 368.142 832.756C361.38 838.052 334.958 838.584 327.1 835.388L325.386 833.474C324.174 833.212 324.854 830.186 324.861 830.356C324.885 831.475 324.815 832.965 323.85 833.474C323.294 833.752 322.723 833.991 322.137 834.13C319.088 834.856 301.712 828.464 297.551 826.627L295.321 824.219C294.935 823.879 294.595 823.517 294.394 823.084C293.491 821.147 294.788 821.811 294.464 823.547C294.417 823.802 294.132 824.018 293.784 824.219C289.709 825.469 281.789 822.714 279.906 818.823C279.288 810.85 278.246 802.953 280.261 794.887C281.033 791.814 282.175 786.542 286.073 790.286C287.54 790.772 288.844 791.868 289.971 793.582C292.063 794.547 293.468 795.767 294.17 797.225C295.166 794.724 304.128 794.84 305.355 797.225C302.036 795.713 301.295 789.653 303.402 786.612C305.216 783.995 314.688 780.591 316.918 783.347C317.173 782.675 317.436 782.675 317.69 783.347C317.829 782.652 318.092 782.683 318.462 783.347L318.455 783.331Z" fill="#D35E34"/>
<path d="M213.583 784.103C213.714 783.007 214.849 782.984 215.127 784.103C215.652 783.856 216.138 783.702 216.671 784.103C216.81 783.416 217.072 783.439 217.443 784.103C217.551 783.447 217.852 782.698 218.446 782.636C226.559 781.818 236.779 786.758 231.484 796.353C237.944 797.82 245.802 796.284 247.346 788.827L249.06 787.955C249.276 787.283 249.538 787.291 249.832 787.955C250.619 787.916 251.229 788.055 251.738 788.711C255.212 793.181 254.247 812.501 254.455 818.8C252.85 822.582 245.2 825.369 241.349 824.196C239.758 824.535 240.685 816.214 240.638 816.623C241.071 820.197 240.538 822.976 239.033 824.968C232.325 830.109 221.256 833.991 212.811 833.451C211.159 832.316 210.133 832.316 209.724 833.451C205.524 837.048 196.717 837.573 190.904 837.789C186.003 837.974 170.132 836.894 166.89 834.038C165.401 832.725 165.493 831.598 165.763 829.591C167.13 821.278 170.395 817.534 178.068 813.752C181.101 812.262 187.493 811.328 188.897 808.773C189.986 806.843 192.147 806.805 195.382 808.657C212.556 817.565 203.618 808.047 193.49 806.558L192.757 804.914C193.143 804.42 193.676 804.157 194.301 804.142C194.61 803.254 195.49 802.876 196.385 802.868L211.028 807.191C211.213 806.087 210.449 805.284 208.735 804.798L198.786 802.135L198.16 800.282C199.38 799.626 200.592 798.893 202.02 798.738C203.525 796.947 205.795 796.677 208.82 797.935C211.661 800.591 227.678 801.911 217.427 798.63C213.761 797.457 209.862 796.801 206.026 796.353L205.108 794.879C206.713 789.19 207.076 785.16 213.591 784.08L213.583 784.103Z" fill="#D35E34"/>
<path d="M195.845 535.024C202.892 546.456 203.078 560.158 205.092 573.126C202.514 580.05 196.092 580.104 193.529 572.809L192.07 569.536C190.526 557.904 185.957 564.326 189.677 570.493C189.847 571.752 189.546 573.064 189.863 574.53C190.889 579.401 202.221 596.206 190.063 596.005C185.555 595.928 185.625 593.55 182.738 592.084C180.538 588.826 179.511 588.309 179.65 590.54C177.064 589.197 176.424 590.663 173.622 586.927C164.59 574.862 164.953 549.405 170.395 535.788L171.924 534.476C179.805 534.283 187.547 534.113 195.158 533.982L195.845 535.024Z" fill="#B75D3B"/>
<path d="M367.039 535.024C369.061 547.792 371.91 584.704 357.012 590.547C355.43 590.216 354.148 590.47 353.152 591.319C350.659 591.921 349.756 595.341 346.553 595.92C334.202 598.143 342.956 582.165 344.669 577.44C345.356 574.669 347.641 562.867 345.727 561.485C345.456 561.292 345.078 561.246 344.669 561.246C342.662 565.044 342.909 572.276 339.613 575.858C337.815 577.819 333.623 579.17 331.539 577.07C328.845 574.353 332.867 561.586 333.662 557.564C335.26 549.451 335.599 542.118 340.817 535.032L343.666 533.565C348.668 533.203 359.212 533.226 364.129 533.72C365.217 533.828 366.167 534.407 367.031 535.032L367.039 535.024Z" fill="#B75D3B"/>
<path d="M165.772 829.607C164.923 832.355 168.69 833.088 170.573 833.682C184.637 838.121 196.131 836.261 209.732 833.466C209.956 831.019 211.785 831.567 212.82 833.466C221.766 831.282 230.442 828.102 239.041 824.983C239.767 822.999 240.539 822.737 241.357 824.211C245.757 822.497 250.311 821.108 254.464 818.815C254.464 818.916 255.213 819.688 255.267 820.683C255.591 827.33 254.966 828.225 249.339 831.042C241.288 835.08 227.856 839.194 219.003 841.579C205.309 845.269 182.19 850.224 169.361 842.613C163.649 839.217 164.907 834.917 165.78 829.614L165.772 829.607Z" fill="#F1DFC1"/>
<path d="M293.785 824.203C294.093 822.181 294.703 822.258 295.328 824.203C304.414 827.306 314.07 831.289 323.858 833.459C324.283 831.984 324.97 831.969 325.402 833.459C339.698 836.384 356.07 837.835 369.354 830.371C369.393 830.44 370.682 830.062 370.906 830.873C375.105 846.411 345.039 846.681 335.892 845.709C325.224 844.582 292.411 834.979 283.225 829.746C278.208 826.89 280.269 823.493 279.906 818.8C284.298 821.147 289.107 822.575 293.785 824.196V824.203Z" fill="#F1DFC1"/>
<path d="M328.482 505.723C328.798 513.642 330.226 518.282 323.858 523.461C323.032 523.97 322.26 524.225 321.542 524.233C321.179 524.712 320.801 525.151 320.323 525.453C317.814 527.035 292.588 528.895 288.319 528.378C285.957 528.092 283.68 527.313 281.442 526.541C281.063 525.298 281.48 521.377 281.442 519.601C280.106 518.436 278.817 517.409 277.582 516.514L277.343 515.696C280.014 515.796 281.38 515.047 281.442 513.434C279.373 512.214 279.365 510.794 281.442 509.574L283.171 508.586C297.173 508.733 311.052 507.544 324.807 505.028L328.482 505.715V505.723Z" fill="#D35E34"/>
<path d="M317.69 773.312V774.084C318.238 776.145 318.369 778.221 317.69 780.251C317.721 781.54 317.466 782.567 316.918 783.339C314.749 783.524 309.214 784.643 307.246 785.616C301.295 788.549 304.398 792.285 305.355 797.218H294.17C291.399 797.218 286.505 793.551 286.073 790.278C285.37 784.983 285.44 778.7 285.301 773.312C294.463 774.601 308.597 774.817 317.69 773.312Z" fill="#38292B"/>
<path d="M202.012 498.775C201.433 496.135 199.28 493.565 198.902 489.165C195.791 452.808 205.826 413.14 201.156 375.865C200.739 372.53 197.906 363.344 198.145 361.121C198.269 359.963 198.832 359.207 200.083 359.184C201.055 359.168 203.834 371.264 204.104 372.908C209.037 402.935 202.916 441.245 201.982 472.129C201.781 478.783 201.472 492.754 202.784 498.768H202.012V498.775Z" fill="#A23A1E"/>
<path d="M280.67 445.568C285.425 446.888 306.56 444.001 308.837 446.317C309.763 447.259 313.599 461.137 315.244 464.588C319.134 472.747 325.857 476.9 326.197 486.016C326.344 489.875 326.073 493.75 326.097 497.54C326.104 499.169 324.267 501.608 326.182 503.044C326.853 503.546 328.351 503.291 328.474 503.407C328.574 503.5 328.451 505.144 328.474 505.723C312.928 509.791 297.428 509.96 281.434 509.582C279.126 509.528 279.304 506.139 281.434 505.723L282.77 504.704C287.463 505.815 319.775 504.387 321.064 502.967C321.805 502.149 322.075 483.932 321.249 481.423C313.19 472.67 308.536 462.349 305.803 450.609L281.774 450.215L280.67 448.656C279.165 447.683 279.172 446.548 280.67 445.568Z" fill="#A23A1E"/>
<path d="M197.388 521.917C197.041 525.152 197.504 528.996 197.388 532.361C197.342 533.843 198.176 535.457 195.844 535.024C188.434 534.831 177.473 537.209 170.395 535.796C164.706 534.662 166.96 526.101 166.535 521.917L167.932 521.091C177.674 522.612 187.207 522.674 196.516 521.254L197.38 521.917H197.388Z" fill="#D35E34"/>
<path d="M370.125 522.681C370.125 525.313 370.65 531.828 370.017 533.758C369.515 535.287 368.234 534.908 367.038 535.024C358.099 535.904 349.755 535.225 340.816 535.024C337.273 532.075 339.28 525.669 339.272 521.145C348.728 522.226 358.439 522.141 368.126 521.701C368.998 521.662 369.639 521.786 370.118 522.681H370.125Z" fill="#D35E34"/>
<path d="M328.481 332.978C328.435 333.433 324.305 338.319 323.448 339.122C314.803 347.219 302.082 353.07 293.39 361.5L293.012 400.836L291.237 399.416C290.565 393.819 290.172 388.2 290.048 382.55L291.468 380.782C292.063 379.57 292.101 378.142 291.468 376.922C289.353 375.973 289.361 374.784 291.468 373.835C291.955 372.793 291.97 371.797 291.468 370.747C289.261 370.701 289.361 368.956 291.468 368.431C291.947 367.474 291.947 366.448 291.468 365.344C290.411 364.634 289.377 363.607 288.381 362.256C288.435 361.832 288.18 361.314 288.543 360.898C291.453 359.138 293.854 356.675 296.509 354.576C305.911 347.134 320.029 339.585 326.937 329.867C326.737 330.917 328.528 332.522 328.481 332.955V332.978Z" fill="#A23A1E"/>
<path d="M208.181 330.67C208.312 330.801 209.455 330.732 210.111 331.395C221.11 342.488 232.697 348.617 244.059 358.435C244.723 359.014 244.885 360.149 245.441 360.543C246.066 360.99 247.34 360.612 247.51 360.743C248.058 361.191 246.745 362.194 246.738 362.279C246.128 363.669 245.479 363.615 244.337 362.982C244.947 375.417 244.777 387.729 243.835 399.933L242.106 400.072L241.705 361.531C238.1 358.204 234.325 354.977 230.458 351.951C222.6 345.807 212.033 341.291 207.401 332.206C207.687 331.982 207.888 331.056 208.173 330.662L208.181 330.67Z" fill="#A23A1E"/>
<path d="M256.763 748.634C256.732 748.889 256.809 749.159 256.763 749.406C255.968 753.458 245.501 753.844 241.757 754.068C238.013 754.292 213.737 754.223 212.795 751.336C212.672 750.957 212.517 749.352 213.243 749.398C227.654 751.065 242.568 752.439 256.763 748.642V748.634Z" fill="#38292B"/>
<path d="M262.167 558.93C259.596 559.27 260.893 558.004 260.994 556.614C261.078 555.425 261.904 550.964 261.395 550.447C260.569 549.613 251.762 552.346 252.14 548.139H286.845C287.501 549.266 285.741 550.454 284.915 550.454H273.73C273.413 550.454 274.494 556.082 272.958 556.622C271.53 555.564 272.07 552.531 272.958 551.226L272.186 550.454L271.654 551.249C269.168 550.184 264.544 550.632 262.159 551.998C262.051 554.298 262.275 556.637 262.159 558.938L262.167 558.93Z" fill="#38292B"/>
<path d="M321.542 524.225C322.183 524.449 322.175 524.704 321.542 524.997V527.313C319.049 525.8 294.857 531.118 287.424 529.428C286.822 529.289 281.534 526.865 281.441 526.549C294.834 528.455 308.304 526.201 321.542 524.233V524.225Z" fill="#38292B"/>
<path d="M205.101 794.902C207.301 794.323 221.133 797.596 221.99 798.823C223.009 800.29 221.851 802.737 219.45 802.598C214.363 802.312 208.366 798.09 202.013 798.754C201.727 797.542 204.336 795.095 205.101 794.894V794.902Z" fill="#F1DFC1"/>
<path d="M370.126 520.373V522.689C360.191 523.638 348.667 524.789 339.28 521.145C339.28 520.628 339.28 520.119 339.28 519.601C345.209 521.755 352.858 519.107 359.026 521.068C361.735 519.663 368.234 520.983 370.126 520.373Z" fill="#A23A1E"/>
<path d="M192.756 804.929C195.118 804.944 206.025 808.927 206.589 810.811C207.114 812.563 205.222 814.346 203.354 814.076C200.035 813.59 193.69 808.163 188.904 808.788C189.823 807.113 188.41 804.906 192.764 804.929H192.756Z" fill="#F1DFC1"/>
<path d="M197.389 520.374C197.265 520.698 197.443 521.423 197.389 521.917C195.745 523.029 194.386 523.338 192.41 523.5C184.027 524.171 174.811 523.199 166.536 521.917C166.49 521.416 166.652 520.744 166.536 520.374C172.086 518.83 178.886 521.2 184.66 521.192C188.829 521.192 193.051 519.748 197.381 520.374H197.389Z" fill="#A23A1E"/>
<path d="M212.811 659.949C214.085 660.752 213.583 662.875 213.598 664.18C213.822 685.608 214.432 708.464 213.583 729.776C213.521 731.266 214.378 732.871 212.039 732.439C212.302 708.325 212.518 684.102 212.811 659.949Z" fill="#38292B"/>
<path d="M343.132 805.701C345.424 806.758 346.868 805.469 346.22 809.56C344.436 809.213 337.235 811.336 335.421 812.254C333.089 813.428 330.527 817.712 328.844 814.176C326.814 809.9 339.743 805.377 343.14 805.709L343.132 805.701Z" fill="#F1DFC1"/>
<path d="M198.16 800.297C201.256 801.617 210.827 802.443 212.425 805.693C212.765 806.388 213.081 808.487 212.803 808.773C211.707 809.915 197.551 804.064 194.301 804.149C194.447 802.204 196.562 801.146 198.16 800.29V800.297Z" fill="#F1DFC1"/>
<path d="M336.193 801.069C337.328 801.949 338.532 802.297 338.509 804.157C336.587 804.203 333.646 804.944 331.739 805.485C329.393 806.148 322.322 810.162 320.886 807.908C318.47 804.126 328.59 801.509 331.284 801.154C332.92 800.938 334.564 801.085 336.201 801.069H336.193Z" fill="#F1DFC1"/>
<path d="M329.254 795.674C333.415 795.882 331.763 797.627 332.342 798.761C328.289 798.298 317.421 804.072 314.58 802.25C313.669 801.664 313.692 801.216 314.194 800.282C315.468 797.905 326.483 795.535 329.254 795.674Z" fill="#F1DFC1"/>
<path d="M353.16 591.319C354.503 585.599 356.888 580.119 358.201 574.384C358.695 572.238 359.521 562.589 360.115 562.018C362.207 560.011 361.713 566.912 361.636 567.784C360.964 574.947 357.815 581.485 355.816 588.239C355.26 590.115 355.653 589.582 357.02 590.547C355.298 591.219 354.48 591.003 353.16 591.319Z" fill="#A23A1E"/>
<path d="M179.65 590.547C177.998 581.856 173.876 572.145 175.019 563.16C175.196 561.763 174.756 561.902 176.562 562.018C176.717 572.377 179.611 582.35 182.738 592.091C181.765 591.597 180.607 591.041 179.65 590.547Z" fill="#A23A1E"/>
<path d="M322.314 699.278C321.395 683.416 321.334 667.151 321.526 651.073C321.542 649.768 321.032 647.645 322.314 646.843C322.468 662.945 323.41 678.977 323.109 695.071C323.078 696.538 323.479 698.105 322.314 699.286V699.278Z" fill="#38292B"/>
<path d="M321.542 528.857C322.461 529.189 321.959 530.972 321.542 531.944V536.568C322.145 545.044 322.145 553.535 321.542 562.018C321.542 563.299 321.542 564.588 321.542 565.877C321.542 566.132 321.542 566.394 321.542 566.649C319.204 567.081 320.06 565.468 319.999 563.986C319.574 553.21 319.875 541.562 320.284 530.81C320.338 529.436 319.111 528.556 321.542 528.864V528.857Z" fill="#38292B"/>
<path d="M213.583 587.46C214.857 588.263 214.355 590.385 214.371 591.69C214.556 609.598 215.065 628.68 214.355 646.488C214.294 647.977 215.15 649.583 212.812 649.151C213.035 628.649 213.46 608.054 213.583 587.46Z" fill="#38292B"/>
<path d="M272.959 560.474C274.286 559.795 274.356 560.428 274.51 561.609C275.112 566.31 274.572 573.581 274.51 578.606C274.495 579.911 275.004 582.033 273.723 582.836C272.673 582.728 272.835 581.455 272.951 580.521C272.951 579.494 272.951 578.467 272.951 577.433C272.295 571.813 272.287 566.094 272.951 560.466L272.959 560.474Z" fill="#38292B"/>
<path d="M189.678 570.493C187.238 570.933 188.373 569.281 188.118 567.846C187.563 564.689 186.706 561.346 187.74 558.158L191.337 563.839C192.186 566.711 192.549 570.007 193.53 572.801C191.299 570.316 190.288 566.842 190.442 563.546C187.617 562.797 189.446 568.749 189.678 570.486V570.493Z" fill="#A23A1E"/>
<path d="M344.677 577.441C345.117 572.084 346.383 566.572 344.677 561.246C345.178 560.304 346.661 559.092 347.378 558.166C347.764 565.013 347.023 570.964 344.677 577.441Z" fill="#A23A1E"/>
<path d="M273.73 588.232C276.061 587.799 275.22 589.413 275.274 590.895C275.451 596.321 274.625 601.74 274.502 606.742C274.27 607.12 274.008 607.113 273.73 606.742C273.63 606.31 273.776 605.7 273.73 605.198V604.426C273.73 603.654 273.715 602.882 273.73 602.111C273.352 597.425 273.352 592.801 273.73 588.232Z" fill="#38292B"/>
<path d="M323.085 748.634C322.097 748.078 322.383 747.7 322.275 746.773C321.333 738.9 322.198 726.534 322.306 718.159C322.321 716.854 321.812 714.732 323.093 713.929C323.317 725.477 322.923 737.078 323.093 748.634H323.085Z" fill="#38292B"/>
<path d="M258.308 772.54C255.822 775.836 250.998 774.462 250.589 774.848C249.554 775.836 251.546 784.458 251.407 785.932C251.353 786.488 249.23 786.388 249.825 787.962H249.053C247.092 784.759 247.347 776.947 249.825 774.084C252.688 773.837 255.444 772.802 258.308 772.54Z" fill="#F1DFC1"/>
<path d="M261.396 588.232C261.257 595.681 260.616 603.068 260.624 610.594C259.35 609.791 259.852 607.668 259.836 606.364C259.782 601.246 259.651 596.005 259.852 590.895C259.914 589.413 259.057 587.799 261.396 588.232Z" fill="#38292B"/>
<path d="M257.536 720.868C257.312 728.51 257.011 736.299 256.764 744.002C255.491 743.2 255.992 741.077 255.977 739.772C255.923 734.4 255.776 728.896 255.992 723.531C256.054 722.049 255.197 720.436 257.536 720.868Z" fill="#38292B"/>
<path d="M258.309 693.111C258.062 700.706 257.761 708.541 257.537 716.245C256.263 715.442 256.765 713.319 256.749 712.015C256.695 706.642 256.549 701.138 256.765 695.774C256.827 694.292 255.97 692.678 258.309 693.111Z" fill="#38292B"/>
<path d="M262.167 562.01C261.827 568.957 261.588 575.827 261.395 582.828C260.122 582.026 260.623 579.903 260.608 578.598C260.561 573.99 260.438 569.274 260.623 564.673C260.685 563.191 259.828 561.578 262.167 562.01Z" fill="#38292B"/>
<path d="M217.435 784.103C217.18 784.087 216.918 784.103 216.663 784.103C216.154 783.748 215.675 783.887 215.119 784.103C214.618 784.134 214.046 784.026 213.575 784.103C212.881 781.625 215.706 783.138 215.937 782.135C216.393 780.212 215.968 776.376 216.655 774.084C216.902 774.122 217.173 774.06 217.427 774.084C219.897 774.817 219.797 783.153 217.427 784.111L217.435 784.103Z" fill="#F1DFC1"/>
<path d="M258.308 682.311C258.23 684.874 258.385 687.46 258.308 690.023C257.019 685.885 257.011 679.571 258.308 675.372C258.238 677.68 258.377 680.003 258.308 682.311Z" fill="#38292B"/>
<path d="M323.086 705.446C323.233 707.73 323.032 710.092 323.086 712.385C322.646 712.316 321.635 712.501 321.543 712.385C321.342 712.13 321.45 706.218 321.512 705.901C321.689 705.044 322.407 705.523 323.079 705.438L323.086 705.446Z" fill="#38292B"/>
<path d="M318.454 783.331C318.199 783.331 317.937 783.316 317.682 783.331C317.312 782.675 317.312 781.641 317.682 780.243V774.076C319.373 776.423 318.068 780.406 318.454 783.331Z" fill="#F1DFC1"/>
<path d="M322.313 642.983C322.321 643.755 322.305 644.527 322.313 645.299C319.858 645.893 320.013 642.311 322.313 642.983Z" fill="#38292B"/>
<path d="M321.542 531.937V527.313C322.8 528.077 322.8 531.095 321.542 531.937Z" fill="#F1DFC1"/>
<path d="M323.858 523.453C323.124 524.055 322.553 524.773 321.542 524.997V524.225C321.882 524.171 322.924 523.067 323.858 523.453Z" fill="#F1DFC1"/>
<path d="M323.086 702.366C321.349 702.659 320.878 701.995 322.314 700.822C322.314 700.907 322.985 700.992 323.086 702.366Z" fill="#38292B"/>
<path d="M213.583 581.292C213.583 580.52 213.583 579.749 213.583 578.977C214.741 579.085 214.741 581.184 213.583 581.292Z" fill="#38292B"/>
<path d="M213.583 585.152C213.583 584.38 213.583 583.608 213.583 582.836C214.741 582.944 214.741 585.044 213.583 585.152Z" fill="#38292B"/>
<path d="M322.314 639.903C321.156 639.795 321.156 637.695 322.314 637.587C322.321 638.359 322.306 639.131 322.314 639.903Z" fill="#38292B"/>
<path d="M260.624 613.682C260.624 613.643 259.62 612.879 260.624 612.91C260.624 613.164 260.624 613.427 260.624 613.682Z" fill="#38292B"/>
<path d="M213.583 575.897C213.583 575.642 213.583 575.379 213.583 575.125L214.339 575.511L213.583 575.897Z" fill="#38292B"/>
<path d="M272.959 558.93C272.959 558.675 272.959 558.413 272.959 558.158L273.715 558.544L272.959 558.93Z" fill="#38292B"/>
<path d="M253.684 445.568C253.908 419.539 257.605 382.264 253.607 357.347C252.703 351.696 250.341 347.397 248.296 342.233C260.206 347.706 273.005 348.678 285.301 343.777C283.966 346.88 282.46 349.465 281.681 352.87C276.216 376.76 280.461 419.778 280.677 445.568C280.685 446.594 280.67 447.621 280.677 448.655C283.248 466.108 283.024 484.387 280.677 501.863C280.693 502.643 280.43 502.998 279.774 503.005C271.461 503.044 263.132 503.052 254.819 503.013C254.124 503.013 253.784 502.666 253.692 501.863C251.353 484.642 251.121 466.618 253.692 449.427C252.186 448.185 252.179 446.811 253.692 445.568H253.684Z" fill="#BDB4AA"/>
<path d="M246.745 303.676L249.176 303.946C259.458 314.213 274.958 315.17 285.912 305.382C289.045 303.622 289.277 304.548 289.895 307.682C290.443 310.446 290.396 315.579 288.382 317.563C290.504 318.829 290.149 322.549 289.64 324.819C285.811 342.001 256.471 342.719 247.679 329.018C246.073 326.517 243.58 319.662 246.737 318.327C244.159 315.108 244.445 307.875 246.737 304.448C246.73 304.193 246.745 303.931 246.737 303.676H246.745Z" fill="#B75D3B"/>
<path d="M289.153 299.052C288.836 299.963 287.995 303.174 288.404 303.653C288.667 303.954 294.695 305.081 296.077 305.629C320.029 315.178 298.223 331.48 287.995 342.241L286.837 340.697L286.459 339.053C288.921 335.131 295.807 321.306 289.06 319.608L288.381 317.563C288.535 313.472 288.273 309.319 288.381 305.228C275.66 317.478 258.578 316.312 246.744 303.684C246.706 302.68 246.868 301.561 246.744 300.596C257.482 305.691 267.208 307.96 278.763 303.699C282.515 302.318 285.278 299.608 289.161 299.06L289.153 299.052Z" fill="#A23A1E"/>
<path d="M286.837 340.689C276.339 346.972 257.744 346.494 247.508 339.917C247.207 340.21 246.898 340.442 246.567 340.496C243.487 340.975 237.612 321.607 242.228 318.026C243.749 316.845 246.219 316.111 246.736 318.319C246.914 321.746 246.682 323.205 248.133 326.555C253.514 338.937 277.072 340.504 285.27 330.245C289.083 325.475 288.165 323.12 288.373 317.539C290.025 318.504 293.545 319.369 293.583 321.592C293.653 325.768 290.457 338.497 286.837 340.674V340.689Z" fill="#BDB4AA"/>
<path d="M336.965 359.199C337.682 359.894 334.209 376.12 333.9 378.883C331.314 402.048 335.452 429.343 336.224 452.863C336.532 462.179 337.883 490.763 334.062 497.795C331.692 502.149 332.256 491.797 332.341 489.922C333.939 454.345 327.841 418.15 329.987 383.46C330.218 379.74 332.928 361.994 334.572 359.655C335.043 358.983 336.756 359.006 336.949 359.199H336.965Z" fill="#A23A1E"/>
<path d="M246.745 304.448C246.914 309.049 246.505 313.734 246.745 318.327C242.244 318.512 241.913 320.095 242.082 324.132C242.252 328.169 244.244 337.818 247.517 339.917L246.745 342.619C232.032 328.724 214.24 310.137 246.745 304.44V304.448Z" fill="#A23A1E"/>
<path d="M253.684 445.568C253.676 446.849 253.699 448.138 253.684 449.427L251.484 450.593C243.896 450.354 236.44 450.045 229.114 449.659C228.829 461.029 221.673 472.006 213.931 480.041C213.421 481.022 212.503 501.647 213.498 502.126C216.64 503.631 224.544 504.418 228.443 504.796C235.467 505.483 242.514 505.63 249.562 505.182L252.92 506.495C255.035 507.112 255.089 508.988 252.92 509.582C249.508 508.826 245.502 510.362 242.507 510.354C234.34 510.339 219.874 509.196 212.032 506.896C204.66 504.735 209.554 504.241 209.793 502.311C210.588 495.912 208.311 484.233 210.079 478.698C210.727 476.668 214.865 473.071 216.239 470.979C218.755 467.158 221.426 462.033 223.07 457.756C223.927 455.51 225.733 447.096 226.304 446.332C227.663 444.526 249.786 446.139 253.699 445.583L253.684 445.568Z" fill="#A23A1E"/>
<path d="M252.911 506.495C249.584 505.013 251.344 503.646 254.262 503.013C257.026 502.411 277.303 502.519 280.468 503.006C283.023 503.399 284.227 504.418 281.441 505.723V509.582C281.441 510.864 281.487 512.16 281.441 513.442L281.047 515.148C272.147 515.704 263.178 515.897 254.139 515.719L252.904 514.978C252.934 513.179 252.85 511.373 252.904 509.582C252.934 508.563 252.803 507.506 252.904 506.495H252.911Z" fill="#BDB4AA"/>
<path d="M256.764 516.514C258.733 515.842 260.963 515.842 262.932 516.514C262.862 515.256 265.572 515.395 266.019 516.514C266.22 516.159 266.475 516.19 266.791 516.514C267.779 515.48 268.868 515.51 269.879 516.514C270.08 516.159 270.342 516.19 270.651 516.514C271.122 515.564 271.716 515.564 272.195 516.514C272.882 516.112 273.391 516.112 273.739 516.514C274.634 515.526 276.772 515.433 277.598 516.514C278.879 516.583 280.176 516.46 281.458 516.514C281.481 517.54 281.434 518.575 281.458 519.601C275.761 517.147 270.373 518.984 264.491 518.837C266.266 522.265 264.391 542.643 265.255 543.515C265.502 543.762 272.202 543.855 272.202 543.515V519.995C272.202 518.853 274.518 518.853 274.518 519.995V545.059C274.518 545.692 262.947 547.352 262.947 543.901V518.837C259.767 519.432 254.572 517.293 252.92 520.381C252.997 519.138 252.882 517.803 252.92 516.522C253.09 515.271 256.402 515.279 256.78 516.522L256.764 516.514Z" fill="#38292B"/>
<path d="M246.745 362.287C245.61 371.311 246.366 387.814 246.714 397.401C246.853 401.152 250.11 406.548 244.784 407.76C241.264 408.563 241.974 407.745 241.349 406.239C240.824 404.989 240.747 403.638 241.349 402.38C241.596 401.592 241.905 400.89 242.121 400.064C242.321 399.323 242.816 399.007 242.947 397.455C243.966 385.784 242.067 372.577 242.893 360.735L246.745 362.272V362.287Z" fill="#F1DFC1"/>
<path d="M291.469 365.367C291.801 366.409 292.117 367.451 291.469 368.455V370.77C291.986 371.797 291.986 372.847 291.469 373.858C291.484 374.885 291.43 375.919 291.469 376.946C292.117 378.142 292.094 379.609 291.469 380.805C291.669 386.903 292.048 395.062 293.012 400.852C293.275 402.403 294.965 406.124 293.066 407.451C290.542 409.219 287.239 407.405 286.868 404.24C286.521 401.261 288.095 400.581 288.435 398.189C289.94 387.498 286.945 373.109 288.396 362.287C291.901 360.211 291.067 363.337 291.484 365.375L291.469 365.367Z" fill="#F1DFC1"/>
<path d="M252.14 525.769C250.48 530.2 244.621 529.737 240.144 529.659C235.289 529.575 226.373 529.042 221.904 527.853C219.943 527.328 218.106 524.766 215.119 525.761C214.826 535.642 215.513 545.607 215.119 555.487C215.057 556.97 215.914 558.583 213.575 558.15C213.591 555.001 213.521 551.782 213.537 548.548C213.575 540.412 213.22 532.261 214.347 524.218C220.792 526.093 231.074 527.151 237.836 527.336C242.576 527.467 247.879 527.9 252.132 525.761L252.14 525.769Z" fill="#38292B"/>
<path d="M281.441 513.434C281.418 514.036 281.565 515.649 281.441 515.742C281.14 515.981 278.925 515.495 278.114 515.896L277.582 516.514C276.308 516.444 275.003 516.537 273.722 516.514C273.205 516.166 272.734 516.313 272.178 516.514C271.661 516.514 271.152 516.514 270.634 516.514C270.326 516.159 270.071 516.159 269.863 516.514C268.836 516.506 267.809 516.514 266.775 516.514C266.466 516.159 266.211 516.159 266.003 516.514H262.915C260.924 515.85 258.739 515.858 256.748 516.514H252.888C252.904 516.004 252.881 515.487 252.888 514.97C261.271 514.414 270.519 515.703 278.794 515.024C280.345 514.9 280.685 514.916 281.418 513.426L281.441 513.434Z" fill="#F1DFC1"/>
<path d="M241.341 406.239C241.11 405.684 240.5 405.437 240.485 404.302C240.469 403.036 241.226 402.75 241.341 402.388V406.247V406.239Z" fill="#A23A1E"/>
<path d="M249.825 774.084C249.678 778.476 249.632 783.655 249.053 787.963C247.864 796.839 239.952 799.495 231.708 797.982C227.015 797.125 233.676 790.88 230.342 787.384C228.443 785.392 220.361 784.288 217.436 784.103V774.076C220.052 774.338 225.625 774.848 227.849 774.848H239.419C241.735 774.848 247.061 774.315 249.832 774.076L249.825 774.084Z" fill="#38292B"/>
<path d="M323.078 749.406C323.255 751.559 321.403 752.123 319.743 752.617C316.053 753.729 305.116 754.763 301.063 754.825C297.01 754.886 289.006 754.377 284.992 753.945C282.946 753.721 277.35 752.856 279.535 750.162C293.977 751.752 308.682 751.166 323.078 749.406Z" fill="#38292B"/>
<path d="M322.314 622.937C321.951 623.245 321.951 623.5 322.314 623.709C322.321 624.48 322.306 625.252 322.314 626.024C319.975 626.456 320.832 624.843 320.77 623.361C320.145 607.56 320.592 590.625 320.754 574.731C320.77 573.427 320.26 571.304 321.542 570.501C321.681 587.992 322.121 605.461 322.314 622.937Z" fill="#38292B"/>
<path d="M322.313 633.728C322.313 634.245 322.313 634.754 322.313 635.272C320.391 636.159 319.743 633.141 322.313 633.728Z" fill="#38292B"/>
<path d="M323.858 833.459C323.333 827.994 325.973 823.038 327.71 818.044C322.144 815.944 315.807 811.706 311.508 807.631C309.161 805.408 305.657 802.088 305.355 798.754C313.005 806.318 321.264 814.346 331.562 818.044C331.87 819.842 329.779 820.506 328.914 821.942C326.714 825.562 325.911 829.29 325.394 833.459C324.923 833.366 324.313 833.559 323.85 833.459H323.858Z" fill="#A23A1E"/>
<path d="M293.785 824.204C292.866 819.765 292.295 812.563 290.496 808.596C288.574 804.342 281.272 802.992 281.836 797.21L291.762 807.299C293.708 812.679 294.842 818.499 295.329 824.204C294.919 824.065 294.186 824.342 293.785 824.204Z" fill="#A23A1E"/>
<path d="M342.36 813.42C341.634 814.809 332.765 818.391 332.341 818.036C330.897 816.847 333.429 816.376 333.861 816.122C336.393 814.632 339.334 813.335 342.36 813.42Z" fill="#A23A1E"/>
<path d="M317.691 783.331C317.436 783.346 317.174 783.308 316.919 783.331L317.691 780.243V783.331Z" fill="#374856"/>
<path d="M343.519 812.64C344.02 812.895 344.02 813.157 343.519 813.412V812.64Z" fill="#A23A1E"/>
<path d="M209.724 833.459C208.095 828.935 208.404 823.995 204.737 820.321C202.036 817.619 194.865 814.748 191.221 812.98C190.102 812.44 189.292 813.142 189.678 811.097C192.649 810.518 201.897 817.187 203.032 817.117C205.903 816.94 214.595 811.753 217.374 809.877C221.689 806.951 224.097 804.396 227.841 801.069C228.968 801.618 227.694 802.961 227.347 803.663C223.927 810.518 213.012 813.528 207.455 818.545L212.812 833.474C211.955 833.683 210.635 833.289 209.724 833.474V833.459Z" fill="#A23A1E"/>
<path d="M239.025 824.975C240.793 817.951 238.516 810.417 242.869 803.964C243.163 803.524 247.57 798.9 247.902 798.769C252.101 797.025 244.313 805.346 244.074 805.739C240.878 810.872 241.349 818.383 241.341 824.211C240.608 824.497 239.79 824.705 239.025 824.983V824.975Z" fill="#A23A1E"/>
<path d="M216.664 784.103C216.154 784.095 215.63 784.072 215.12 784.103L216.27 783.339L216.664 784.103Z" fill="#BDB4AA"/>
<path d="M228.621 799.526C229.123 799.78 229.123 800.043 228.621 800.298V799.526Z" fill="#A23A1E"/>
<path d="M253.684 449.428C253.522 466.888 253.808 484.403 253.684 501.863H280.678C280.562 484.14 280.832 466.379 280.678 448.656L306.93 449.011C309.478 457.641 311.477 465.692 316.61 473.256C318.439 475.95 322.785 479.532 323.133 482.156C324.013 488.779 322.407 497.317 323.086 504.163C317.312 505.468 283.92 508.316 281.45 505.715C281.319 505.576 281.859 504.318 280.971 504.14L253.376 504.163C252.496 504.287 252.99 505.777 252.92 506.495C239.35 507.583 225.332 506.981 212.148 503.307C211.5 502.303 211.87 480.79 212.449 479.516C212.881 478.567 217.243 474.314 218.524 472.477C223.487 465.344 227.231 457.44 228.281 448.694C236.625 449.072 245.556 447.714 253.692 449.428H253.684Z" fill="#D35E34"/>
<path d="M291.47 380.789C291.423 379.508 291.524 378.219 291.47 376.93C292.689 377.439 292.689 380.28 291.47 380.789Z" fill="#BDB4AA"/>
<path d="M291.47 368.455V365.367C291.624 366.116 293.207 367.081 291.47 368.455Z" fill="#BDB4AA"/>
<path d="M291.469 373.85C291.453 372.823 291.469 371.797 291.469 370.762C292.526 371.704 292.542 372.87 291.469 373.85Z" fill="#BDB4AA"/>
<path d="M272.958 551.219L272.187 550.447C272.765 550.555 272.85 550.632 272.958 551.219Z" fill="#BDB4AA"/>
<path d="M322.314 623.708L321.558 623.322L322.314 622.937C322.314 623.191 322.314 623.454 322.314 623.708Z" fill="#374856"/>
<path d="M262.931 516.514H256.764C257.976 515.217 261.75 515.225 262.931 516.514Z" fill="#D35E34"/>
<path d="M273.73 516.514C273.213 516.506 272.704 516.514 272.187 516.514L273.337 515.75L273.73 516.514Z" fill="#D35E34"/>
<path d="M266.791 516.514C266.537 516.514 266.274 516.514 266.02 516.514L266.405 515.757L266.791 516.514Z" fill="#D35E34"/>
<path d="M270.643 516.514C270.388 516.514 270.126 516.514 269.871 516.514L270.257 515.757L270.643 516.514Z" fill="#D35E34"/>
<path d="M288.986 142.776C294.6 140.957 302.428 143.417 306.54 147.169C307.524 148.443 309.439 150.437 310.054 151.562C310.977 152.212 311.451 153.143 310.933 154.197C311.557 156.323 312.207 157.975 311.82 160.347C313.929 158.748 313.34 160.787 314.227 161.156C326.272 166.146 329.69 170.486 329.365 184.042C327.757 187.539 327.467 190.464 328.486 192.819C329.084 193.522 329.936 194.181 330.244 194.576C332.756 199.136 334.232 204.548 332.001 209.494C331.983 209.784 332.027 210.083 332.001 210.372C331.482 212.841 330.191 214.695 328.486 216.514C327.88 217.102 327.327 217.673 326.729 218.271L325.851 219.149C325.737 219.29 325.069 219.009 324.972 219.149L324.094 220.906C323.277 225.457 325.28 231.915 319.701 234.946L309.369 235.965C307.252 237.907 305.407 238.047 303.834 236.404L297.921 201.93C291.253 203.889 285.05 204.064 279.322 202.474C270.809 204.504 259.686 204.512 251.235 202.474L250.33 204.135L236.062 201.912C234.63 214.581 231.397 226.468 226.371 237.581C222.058 235.042 217.893 234.348 213.887 235.508L211.735 234.955C204.513 230.492 206.762 222.822 204.996 216.672C204.302 214.256 201.649 211.146 200.322 208.624C197.142 202.571 197.414 196.772 201.201 191.07C202.211 189.463 205.47 185.29 205.602 184.437C206.191 180.668 203.45 172.84 205.611 168.079C205.989 167.235 212.982 160.242 214.054 159.609C217.252 157.729 223.534 157.958 223.929 157.624C224.992 156.728 225.8 149.286 232.187 145.262C241.535 139.376 246.815 144.226 252.412 142.521C254.151 141.994 257.578 138.779 260.644 137.733C267.453 135.405 274.112 135.633 280.139 139.789C285.314 143.365 281.817 145.051 288.969 142.802L288.986 142.776Z" fill="#38292B"/>
<path d="M251.244 202.457C252.316 202.597 253.3 202.87 252.342 203.449L264.422 203.801L278.646 203.546L279.331 202.457C286.167 201.877 292.764 201.235 299.485 199.856L305.671 236.694C308.359 232.943 316.837 231.73 319.701 234.937C320.061 235.341 323.092 243.881 323.233 245.005C324.797 257.525 320.026 268.665 305.688 266.574C303.852 278.566 297.465 292.869 287.221 299.889C284.699 306.162 273.454 307.858 266.944 307.717C260.433 307.576 248.67 305.248 245.964 299.01C238.54 294.038 232.478 284.69 229.526 276.387C228.902 274.622 227.83 267.76 227.496 267.444C227.013 266.978 219.334 267.47 214.81 263.894C208.142 258.632 205.769 240.938 211.735 234.937C215.047 231.607 222.989 232.705 225.765 236.694C230.114 224.877 232.592 212.639 234.498 200.199C235.421 199.557 248.397 202.175 251.235 202.465L251.244 202.457Z" fill="#B75D3B"/>
<path d="M279.332 202.457C280.896 204.829 280.193 204.126 278.032 204.214C270.476 204.521 261.84 204.512 254.284 204.214C252.597 204.143 250.761 205.119 251.253 202.457C261.453 203.484 269.158 203.326 279.341 202.457H279.332Z" fill="#D35E34"/>
<path d="M284.357 228.084C297.87 225.088 298.441 253.255 284.375 250.549C274.482 248.642 275.493 230.052 284.357 228.084Z" fill="#F1DFC1"/>
<path d="M254.76 230.544C258.713 233.927 259.187 243.459 255.638 247.219C254.54 248.142 253.609 249.381 253.002 249.855C250.701 251.498 248.952 251.788 247.74 250.733C247.59 250.61 245.807 250.821 244.665 249.899C238.805 245.19 237.803 236.193 243.004 230.641C247.503 225.826 250.27 228.005 254.76 230.553V230.544Z" fill="#F1DFC1"/>
<path d="M235.561 221.644C230.141 213.078 261.804 208.624 256.743 218.903C254.811 222.822 251.823 219.896 249.047 220.01C246.271 220.124 236.958 223.858 235.553 221.644H235.561Z" fill="#38292B"/>
<path d="M277.706 219.887C277.065 219.474 276.555 216.698 277.091 215.644C279.911 210.047 304.669 213.096 298.721 220.529C296.375 223.454 289.426 219.307 285.78 219.193C283.566 219.132 279.173 220.819 277.706 219.887Z" fill="#38292B"/>
<path d="M252.131 283.205C250.603 281.474 254.214 277.732 255.698 276.686C261.813 272.416 273.788 272.258 279.376 277.459C281.335 279.278 283.268 283.126 279.27 281.966C276.968 281.299 274.333 278.724 270.783 278.153C266.716 277.503 262.955 277.732 259.151 279.26C257.816 279.796 252.764 283.926 252.131 283.205Z" fill="#38292B"/>
<path d="M267.919 237.573C270.273 240.235 250.778 260.371 265.968 261.979C268.753 262.278 269.799 261.092 272.048 260.547C276.01 259.598 273.893 262.954 269.913 263.675C250.075 267.259 259.107 248.546 265.125 239.585C265.555 238.934 266.944 236.457 267.928 237.564L267.919 237.573Z" fill="#A23A1E"/>
<path d="M310.045 256.883C309.949 256.98 307.515 256.971 307.419 256.883C305.987 255.504 310.01 240.99 314.429 241.078C314.684 244.689 312.066 246.841 310.986 250.347C310.441 252.095 310.283 256.655 310.054 256.883H310.045Z" fill="#A23A1E"/>
<path d="M225.792 257.744C222.488 257.621 222.831 252.763 221.566 250.136C220.301 247.509 217.63 245.647 217.023 242.835C220.204 239.954 227.338 254.687 225.792 257.744Z" fill="#A23A1E"/>
<path d="M254.758 230.544C254.802 230.571 255.092 229.762 255.487 229.745C258.553 233.584 259.52 242.37 257.411 246.631C256.866 247.738 255.83 247.052 255.636 247.211C257.771 241.605 258.474 235.64 254.758 230.535V230.544Z" fill="#A23A1E"/>
<path d="M253.002 249.855C251.877 250.742 250.296 252.754 248.258 252.535C247.406 252.438 247.845 250.821 247.739 250.734L253.002 249.855Z" fill="#A23A1E"/>
<path d="M284.348 231.546C291.174 229.824 291.666 245.436 286.79 246.376C278.575 247.957 278.435 233.039 284.348 231.546Z" fill="#38292B"/>
<path d="M252.772 246.104C245.208 252.895 240.428 233.523 248.353 231.546C254.582 229.991 256.884 242.414 252.772 246.104Z" fill="#38292B"/>
<rect x="64.543" y="560.202" width="419.746" height="351" fill="#782F11"/>
<rect x="64.543" y="560.202" width="51.4683" height="351" fill="#61240B"/>
<rect x="432.82" y="560.202" width="51.4683" height="351" fill="#61240B"/>
<rect x="64.543" y="866.787" width="419.746" height="42.5628" fill="#61240B"/>
<rect x="64.543" y="771.702" width="419.746" height="19.6326" fill="#61240B"/>
<rect x="64.543" y="676.617" width="419.746" height="19.6326" fill="#61240B"/>
<path d="M455.381 642.083H0.160156L21.5225 601.202L42.1602 563.447H475.848L455.381 601.702V642.083Z" fill="#441C0C"/>
<path fill-rule="evenodd" clip-rule="evenodd" d="M475.848 563.447H497.381V523.202L475.848 563.447Z" fill="#441C0C"/>
<path d="M455.381 642.083L497.381 563.447H475.848L455.381 601.702V642.083Z" fill="#441C0C"/>
<path fill-rule="evenodd" clip-rule="evenodd" d="M0.160156 642.083L21.5225 601.202H0.160156V642.083Z" fill="#441C0C"/>
<path d="M0.147461 601.265L455.381 601.897L497.381 523.262H42.1602L0.147461 601.265Z" fill="#4D1F0D"/>
<defs>
<linearGradient id="paint0_linear_267_839" x1="153.128" y1="91.9733" x2="133.267" y2="121.941" gradientUnits="userSpaceOnUse">
<stop stop-color="#629238"/>
<stop offset="1" stop-color="#4A7E34"/>
</linearGradient>
<linearGradient id="paint1_linear_267_839" x1="133.679" y1="177.735" x2="72.6748" y2="130.694" gradientUnits="userSpaceOnUse">
<stop stop-color="#90B944"/>
<stop offset="1" stop-color="#5C8F3E"/>
</linearGradient>
<linearGradient id="paint2_linear_267_839" x1="167.168" y1="160.924" x2="121.107" y2="125.21" gradientUnits="userSpaceOnUse">
<stop stop-color="#ADD350"/>
<stop offset="1" stop-color="#7EAE49"/>
</linearGradient>
<linearGradient id="paint3_linear_267_839" x1="126.369" y1="115.823" x2="97.9446" y2="92.4687" gradientUnits="userSpaceOnUse">
<stop stop-color="#73A143"/>
<stop offset="1" stop-color="#5B8D3E"/>
</linearGradient>
<linearGradient id="paint4_linear_267_839" x1="96.0539" y1="152.135" x2="68.3149" y2="129.265" gradientUnits="userSpaceOnUse">
<stop stop-color="#629238"/>
<stop offset="1" stop-color="#4A7E34"/>
</linearGradient>
</defs>
</svg>
