<svg width="507" height="536" viewBox="0 0 507 536" fill="none" xmlns="http://www.w3.org/2000/svg">
<path d="M278.926 516.067C279.026 516.226 281.163 518.244 281.723 518.863C282.062 520.461 282.921 522.038 283.58 523.536L279.845 535.66H242.537C241.598 533.303 236.805 531.525 235.067 533.802C234.069 532.324 233.489 532.224 233.21 530.067C236.785 528.969 239.421 533.323 242.537 530.527C236.685 522.038 250.725 530.007 253.721 524.934L236.006 508.617C236.046 507.998 235.966 507.359 236.006 506.76C240.679 507.678 245.313 517.405 249.527 518.883C251.085 519.442 256.697 519.282 258.854 519.821C260.412 518.683 256.677 507.499 255.599 505.821C261.151 509.276 259.393 502.665 260.272 501.147L261.67 520.74L270.997 509.556C271.257 514.289 274.433 516.426 278.926 516.087V516.067Z" fill="#8EAD4F"/>
<path d="M451.488 535.66H433.772C436.469 528.59 431.156 531.705 429.099 535.66H426.303L430.976 523.537C435.111 519.782 436.828 517.245 440.303 513.271C445.416 512.272 442.96 519.862 443.099 520.261C444.617 524.895 449.431 530.986 451.488 535.66Z" fill="#6E7A2B"/>
<path d="M219.229 535.66H198.718C199.956 530.087 195.921 530.627 195.921 525.394C196.84 525.274 196.7 525.753 196.86 526.333C197.979 530.427 198.598 526.273 201.054 527.271C202.932 528.03 209.023 533.403 210.381 532.864C211.74 529.009 215.095 526.912 215.514 522.598C221.146 517.844 221.905 532.943 219.249 535.66H219.229Z" fill="#8EAD4F"/>
<path d="M218.31 514.209C220.547 521.08 224.402 528.21 225.78 535.66H219.249C221.905 532.943 221.147 517.844 215.514 522.598C215.534 522.318 214.775 518.164 215.055 517.006L203.391 518.863C203.691 518.523 204.869 515.068 206.187 514.189C211.44 510.774 212.958 513.55 218.31 514.189V514.209Z" fill="#B9CA8D"/>
<path d="M195.921 523.536V525.394C195.921 530.627 199.956 530.067 198.717 535.66H192.187L191.248 525.394C191.787 524.196 192.985 522.019 193.105 521.659C194.184 522.078 194.883 522.937 195.901 523.517L195.921 523.536Z" fill="#9FC294"/>
<path d="M192.187 535.66H183.798C184.377 532.644 190.569 526.932 191.268 525.394L192.206 535.66H192.187Z" fill="#BF7AA0"/>
<path d="M286.396 530.067L284.539 529.608L285.478 535.68H279.885L283.62 523.556C284.319 525.114 285.478 528.789 286.416 530.087L286.396 530.067Z" fill="#9FB576"/>
<path d="M286.396 530.067C286.915 530.766 291.749 532.903 291.988 535.66H285.457L284.519 529.588L286.376 530.047L286.396 530.067Z" fill="#5A7D53"/>
<path d="M242.557 535.66H236.026C235.866 535.041 235.426 534.282 235.087 533.802C236.825 531.525 241.618 533.323 242.557 535.66Z" fill="#B9CA8D"/>
<path d="M122.999 263.229C123.406 264.149 124.715 264.123 124.717 265.627C122.299 278.173 131.829 258.033 133.054 256.237C134.991 253.428 137.805 250.955 139.89 248.289C142.054 249.756 141.858 249.732 144.445 248.834C151 246.572 182.955 237.622 171.097 226.01C176.193 227.162 174.68 235.711 172.42 238.285C164.306 247.586 136.991 245.92 132.595 262.708C134.934 264.748 137.636 262.999 139.524 263.025C139.212 266.025 140.426 267.053 142.338 268.994C139.955 268.785 133.546 263.899 131.669 264.454C131.096 264.63 124.093 273.193 123.771 273.71C120.883 278.461 112.44 312.557 114.374 314.637C116.782 317.241 133.472 314.375 137.857 313.28C143.565 311.863 149.115 310.139 153.809 306.442C146.977 318.692 120.503 313.028 112.883 320.945C111.251 322.636 105.315 367.014 107.636 367.43C108.072 365.855 110.268 365.181 111.101 364.424L147.39 352.305C138.986 361.549 122.395 362.149 111.758 368.129C100.584 387.269 106.91 415.37 104.192 437.284C112.222 430.16 115.594 418.617 123.283 410.449C126.047 411.628 132.664 422.842 133.464 422.931C134.567 423.052 148.773 413.658 151.263 412.58C138.956 427.346 102.58 430.738 105.428 453.973C101.085 455.139 102.689 453.831 102.479 453.896C101.071 446.995 101.314 439.002 94.0577 435.985C94.6392 435.974 97.7213 436.01 97.763 435.329L93.661 428.294C96.682 431.67 98.6612 435.805 102.125 438.378C101.518 420.2 106.05 395.891 102.69 378.203C101.871 373.9 99.4036 370.625 98.3708 367.328C94.6088 355.342 91.7283 346.636 83.1747 336.872C95.687 346.737 95.8616 358.947 104.021 371.444C104.339 361.109 111.501 322.225 107.728 315.173C107.474 314.687 103.413 311.734 102.651 311.362L97.6462 298.252C102.712 303.801 105.756 310.994 110.622 316.708C113.04 292.045 133.777 255.325 105.849 239.139C107.188 239.418 112.787 241.46 113.048 240.336L104.96 226.71C117.858 241.575 115.965 246.982 122.969 263.134L122.999 263.229Z" fill="#F18C25"/>
<path d="M237.043 72.1275L253.921 69.8727C240.571 77.0198 226.012 77.9152 217.343 93.7792L217.724 96.5871C227.287 96.1594 239.541 97.8307 244.913 88.243C248.173 100.906 218.535 96.5054 215.051 97.4074C205.192 99.9317 196.227 125.246 190.571 133.709C192.589 135.179 197.486 130.166 199.078 129.636C205.893 127.335 217.785 126.465 223.7 124.023C215.171 128.228 196.811 131.167 190.19 137.231C184.984 141.984 179.656 162.609 174.076 169.001C176.371 170.762 178.288 168.565 180.454 167.524C180.543 170.401 187.951 170.509 189.675 170.544C192.958 170.623 204.831 170.03 206.992 168.155C200.259 175.486 185.606 169.265 179.041 170.883C166.495 173.981 159.117 206.1 150.252 215.338C152.649 217.089 153.939 214.416 156.631 213.861C167.93 211.605 179.771 210.5 190.169 205.512C182.297 214.237 159.455 211.762 148.974 219.136C144.507 222.282 125.896 259.394 124.692 265.614C124.703 264.085 123.382 264.135 122.974 263.216C129.488 251.356 127.457 238.066 124.163 225.768C131.422 226.549 126.687 213.775 131.299 210.897C130.578 222.776 125.762 234.449 129.998 246.415C139.108 224.838 159.019 209.117 157.159 183.928C154.203 143.867 144.742 168.519 125.588 171.66C122.702 172.128 112.601 171.279 111.367 168.211C123.101 172.34 137.753 168.616 145.533 158.708C149.034 158.949 151.667 160.857 149.456 155.561C149.752 155.637 150.655 155.109 151.232 155.016C151.78 156.394 155.19 168.592 157.597 166.224C157.865 164.512 157.683 162.354 157.867 160.772L164.385 159.754C161.739 163.658 157.954 164.255 157.173 171.243L159.591 193.419C163.716 181.06 185.404 150.023 184.22 138.541C183.927 135.748 181.918 134.171 181.541 133.012C180.211 128.949 178.413 125.678 177.087 121.698C181.367 126.861 184.564 131.834 186.57 138.3C188.257 131.682 201.75 111.455 200.479 105.745C201.063 105.607 201.671 105.274 202.254 105.2C205.512 104.785 212.513 86.5497 213.114 83.3358L215.435 84.5666C213.575 88.3757 210.081 93.6682 210.239 97.8606C217.848 88.0044 228.429 80.955 236.968 72.0878L237.043 72.1275Z" fill="#F18C25"/>
<path d="M83.1675 336.916C91.7211 346.68 94.6074 355.405 98.3636 367.372C90.1838 366.519 49.6573 342.771 62.1395 333.613C68.532 328.915 77.6055 332.544 83.1484 336.922L83.1675 336.916Z" fill="#F18C25"/>
<path d="M97.6639 298.31L102.669 311.419C93.5503 307.03 61.707 306.608 69.4507 287.455C79.3964 283.17 91.1567 291.198 97.6639 298.31Z" fill="#F18C25"/>
<path d="M104.984 226.786L113.072 240.412C112.811 241.536 107.212 239.494 105.873 239.216C96.8411 237.287 76.2896 227.027 76.472 216.525C76.7407 200.586 101.363 222.612 104.99 226.806L104.984 226.786Z" fill="#F18C25"/>
<path d="M131.343 210.905C126.712 213.788 131.447 226.562 124.207 225.776C121.041 213.962 106.311 189.38 124.47 183.744C134.543 187.84 131.87 202.073 131.343 210.905Z" fill="#F18C25"/>
<path d="M147.415 352.319L111.126 364.437C117.077 358.913 121.023 350.056 130.31 345.869C138.165 342.33 158.069 340.609 147.415 352.319Z" fill="#F18C25"/>
<path d="M153.828 306.436C149.134 310.133 143.59 311.876 137.877 313.274C133.491 314.369 116.801 317.235 114.393 314.631C120.58 310.08 149.424 290.928 154.996 300.709C156.7 303.675 155.043 304.266 153.828 306.436Z" fill="#F18C25"/>
<path d="M164.43 159.761L157.911 160.78C158.66 154.303 156.539 136.569 166.614 136.653C179.91 136.751 167.055 155.926 164.43 159.761Z" fill="#F18C25"/>
<path d="M151.257 155.029C150.68 155.123 149.757 155.656 149.481 155.574C140.838 153.484 127.841 127.744 137.339 127.106C142.762 126.737 149.47 150.501 151.276 155.023L151.257 155.029Z" fill="#F18C25"/>
<path d="M151.288 412.593C148.798 413.671 134.592 423.065 133.489 422.944C132.689 422.855 126.072 411.641 123.308 410.463C126.193 407.405 131.543 401.626 135.215 399.977C147.388 394.507 162.906 398.645 151.294 412.612L151.288 412.593Z" fill="#F18C25"/>
<path d="M451.488 496.494C450.769 498.052 450.449 499.689 449.63 501.167C448.592 503.005 446.714 507.479 445.895 508.637C444.997 509.915 442.3 510.335 442.161 510.494C443.898 503.704 445.836 497.972 446.834 490.902C446.914 490.302 446.754 489.643 446.834 489.044L451.508 496.514L451.488 496.494Z" fill="#316E5A"/>
<path d="M273.334 501.147C275.212 504.243 275.771 508.777 278.008 512.332C278.267 512.731 278.707 515.687 278.946 516.067C274.473 516.406 271.277 514.269 271.017 509.536L261.69 520.72L260.292 501.127C261.491 499.05 261.95 498.431 264.027 496.454C264.706 495.815 265.325 492.819 266.364 492.719C266.903 492.659 273.035 500.588 273.354 501.107L273.334 501.147Z" fill="#AFC66D"/>
<path d="M249.088 499.29C250.326 502.266 254.021 503.404 255.619 505.821C256.717 507.499 260.432 518.683 258.874 519.822C256.717 519.302 251.105 519.442 249.547 518.883C245.333 517.405 240.7 507.678 236.026 506.76C236.086 505.841 235.946 504.882 236.026 503.964C237.264 504.063 238.642 501.247 238.822 501.167C242.038 499.749 245.972 500.788 249.088 499.31V499.29Z" fill="#AFC66D"/>
<path d="M233.23 530.067C233.05 528.669 232.271 520.481 232.291 519.801C232.531 515.108 235.986 509.196 236.026 508.617L253.742 524.934C250.746 530.027 236.705 522.038 242.557 530.527C239.441 533.303 236.805 528.949 233.23 530.067Z" fill="#8EAD4F"/>
<path d="M264.007 496.494C261.95 498.451 261.47 499.07 260.272 501.167C259.413 502.685 261.171 509.276 255.599 505.841C254.001 503.424 250.306 502.286 249.068 499.31C250.665 498.551 253.362 493.738 257.456 492.779C262.629 491.581 262.329 491.96 263.987 496.514L264.007 496.494Z" fill="#B9CA8D"/>
<path d="M206.187 514.209C204.869 515.068 203.691 518.523 203.391 518.883C201.774 520.76 200.375 522.638 198.718 524.475C197.579 524.695 196.8 524.056 195.922 523.537C194.903 522.937 194.204 522.099 193.125 521.679C193.385 520.92 194.963 507.279 194.983 505.821C200.116 505.821 202.992 510.594 206.167 514.209H206.187Z" fill="#986147"/>
<path d="M215.514 522.598C215.095 526.912 211.74 529.009 210.381 532.864C209.023 533.403 202.932 528.03 201.054 527.271C198.598 526.273 197.979 530.427 196.86 526.333C197.999 526.452 198.358 524.875 198.718 524.475C200.375 522.618 201.773 520.76 203.391 518.883L215.055 517.026C214.795 518.184 215.554 522.338 215.514 522.618V522.598Z" fill="#AFC66D"/>
<path d="M198.718 524.475C198.338 524.894 197.999 526.452 196.86 526.332C196.7 525.753 196.86 525.274 195.921 525.394V523.536C196.8 524.056 197.579 524.695 198.718 524.475Z" fill="#BA8983"/>
<path d="M404.852 72.1013H403.913C373.535 52.0691 379.048 30.1594 390.392 0.280762C407.189 13.0431 421.749 28.0623 416.036 51.1104C414.758 56.2633 405.371 67.9071 404.852 72.1013Z" fill="#32421C"/>
<path d="M415.118 115.002C414.678 114.942 413.32 113.245 413.26 113.145C411.902 110.488 411.862 98.2253 412.322 94.9498C415.258 73.9589 442.22 62.0354 439.364 38.9873C452.945 46.1374 459.596 69.8046 454.284 83.7653C447.733 100.942 418.433 103.857 415.118 115.002Z" fill="#32421C"/>
<path d="M407.648 112.206C406.909 113.484 405.551 114.243 405.791 115.941C396.364 101.081 381.045 104.097 368.942 94.4904C350.887 80.1502 350.447 46.9362 362.87 29.6602C354.422 57.4816 385.159 63.8728 397.382 82.8266C403.015 91.5545 405.711 102.1 407.648 112.206Z" fill="#32421C"/>
<path d="M425.363 198.946C425.643 201.083 427.201 202.321 425.363 204.538C415.038 188.52 378.448 205.097 361.012 178.414C356.219 171.084 353.663 163.934 354.022 155.086C362.79 171.584 380.885 160.719 396.004 165.352C411.123 169.986 417.574 187.142 425.383 198.926L425.363 198.946Z" fill="#32421C"/>
<path d="M482.265 149.514C480.967 164.134 469.263 178.814 455.682 184.026C450.469 186.024 433.393 187.641 430.956 190.557C431.715 188.5 430.057 187.901 430.017 187.761C428.22 177.236 435.41 160.259 444.477 154.188C455.882 146.538 472.678 148.156 480.847 138.33C483.184 140.087 482.465 146.978 482.245 149.514H482.265Z" fill="#32421C"/>
<path d="M416.976 157.903C416.976 158.002 415.518 157.843 416.037 159.76C410.325 154.587 391.411 155.786 382.923 153.229C364.548 147.697 353.044 126.286 352.605 107.992C364.489 125.008 381.984 116.46 397.842 128.044C403.794 132.398 416.916 150.852 416.956 157.883L416.976 157.903Z" fill="#32421C"/>
<path d="M423.506 156.045L420.71 154.188C421.948 138.21 423.067 120.015 437.966 110.348C450.748 102.06 469.942 107.792 471.54 87.9595C474.875 108.072 465.568 129.482 448.212 140.187C438.286 146.319 426.262 143.842 423.486 156.045H423.506Z" fill="#32421C"/>
<path d="M413.24 113.145C413.3 113.264 414.678 114.942 415.098 115.002C411.343 127.585 418.953 144.641 419.771 157.443C423.346 157.264 420.65 154.987 420.71 154.188L423.506 156.045C420.81 167.909 425.543 180.951 426.302 192.894L430.037 187.761C430.057 187.901 431.735 188.5 430.976 190.557C429.438 192.415 428.1 200.424 428.18 203.14C428.24 205.297 433.972 234.297 434.711 235.795C434.891 236.174 436.089 237.612 436.568 236.733C437.187 234.037 439.264 232.24 440.303 229.743L442.16 231.601C431.315 238.032 444.018 275.18 442.16 286.165L444.957 283.828C444.997 283.988 447.553 284.707 446.814 286.624C444.118 290.519 442.28 339.052 444.018 341.648C444.138 341.848 443.878 342.747 444.957 342.587C442.16 346.821 440.063 376.26 439.364 383.63C438.985 387.525 438.186 392.977 439.364 396.692C437.427 396.113 435.39 394.935 434.691 397.631C434.132 397.471 433.632 397.631 433.752 396.692C433.932 396.333 434.112 395.234 434.691 393.896C437.786 386.766 438.925 381.034 436.548 372.446C435.63 368.551 438.785 370.189 439.344 369.19C438.845 368.471 437.207 368.99 437.487 367.792C437.507 367.692 439.245 368.112 439.344 367.333C440.842 355.689 442.061 330.364 432.813 322.095C432.753 321.496 432.933 320.817 432.813 320.238L442.14 332.821C441.481 319.459 443.958 299.427 437.467 287.583L438.406 286.644C439.045 287.923 439.344 289.041 439.804 290.379C441.881 291.458 437.107 257.864 436.548 255.408C435.37 250.335 434.052 243.624 430.017 240.009C431.875 240.528 431.795 239.13 431.875 239.07C432.214 238.891 433.552 239.43 433.732 238.611C434.112 236.893 426.562 206.475 425.344 204.558C427.181 202.341 425.623 201.103 425.344 198.966C424.305 190.997 421.389 164.653 416.017 159.8C415.497 157.883 416.955 158.042 416.955 157.943C418.014 160.419 419.252 160.419 418.813 157.483C417.375 147.877 410.824 123.97 405.751 115.981C405.511 114.303 406.889 113.524 407.608 112.246C407.668 112.126 409.286 112.585 409.466 111.786C410.704 106.334 401.696 80.2501 403.873 72.1414H404.812C403.534 82.3872 411.763 102.999 410.404 114.583L413.201 113.185L413.24 113.145Z" fill="#32421C"/>
<path d="M431.894 239.05C431.894 239.05 431.894 240.508 430.037 239.989C421.449 232.32 401.636 239.53 389.473 238.132C371.079 235.995 357.837 218.738 351.226 202.681C366.884 215.503 387.076 201.762 404.392 207.354C415.757 211.009 428.459 227.706 431.914 239.07L431.894 239.05Z" fill="#32421C"/>
<path d="M491.592 186.823C491.991 188.52 492.97 190.458 493.449 192.415C491.212 209.212 479.409 229.264 461.274 231.581C456.56 232.18 445.196 229.763 442.16 231.581L440.303 229.723C443.099 222.953 443.379 215.862 447.772 208.732C458.118 191.916 474.056 190.877 491.612 186.823H491.592Z" fill="#32421C"/>
<path d="M506.512 236.254C504.874 248.677 499.402 260.121 491.592 269.828C489.236 269.967 489.395 271.186 487.858 271.685C483.124 273.223 477.692 276.578 472.459 278.216C464.869 280.593 451.788 279.434 446.814 286.604C447.533 284.687 444.997 283.968 444.957 283.808C443.299 277.637 452.007 256.985 456.141 251.633C470.701 232.739 487.059 241.747 505.573 232.519C506.032 233.937 506.192 235.295 506.512 236.254Z" fill="#32421C"/>
<path d="M438.426 286.624L437.488 287.563C426.902 268.23 398.322 283.988 380.586 278.236C380.686 276.698 380.586 275.12 380.586 273.562C380.606 271.386 380.586 269.209 380.586 267.032C381.185 265.693 382.963 262.478 381.046 261.439C379.388 265.793 375.693 268.969 373.117 272.624C361.593 264.655 351.067 250.474 351.207 236.254C359.675 254.968 382.963 246.18 398.781 248.377C419.033 251.193 430.158 270.187 438.426 286.624Z" fill="#32421C"/>
<path d="M274.273 454.512C272.476 451.556 270.918 447.961 267.742 446.123C267.682 445.764 264.227 440.471 263.069 440.531C266.224 437.076 269.78 434.2 273.335 431.204C272.855 437.196 275.731 447.861 274.273 454.532V454.512Z" fill="#F26863"/>
<path d="M221.106 478.758C222.285 493.977 225.78 508.657 230.433 523.057L232.291 519.802C232.251 520.461 233.03 528.669 233.23 530.067C233.509 532.224 234.088 532.304 235.087 533.802C235.427 534.302 235.866 535.06 236.026 535.66H225.76C224.402 528.21 220.547 521.08 218.29 514.209C216.433 508.517 216.413 501.207 212.698 495.555V478.758H221.086H221.106Z" fill="#F1B71C"/>
<path d="M279.865 113.144C278.966 118.697 276.749 124.109 278.467 129.941C279.845 125.368 288.313 115.581 289.192 112.226H290.131C274.812 147.417 260.053 182.229 264.007 221.814C268.721 203.06 281.183 186.802 289.192 170.046C289.152 171.204 290.151 171.124 291.05 170.984C284.239 185.025 274.992 198.726 269.599 213.426C265.445 224.75 263.927 237.612 260.272 248.877C256.697 259.901 249.387 271.805 248.149 282.45C252.004 274.002 256.957 265.873 262.15 258.204C264.926 254.089 272.376 247.858 274.273 244.682C275.331 244.523 275.052 245.361 275.212 245.621C275.371 245.881 275.072 246.7 276.15 246.56C271.976 249.196 254.86 274.162 251.904 279.674C250.206 282.81 237.084 311.37 240.24 312.788C259.533 279.374 283.72 259.801 321.388 250.295C324.164 249.596 343.777 244.423 344.236 247.958C328.897 269.528 309.564 281.931 284.079 288.522C263.348 293.894 260.612 285.286 247.23 306.716C235.147 326.09 228.177 355.689 227.178 378.078C229.195 376.18 229.415 371.507 230.434 369.689C238.822 354.89 257.796 344.225 273.334 338.453C260.532 337.454 249.407 351.195 237.883 353.851C266.084 316.383 301.296 300.565 348.87 305.818C332.532 322.954 317.233 343.006 296.163 354.79C276.829 365.595 258.814 367.173 236.945 367.373C222.924 391.579 221.586 418.901 220.148 446.183L212.678 443.387C212.778 427.05 219.209 408.316 204.29 394.894L208.025 392.098C209.243 395.953 214.176 401.925 216.413 405.62C218.57 385.947 222.804 366.314 221.087 346.402L225.76 347.34C225.101 321.196 238.123 296.051 234.148 269.927C234.788 270.227 237.863 270.686 238.822 269.927C238.403 274.461 240.659 282.59 238.822 288.122C252.363 265.753 266.344 214.764 254.68 189.718L256.537 188.78C257.017 192.535 258.355 198.107 260.272 201.362C260.192 186.842 263.767 172.902 266.803 158.921C269.42 146.838 277.748 131.479 275.192 119.276C274.672 116.819 269.779 110.588 268.661 106.214C264.666 90.7155 267.762 70.3437 275.192 56.3231C278.926 72.4009 272.396 87.8395 274.253 104.357C274.712 108.371 275.591 117.578 279.845 113.224L279.865 113.144Z" fill="#F1B71C"/>
<path d="M350.747 154.168C350.747 154.168 350.367 153.848 349.808 155.106L347.472 152.31C345.414 156.445 340.601 159.96 338.604 163.974C333.511 174.2 329.916 192.595 324.603 205.017C323.984 206.455 322.286 209.491 325.542 209.212C316.854 224.291 307.047 233.578 291.489 241.866C287.754 243.844 279.306 244.503 276.09 246.54C275.032 246.7 275.311 245.861 275.152 245.601L281.683 243.264L317.134 193.833C312.879 195.211 294.764 223.172 292.408 223.212C292.008 223.212 287.994 218.159 285.417 219.477C303.572 187.302 325.083 165.832 353.963 143.003C355.221 145.699 351.865 151.591 350.707 154.188L350.747 154.168Z" fill="#F1B71C"/>
<path d="M188.452 244.643L182.859 245.102L222.025 325.311C222.405 330.024 221.626 335.816 216.433 332.301C211.6 325.73 200.595 319.439 194.983 312.249C178.585 291.238 179.943 257.565 178.186 232.04C182.1 235.775 185.076 240.428 188.452 244.623V244.643Z" fill="#F1B71C"/>
<path d="M231.372 239.05C232.87 240.888 234.448 239.31 236.046 240.448C228.696 240.009 234.927 249.516 235.107 252.572C235.287 255.428 236.585 268.629 232.311 267.97C202.313 240.668 204.709 209.112 206.187 170.964C212.558 172.902 215.135 181.45 217.372 187.282C221.905 199.066 221.766 210.43 224.841 220.855C225.061 221.614 226.938 219.597 227.637 221.794C228.476 224.43 230.613 238.131 231.372 239.05Z" fill="#F1B71C"/>
<path d="M205.248 379.895H206.187C207.445 384.449 206.667 387.665 208.045 392.019L204.31 394.815C197.459 388.643 183.379 388.404 177.267 378.957C177.107 377.898 175.809 375.541 175.41 374.283C176.968 372.286 180.003 368.591 179.604 365.895C177.767 368.871 174.851 370.928 172.614 373.364C171.435 371.886 169.877 370.289 168.879 368.691C167.7 366.813 163.346 361.241 163.287 360.762C163.187 360.063 167.141 349.298 166.083 346.761C165.503 345.902 163.346 346.342 162.348 346.302C160.83 346.242 158.433 347.261 155.817 347.241C156.975 341.429 161.389 343.645 165.144 336.975C165.583 336.176 165.703 335.936 166.083 335.117L203.391 385.008L205.248 384.07C205.189 382.671 205.328 381.253 205.248 379.875V379.895Z" fill="#F1B71C"/>
<path d="M243.496 239.05H231.372C230.613 238.131 228.476 224.43 227.637 221.794C226.938 219.597 225.061 221.614 224.841 220.855C221.786 210.43 221.905 199.066 217.372 187.282C215.135 181.45 212.558 172.902 206.187 170.964C206.287 168.348 206.107 165.672 206.187 163.035C229.375 177.396 243.496 211.888 243.496 239.05Z" fill="#F1B71C"/>
<path d="M188.452 244.643C203.83 263.876 222.045 284.727 223.903 310.392C224.781 322.655 220.387 335.856 225.76 347.241L221.086 346.302C220.407 338.533 220.927 338.453 216.413 332.301C221.606 335.816 222.385 330.024 222.005 325.311L182.839 245.102L188.432 244.643H188.452Z" fill="#F1B71C"/>
<path d="M315.316 81.4285C306.448 78.0532 309.884 77.9133 312.061 70.244C304.771 77.6337 308.985 86.6013 295.743 81.4285C304.072 56.0237 314.737 44.0802 334.45 26.4047C332.992 46.4569 325.063 64.3921 315.336 81.4285H315.316Z" fill="#F1B71C"/>
<path d="M242.557 114.063C240.04 113.804 242.417 124.269 242.557 124.788C244.714 133.117 247.669 141.465 249.088 149.974C249.367 151.631 250.126 184.426 254.68 181.69C257.855 176.437 255.539 168.967 260.272 165.372C260.192 166.351 259.533 168.148 259.333 170.046C258.435 178.913 255.399 179.732 256.537 188.7L254.68 189.639C252.802 185.584 247.749 182.648 245.353 177.975C235.586 158.941 238.482 129.023 235.087 108.012C238.342 108.091 240.639 112.106 242.557 114.083V114.063Z" fill="#F1B71C"/>
<path d="M242.556 114.063C257.536 129.602 262.129 143.702 260.272 165.372C255.538 168.967 257.855 176.457 254.68 181.69C250.126 184.426 249.367 151.631 249.087 149.974C247.669 141.465 244.713 133.117 242.556 124.788C242.417 124.269 240.04 113.784 242.556 114.063Z" fill="#F1B71C"/>
<path d="M206.187 379.895H205.248C204.929 374.243 200.734 367.373 199.656 361.7L167.94 327.648C168.04 327.368 167.86 327.009 167.94 326.709C168.619 324.512 171.355 319.279 171.675 317.382C196.6 333.28 199.117 354.231 206.187 379.875V379.895Z" fill="#F1B71C"/>
<path d="M315.315 81.4285C308.585 93.2122 302.234 104.836 290.13 112.206H289.192C291.868 101.92 291.568 94.091 295.723 81.4285C308.964 86.5814 304.77 77.6338 312.04 70.244C309.863 77.9334 306.428 78.0732 315.296 81.4285H315.315Z" fill="#F1B71C"/>
<path d="M279.865 113.144C275.611 117.498 274.712 108.311 274.273 104.277C272.415 87.7596 278.946 72.321 275.211 56.2433C276.03 54.7254 276.729 53.1275 277.548 51.5697C285.737 73.6391 283.46 90.8154 279.885 113.125L279.865 113.144Z" fill="#F1B71C"/>
<path d="M275.191 245.581C275.051 245.342 275.331 244.503 274.252 244.643C278.087 238.211 280.823 227.646 285.437 219.457C288.013 218.119 292.028 223.192 292.427 223.192C294.784 223.152 312.879 195.191 317.153 193.813L281.702 243.244L275.171 245.581H275.191Z" fill="#F1B71C"/>
<path d="M243.495 239.05C243.495 250.594 239.74 259.921 238.821 269.828C237.883 270.587 234.787 270.127 234.148 269.828C232.67 269.129 232.73 268.37 232.291 267.97C236.565 268.649 235.266 255.448 235.087 252.571C234.907 249.516 228.676 239.989 236.025 240.448C234.428 239.31 232.87 240.888 231.352 239.05H243.475H243.495Z" fill="#F1B71C"/>
<path d="M201.514 486.228C203.611 486.947 211.34 493.498 212.698 495.555C216.413 501.207 216.433 508.517 218.29 514.209C212.938 513.57 211.42 510.794 206.167 514.209C202.992 510.594 200.096 505.801 194.983 505.821C195.043 502.186 193.645 497.572 193.585 493.698C192.446 496.514 191.487 499.29 190.329 502.086L189.39 500.229C191.008 497.213 192.306 490.742 192.187 487.167C196.041 485.269 195.821 484.291 201.514 486.228Z" fill="#F1B71C"/>
<path d="M235.087 432.123C234.967 432.403 231.232 435.059 230.413 436.317C218.929 454.332 219.429 457.208 221.086 478.758H212.698C212.698 466.955 212.618 455.111 212.698 443.307L220.168 446.104C221.885 437.575 230.154 432.183 234.168 426.511C235.027 427.849 235.686 430.765 235.107 432.103L235.087 432.123Z" fill="#F1B71C"/>
<path d="M296.662 371.507C297.161 373.884 294.605 376.959 294.805 378.976H293.866L268.221 394.835L237.903 420.02C261.031 389.202 264.247 390.101 296.662 371.527V371.507Z" fill="#F1B71C"/>
<path d="M349.828 155.106C342.059 172.363 334.769 193.254 325.581 209.212C322.346 209.491 324.044 206.435 324.643 205.017C329.955 192.595 333.55 174.22 338.643 163.974C340.641 159.96 345.434 156.445 347.511 152.31L349.848 155.106H349.828Z" fill="#F1B71C"/>
<path d="M291.989 383.63C292.448 380.794 290.171 382.552 289.193 383.171C277.749 390.401 266.165 397.85 256.079 406.958C248.968 413.369 237.644 422.956 236.026 432.143H235.088C235.667 430.785 235.008 427.889 234.149 426.551C235.627 424.473 236.426 421.977 237.884 420.02L268.202 394.834L293.846 378.976C294.645 381.273 292.528 382.412 291.989 383.65V383.63Z" fill="#F1B71C"/>
<path d="M230.434 369.629C224.202 368.531 236.306 355.889 237.904 353.771C249.408 351.135 260.552 337.374 273.354 338.373C257.796 344.145 238.842 354.81 230.454 369.609L230.434 369.629Z" fill="#F1B71C"/>
<path d="M291.049 170.965C290.151 171.104 289.152 171.184 289.192 170.026C291.429 165.352 291.608 156.844 293.865 151.831C305.909 124.968 329.456 102.399 340.96 74.8776C344.675 105.575 334.849 139.987 310.183 159.76C306.588 162.636 295.243 170.286 291.069 170.945L291.049 170.965Z" fill="#F1B71C"/>
<path d="M320.428 126.187C323.743 128.364 317.013 133.317 317.172 135.973L300.855 156.025L320.448 126.187H320.428Z" fill="#F1B71C"/>
<path d="M205.248 379.895C205.328 381.273 205.188 382.691 205.248 384.089L203.391 385.028L166.082 335.137C167.041 332.98 167.261 329.705 167.94 327.667L199.656 361.72C200.734 367.373 204.929 374.263 205.248 379.915V379.895Z" fill="#F1B71C"/>
<path d="M291.988 383.63C291.669 384.329 291.369 386.806 291.049 387.365C290.011 389.222 288.653 390.521 287.315 392.957C284.399 398.27 281.682 403.982 277.987 408.815C267.921 422.017 252.603 430.965 236.006 432.143C237.623 422.956 248.948 413.369 256.058 406.958C266.144 397.85 277.728 390.401 289.172 383.171C290.151 382.552 292.427 380.794 291.968 383.63H291.988Z" fill="#F1B71C"/>
<path d="M266.803 465.696C267.003 468.253 267.522 470.61 267.742 473.166C267.982 476.062 268.221 478.698 268.681 481.554L257.496 492.739C253.402 493.678 250.685 498.511 249.108 499.27C245.992 500.748 242.057 499.729 238.842 501.127C238.163 483.172 256.957 469.931 267.762 457.288C267.882 459.845 266.563 462.301 266.823 465.676L266.803 465.696Z" fill="#F1B71C"/>
<path d="M267.742 446.124C268.221 448.58 267.622 452.635 267.742 455.451C261.77 459.505 255.778 466.356 250.945 471.768C246.531 476.721 241.897 488.285 235.087 486.228C236.285 476.881 256.118 448.161 263.068 440.531C264.227 440.471 267.662 445.764 267.742 446.124Z" fill="#F1B71C"/>
<path d="M267.742 455.451C267.762 456.07 267.722 456.709 267.742 457.308C256.937 469.95 238.143 483.192 238.822 501.147C238.642 501.227 237.264 504.043 236.025 503.943C236.525 498.351 234.308 492.3 235.087 486.228C241.897 488.305 246.531 476.721 250.945 471.768C255.778 466.355 261.77 459.505 267.742 455.451Z" fill="#F1B71C"/>
<path d="M380.606 273.562H378.269C374.474 286.824 371.398 300.685 370.34 314.606C370.16 317.122 368.622 329.485 369.88 330.464C377.07 326.429 383.641 320.837 386.198 312.748C386.338 313.068 387.576 314.626 388.055 315.544C384.221 319.499 381.345 323.793 377.33 327.668C375.692 329.245 368.762 332.081 368.462 332.8C367.524 335.057 366.865 375.541 366.605 381.773C366.565 382.651 367.584 382.771 367.544 383.63C367.144 392.638 365.986 401.625 365.686 410.673C365.407 418.722 364.947 426.93 364.748 434.919C364.748 435.239 364.748 435.538 364.748 435.858C364.628 440.511 364.847 445.205 364.748 449.858C364.708 451.995 365.686 452.994 365.686 453.593C365.686 453.973 365.686 454.272 365.686 454.532C365.487 464.318 363.969 474.564 363.829 484.371C363.729 491.76 363.829 499.31 363.829 506.76C363.829 516.386 363.829 526.053 363.829 535.68H358.237C358.856 522.917 357.318 510.095 357.298 497.433C357.298 487.806 358.117 478.179 358.237 468.513C358.296 463.26 358.137 457.927 358.237 452.655C358.336 447.382 358.117 442.069 358.237 436.796C358.257 435.818 358.217 434.819 358.237 434C358.356 429.167 358.996 424.014 359.175 419.081C359.275 415.985 359.055 412.85 359.175 409.754C359.355 405.6 358.996 400.347 359.175 396.692C359.175 396.552 359.994 396.372 360.114 393.896C360.334 389.302 359.834 384.429 360.114 379.895C360.434 374.663 360.673 369.25 361.053 364.037C361.172 362.399 361.053 361.381 361.053 361.241C361.532 355.15 362.271 348.698 362.91 342.587C363.349 338.373 363.31 333.659 363.849 329.525C366.705 307.495 371.998 286.505 380.646 267.031C380.646 269.208 380.666 271.385 380.646 273.562H380.606Z" fill="#F7D384"/>
<path d="M449.61 458.247C449.61 458.806 448.691 459.904 448.671 461.982C446.973 463.899 442.24 468.093 441.201 469.911C441.022 470.21 443.918 470.41 443.059 471.768C428.599 495.256 396.563 515.328 377.769 535.66H375.912C378.169 530.227 375.832 523.796 376.851 518.403C379.926 502.026 406.45 499.869 412.301 484.351C412.501 484.191 413.04 484.51 413.24 484.351C413.3 484.291 413.58 486.128 414.638 485.289C424.944 477.081 435.909 466.495 443.079 455.451C444.797 454.053 446.754 452.894 447.752 450.777C447.872 452.035 449.61 457.068 449.61 458.247Z" fill="#EDA534"/>
<path d="M446.814 488.086L420.691 513.73L418.833 517.924C412.382 523.716 406.39 530.487 399.24 535.64H377.79C396.584 515.308 428.62 495.236 443.08 471.748C443.919 470.37 441.042 470.19 441.222 469.891C442.261 468.073 446.974 463.879 448.692 461.962C448.672 470.051 447.833 480.017 446.834 488.086H446.814Z" fill="#F18C25"/>
<path d="M302.254 515.148C312.899 522.897 326.86 528.13 337.705 535.66H310.663L278.008 512.332C275.791 508.777 275.232 504.243 273.334 501.148C272.595 497.992 271.337 494.976 270.538 491.82L302.254 515.148Z" fill="#E49321"/>
<path d="M357.278 497.413C357.278 510.055 358.836 522.897 358.217 535.66H337.705C326.86 528.13 312.9 522.897 302.254 515.148C300.976 514.209 298.639 510.415 297.581 509.556L332.552 529.149C331.234 526.113 333.651 522.019 332.093 519.362C331.614 518.543 317.693 509.077 316.235 508.637C317.913 504.044 323.884 513.231 325.562 508.637C329.377 510.335 350.647 520.72 351.686 517.505L350.747 510.035L354.482 509.097C346.833 507.139 339.862 503.604 333.97 498.371C339.403 499.55 346.154 503.584 348.89 499.31C350.408 502.745 352.025 505.002 355.88 506.78L357.278 497.453V497.413Z" fill="#F18C25"/>
<path d="M375.933 535.66H363.809C363.809 526.033 363.809 516.366 363.809 506.74C367.444 507.559 366.985 504.862 368.483 503.005L383.882 491.82C387.437 492.18 378.609 504.543 382.943 505.821C389.034 501.207 396.244 497.892 402.536 493.698C406.031 491.361 409.326 486.707 412.322 484.371C406.47 499.869 379.967 502.046 376.871 518.424C375.853 523.816 378.189 530.247 375.933 535.68V535.66Z" fill="#F18C25"/>
<path d="M442.16 510.475C441.322 511.513 440.882 512.612 440.303 513.271C436.828 517.225 435.11 519.762 430.976 523.537C430.097 524.335 419.112 531.166 419.791 532.404L423.526 535.66H399.28C406.43 530.507 412.422 523.736 418.873 517.944C428.599 509.216 438.745 501.367 446.854 490.902C445.855 497.972 443.938 503.704 442.18 510.495L442.16 510.475Z" fill="#EDA534"/>
<path d="M306.908 535.66H291.988C291.729 532.884 286.895 530.767 286.396 530.068C285.457 528.789 284.299 525.094 283.6 523.537C282.901 521.979 282.062 520.481 281.742 518.863C288.054 525.933 300.077 528.949 306.928 535.66H306.908Z" fill="#E49321"/>
<path d="M310.643 535.66H306.908C300.057 528.969 288.034 525.933 281.723 518.863C281.163 518.244 279.026 516.227 278.926 516.067C278.687 515.707 278.247 512.731 277.988 512.332L310.643 535.66Z" fill="#F4BF52"/>
<path d="M324.643 343.526C327.079 345.603 325.442 348.419 325.581 348.659C330.015 356.767 353.183 371.547 360.094 379.895C359.814 384.409 360.313 389.302 360.094 393.896C357.957 393.976 351.006 391.12 349.369 390.161C344.216 387.165 332.372 378.058 328.378 373.844C324.183 369.41 321.188 363.518 317.193 358.924V362.659C323.664 370.069 327.419 377.179 335.388 383.65C342.298 389.262 350.847 393.796 359.175 396.712C358.995 400.367 359.355 405.62 359.175 409.774C350.946 408.835 343.956 400.946 336.786 398.59C332.871 395.494 328.378 390.281 324.663 387.405L312.54 364.557C317.692 361.521 312.08 360.183 313.478 357.087C314.037 355.849 320.069 356.288 314.417 350.097C317.333 347.101 319.55 342.567 324.683 343.566L324.643 343.526Z" fill="#E49321"/>
<path d="M420.71 366.833C423.067 370.908 425.104 374.742 427.241 378.957C426.442 385.627 422.028 388.184 418.853 392.018C414.239 397.571 409.785 403.043 404.393 407.877C399.639 412.151 390.332 416.105 388.994 421.877C381.824 426.81 373.176 433.182 364.748 434.939C364.947 426.93 365.407 418.741 365.686 410.693C376.631 403.343 390.871 394.954 400.658 386.446C407.748 380.275 413.121 371.028 420.71 366.853V366.833Z" fill="#EDA534"/>
<path d="M442.161 426.531C443.219 430.845 445.975 433.781 446.834 437.715L420.71 464.758C419.033 466.096 417.455 468.533 415.118 470.35C410.245 474.125 403.214 477.48 397.403 479.677C396.963 478.858 395.885 476.022 395.066 475.942C393.168 475.743 371.039 499.789 368.483 502.985C367.005 504.842 367.464 507.519 363.809 506.72C363.809 499.29 363.709 491.72 363.809 484.331C365.786 484.67 365.986 485.209 368.003 484.331C372.537 482.373 384.64 474.444 389.913 471.269C397.622 466.635 405.192 461.882 412.302 456.349C415.837 453.593 425.604 445.365 428.619 442.349C433.692 437.316 436.568 430.925 442.141 426.491L442.161 426.531Z" fill="#F18C25"/>
<path d="M412.302 352.853C414.339 355.929 416.017 359.044 417.894 362.18C418.833 363.738 419.771 365.256 420.69 366.853C413.101 371.008 407.728 380.275 400.638 386.446C390.851 394.955 376.591 403.343 365.666 410.693C365.966 401.645 367.124 392.638 367.524 383.65C368.442 382.791 369.88 382.951 370.32 382.711C369.541 384.229 373.376 385.548 373.575 385.508C377.71 384.888 399.38 367.612 402.955 363.598C406.19 359.943 407.289 350.876 412.282 352.873L412.302 352.853Z" fill="#F18C25"/>
<path d="M432.834 391.08C427.341 407.277 415.478 419.96 401.597 429.327C400.458 430.086 398.122 429.766 394.607 432.123C387.117 437.116 378.808 443.547 371.758 447.981C369.961 449.119 367.144 450.857 364.768 449.838C364.868 445.185 364.648 440.491 364.768 435.838C390.792 426.611 414.978 406.618 429.119 382.671C430.417 385.448 431.595 388.264 432.854 391.06L432.834 391.08Z" fill="#EDA534"/>
<path d="M358.217 452.654C358.117 457.927 358.276 463.26 358.217 468.513C355.161 468.892 353.084 465.936 350.747 464.778C352.105 463 345.534 457.887 344.675 457.308C333.81 449.978 324.004 445.065 314.357 435.858C311.102 432.742 297.7 418.182 295.703 414.867C291.649 408.136 290.63 399.967 287.315 392.957C288.653 390.52 290.011 389.222 291.05 387.365C297.481 419.221 333.531 435.458 358.197 452.654H358.217Z" fill="#E49321"/>
<path d="M358.216 436.797C358.097 442.069 358.316 447.382 358.216 452.655C333.551 435.458 297.5 419.221 291.069 387.365C291.389 386.806 291.688 384.329 292.008 383.63C292.567 382.392 294.664 381.273 293.865 378.957H294.804C296.482 395.873 327.279 422.896 341.899 430.266C347.291 432.982 353.303 433.801 358.216 436.797Z" fill="#F18C25"/>
<path d="M305.05 365.895C306.368 366.953 310.622 377.379 313.439 380.355C316.754 383.85 321.088 384.589 324.623 387.345C328.158 390.101 332.832 395.434 336.746 398.53C328.538 395.813 330.355 400.008 327.879 400.387C322.446 401.246 322.945 394.275 317.153 405.979C316.414 405.78 313.858 405.78 313.419 406.439C325.941 418.702 340.761 430.146 358.197 433.961C358.177 434.779 358.217 435.778 358.197 436.757C353.283 433.761 347.272 432.942 341.879 430.226C327.239 422.856 296.462 395.833 294.784 378.917C294.585 376.9 297.141 373.824 296.642 371.447C299.458 369.829 300.696 365.236 301.775 364.916C301.934 364.876 304.91 365.735 305.03 365.855L305.05 365.895Z" fill="#EDA534"/>
<path d="M350.747 464.778C353.083 465.936 355.16 468.892 358.216 468.513C358.116 478.179 357.278 487.806 357.278 497.433L355.88 506.76C352.005 505.002 350.407 502.725 348.889 499.29C348.23 497.792 347.132 495.455 347.491 493.698C347.751 493.318 355.36 497.353 355.88 493.698C344.016 486.608 330.934 480.995 319.031 474.105L331.613 477.84C334.549 475.263 327.539 472.647 328.358 469.911C328.457 469.591 333.87 466.995 333.95 466.176C334.11 464.558 320.908 458.706 320.429 455.451C322.526 455.451 330.994 462.122 331.613 461.982C331.913 461.922 334.07 457.428 335.348 457.308C336.207 457.228 348.65 463.739 350.747 464.778Z" fill="#E49321"/>
<path d="M362.871 342.587C362.232 348.698 361.493 355.15 361.013 361.241C358.317 359.324 351.546 356.528 349.349 354.71C344.676 350.816 342.639 341.209 340.482 349.118C336.947 346.302 332.692 341.808 328.358 340.729C332.832 333.18 337.885 327.747 342.359 321.137L362.871 342.587Z" fill="#EDA534"/>
<path d="M380.606 267.032C371.978 286.505 366.665 307.496 363.809 329.525C357.298 324.232 351.346 318.201 348.89 309.932C351.386 306.217 353.843 302.443 356.359 298.748C359.675 293.874 362.411 288.622 365.686 283.828C368.183 280.173 370.64 276.219 373.156 272.644C375.673 269.069 379.407 265.813 381.085 261.459C382.982 262.498 381.225 265.713 380.626 267.052L380.606 267.032Z" fill="#E49321"/>
<path d="M336.766 398.55C343.936 400.926 350.927 408.795 359.155 409.734C359.035 412.83 359.255 415.965 359.155 419.061C355.52 421.638 350.707 414.627 349.369 414.388C348.39 414.208 348.85 417.743 346.573 418.122C346.153 418.182 339.403 417.304 338.184 417.184C337.525 417.124 337.905 419.141 337.246 419.041C331.993 418.342 320.649 406.938 317.193 405.979C323.005 394.255 322.486 401.246 327.919 400.387C330.395 400.007 328.578 395.813 336.786 398.53L336.766 398.55Z" fill="#E49321"/>
<path d="M317.174 406.019C320.629 406.978 331.974 418.382 337.226 419.081C337.865 419.161 337.506 417.164 338.165 417.224C339.403 417.344 346.134 418.222 346.553 418.162C348.83 417.803 348.371 414.248 349.349 414.428C350.688 414.667 355.521 421.678 359.136 419.101C358.956 424.054 358.337 429.187 358.197 434.02C340.761 430.206 325.942 418.762 313.419 406.499C313.859 405.839 316.395 405.82 317.154 406.039L317.174 406.019Z" fill="#F18C25"/>
<path d="M380.606 273.562C380.606 275.1 380.706 276.698 380.606 278.236C380.526 279.534 379.707 281.352 379.667 283.828C379.567 294.094 380.366 295.213 383.402 304.34C382.124 310.192 377.85 314.266 373.615 318.341L370.36 314.606C371.418 300.685 374.494 286.844 378.289 273.562H380.626H380.606Z" fill="#E49321"/>
<path d="M363.809 329.525C363.27 333.659 363.33 338.373 362.87 342.587L342.359 321.137C344.276 318.281 346.513 313.487 348.89 309.952C351.346 318.221 357.298 324.252 363.809 329.545V329.525Z" fill="#D66A1E"/>
<path d="M326.501 343.526C330.455 346.042 342.519 363.179 348.411 364.976C354.762 366.933 348.351 360.223 353.543 359.384C355.96 360.922 359.415 361.361 361.013 364.057C360.634 369.27 360.394 374.683 360.074 379.915C353.164 371.567 329.996 356.787 325.562 348.679C325.442 348.459 327.06 345.623 324.624 343.546C325.203 343.666 326.241 343.386 326.481 343.546L326.501 343.526Z" fill="#F18C25"/>
<path d="M386.198 312.748C383.621 320.857 377.05 326.429 369.88 330.464C368.642 329.505 370.16 317.122 370.34 314.606L373.595 318.341C377.829 314.266 382.103 310.212 383.382 304.34C384.101 306.517 385.379 310.971 386.178 312.728L386.198 312.748Z" fill="#E49321"/>
<path d="M429.098 382.691C414.958 406.638 390.772 426.631 364.748 435.858C364.748 435.538 364.748 435.239 364.748 434.919C373.176 433.162 381.824 426.81 388.994 421.857C397.742 415.826 410.444 406.239 416.975 398.07C417.674 397.211 421.209 392.977 418.833 391.999C422.008 388.164 426.422 385.607 427.221 378.937C427.84 380.175 428.499 381.413 429.078 382.671L429.098 382.691Z" fill="#EDA534"/>
<path d="M360.074 393.896C359.954 396.372 359.155 396.552 359.135 396.692C350.807 393.776 342.259 389.242 335.348 383.63C327.379 377.159 323.624 370.069 317.153 362.639V358.904C321.148 363.498 324.144 369.39 328.338 373.824C332.532 378.258 344.176 387.145 349.329 390.141C350.967 391.1 357.917 393.956 360.054 393.876L360.074 393.896Z" fill="#D66A1E"/>
<path d="M365.666 453.573C365.666 452.994 364.687 451.996 364.727 449.839C367.104 450.857 369.92 449.1 371.718 447.981C378.768 443.547 387.096 437.116 394.566 432.123C387.036 441.41 377.29 450.158 365.646 453.573H365.666Z" fill="#F18C25"/>
<path d="M406.71 345.383C396.943 359.024 385.779 374.882 370.34 382.691C369.901 382.911 368.463 382.771 367.544 383.63C367.584 382.751 366.565 382.632 366.605 381.773C378.169 378.597 385.419 368.871 392.729 360.322C397.303 354.97 402.655 351.355 404.852 343.526C404.952 343.665 405.951 344.325 406.71 345.383Z" fill="#F4BF52"/>
<path d="M361.013 361.241C361.013 361.381 361.133 362.4 361.013 364.037C359.415 361.361 355.96 360.922 353.543 359.364C348.95 356.428 344.756 352.493 340.481 349.098C342.638 341.189 344.676 350.796 349.349 354.69C351.546 356.508 358.317 359.304 361.013 361.221V361.241Z" fill="#F4BF52"/>
<path d="M447.752 450.777C446.754 452.874 444.796 454.053 443.079 455.451C432.474 464.099 424.764 476.482 413.24 484.371C413.04 484.53 412.501 484.211 412.301 484.371C409.306 486.707 406.01 491.361 402.515 493.698C396.244 497.912 389.014 501.207 382.922 505.821C378.568 504.563 387.396 492.2 383.861 491.82L368.462 503.005C371.019 499.809 393.148 475.763 395.045 475.962C395.864 476.042 396.923 478.878 397.382 479.697L386.657 491.82L415.098 470.37C417.434 468.553 419.032 466.096 420.69 464.778C429.558 457.688 439.923 448.68 446.814 439.593C447.633 443.687 447.373 446.803 447.752 450.777Z" fill="#E49321"/>
<path d="M443.099 455.451C435.929 466.495 424.944 477.101 414.659 485.289C413.6 486.148 413.32 484.311 413.26 484.351C424.785 476.462 432.494 464.079 443.099 455.431V455.451Z" fill="#F18C25"/>
<path d="M446.814 488.086C446.774 488.385 446.854 488.705 446.814 489.024C446.734 489.623 446.894 490.302 446.814 490.882C438.705 501.347 428.559 509.196 418.833 517.924L420.69 513.73L446.814 488.086Z" fill="#F4BF52"/>
<path d="M285.458 496.494C284.02 501.127 293.846 506.48 297.581 509.556C298.639 510.414 300.956 514.209 302.254 515.148L270.538 491.82C269.66 488.385 269.22 485.05 268.681 481.554C268.241 478.698 268.002 476.062 267.742 473.166C271.737 480.875 278.427 491.241 285.458 496.494Z" fill="#F4BF52"/>
<path d="M286.396 422.796C289.352 427.549 293.127 430.485 294.785 435.379C277.868 416.924 287.814 438.954 286.396 450.298C295.703 461.343 307.008 467.115 319.051 474.085C330.935 480.975 344.036 486.588 355.9 493.678C355.381 497.333 347.771 493.298 347.512 493.678C347.152 495.435 348.251 497.772 348.91 499.27C346.173 503.544 339.423 499.51 333.99 498.331C333.851 498.291 332.293 496.634 331.654 496.474C331.414 496.414 330.196 498.971 327.919 498.331C295.583 489.344 290.471 481.195 274.293 454.492C275.771 447.841 272.875 437.176 273.354 431.164C273.834 425.153 277.369 415.886 278.947 409.714C283.281 409.914 279.506 411.611 280.804 414.847C282.102 418.083 284.878 420.339 286.396 422.776V422.796Z" fill="#F4BF52"/>
<path d="M274.273 454.512C290.451 481.215 295.564 489.364 327.899 498.351C330.176 498.991 331.394 496.434 331.634 496.494C332.273 496.654 333.811 498.331 333.97 498.351C339.882 503.584 346.853 507.119 354.482 509.077L350.747 510.015L351.686 517.485C350.647 520.7 329.377 510.315 325.562 508.617C321.028 506.6 310.443 502.226 306.908 500.229C292.548 492.12 284.958 481.595 273.334 470.39C271.537 468.113 268.541 463.52 266.803 465.717C266.544 462.341 267.842 459.865 267.742 457.328C267.722 456.709 267.762 456.07 267.742 455.471C267.622 452.655 268.221 448.6 267.742 446.144C270.918 447.981 272.476 451.576 274.273 454.532V454.512Z" fill="#E49321"/>
<path d="M273.334 470.37C282.421 481.794 291.768 496.474 306.907 500.209C310.443 502.206 321.028 506.58 325.562 508.597C323.884 513.191 317.912 504.003 316.235 508.597C305.13 505.202 296.162 504.463 285.457 496.474C278.427 491.221 271.736 480.855 267.742 473.146C267.522 470.59 267.003 468.233 266.803 465.676C268.541 463.479 271.536 468.073 273.334 470.35V470.37Z" fill="#EDA534"/>
<path d="M316.235 508.617C317.673 509.056 331.614 518.523 332.093 519.342C333.671 522.018 331.234 526.113 332.552 529.129L297.581 509.536C293.846 506.46 284 501.127 285.458 496.474C296.183 504.463 305.13 505.202 316.235 508.597V508.617Z" fill="#EDA534"/>
<path d="M324.643 387.365C321.088 384.609 316.774 383.87 313.459 380.375C310.623 377.399 306.388 366.973 305.07 365.915C304.771 360.802 310.862 353.672 314.397 350.057C320.05 356.248 314.018 355.809 313.459 357.047C312.081 360.123 317.673 361.481 312.52 364.517L324.643 387.365Z" fill="#F18C25"/>
<path d="M340.481 349.118C344.755 352.513 348.95 356.428 353.543 359.384C348.35 360.242 354.762 366.933 348.41 364.976C342.519 363.158 330.455 346.042 326.501 343.526C326.521 342.507 328.059 341.249 328.358 340.729C332.692 341.828 336.946 346.302 340.481 349.118Z" fill="#E49321"/>
<path d="M434.691 397.611C434.531 398.27 437.846 408.176 438.426 410.673C426.682 431.524 409.146 443.667 389.933 456.849C410.724 447.681 425.244 431.344 439.364 414.407C439.963 416.844 441.002 418.242 441.222 419.081C441.721 420.978 441.681 424.593 442.16 426.551C436.588 430.984 433.712 437.376 428.639 442.409C425.603 445.424 415.837 453.653 412.322 456.409C405.112 460.304 394.486 464.898 389.933 471.329C384.66 474.504 372.537 482.413 368.023 484.391C366.006 485.269 365.806 484.73 363.829 484.391C363.969 474.584 365.487 464.338 365.686 454.552C369.261 454.112 373.336 452.595 376.411 450.817C392.669 441.43 425.424 413.449 433.772 396.712C433.652 397.651 434.151 397.491 434.711 397.651L434.691 397.611Z" fill="#E49321"/>
<path d="M434.691 393.896C434.111 395.234 433.932 396.333 433.752 396.692C425.404 413.409 392.649 441.39 376.391 450.797C373.316 452.575 369.241 454.093 365.666 454.532C365.666 454.272 365.666 453.973 365.666 453.593C377.29 450.178 387.057 441.43 394.586 432.143C398.101 429.786 400.458 430.106 401.577 429.347C415.477 419.98 427.321 407.297 432.813 391.1C433.412 392.458 432.873 392.638 434.671 393.896H434.691Z" fill="#F4BF52"/>
<path d="M439.364 414.408C425.224 431.344 410.724 447.681 389.932 456.849C409.166 443.687 426.701 431.524 438.425 410.673C438.685 411.811 439.064 413.209 439.364 414.408Z" fill="#F4BF52"/>
<path d="M412.302 456.37C405.192 461.902 397.622 466.675 389.913 471.289C394.447 464.838 405.072 460.264 412.302 456.37Z" fill="#EDA534"/>
<path d="M382.922 458.247C383.961 461.702 374.953 466.036 372.197 466.176L382.922 458.247Z" fill="#F18C25"/>
<path d="M388.994 421.877C390.312 416.105 399.619 412.151 404.393 407.877C409.785 403.043 414.239 397.571 418.853 392.019C421.23 392.997 417.674 397.211 416.995 398.09C410.464 406.259 397.762 415.846 389.014 421.877H388.994Z" fill="#F18C25"/>
<path d="M404.852 343.526C402.655 351.335 397.303 354.97 392.729 360.322C392.889 354.81 394.886 347.82 396.464 342.607C397.243 340.011 398.142 337.914 400.199 336.076C400.918 337.674 403.714 341.948 404.872 343.546L404.852 343.526Z" fill="#E49321"/>
<path d="M394.586 325.79C395.945 327.508 396.084 331.003 399.26 332.321C399.18 332.9 399.42 333.799 399.26 334.179C394.067 347.081 380.845 358.046 369.421 365.415C370.68 367.472 372.078 365.815 373.616 364.956C382.443 360.083 390.592 350.616 396.464 342.567C394.886 347.78 392.889 354.77 392.729 360.282C385.439 368.831 378.169 378.557 366.605 381.733C366.885 375.501 367.524 335.017 368.463 332.761C368.762 332.042 375.693 329.205 377.33 327.628C381.345 323.753 384.221 319.459 388.056 315.504C389.953 319.119 392.07 322.555 394.586 325.77V325.79Z" fill="#F18C25"/>
<path d="M400.179 336.056C398.122 337.893 397.223 339.991 396.444 342.587C390.572 350.636 382.423 360.103 373.596 364.976C372.038 365.835 370.66 367.512 369.401 365.435C380.846 358.066 394.067 347.101 399.24 334.199C400.698 334.139 399.939 335.557 400.179 336.056Z" fill="#EDA534"/>
<path d="M390.392 325.79C391.671 334.358 380.406 342.208 373.596 346.302C379.268 339.292 387.576 334.858 390.392 325.79Z" fill="#EDA534"/>
<path d="M415.118 470.37L386.677 491.82L397.402 479.697C403.214 477.5 410.245 474.145 415.118 470.37Z" fill="#EDA534"/>
<path d="M446.814 439.593C439.924 448.68 429.578 457.688 420.691 464.778L446.814 437.735C446.934 438.294 446.695 439.033 446.814 439.593Z" fill="#EDA534"/>
<path d="M412.301 352.853C407.308 350.855 406.21 359.923 402.974 363.578C399.399 367.592 377.729 384.888 373.595 385.488C373.375 385.527 369.541 384.209 370.34 382.691C385.798 374.882 396.943 359.024 406.709 345.383C408.527 347.92 410.564 350.196 412.301 352.853Z" fill="#E49321"/>
<path d="M314.378 435.858C324.024 445.065 333.811 449.978 344.696 457.308C345.535 457.887 352.106 462.98 350.767 464.778C348.67 463.739 336.228 457.248 335.369 457.308C334.091 457.428 331.933 461.902 331.634 461.982C330.995 462.122 322.527 455.451 320.449 455.451C320.929 458.706 334.13 464.558 333.971 466.176C333.891 466.995 328.478 469.591 328.378 469.911C327.58 472.647 334.57 475.263 331.634 477.84L319.051 474.105C307.008 467.135 295.704 461.363 286.397 450.318C287.815 438.974 277.868 416.944 294.785 435.399C293.127 430.505 289.332 427.569 286.397 422.816C290.85 420.319 311.382 447.761 314.378 439.133V435.878V435.858Z" fill="#EDA534"/>
<path d="M314.378 435.858V439.113C311.382 447.741 290.851 420.279 286.397 422.796C284.879 420.359 282.123 418.142 280.804 414.867C279.486 411.591 283.261 409.934 278.947 409.734C278.887 409.734 279.107 408.636 278.008 408.795C281.703 403.962 284.419 398.25 287.335 392.937C290.671 399.968 291.669 408.116 295.724 414.847C297.721 418.162 311.122 432.722 314.378 435.838V435.858Z" fill="#F4BF52"/>
<path d="M306.908 500.209C291.768 496.454 282.421 481.794 273.334 470.37C284.978 481.595 292.547 492.1 306.908 500.209Z" fill="#F18C25"/>
</svg>
