<svg width="1920" height="1080" viewBox="0 0 1920 1080" fill="none" xmlns="http://www.w3.org/2000/svg">
<g clip-path="url(#clip0_303_893)">
<rect width="1920" height="1080" fill="#2C4001"/>
<g opacity="0.1">
<path d="M1804.01 723.877C1814.66 710.43 1829.91 702.325 1842.36 690.891C1862.81 672.156 1881.04 651.543 1899.18 630.662C1926.23 599.527 1943.09 562.622 1961.52 526.496C1962.52 524.536 1963.91 522.765 1966.52 522.738L1966.52 954.755C1964.02 955.936 1962.14 957.681 1961.47 960.445C1955.11 986.346 1943.81 1010.37 1931.84 1033.91C1898.1 1100.17 1856.02 1159.92 1794.21 1203.59C1758.2 1229.03 1719.71 1249.11 1676.66 1259.74C1675.35 1256.09 1672.18 1254.42 1669.23 1252.36C1638.5 1230.62 1623.25 1202.49 1627.74 1163.38C1633.26 1115.12 1639.28 1067.78 1657.98 1021.83C1676.29 976.818 1698.56 935.135 1728.67 897.183C1736.32 887.548 1747.06 880.435 1751.35 867.82C1760.85 839.987 1771.27 812.476 1781.28 784.804C1788.66 764.433 1800.14 745.591 1804.01 723.904L1804.01 723.877Z" fill="#4E7F37"/>
<path d="M1804.01 723.877C1800.14 745.564 1788.66 764.406 1781.28 784.777C1771.27 812.449 1760.85 839.96 1751.35 867.794C1747.06 880.408 1736.3 887.521 1728.67 897.157C1698.56 935.108 1676.29 976.791 1657.98 1021.8C1639.3 1067.72 1633.29 1115.07 1627.73 1163.36C1623.25 1202.46 1638.47 1230.59 1669.23 1252.33C1672.15 1254.4 1675.35 1256.09 1676.66 1259.71C1674.03 1260.92 1671.37 1262.13 1668.72 1263.34C1619.52 1263.34 1570.35 1263.34 1521.16 1263.34C1507.28 1255.69 1491.66 1252.6 1477.39 1245.49C1452.72 1233.19 1434.04 1215.37 1417.86 1193.69C1367.78 1126.64 1364.53 1034.79 1410.4 964.793C1411.34 963.371 1412.81 962.297 1414.05 961.036C1421.4 964.149 1429.61 963.773 1437.05 967.397C1443.65 970.618 1445.72 965.491 1445.42 959.774C1444.83 947.804 1443.97 935.86 1443.22 923.889C1471.13 889.963 1506.96 866.022 1544.24 843.96C1589.7 817.039 1638.68 798.117 1688.36 780.832C1725.61 767.868 1760.26 749.671 1793.46 728.574C1796.76 726.481 1799.5 723.126 1804.06 723.904L1804.01 723.877Z" fill="#4E7F37"/>
<path d="M1966.49 452.981C1949.42 484.142 1934.5 516.457 1915.58 546.626C1891.82 584.524 1866.06 621.134 1834.55 652.832C1804.09 683.483 1770.14 709.249 1728.86 726.024C1696.07 739.364 1663.43 749.429 1628.51 746.047C1581.71 741.511 1537.85 728.923 1504.01 692.26C1465.07 650.067 1468.69 569.252 1523.25 528.24C1525.99 526.174 1529.61 525.234 1532.78 523.785C1542.98 531.622 1552.7 540.211 1563.48 547.136C1604.22 573.331 1648.99 589.543 1695.88 601.165C1741.15 612.384 1787.48 612.921 1833.45 617.108C1838.28 617.537 1843.41 618.128 1845.34 611.525C1857.5 570.057 1869.41 528.536 1870.46 484.867C1871.78 482.451 1873.57 480.814 1876.2 479.66C1906.61 466.186 1933.24 447.183 1957.42 424.504C1959.7 422.356 1961.39 416.8 1966.52 420.8L1966.52 453.008L1966.49 452.981Z" fill="#4E7F37"/>
<path d="M1089.17 1263.33C1083.8 1250.32 1075.46 1238.67 1074.7 1223.67C1073.36 1197.15 1084.69 1176.56 1103.02 1159.09C1121.05 1141.91 1142.47 1129.62 1165.69 1121.3C1206.27 1106.72 1235.9 1079.35 1256.16 1042.63C1265.42 1025.85 1270.84 1006.29 1271.97 985.782C1282.08 1013.08 1285.17 1084.77 1277.79 1133.99C1270.28 1184.16 1251.65 1228.98 1212.57 1263.33L1089.14 1263.33L1089.17 1263.33Z" fill="#4E7F37"/>
<path d="M1966.49 361.751C1961.6 361.376 1958.2 364.65 1954.38 366.797C1916.7 388.162 1871.59 381.291 1846.41 350.318C1818.23 315.613 1819.6 270.388 1849.82 236.865C1872.15 212.091 1916.57 204.898 1947.54 220.734C1953.82 223.955 1959.11 229.215 1966.49 230.289L1966.49 361.778L1966.49 361.751Z" fill="#4E7F37"/>
<path d="M482.811 1263.33C495.64 1228.15 509.837 1193.55 528.087 1160.75C554.953 1112.41 585.763 1066.73 620.733 1023.9C621.163 1023.36 622.371 1023.44 623.444 1023.17C620.895 1043.27 611.206 1061.23 607.046 1080.66C593.305 1144.7 601.625 1205.68 633.079 1263.33L482.838 1263.33L482.811 1263.33Z" fill="#4E7F37"/>
<path d="M1966.49 176.609C1937.02 169.577 1916.52 142.281 1914.9 108.301C1913.59 80.7364 1921.37 55.3457 1933.1 30.975C1942.52 11.4354 1953.15 -7.43313 1966.49 -24.6376L1966.49 176.609Z" fill="#4E7F37"/>
<path d="M1966.49 399.301C1938.6 419.082 1911.01 439.292 1880.5 454.967C1878.97 455.745 1877.22 456.175 1875.59 456.765C1875.1 435.562 1868.74 412.372 1894.88 400.267C1919.2 399.113 1943.73 399.193 1966.49 388.565L1966.49 399.301Z" fill="#4E7F37"/>
<path d="M997.409 672.398C946.469 678.088 898.026 664.829 848.805 654.71C775.16 639.546 707.098 656.482 645.746 699.936C630.206 710.94 615.848 723.448 601.113 738.666C601.838 725.326 609.594 717.784 614.345 709.142C662.332 621.992 719.605 542.009 801.247 483.068C860.506 440.285 926.394 417.471 1000.41 434.193C1043.46 443.909 1079.67 466.052 1104.25 504.138C1120.6 529.421 1121.51 556.959 1115.01 585.383C1114.5 587.664 1113.48 589.543 1111.02 590.214C1103.15 576.66 1097.81 562.273 1094.4 546.894C1090.86 530.844 1086.35 514.927 1078.78 500.139C1075.37 493.455 1070.52 488.356 1062.73 487.497C1047.22 485.806 1021.7 508.298 1021.67 524.08C1021.62 553.148 1017.97 581.867 1012.73 610.29C1008.87 631.225 1002.64 651.731 997.462 672.452L997.409 672.398Z" fill="#4E7F37"/>
<path d="M1207.53 780.349C1215.04 787.569 1222.56 794.815 1230.04 802.035C1220.68 840.363 1216.6 880.033 1200.15 916.508C1191.8 935.001 1183.96 953.735 1175.88 972.362C1108.82 975.744 1045.56 964.82 993.196 919.085C954.092 884.917 931.521 842.376 932.943 788.723C933.749 758.045 969.873 708.39 996.819 705.438C997.382 712.9 1001.41 718.885 1005.51 724.682C1034.79 766.016 1075.51 788.562 1125.08 794.574C1153.55 798.036 1181.98 796.211 1207.53 780.375L1207.53 780.349Z" fill="#4E7F37"/>
<path d="M1589.33 272.535C1571.05 273.77 1554.2 267.516 1536.73 263.222C1507.5 256.002 1477.28 252.164 1449.61 239.683C1420.65 226.612 1392.58 211.957 1365.79 194.323C1335.92 174.623 1313.03 149.769 1297.95 117.937C1280.15 80.3337 1277.52 41.3888 1294.11 2.6318C1320.57 -59.2076 1398.16 -60.4154 1433.08 -15.0826C1454.82 13.1531 1465.17 45.7638 1470.54 80.3069C1474.03 102.718 1474.06 125.667 1480.79 147.595C1498.45 205.113 1536.91 244.38 1589.3 272.535L1589.33 272.535Z" fill="#4E7F37"/>
<path d="M1419.09 386.579C1408.3 410.359 1394.54 431.804 1377.57 452.041C1364.18 468.011 1350.28 482.129 1332.16 491.872C1305.25 506.339 1257.47 504.809 1234.1 480.975C1211.96 458.376 1203.74 417.659 1214.13 386.605C1240.67 307.186 1302.99 277.501 1378.46 266.792C1444.83 257.371 1510.29 266.55 1575.02 281.688C1577.55 282.278 1579.86 283.647 1583.1 285.016C1576.74 292.075 1568.42 290.115 1561.58 291.243C1507.47 300.261 1463.75 326.054 1430.93 370.126C1430.18 371.146 1428.86 371.736 1427.82 372.514C1418.72 366.529 1409.62 360.517 1400.52 354.532C1404.76 367.039 1410.83 377.533 1419.12 386.579L1419.09 386.579Z" fill="#4E7F37"/>
<path d="M1894.29 98.9607C1897.86 128.297 1905.67 156.264 1924.62 184.151C1914.21 179.186 1910.61 172.851 1906.1 167.859C1860.45 117.185 1819.25 63.5319 1798.78 -2.89721C1783.99 -50.914 1782.83 -98.1525 1813.11 -141.365C1829.48 -164.743 1851.7 -181.249 1881.14 -183.343C1928.78 -186.698 1966.09 -143.861 1960.72 -94.0728C1957.68 -65.9981 1948.67 -40.017 1934.12 -16.2367C1916.6 12.4016 1900.12 41.2278 1894.72 74.9925C1893.86 74.2679 1893 73.5432 1892.15 72.8185C1891.96 73.1137 1891.64 73.4358 1891.64 73.7311C1891.64 85.3528 1891.64 96.9477 1891.64 108.569C1891.93 108.596 1892.23 108.623 1892.52 108.677C1893.14 105.429 1893.76 102.182 1894.35 98.9339L1894.29 98.9607Z" fill="#4E7F37"/>
<path d="M1870.46 484.84C1869.41 528.509 1857.52 570.03 1845.34 611.498C1843.41 618.074 1838.28 617.51 1833.45 617.081C1787.48 612.894 1741.15 612.357 1695.88 601.138C1649.02 589.516 1604.22 573.305 1563.48 547.109C1552.69 540.157 1542.98 531.568 1532.78 523.758C1556.99 506.017 1585.22 500.005 1614.07 496.22C1650.65 491.389 1686.94 494.583 1723.33 499.709C1770.27 506.312 1816.6 503.762 1861.31 486.048C1864.07 484.947 1867.37 485.243 1870.43 484.867L1870.46 484.84Z" fill="#4E7F37"/>
<path d="M1894.88 400.294C1868.74 412.399 1875.08 435.588 1875.59 456.792C1837.42 477.808 1796.98 491.335 1753.04 490.664C1710.02 490.02 1673.74 474.157 1648.61 437.816C1632.22 414.116 1628 388.618 1642.01 362.074C1655.51 336.495 1676.98 323.719 1705.89 322.86C1739.46 321.867 1768.31 335.556 1793.51 355.122C1824 378.795 1856.96 394.577 1894.91 400.294L1894.88 400.294Z" fill="#4E7F37"/>
<path d="M604.309 744.947C635.414 723.984 665.42 708.659 697.143 696.527C726.933 685.12 757.529 677.283 789.493 676.075C839.815 674.169 889.117 694.407 911.876 739.525C927.255 769.962 923.927 795.325 900.443 820.313C884.528 837.249 852.349 841.624 826.45 831.372C801.517 821.494 780.315 806.115 761.689 787.488C719.418 745.295 669.311 732.493 611.797 744.92C610.535 745.188 609.166 744.947 604.282 744.947L604.309 744.947Z" fill="#4E7F37"/>
<path d="M1226.1 709.384C1225.08 696.876 1224.94 684.503 1228.43 672.183C1240.32 630.232 1289.01 612.733 1325.21 637.506C1351.33 655.381 1364.48 682.06 1373.66 710.86C1382.08 737.27 1388.31 764.969 1407.85 785.636C1426.26 805.122 1446.63 822.917 1473.17 831.533C1476.98 832.767 1480.18 835.961 1483.69 838.269C1481.3 840.766 1479.51 842.483 1476.42 842.483C1410.53 842.698 1346.01 836.552 1287.99 801.203C1266.68 788.213 1249.07 771.357 1237.88 748.543C1236.73 746.181 1235.22 743.9 1236.43 741.082C1242.42 733.352 1241.99 723.555 1244.64 714.778C1246.58 708.39 1245.05 703.398 1237.05 700.553C1226.9 696.957 1229.7 706.539 1226.1 709.41L1226.1 709.384Z" fill="#4E7F37"/>
<path d="M1594.7 45.4149C1611.5 53.5474 1619.68 68.712 1626.69 84.7891C1637.69 110.046 1637.5 136.805 1637.24 163.618C1636.89 197.491 1645.47 228.759 1666.17 256.136C1677.81 271.542 1692.09 284.157 1709.05 296.396C1698.94 298.57 1691.56 293.766 1684.28 291.457C1627.06 273.421 1573.04 249.265 1532.19 203.207C1506.77 174.542 1493.95 141.1 1499.18 102.074C1499.61 98.9338 1499.53 95.7936 1502.56 93.8074C1535.03 81.0316 1566.01 65.3302 1594.72 45.4149L1594.7 45.4149Z" fill="#4E7F37"/>
<path d="M1546.68 313.547C1596.5 299.966 1646.63 298.892 1697.01 306.917C1697.17 308.179 1697.33 309.413 1697.49 310.675C1689.68 313.386 1681.76 315.801 1674.11 318.861C1632.73 335.448 1603.29 364.06 1588.26 406.36C1580.5 428.207 1569.28 448.042 1555.62 466.535C1529.1 502.393 1487.24 509.747 1455.11 484.464C1435.47 469.004 1427.55 426.651 1440.62 406.95C1445.18 406.118 1448.43 403.058 1452 400.455C1474.54 383.921 1494.83 364.731 1515.44 345.97C1525.7 336.629 1537.56 328.309 1543.41 314.862C1543.76 314.54 1544.19 314.325 1544.67 314.271C1545.72 315.077 1546.44 314.996 1546.68 313.574L1546.68 313.547Z" fill="#4E7F37"/>
<path d="M986.11 1097.89C956.883 1072.02 941.21 1038.42 932.407 1001.35C920.759 952.286 918.907 902.551 924.785 852.521C925.053 850.16 924.167 847.127 928.703 844.765C931.199 851.394 933.776 857.728 936.03 864.17C952.455 911.086 983.373 944.422 1029.91 962.163C1056.72 972.389 1083.02 983.125 1105.08 1001.99C1113.16 1008.89 1121 1016.27 1124.52 1026.85C1096.44 1054.14 1061.5 1069.2 1025.56 1082.57C1012.36 1087.48 997.919 1089.22 986.137 1097.84L986.11 1097.89Z" fill="#4E7F37"/>
<path d="M1355.62 512.056C1389.01 513.881 1423.28 525.449 1446.5 558.972C1469.39 592.012 1462.06 630.554 1430.07 647.598C1414.1 656.106 1397.52 655.623 1380.8 650.121C1357.88 642.552 1338.23 629.293 1321.83 612.088C1306.77 596.28 1288.82 584.309 1269.95 575.13C1253.04 566.917 1232.86 567.856 1213.75 568.634C1208.87 568.822 1203.96 569.493 1199.07 569.52C1196.87 569.52 1194.72 568.285 1194.27 565.736C1193.84 563.374 1196.15 563.052 1197.44 562.032C1225.86 539.191 1310.69 511.411 1355.62 512.082L1355.62 512.056Z" fill="#4E7F37"/>
<path d="M1175.88 972.362C1183.96 953.735 1191.77 935.001 1200.15 916.508C1216.62 880.032 1220.68 840.363 1230.04 802.035C1258.33 825.896 1289.68 844.335 1325.08 855.581C1324.51 860.842 1327.76 863.096 1331.81 865.673C1352.86 878.986 1373.66 892.701 1394.54 906.255C1325.53 941.067 1253.55 966.055 1175.91 972.362L1175.88 972.362Z" fill="#4E7F37"/>
<path d="M1180.37 154.761C1181.23 154.01 1182.06 153.231 1182.92 152.48L1182.62 152.56C1211.04 131.705 1244.78 130.363 1273.52 148.937C1299.66 165.819 1310.64 196.793 1302.56 230.96C1269.12 226.961 1250.25 251.573 1229.19 270.093C1220.25 277.957 1213.41 280.265 1203.39 276.159C1188.5 270.066 1179.27 258.042 1172.66 244.273C1166.17 230.718 1161.28 216.386 1155.7 202.402C1155.84 200.148 1155.97 197.92 1156.11 195.665C1160 189.331 1163.03 182.675 1163.7 175.159C1164.59 173.817 1165.5 172.449 1166.38 171.107C1170.76 170.114 1172.61 167.376 1172.21 162.974L1172.13 163.108C1174.46 162.625 1175.56 161.176 1175.56 158.814L1176.02 158.384C1178.46 158.384 1179.96 157.23 1180.34 154.761L1180.37 154.761Z" fill="#4E7F37"/>
<path d="M1752.08 193.626C1748.37 233.805 1755.3 271.784 1776.18 306.729C1777.87 309.548 1781.57 312.822 1777.71 316.016C1775.61 317.734 1771.99 318.351 1768.91 316.472C1722.39 288.183 1676.93 258.605 1659.57 202.644C1650.87 174.65 1653.9 147.729 1674.14 124.861C1687.91 109.294 1710.77 103.443 1728.89 110.341C1748.21 117.722 1750.28 135.302 1751.81 152.185C1753.04 165.9 1752.05 179.83 1752.05 193.652L1752.08 193.626Z" fill="#4E7F37"/>
<path d="M1007.85 401.179C984.5 397.798 961.876 403.729 938.956 406.225C909.594 409.419 880.985 407.916 858.521 384.673C843.304 368.918 842.364 336.871 856.428 320.015C880.206 291.592 926.046 283.432 963.191 301.147C968.719 303.804 973.899 307.186 979.24 310.245C978.193 314.942 980.501 318.861 982.112 322.994C992.122 348.573 1001.6 374.313 1007.82 401.153L1007.85 401.179Z" fill="#4E7F37"/>
<path d="M1155.33 473.406C1136.43 465.998 1124.17 450.404 1111.9 435.749C1084.74 403.273 1071.56 366.556 1086.14 324.229C1099.8 284.506 1142.28 271.086 1172.77 296.664C1187 308.581 1191.4 325.356 1193.06 343.071C1192.39 344.225 1191.59 345.325 1191.02 346.533C1172.37 386.927 1162.55 429.818 1155.3 473.433L1155.33 473.406Z" fill="#4E7F37"/>
<path d="M997.409 672.398C1002.59 651.704 1008.82 631.199 1012.68 610.236C1017.94 581.813 1021.56 553.094 1021.62 524.026C1021.64 508.271 1047.17 485.752 1062.68 487.443C1070.49 488.302 1075.32 493.402 1078.73 500.085C1086.3 514.874 1090.81 530.79 1094.35 546.84C1097.73 562.22 1103.1 576.606 1110.96 590.16C1108.44 612.491 1094.56 627.817 1078.78 641.8C1060.37 658.092 1036.86 664.024 1014.56 672.049C1009.73 673.794 1003.15 671.002 997.382 672.344L997.409 672.398Z" fill="#4E7F37"/>
<path d="M1207.53 780.349C1181.98 796.211 1153.58 798.009 1125.08 794.547C1075.51 788.535 1034.79 765.989 1005.51 724.655C1001.41 718.858 997.409 712.873 996.818 705.411C1027.01 687.777 1058.28 691.991 1089.3 701.895C1125.29 713.41 1155.84 734.023 1183.53 759.628C1191.21 766.714 1200.2 772.619 1207.53 780.322L1207.53 780.349Z" fill="#4E7F37"/>
<path d="M867.485 978.804C829.375 1004.09 787.829 1017.61 741.935 1011.41C719.525 1008.38 696.847 1004.22 677.872 989.513C654.469 971.342 652.725 946.408 674.759 926.573C682.086 919.997 688.419 910.979 700.121 911.301C717.083 940.423 742.177 946.837 775.107 937.041C778.623 938.758 782.488 939.966 785.548 942.274C806.803 958.164 831.307 960.392 856.562 959.801C859.675 966.431 868.746 969.678 867.485 978.831L867.485 978.804Z" fill="#4E7F37"/>
<path d="M608.415 753.67C642.043 751.281 674.813 753.401 707.18 763.976C735.924 773.37 756.911 790.387 768.157 818.461C773.819 832.606 774.088 847.771 767.942 861.62C754.898 890.903 715.339 893.077 696.579 865.754C688.044 853.353 679.939 840.551 676.021 825.628C667.218 791.917 645.72 769.854 613.38 757.803C611.635 757.159 608.71 757.454 608.415 753.643L608.415 753.67Z" fill="#4E7F37"/>
<path d="M1802.75 319.505C1794.32 315.909 1793.62 309.011 1791.05 303.938C1774.33 270.952 1762.17 236.596 1764.58 198.833C1766.19 173.683 1775.37 152.023 1796.66 136.966C1815.58 123.6 1837.91 123.197 1852.53 135.597C1867.45 148.266 1870.25 171.241 1859.75 192.149C1854.47 202.671 1847.59 212.172 1838.95 219.821C1809.19 246.125 1794.08 277.662 1802.75 319.478L1802.75 319.505Z" fill="#4E7F37"/>
<path d="M567.459 1039.06C544.163 1035.19 520.572 1039.97 497.035 1031.49C481.066 1025.75 463.863 1023.01 449.504 1013.27C424.867 996.572 410.535 974.268 414.722 943.187C416.735 928.318 424.249 916.991 439.198 912.75C453.798 908.617 467.54 910.737 478.785 922.064C491.453 934.84 498.135 950.702 502.322 967.826C509.247 996.142 524.249 1018.12 550.739 1031.76C556.187 1034.58 562.601 1034.07 567.459 1039.03L567.459 1039.06Z" fill="#4E7F37"/>
<path d="M649.182 939.859C636.487 991.043 589.923 1019.82 551.436 1009.16C523.256 1001.35 510.669 969.329 528.007 945.549C543.492 924.345 565.741 914.146 591.694 911.811C609.031 924.909 631.066 928.344 649.182 939.859Z" fill="#4E7F37"/>
<path d="M1407.42 715.127C1406.86 700.016 1412.12 687.187 1421.86 675.834C1431.76 664.319 1444.32 661.635 1458.25 665.205C1472.07 668.748 1479.69 679.027 1483.8 692.045C1488.52 706.995 1487.61 722.213 1483.69 737.029C1476.58 763.923 1478.76 789.152 1494.4 812.745C1495.93 815.053 1499.29 817.844 1496.23 820.931C1494.03 823.185 1491.07 821.307 1488.9 820.045C1455.41 800.828 1425.37 778.228 1411.42 740.089C1410.05 736.331 1408.92 732.412 1408.3 728.467C1407.63 724.065 1407.66 719.556 1407.39 715.1L1407.42 715.127Z" fill="#4E7F37"/>
<path d="M759.595 1126.42C742.714 1132.46 718.774 1118.64 710.803 1098.21C699.96 1070.49 711.125 1048.64 739.279 1037.29C758.844 1029.42 778.704 1025.61 799.423 1023.36C821.511 1020.94 842.15 1013.43 860.132 999.524C864.56 996.089 868.559 991.392 874.866 990.962C882.112 993.083 880.985 1001.22 885.252 1005.48C885.413 1019.12 877.657 1029.56 871.055 1040.43C869.176 1039.11 867.137 1038.01 864.855 1039.11C826.745 1057.31 786.138 1067.56 745.29 1077.17C730.69 1080.61 730.234 1082.49 739.01 1095.29C746.042 1105.54 754.55 1114.83 759.622 1126.4L759.595 1126.42Z" fill="#4E7F37"/>
<path d="M986.11 1097.89C997.865 1089.25 1012.33 1087.51 1025.54 1082.62C1061.47 1069.25 1096.42 1054.2 1124.49 1026.9C1151.54 1063.32 1129.91 1117.22 1084.5 1127.09C1066.63 1130.99 1050.2 1126.67 1032.76 1122.61C1014.24 1118.32 999.798 1109.68 986.137 1097.92L986.11 1097.89Z" fill="#4E7F37"/>
<path d="M1164.88 617.108C1189.79 617.188 1210.96 636.674 1211.34 659.783C1211.79 688.26 1191.77 708.981 1164.13 708.686C1138.82 708.417 1117.97 687.402 1118.21 662.36C1118.45 637.103 1139.17 617 1164.88 617.108Z" fill="#4E7F37"/>
<path d="M549.585 825.01C549.773 799.646 569.257 779.919 594.19 779.865C621.834 779.785 641.882 799.62 641.614 826.728C641.345 853.488 622.532 872.276 596.015 872.276C567.728 872.276 549.37 853.622 549.585 825.01Z" fill="#4E7F37"/>
<path d="M968.022 1099.37C941.8 1109.43 914.13 1113.41 886.755 1118.67C883.776 1119.26 880.958 1120.81 878.086 1121.94C871.055 1078.33 881.844 1037.34 897.222 997.27C900.926 987.607 903.556 976.952 912.922 967.209C915.365 982.481 917.673 996.062 919.713 1009.7C922.45 1027.95 929.025 1044.8 936.755 1061.44C942.606 1074.03 955.005 1080.12 962.761 1090.65C964.801 1093.41 968.585 1095.05 968.022 1099.37Z" fill="#4E7F37"/>
<path d="M1321.27 1073.17C1307.45 1069.28 1303.82 1057.36 1300.84 1045.77C1295.45 1024.78 1299.64 1004.76 1311.2 986.829C1333.75 951.883 1367.67 933.283 1407.07 922.467C1388.95 944.717 1375.32 968.98 1368.83 996.84C1363.83 998.612 1361.9 1003.42 1359.06 1007.17C1343.7 1027.57 1333.32 1050.84 1321.24 1073.15L1321.27 1073.17Z" fill="#4E7F37"/>
<path d="M759.595 1126.42C754.549 1114.86 746.015 1105.57 738.983 1095.32C730.207 1082.51 730.636 1080.63 745.263 1077.2C786.111 1067.59 826.718 1057.34 864.828 1039.14C867.109 1038.04 869.149 1039.14 871.028 1040.46C873.255 1050.55 863.701 1054.73 859.89 1061.71C848.886 1081.84 833.991 1098.94 815.177 1112.39C803.368 1120.81 790.244 1126.32 776.02 1128.81C770.545 1129.78 764.426 1131.39 759.595 1126.4L759.595 1126.42Z" fill="#4E7F37"/>
<path d="M1549.53 738.29C1572.15 738.505 1591.56 757.105 1591.18 780.698C1590.81 805.337 1571 821.924 1542.71 821.092C1524.22 820.555 1505.22 799.673 1507.58 779.731C1510.53 755.012 1523.82 737.888 1549.5 738.317L1549.53 738.29Z" fill="#4E7F37"/>
<path d="M795.531 853.3C829.348 845.489 862.949 840.846 893.84 862.506C905.837 870.934 911.231 883.575 911.097 898.445C910.99 910.174 906.723 919.353 895.531 924.184C884.983 928.747 874.919 928.398 865.311 921.151C856.213 914.307 848.725 905.906 844.135 895.734C834.366 874.02 818.639 859.902 795.504 853.273L795.531 853.3Z" fill="#4E7F37"/>
<path d="M1192.07 980.951C1211.55 981.112 1229.75 1000.01 1229.53 1019.84C1229.32 1041.5 1213.08 1057.28 1190.99 1057.31C1170.11 1057.34 1151.84 1040.27 1153.31 1020.3C1155.25 994.505 1170.97 980.199 1192.04 980.951L1192.07 980.951Z" fill="#4E7F37"/>
<path d="M789.976 927.969C771.43 919.219 762.305 896.834 770.035 879.093C776.503 864.224 798.618 859.258 813.271 869.833C820.491 875.04 827.657 881.213 831.441 889.185C842.015 911.408 855.434 930.009 883.642 934.759C866.572 943.455 846.014 944.636 835.601 938.705C817.136 917.367 816.734 917.26 792.633 927.647C791.854 927.996 790.888 927.888 790.003 927.996L789.976 927.969Z" fill="#4E7F37"/>
<path d="M1007.85 401.179C1001.65 374.366 992.149 348.6 982.138 323.021C980.528 318.888 978.22 314.969 979.267 310.272C1028.73 340.091 1054.15 388.108 1077.39 437.816C1064.77 424.181 1028.97 404.695 1007.85 401.179Z" fill="#4E7F37"/>
<path d="M1155.33 473.406C1162.57 429.791 1172.4 386.901 1191.05 346.506C1191.61 345.298 1192.39 344.198 1193.09 343.044C1197.73 366.422 1190.46 388.94 1188.12 411.808C1184.55 446.646 1194.99 476.6 1218.15 502.501C1220.41 505.024 1225.24 507.359 1222.69 511.009C1220.49 514.176 1216.73 511.009 1213.38 509.989C1191.61 503.52 1175.16 488.866 1157.9 475.392L1157.98 475.204C1157.1 474.587 1156.21 473.996 1155.35 473.379L1155.33 473.406Z" fill="#4E7F37"/>
<path d="M1394.51 906.255C1373.63 892.674 1352.83 878.986 1331.79 865.673C1327.74 863.123 1324.52 860.842 1325.05 855.581C1343.44 858.99 1361.82 862.399 1380.18 865.807C1380.02 866.559 1379.8 867.31 1379.75 868.089C1379.75 868.223 1380.39 868.518 1380.74 868.518C1395.91 868.518 1411.07 868.518 1426.23 868.518C1426.26 868.277 1426.29 868.035 1426.31 867.82C1422.1 867.203 1417.89 866.586 1413.67 865.968C1435.47 861.996 1457.88 861.406 1478.92 853.434C1481.31 852.521 1483.56 853.434 1484.55 855.662C1485.98 858.829 1482.57 859.017 1481.06 859.929C1465.36 869.216 1449.72 878.637 1433.72 887.387C1424.86 892.218 1415.31 895.922 1408.12 903.249C1404.04 907.409 1399.42 906.953 1394.54 906.255L1394.51 906.255Z" fill="#4E7F37"/>
<path d="M1155.7 202.429C1161.28 216.413 1166.14 230.745 1172.66 244.299C1179.27 258.068 1188.5 270.066 1203.39 276.185C1213.4 280.292 1220.25 277.984 1229.19 270.12C1250.25 251.573 1269.12 226.988 1302.56 230.987C1300.74 254.687 1279.05 275.434 1256.53 282.949C1230.85 291.538 1208.28 290.303 1186.16 275.327C1161.79 258.793 1149.56 229.43 1155.7 202.429Z" fill="#4E7F37"/>
<path d="M649.182 939.859C631.093 928.345 609.032 924.909 591.694 911.811C617.647 901.048 640.621 886.662 654.04 860.654C656.831 855.259 659.542 849.811 663.675 844.738C663.487 877.241 663.702 909.637 649.182 939.859Z" fill="#4E7F37"/>
<path d="M1594.7 45.4149C1565.95 65.3302 1535.01 81.0316 1502.53 93.8075C1503.63 70.3224 1515.5 52.3933 1535.47 42.2209C1554.65 32.4511 1575.75 30.1429 1594.7 45.388L1594.7 45.4149Z" fill="#4E7F37"/>
<path d="M1543.41 314.862C1537.53 328.309 1525.67 336.602 1515.44 345.97C1494.86 364.758 1474.54 383.921 1452 400.455C1448.43 403.085 1445.18 406.118 1440.62 406.95C1439.01 391.249 1447.95 379.439 1456.56 368.381C1478.73 339.93 1508.01 322.216 1543.41 314.862Z" fill="#4E7F37"/>
<path d="M702.805 1039.01C686.729 1051.41 654.871 1048.13 643.975 1032.67C638.554 1024.97 636.165 1016.43 642.15 1007.95C648.055 999.578 656.509 998.477 665.875 1001.19C676.664 1004.3 685.897 1009.7 692.553 1018.96C690.674 1028.32 696.471 1033.8 702.805 1038.98L702.805 1039.01Z" fill="#4E7F37"/>
<path d="M1321.27 1073.17C1333.34 1050.87 1343.7 1027.6 1359.08 1007.2C1361.9 1003.44 1363.83 998.639 1368.85 996.867C1369.5 1017.37 1368.48 1037.69 1359.97 1056.72C1352.21 1074.06 1338.39 1079.64 1321.29 1073.17L1321.27 1073.17Z" fill="#4E7F37"/>
<path d="M1230.98 625.75C1218.34 625.723 1208.49 616.275 1208.36 604.09C1208.2 591.18 1217.51 581.035 1229.45 581.115C1242.44 581.196 1252.45 591.261 1252.37 604.117C1252.29 615.309 1241.93 625.804 1230.98 625.777L1230.98 625.75Z" fill="#4E7F37"/>
<path d="M1406.02 458.939C1418.56 458.939 1427.55 468.092 1427.79 481.082C1428.03 493.321 1418.15 503.333 1406.02 503.172C1393.97 503.011 1384.02 492.919 1383.96 480.894C1383.91 468.602 1393.6 458.939 1406.02 458.939Z" fill="#4E7F37"/>
<path d="M1609.54 436.984C1621.4 436.957 1630.5 445.895 1630.82 457.919C1631.12 470.319 1621.78 480.062 1609.54 480.089C1596.95 480.116 1588.09 470.883 1588.31 457.919C1588.5 446.029 1597.62 437.038 1609.54 437.011L1609.54 436.984Z" fill="#4E7F37"/>
<path d="M775.107 937.041C742.177 946.837 717.083 940.396 700.121 911.301C708.79 905.584 718.291 907.382 727.04 909.744C745.263 914.656 763.03 921.017 775.107 937.041Z" fill="#4E7F37"/>
<path d="M1443.17 923.862C1443.92 935.833 1444.78 947.777 1445.37 959.747C1445.66 965.464 1443.6 970.591 1436.99 967.37C1429.56 963.747 1421.37 964.122 1413.99 961.009C1422.05 947.32 1430.88 934.249 1443.17 923.862Z" fill="#4E7F37"/>
<path d="M1226.1 709.384C1229.7 706.512 1226.9 696.93 1237.05 700.526C1245.05 703.371 1246.58 708.39 1244.64 714.752C1241.99 723.528 1242.42 733.325 1236.43 741.055C1236.43 741.055 1235.98 740.303 1235.98 740.276C1235.36 739.928 1234.74 739.552 1234.12 739.203C1228.57 730.024 1225.94 720.066 1226.1 709.357L1226.1 709.384Z" fill="#4E7F37"/>
<path d="M867.485 978.804C868.746 969.651 859.702 966.404 856.562 959.774C867.324 955.856 879.106 955.372 889.546 950.246C891.371 949.36 894.162 949.28 895.236 951.91C896.229 954.353 894.645 955.587 892.713 957.171C884.125 964.176 875.858 971.53 867.485 978.777L867.485 978.804Z" fill="#4E7F37"/>
<path d="M789.976 927.969C790.862 927.861 791.828 927.969 792.606 927.62C816.707 917.233 817.109 917.34 835.574 938.678C818.747 942.033 803.69 937.792 789.976 927.969Z" fill="#4E7F37"/>
<path d="M885.226 1005.51C880.958 1001.24 882.085 993.11 874.839 990.989C879.455 980.763 888.876 974.858 897.92 964.122C899.691 981.971 892.311 993.7 885.226 1005.54L885.226 1005.51Z" fill="#4E7F37"/>
<path d="M1419.09 386.578C1410.77 377.533 1404.71 367.039 1400.49 354.531C1409.59 360.517 1418.69 366.529 1427.79 372.514C1424.89 377.211 1421.99 381.881 1419.09 386.578Z" fill="#4E7F37"/>
<path d="M702.805 1039.01C696.498 1033.83 690.701 1028.35 692.553 1018.98C697.115 1020.49 701.651 1021.96 706.214 1023.47C710.427 1024.86 717.513 1022.58 718.022 1028.62C718.452 1033.66 712.038 1035.36 707.77 1037.4C706.214 1038.15 704.469 1038.5 702.805 1039.01Z" fill="#4E7F37"/>
<path d="M1413.7 865.995C1417.91 866.613 1422.13 867.23 1426.34 867.847C1426.31 868.089 1426.29 868.33 1426.26 868.545C1411.1 868.545 1395.93 868.545 1380.77 868.545C1380.42 868.545 1379.78 868.223 1379.78 868.116C1379.83 867.337 1380.04 866.586 1380.2 865.834C1391.37 865.888 1402.53 865.942 1413.7 865.995Z" fill="#4E7F37"/>
<path d="M1894.29 98.9607C1893.68 102.208 1893.06 105.456 1892.47 108.704C1892.17 108.677 1891.88 108.65 1891.58 108.596C1891.58 96.9746 1891.58 85.3796 1891.58 73.7579C1891.58 73.4627 1891.9 73.1406 1892.09 72.8454C1892.95 73.57 1893.81 74.2947 1894.67 75.0194C1894.53 82.9909 1894.4 90.9623 1894.27 98.9607L1894.29 98.9607Z" fill="#4E7F37"/>
<path d="M1163.73 175.16C1163.03 182.675 1160 189.331 1156.13 195.665C1155.92 187.801 1158.71 181.064 1163.73 175.16Z" fill="#4E7F37"/>
<path d="M1172.21 162.974C1172.64 167.376 1170.76 170.14 1166.38 171.107C1167.14 167.537 1168.69 164.558 1172.21 162.974Z" fill="#4E7F37"/>
<path d="M1175.56 158.841C1175.56 161.203 1174.46 162.652 1172.13 163.135C1172.07 160.746 1173.28 159.378 1175.56 158.841Z" fill="#4E7F37"/>
<path d="M1180.37 154.761C1179.99 157.257 1178.49 158.358 1176.05 158.384C1176.66 156.184 1178.03 154.895 1180.37 154.761Z" fill="#4E7F37"/>
<path d="M1234.12 739.23C1234.74 739.579 1235.36 739.928 1235.98 740.303C1234.71 741.082 1234.23 740.491 1234.12 739.23Z" fill="#4E7F37"/>
<path d="M1157.98 475.231L1157.9 475.419L1157.34 475.365L1157.98 475.231Z" fill="#4E7F37"/>
<path d="M1182.59 152.56L1182.92 152.48L1182.62 152.238L1182.59 152.56Z" fill="#4E7F37"/>
<path d="M1546.68 313.547C1546.44 314.996 1545.69 315.05 1544.67 314.245L1545.53 313.413L1546.71 313.52L1546.68 313.547Z" fill="#4E7F37"/>
</g>
</g>
<defs>
<clipPath id="clip0_303_893">
<rect width="1920" height="1080" fill="white"/>
</clipPath>
</defs>
</svg>
