<svg width="1920" height="1080" viewBox="0 0 1920 1080" fill="none" xmlns="http://www.w3.org/2000/svg">
<g clip-path="url(#clip0_247_1286)">
<rect width="1920" height="1080" fill="#F1B71C"/>
<g opacity="0.1" clip-path="url(#clip1_247_1286)">
<path d="M1780.33 576.354C1790.99 562.907 1806.23 554.802 1818.68 543.368C1839.14 524.634 1857.36 504.02 1875.5 483.139C1902.55 452.004 1919.41 415.099 1937.85 378.973C1938.84 377.013 1940.24 375.242 1942.84 375.215L1942.84 807.232C1940.34 808.413 1938.46 810.158 1937.79 812.922C1931.43 838.823 1920.13 862.845 1908.16 886.384C1874.43 952.652 1832.35 1012.4 1770.54 1056.07C1734.52 1081.51 1696.03 1101.59 1652.98 1112.22C1651.67 1108.57 1648.5 1106.9 1645.55 1104.83C1614.82 1083.09 1599.58 1054.97 1604.06 1015.86C1609.59 967.601 1615.6 920.256 1634.31 874.305C1652.61 829.295 1674.88 787.612 1705 749.66C1712.65 740.025 1723.38 732.912 1727.68 720.297C1737.18 692.464 1747.59 664.953 1757.6 637.281C1764.98 616.91 1776.47 598.068 1780.33 576.381L1780.33 576.354Z" fill="#782F11"/>
<path d="M1780.33 576.354C1776.47 598.041 1764.98 616.883 1757.6 637.254C1747.59 664.926 1737.18 692.437 1727.68 720.271C1723.38 732.885 1712.62 739.998 1705 749.634C1674.89 787.585 1652.61 829.268 1634.31 874.279C1615.63 920.202 1609.61 967.548 1604.06 1015.83C1599.58 1054.94 1614.79 1083.07 1645.55 1104.81C1648.48 1106.87 1651.67 1108.57 1652.99 1112.19C1650.35 1113.4 1647.7 1114.6 1645.04 1115.81C1595.85 1115.81 1546.68 1115.81 1497.48 1115.81C1483.61 1108.16 1467.99 1105.08 1453.71 1097.96C1429.05 1085.67 1410.37 1067.85 1394.18 1046.16C1344.1 979.116 1340.86 887.269 1386.72 817.27C1387.66 815.848 1389.14 814.774 1390.37 813.513C1397.73 816.626 1405.94 816.25 1413.37 819.874C1419.97 823.095 1422.04 817.968 1421.75 812.251C1421.16 800.281 1420.3 788.337 1419.55 776.366C1447.46 742.44 1483.29 718.499 1520.56 696.437C1566.03 669.516 1615.01 650.594 1664.69 633.309C1701.94 620.345 1736.59 602.148 1769.79 581.051C1773.09 578.958 1775.82 575.603 1780.39 576.381L1780.33 576.354Z" fill="#782F11"/>
<path d="M1942.81 305.458C1925.74 336.619 1910.82 368.935 1891.9 399.103C1868.15 437.001 1842.38 473.611 1810.87 505.309C1780.41 535.96 1746.46 561.726 1705.19 578.502C1672.39 591.841 1639.75 601.906 1604.84 598.524C1558.03 593.988 1514.18 581.4 1480.33 544.737C1441.39 502.544 1445.01 421.729 1499.58 380.717C1502.31 378.651 1505.94 377.711 1509.1 376.262C1519.3 384.099 1529.02 392.688 1539.81 399.613C1580.55 425.809 1625.31 442.02 1672.2 453.642C1717.48 464.861 1763.8 465.398 1809.77 469.585C1814.61 470.014 1819.73 470.605 1821.66 464.002C1833.82 422.534 1845.74 381.013 1846.78 337.344C1848.1 334.928 1849.9 333.291 1852.53 332.137C1882.94 318.663 1909.56 299.66 1933.74 276.981C1936.02 274.833 1937.71 269.277 1942.84 273.277L1942.84 305.485L1942.81 305.458Z" fill="#782F11"/>
<path d="M1065.49 1115.81C1060.13 1102.79 1051.78 1091.15 1051.03 1076.14C1049.69 1049.62 1061.01 1029.04 1079.34 1011.57C1097.38 994.388 1118.79 982.095 1142.01 973.775C1182.59 959.2 1212.22 931.824 1232.48 895.106C1241.74 878.331 1247.16 858.765 1248.29 838.259C1258.41 865.556 1261.49 937.245 1254.11 986.47C1246.6 1036.63 1227.97 1081.46 1188.9 1115.81L1065.47 1115.81L1065.49 1115.81Z" fill="#782F11"/>
<path d="M1942.81 214.229C1937.93 213.853 1934.52 217.127 1930.71 219.274C1893.03 240.639 1847.91 233.768 1822.74 202.795C1794.56 168.091 1795.93 122.865 1826.15 89.3418C1848.48 64.5685 1892.89 57.3754 1923.86 73.211C1930.14 76.4318 1935.43 81.6925 1942.81 82.7661L1942.81 214.255L1942.81 214.229Z" fill="#782F11"/>
<path d="M459.134 1115.81C471.963 1080.62 486.161 1046.03 504.411 1013.23C531.276 964.89 562.086 919.209 597.057 876.372C597.486 875.835 598.694 875.916 599.767 875.647C597.218 895.751 587.529 913.707 583.369 933.139C569.628 997.179 577.948 1058.16 609.402 1115.81L459.161 1115.81L459.134 1115.81Z" fill="#782F11"/>
<path d="M1942.81 981.639C1942.81 1023.67 1942.65 1065.73 1943 1107.76C1943.05 1114.47 1941.5 1116.11 1934.76 1116C1907.04 1115.57 1879.31 1115.81 1851.59 1115.81C1847.62 1104.4 1841.47 1093.8 1836.64 1082.88C1819.19 1043.53 1858 985.235 1900.54 980.216C1915.03 978.498 1928.75 981.397 1942.84 981.639L1942.81 981.639Z" fill="#782F11"/>
<path d="M636.214 1115.81C614.18 1096.35 606.236 1070 601.324 1042.54C596.332 1014.63 597.701 986.524 600.841 958.476C601.271 954.745 602.908 951.739 605.431 947.82C608.41 956.919 610.422 965.723 614.072 973.801C625.935 1000.13 645.742 1018.44 672.392 1029.49C684.577 1034.54 696.466 1039.94 707.121 1048.09C730.095 1065.67 740.239 1087.17 730.121 1115.79L636.214 1115.79L636.214 1115.81Z" fill="#782F11"/>
<path d="M1942.81 29.0861C1913.34 22.054 1892.84 -5.24238 1891.23 -39.2219C1889.91 -66.7866 1897.7 -92.1772 1909.43 -116.548C1918.85 -136.088 1929.47 -154.956 1942.81 -172.161L1942.81 29.0861Z" fill="#782F11"/>
<path d="M1261.66 1060.98C1268.47 1026.92 1279.58 993.583 1279.21 958.019C1308.76 1006.76 1326.15 1058.7 1325.75 1115.84L1264.04 1115.84C1263.27 1097.56 1267.48 1079.07 1261.68 1061L1261.66 1060.98Z" fill="#782F11"/>
<path d="M1344.5 1115.81C1338.47 1097.53 1334.95 1078.93 1336.72 1059.58C1349.55 1040.9 1356.1 1041.79 1369.17 1057.46C1388.39 1080.52 1411.6 1098.58 1435.73 1115.81L1344.5 1115.81Z" fill="#782F11"/>
<path d="M1728.19 1115.81C1729.15 1094.42 1751.94 1073.32 1774.54 1072.92C1800.92 1072.44 1823.27 1091.55 1824.78 1115.81L1728.19 1115.81Z" fill="#782F11"/>
<path d="M1942.81 251.778C1914.93 271.559 1887.34 291.769 1856.82 307.444C1855.29 308.222 1853.55 308.652 1851.91 309.242C1851.43 288.039 1845.07 264.849 1871.21 252.744C1895.52 251.59 1920.05 251.67 1942.81 241.042L1942.81 251.778Z" fill="#782F11"/>
<path d="M1942.81 957.483C1923.81 952.544 1912.43 936.064 1910.85 915.424C1909.13 893.04 1923.41 871.756 1942.81 866.253L1942.81 957.483Z" fill="#782F11"/>
<path d="M1435.73 1115.81C1411.6 1098.58 1388.39 1080.52 1369.17 1057.46C1356.1 1041.79 1349.55 1040.9 1336.72 1059.58C1334.41 1039.72 1339.19 1020.5 1342.44 1001.18C1342.81 998.924 1343.03 995.435 1346.54 995.166C1350.36 994.871 1350.09 998.467 1351.03 1000.72C1355.13 1010.6 1358.73 1020.72 1363.26 1030.41C1374.43 1054.29 1391.55 1073.24 1413.32 1087.9C1424.48 1095.41 1434.33 1104.03 1441.1 1115.81L1435.73 1115.81Z" fill="#782F11"/>
<path d="M1261.65 1060.98C1267.45 1079.04 1263.26 1097.53 1264.02 1115.81L1221.1 1115.81C1234.33 1102.61 1244.8 1087.42 1253.71 1071.1C1255.8 1067.29 1256.56 1062.43 1261.65 1060.98Z" fill="#782F11"/>
<path d="M973.733 524.875C922.794 530.565 874.35 517.306 825.129 507.187C751.484 492.023 683.422 508.959 622.07 552.413C606.53 563.417 592.172 575.925 577.438 591.143C578.162 577.804 585.919 570.261 590.669 561.619C638.656 474.469 695.929 394.486 777.571 335.545C836.83 292.762 902.719 269.948 976.739 286.67C1019.79 296.386 1055.99 318.529 1080.58 356.615C1096.92 381.898 1097.83 409.436 1091.34 437.86C1090.83 440.141 1089.81 442.02 1087.34 442.691C1079.48 429.137 1074.14 414.75 1070.73 399.371C1067.18 383.321 1062.68 367.405 1055.11 352.616C1051.7 345.932 1046.84 340.833 1039.06 339.974C1023.54 338.283 998.022 360.775 997.995 376.557C997.941 405.625 994.291 434.344 989.057 462.767C985.193 483.702 978.966 504.208 973.786 524.929L973.733 524.875Z" fill="#782F11"/>
<path d="M1183.85 632.826C1191.37 640.046 1198.88 647.292 1206.37 654.512C1197 692.84 1192.92 732.51 1176.47 768.985C1168.12 787.478 1160.29 806.212 1152.21 824.839C1085.14 828.221 1021.88 817.297 969.52 771.562C930.416 737.394 907.845 694.853 909.268 641.2C910.073 610.522 946.197 560.868 973.143 557.915C973.707 565.377 977.732 571.362 981.839 577.159C1011.12 618.493 1051.83 641.039 1101.4 647.051C1129.88 650.513 1158.3 648.688 1183.85 632.853L1183.85 632.826Z" fill="#782F11"/>
<path d="M1565.65 125.012C1547.38 126.247 1530.52 119.993 1513.05 115.699C1483.82 108.479 1453.6 104.641 1425.93 92.1601C1396.97 79.089 1368.9 64.4343 1342.12 46.8004C1312.25 27.0998 1289.35 2.24591 1274.27 -29.5864C1256.48 -67.1893 1253.85 -106.134 1270.43 -144.891C1296.89 -206.731 1374.48 -207.938 1409.4 -162.606C1431.14 -134.37 1441.5 -101.759 1446.87 -67.2161C1450.36 -44.8046 1450.38 -21.8564 1457.12 0.0719292C1474.78 57.5901 1513.24 96.8571 1565.63 125.012L1565.65 125.012Z" fill="#782F11"/>
<path d="M1395.42 239.056C1384.63 262.836 1370.86 284.281 1353.9 304.518C1340.51 320.488 1326.6 334.606 1308.49 344.349C1281.57 358.816 1233.8 357.286 1210.42 333.452C1188.28 310.853 1180.07 270.136 1190.45 239.082C1217 159.663 1279.31 129.978 1354.78 119.269C1421.16 109.848 1486.61 119.027 1551.35 134.165C1553.87 134.755 1556.18 136.124 1559.43 137.493C1553.07 144.552 1544.75 142.593 1537.9 143.72C1483.8 152.738 1440.08 178.531 1407.25 222.603C1406.5 223.623 1405.19 224.213 1404.14 224.991C1395.04 219.006 1385.94 212.994 1376.85 207.009C1381.09 219.516 1387.15 230.01 1395.44 239.056L1395.42 239.056Z" fill="#782F11"/>
<path d="M1870.62 -48.5623C1874.19 -19.2261 1882 8.74125 1900.94 36.628C1890.53 31.6626 1886.93 25.3284 1882.43 20.3361C1836.77 -30.3379 1795.58 -83.9911 1775.1 -150.42C1760.31 -198.437 1759.16 -245.675 1789.43 -288.888C1805.8 -312.266 1828.02 -328.772 1857.47 -330.866C1905.1 -334.221 1942.41 -291.384 1937.04 -241.596C1934.01 -213.521 1924.99 -187.54 1910.45 -163.76C1892.92 -135.121 1876.44 -106.295 1871.05 -72.5304C1870.19 -73.2551 1869.33 -73.9798 1868.47 -74.7044C1868.28 -74.4092 1867.96 -74.0871 1867.96 -73.7919C1867.96 -62.1702 1867.96 -50.5752 1867.96 -38.9535C1868.26 -38.9267 1868.55 -38.8998 1868.85 -38.8461C1869.46 -42.0938 1870.08 -45.3414 1870.67 -48.5891L1870.62 -48.5623Z" fill="#782F11"/>
<path d="M1846.78 337.317C1845.74 380.986 1833.85 422.507 1821.66 463.975C1819.73 470.551 1814.6 469.987 1809.77 469.558C1763.8 465.371 1717.48 464.834 1672.2 453.615C1625.34 441.993 1580.55 425.782 1539.81 399.586C1529.02 392.634 1519.3 384.045 1509.1 376.235C1533.31 358.494 1561.55 352.482 1590.4 348.697C1626.98 343.866 1663.26 347.06 1699.66 352.186C1746.6 358.789 1792.92 356.239 1837.63 338.525C1840.4 337.424 1843.7 337.72 1846.76 337.344L1846.78 337.317Z" fill="#782F11"/>
<path d="M1871.21 252.771C1845.07 264.876 1851.4 288.065 1851.91 309.269C1813.75 330.285 1773.3 343.812 1729.37 343.141C1686.34 342.497 1650.06 326.635 1624.94 290.293C1608.54 266.593 1604.33 241.095 1618.34 214.551C1631.84 188.972 1653.31 176.196 1682.21 175.337C1715.79 174.344 1744.64 188.033 1769.84 207.599C1800.33 231.272 1833.28 247.054 1871.23 252.771L1871.21 252.771Z" fill="#782F11"/>
<path d="M580.632 597.424C611.738 576.462 641.743 561.136 673.466 549.004C703.256 537.597 733.852 529.76 765.817 528.552C816.139 526.646 865.441 546.884 888.199 592.002C903.578 622.439 900.25 647.802 876.766 672.79C860.851 689.726 828.672 694.101 802.773 683.849C777.84 673.971 756.638 658.592 738.012 639.965C695.742 597.773 645.634 584.97 588.12 597.397C586.858 597.665 585.49 597.424 580.605 597.424L580.632 597.424Z" fill="#782F11"/>
<path d="M1202.42 561.861C1201.4 549.353 1201.27 536.98 1204.76 524.66C1216.65 482.709 1265.33 465.21 1301.54 489.983C1327.65 507.858 1340.8 534.537 1349.98 563.337C1358.41 589.747 1364.63 617.446 1384.17 638.113C1402.58 657.599 1422.95 675.394 1449.5 684.01C1453.31 685.244 1456.5 688.438 1460.02 690.746C1457.63 693.243 1455.83 694.96 1452.74 694.96C1386.86 695.175 1322.34 689.029 1264.31 653.68C1243 640.69 1225.4 623.834 1214.2 601.02C1213.05 598.658 1211.55 596.377 1212.75 593.559C1218.74 585.829 1218.31 576.032 1220.97 567.255C1222.9 560.868 1221.37 555.875 1213.37 553.03C1203.23 549.434 1206.02 559.016 1202.42 561.887L1202.42 561.861Z" fill="#782F11"/>
<path d="M1571.02 -102.108C1587.82 -93.9755 1596.01 -78.811 1603.01 -62.7338C1614.02 -37.4773 1613.83 -10.7177 1613.56 16.0955C1613.21 49.9676 1621.8 81.2362 1642.49 108.613C1654.14 124.019 1668.42 136.634 1685.38 148.873C1675.26 151.047 1667.88 146.243 1660.61 143.934C1603.39 125.898 1549.36 101.742 1508.51 55.6845C1483.1 27.0193 1470.27 -6.4234 1475.5 -45.4488C1475.93 -48.5891 1475.85 -51.7293 1478.88 -53.7155C1511.36 -66.4914 1542.33 -82.1928 1571.05 -102.108L1571.02 -102.108Z" fill="#782F11"/>
<path d="M1523.01 166.024C1572.82 152.443 1622.95 151.369 1673.33 159.394C1673.49 160.656 1673.65 161.89 1673.81 163.152C1666 165.863 1658.08 168.278 1650.44 171.338C1609.05 187.925 1579.61 216.537 1564.58 258.837C1556.82 280.684 1545.6 300.519 1531.94 319.012C1505.43 354.87 1463.56 362.224 1431.43 336.941C1411.79 321.481 1403.87 279.128 1416.94 259.427C1421.5 258.595 1424.75 255.535 1428.32 252.932C1450.87 236.398 1471.16 217.208 1491.77 198.447C1502.02 189.106 1513.88 180.786 1519.73 167.339C1520.08 167.017 1520.51 166.802 1520.99 166.748C1522.04 167.554 1522.77 167.473 1523.01 166.051L1523.01 166.024Z" fill="#782F11"/>
<path d="M962.435 950.37C933.208 924.496 917.534 890.893 908.731 853.826C897.083 804.763 895.231 755.028 901.109 704.998C901.377 702.637 900.492 699.604 905.027 697.242C907.523 703.871 910.1 710.205 912.354 716.647C928.779 763.563 959.697 796.899 1006.23 814.64C1033.05 824.866 1059.35 835.602 1081.41 854.471C1089.49 861.368 1097.32 868.75 1100.84 879.324C1072.77 906.621 1037.82 921.678 1001.89 935.044C988.682 939.956 974.243 941.701 962.461 950.316L962.435 950.37Z" fill="#782F11"/>
<path d="M1331.94 364.533C1365.33 366.358 1399.6 377.926 1422.82 411.449C1445.71 444.489 1438.38 483.031 1406.39 500.075C1390.42 508.583 1373.84 508.1 1357.12 502.598C1334.2 495.029 1314.55 481.77 1298.15 464.565C1283.1 448.757 1265.14 436.786 1246.28 427.607C1229.37 419.394 1209.19 420.333 1190.08 421.111C1185.19 421.299 1180.28 421.97 1175.4 421.997C1173.2 421.997 1171.05 420.762 1170.59 418.213C1170.16 415.851 1172.47 415.529 1173.76 414.509C1202.18 391.668 1287.02 363.888 1331.94 364.559L1331.94 364.533Z" fill="#782F11"/>
<path d="M1152.21 824.839C1160.29 806.212 1168.1 787.478 1176.47 768.985C1192.95 732.51 1197 692.84 1206.37 654.512C1234.66 678.373 1266 696.812 1301.4 708.058C1300.84 713.319 1304.09 715.573 1308.14 718.15C1329.18 731.463 1349.98 745.178 1370.86 758.732C1301.86 793.544 1229.88 818.532 1152.24 824.839L1152.21 824.839Z" fill="#782F11"/>
<path d="M1156.69 7.23808C1157.55 6.48656 1158.38 5.70819 1159.24 4.95666L1158.94 5.03718C1187.37 -15.8175 1221.1 -17.1595 1249.85 1.41385C1275.99 18.2962 1286.96 49.2696 1278.89 83.437C1245.44 79.4378 1226.58 104.05 1205.51 122.57C1196.57 130.434 1189.73 132.742 1179.72 128.636C1164.82 122.543 1155.59 110.519 1148.99 96.7496C1142.49 83.1954 1137.61 68.8628 1132.03 54.8791C1132.16 52.6246 1132.29 50.3969 1132.43 48.1424C1136.32 41.8081 1139.35 35.1517 1140.02 27.6365C1140.91 26.2945 1141.82 24.9257 1142.71 23.5837C1147.08 22.5906 1148.93 19.8529 1148.53 15.4511L1148.45 15.5854C1150.79 15.1023 1151.89 13.6529 1151.89 11.291L1152.34 10.8615C1154.78 10.8615 1156.29 9.70737 1156.66 7.23808L1156.69 7.23808Z" fill="#782F11"/>
<path d="M1728.4 46.1026C1724.7 86.2821 1731.62 124.261 1752.5 159.206C1754.19 162.025 1757.9 165.299 1754.03 168.493C1751.94 170.211 1748.31 170.828 1745.23 168.949C1698.72 140.66 1653.25 111.082 1635.89 55.1208C1627.19 27.1266 1630.23 0.206146 1650.46 -22.6616C1664.23 -38.2288 1687.1 -44.0799 1705.21 -37.182C1724.54 -29.801 1726.6 -12.2208 1728.13 4.66157C1729.37 18.3768 1728.37 32.3068 1728.37 46.1295L1728.4 46.1026Z" fill="#782F11"/>
<path d="M984.173 253.656C960.823 250.275 938.199 256.206 915.279 258.702C885.918 261.896 857.308 260.393 834.844 237.15C819.627 221.395 818.688 189.348 832.751 172.492C856.53 144.069 902.37 135.909 939.514 153.624C945.043 156.281 950.222 159.663 955.563 162.722C954.516 167.419 956.825 171.338 958.435 175.471C968.446 201.05 977.92 226.79 984.146 253.63L984.173 253.656Z" fill="#782F11"/>
<path d="M1131.65 325.883C1112.76 318.475 1100.49 302.881 1088.23 288.226C1061.07 255.75 1047.89 219.033 1062.46 176.706C1076.12 136.983 1118.61 123.563 1149.09 149.141C1163.32 161.058 1167.72 177.833 1169.38 195.548C1168.71 196.702 1167.91 197.802 1167.35 199.01C1148.69 239.404 1138.87 282.295 1131.62 325.91L1131.65 325.883Z" fill="#782F11"/>
<path d="M973.733 524.875C978.913 504.181 985.139 483.676 989.004 462.714C994.264 434.29 997.888 405.571 997.941 376.503C997.968 360.748 1023.49 338.229 1039 339.92C1046.81 340.779 1051.64 345.879 1055.05 352.562C1062.62 367.351 1067.13 383.267 1070.67 399.317C1074.05 414.697 1079.42 429.083 1087.29 442.637C1084.76 464.968 1070.89 480.294 1055.11 494.277C1036.7 510.569 1013.19 516.501 990.883 524.526C986.052 526.271 979.476 523.479 973.706 524.821L973.733 524.875Z" fill="#782F11"/>
<path d="M1183.85 632.826C1158.3 648.688 1129.91 650.486 1101.4 647.024C1051.83 641.012 1011.12 618.466 981.838 577.133C977.732 571.335 973.733 565.35 973.143 557.888C1003.34 540.254 1034.6 544.468 1065.63 554.372C1101.62 565.887 1132.16 586.5 1159.86 612.105C1167.53 619.191 1176.52 625.096 1183.85 632.799L1183.85 632.826Z" fill="#782F11"/>
<path d="M843.808 831.281C805.698 856.564 764.152 870.092 718.258 863.891C695.848 860.859 673.17 856.698 654.195 841.99C630.792 823.819 629.048 798.885 651.082 779.05C658.409 772.474 664.743 763.456 676.444 763.778C693.406 792.9 718.5 799.314 751.431 789.518C754.946 791.236 758.811 792.443 761.871 794.752C783.127 810.641 807.63 812.869 832.885 812.278C835.998 818.908 845.07 822.155 843.808 831.308L843.808 831.281Z" fill="#782F11"/>
<path d="M584.738 606.147C618.366 603.758 651.136 605.878 683.503 616.453C712.247 625.847 733.235 642.864 744.48 670.938C750.143 685.083 750.411 700.248 744.265 714.097C731.222 743.38 691.662 745.554 672.902 718.231C664.367 705.83 656.262 693.028 652.344 678.105C643.541 644.394 622.043 622.331 589.703 610.28C587.959 609.636 585.033 609.931 584.738 606.12L584.738 606.147Z" fill="#782F11"/>
<path d="M1779.07 171.982C1770.64 168.386 1769.95 161.488 1767.37 156.415C1750.65 123.429 1738.49 89.0735 1740.91 51.3096C1742.52 26.1605 1751.7 4.5005 1772.98 -10.5568C1791.9 -23.9231 1814.23 -24.3256 1828.86 -11.9255C1843.78 0.742961 1846.57 23.718 1836.08 44.6264C1830.79 55.1476 1823.92 64.6491 1815.28 72.2985C1785.51 98.6017 1770.4 130.139 1779.07 171.955L1779.07 171.982Z" fill="#782F11"/>
<path d="M543.783 891.537C520.488 887.672 496.896 892.449 473.359 883.968C457.39 878.224 440.187 875.486 425.829 865.743C401.191 849.049 386.859 826.745 391.046 795.664C393.059 780.795 400.574 769.468 415.523 765.227C430.123 761.094 443.864 763.214 455.109 774.541C467.777 787.317 474.46 803.179 478.646 820.303C485.571 848.619 500.573 870.601 527.063 884.236C532.511 887.054 538.925 886.544 543.783 891.51L543.783 891.537Z" fill="#782F11"/>
<path d="M625.506 792.336C612.811 843.52 566.247 872.292 527.761 861.637C499.58 853.826 486.993 821.806 504.331 798.026C519.816 776.822 542.065 766.623 568.018 764.288C585.356 777.386 607.39 780.822 625.506 792.336Z" fill="#782F11"/>
<path d="M944.345 951.846C958.784 966.286 968.768 983.517 973.679 1003.16C978.242 1021.47 968.822 1040.23 952.558 1049.84C945.902 1053.76 939.3 1052.15 932.375 1051.99C908.972 1051.5 890.937 1043.4 876.337 1023.46C865.145 1008.16 857.872 992.482 854.383 974.392C857.282 973.291 860.073 971.708 863.052 971.117C890.427 965.83 918.097 961.858 944.318 951.819L944.345 951.846Z" fill="#782F11"/>
<path d="M1383.74 567.604C1383.18 552.493 1388.44 539.664 1398.18 528.311C1408.08 516.796 1420.64 514.112 1434.57 517.682C1448.4 521.225 1456.02 531.505 1460.12 544.522C1464.85 559.472 1463.94 574.69 1460.02 589.506C1452.9 616.4 1455.08 641.629 1470.73 665.222C1472.26 667.53 1475.61 670.321 1472.55 673.408C1470.35 675.662 1467.4 673.784 1465.22 672.522C1431.73 653.305 1401.7 630.705 1387.74 592.566C1386.37 588.808 1385.25 584.889 1384.63 580.944C1383.96 576.542 1383.98 572.033 1383.72 567.578L1383.74 567.604Z" fill="#782F11"/>
<path d="M735.918 978.901C719.037 984.94 695.097 971.117 687.126 950.692C676.284 922.966 687.448 901.119 715.602 889.765C735.167 881.901 755.027 878.09 775.747 875.835C797.835 873.42 818.473 865.904 836.455 852.001C840.883 848.566 844.882 843.869 851.189 843.439C858.436 845.56 857.308 853.692 861.576 857.96C861.737 871.595 853.98 882.035 847.378 892.906C845.499 891.59 843.46 890.49 841.179 891.59C803.068 909.788 762.462 920.041 721.614 929.65C707.014 933.085 706.557 934.964 715.334 947.767C722.365 958.019 730.873 967.306 735.945 978.874L735.918 978.901Z" fill="#782F11"/>
<path d="M962.435 950.37C974.19 941.728 988.656 939.983 1001.86 935.098C1037.8 921.732 1072.74 906.674 1100.81 879.378C1127.87 915.8 1106.23 969.695 1060.82 979.572C1042.95 983.464 1026.52 979.143 1009.08 975.09C990.561 970.795 976.122 962.153 962.461 950.397L962.435 950.37Z" fill="#782F11"/>
<path d="M1141.2 469.585C1166.11 469.665 1187.29 489.151 1187.66 512.26C1188.12 540.738 1168.1 561.458 1140.45 561.163C1115.14 560.894 1094.29 539.879 1094.53 514.837C1094.77 489.58 1115.49 469.477 1141.2 469.585Z" fill="#782F11"/>
<path d="M525.908 677.487C526.096 652.124 545.581 632.396 570.513 632.342C598.157 632.262 618.205 652.097 617.937 679.205C617.668 705.965 598.855 724.753 572.338 724.753C544.051 724.753 525.693 706.099 525.908 677.487Z" fill="#782F11"/>
<path d="M944.345 951.846C918.124 961.911 890.453 965.884 863.078 971.144C860.099 971.735 857.281 973.291 854.41 974.419C847.378 930.804 858.167 889.819 873.545 849.747C877.249 840.084 879.879 829.429 889.246 819.686C891.688 834.958 893.996 848.539 896.036 862.174C898.773 880.425 905.349 897.281 913.078 913.921C918.929 926.509 931.328 932.602 939.084 943.123C941.124 945.888 944.908 947.525 944.345 951.846Z" fill="#782F11"/>
<path d="M1297.59 925.65C1283.77 921.759 1280.15 909.842 1277.17 898.247C1271.77 877.258 1275.96 857.235 1287.53 839.306C1310.07 804.36 1343.99 785.76 1383.39 774.944C1365.28 797.194 1351.64 821.457 1345.15 849.317C1340.16 851.089 1338.22 855.893 1335.38 859.651C1320.03 880.049 1309.64 903.32 1297.56 925.624L1297.59 925.65Z" fill="#782F11"/>
<path d="M735.918 978.901C730.873 967.333 722.338 958.046 715.306 947.793C706.53 934.991 706.96 933.112 721.587 929.676C762.435 920.068 803.041 909.815 841.151 891.617C843.433 890.517 845.472 891.617 847.351 892.932C849.579 903.024 840.024 907.211 836.213 914.19C825.209 934.32 810.314 951.417 791.5 964.864C779.692 973.291 766.568 978.794 752.343 981.29C746.868 982.256 740.749 983.866 735.918 978.874L735.918 978.901Z" fill="#782F11"/>
<path d="M1525.85 590.767C1548.48 590.982 1567.88 609.582 1567.5 633.175C1567.13 657.814 1547.32 674.401 1519.03 673.569C1500.54 673.032 1481.54 652.151 1483.9 632.208C1486.86 607.489 1500.14 590.365 1525.82 590.794L1525.85 590.767Z" fill="#782F11"/>
<path d="M845.178 976.754C845.956 1002.95 859.724 1023.99 873.492 1044.58C878.833 1052.55 881.839 1061.11 885.086 1069.62C888.119 1077.56 886.294 1085.91 879.209 1091.47C872.955 1096.38 866.782 1097.94 857.469 1095.95C844.05 1093.05 833.073 1089.46 825.666 1077.3C816.809 1062.83 815.387 1047.13 816.809 1030.89C818.447 1012.13 824.807 994.656 832.027 977.425C836.401 977.183 840.803 976.969 845.178 976.754Z" fill="#782F11"/>
<path d="M771.855 705.777C805.672 697.966 839.273 693.323 870.164 714.983C882.161 723.411 887.556 736.052 887.421 750.922C887.314 762.651 883.047 771.83 871.855 776.661C861.308 781.224 851.243 780.875 841.635 773.628C832.537 766.784 825.049 758.383 820.46 748.211C810.691 726.497 794.963 712.379 771.829 705.75L771.855 705.777Z" fill="#782F11"/>
<path d="M1168.39 833.428C1187.88 833.589 1206.07 852.484 1205.86 872.319C1205.64 893.979 1189.41 909.761 1167.32 909.788C1146.44 909.815 1128.16 892.745 1129.64 872.776C1131.57 846.982 1147.3 832.677 1168.36 833.428L1168.39 833.428Z" fill="#782F11"/>
<path d="M766.299 780.446C747.754 771.696 738.629 749.311 746.358 731.57C752.826 716.701 774.941 711.735 789.595 722.31C796.814 727.517 803.98 733.69 807.764 741.662C818.339 763.885 831.758 782.486 859.965 787.236C842.896 795.933 822.337 797.113 811.924 791.182C793.459 769.844 793.057 769.737 768.956 780.124C768.178 780.473 767.212 780.365 766.326 780.473L766.299 780.446Z" fill="#782F11"/>
<path d="M984.173 253.656C977.973 226.843 968.472 201.077 958.462 175.498C956.851 171.365 954.543 167.446 955.59 162.749C1005.05 192.569 1030.47 240.585 1053.71 290.293C1041.1 276.658 1005.29 257.172 984.173 253.656Z" fill="#782F11"/>
<path d="M1131.65 325.883C1138.9 282.268 1148.72 239.378 1167.37 198.983C1167.94 197.776 1168.71 196.675 1169.41 195.521C1174.05 218.899 1166.78 241.417 1164.45 264.285C1160.88 299.124 1171.32 329.077 1194.48 354.978C1196.73 357.501 1201.56 359.836 1199.01 363.486C1196.81 366.653 1193.06 363.486 1189.7 362.466C1167.94 355.998 1151.48 341.343 1134.23 327.869L1134.31 327.681C1133.42 327.064 1132.54 326.473 1131.68 325.856L1131.65 325.883Z" fill="#782F11"/>
<path d="M1370.83 758.732C1349.95 745.151 1329.15 731.463 1308.11 718.15C1304.06 715.6 1300.84 713.319 1301.38 708.058C1319.76 711.467 1338.14 714.876 1356.5 718.284C1356.34 719.036 1356.13 719.787 1356.07 720.566C1356.07 720.7 1356.72 720.995 1357.07 720.995C1372.23 720.995 1387.39 720.995 1402.56 720.995C1402.58 720.754 1402.61 720.512 1402.64 720.297C1398.42 719.68 1394.21 719.063 1390 718.445C1411.79 714.473 1434.2 713.883 1455.24 705.911C1457.63 704.999 1459.88 705.911 1460.88 708.139C1462.3 711.306 1458.89 711.494 1457.39 712.406C1441.69 721.693 1426.04 731.114 1410.04 739.864C1401.19 744.695 1391.63 748.399 1384.44 755.726C1380.36 759.886 1375.74 759.43 1370.86 758.732L1370.83 758.732Z" fill="#782F11"/>
<path d="M1132.03 54.9061C1137.61 68.8897 1142.47 83.2223 1148.99 96.7765C1155.59 110.545 1164.82 122.543 1179.72 128.663C1189.73 132.769 1196.57 130.461 1205.51 122.597C1226.58 104.05 1245.44 79.4647 1278.88 83.4638C1277.06 107.164 1255.37 127.911 1232.86 135.426C1207.17 144.015 1184.6 142.78 1162.49 127.804C1138.12 111.27 1125.88 81.9071 1132.03 54.9061Z" fill="#782F11"/>
<path d="M784.389 1039.45C768.661 1059.02 736.965 1061.84 719.44 1045.22C706.933 1033.36 708.651 1016.24 723.654 1007.24C737.395 999.004 751.673 992.106 768.474 994.227C756.853 1004.1 756.933 1006.36 767.427 1018.17C773.439 1024.93 781.973 1029.79 784.362 1039.48L784.389 1039.45Z" fill="#782F11"/>
<path d="M625.505 792.336C607.416 780.822 585.355 777.386 568.018 764.288C593.97 753.525 616.944 739.139 630.363 713.131C633.154 707.736 635.865 702.288 639.998 697.215C639.81 729.718 640.025 762.114 625.505 792.336Z" fill="#782F11"/>
<path d="M1519.73 167.339C1513.85 180.786 1501.99 189.079 1491.77 198.447C1471.18 217.235 1450.87 236.398 1428.32 252.932C1424.75 255.562 1421.5 258.595 1416.94 259.427C1415.33 243.726 1424.27 231.916 1432.88 220.858C1455.05 192.408 1484.33 174.693 1519.73 167.339Z" fill="#782F11"/>
<path d="M679.129 891.483C663.053 903.883 631.196 900.609 620.299 885.149C614.878 877.446 612.489 868.911 618.474 860.429C624.379 852.055 632.833 850.955 642.199 853.665C652.988 856.779 662.221 862.174 668.877 871.433C666.998 880.801 672.795 886.276 679.129 891.456L679.129 891.483Z" fill="#782F11"/>
<path d="M784.388 1039.45C782 1029.76 773.465 1024.93 767.453 1018.14C756.96 1006.33 756.879 1004.08 768.5 994.2C775.398 992.482 780.524 986.255 788.2 986.524C798.559 989.073 807.765 977.559 818.446 984.054C812.676 1005.93 802.638 1025.23 784.388 1039.45Z" fill="#782F11"/>
<path d="M1297.59 925.65C1309.67 903.346 1320.03 880.076 1335.41 859.678C1338.22 855.92 1340.16 851.116 1345.18 849.344C1345.82 869.85 1344.8 890.168 1336.29 909.197C1328.54 926.536 1314.71 932.119 1297.62 925.65L1297.59 925.65Z" fill="#782F11"/>
<path d="M1207.31 478.227C1194.67 478.2 1184.82 468.753 1184.68 456.567C1184.52 443.657 1193.83 433.512 1205.78 433.592C1218.77 433.673 1228.78 443.738 1228.7 456.594C1228.62 467.786 1218.26 478.281 1207.31 478.254L1207.31 478.227Z" fill="#782F11"/>
<path d="M1382.35 311.416C1394.88 311.416 1403.87 320.569 1404.11 333.559C1404.35 345.798 1394.48 355.81 1382.35 355.649C1370.3 355.488 1360.34 345.396 1360.29 333.371C1360.23 321.079 1369.92 311.416 1382.35 311.416Z" fill="#782F11"/>
<path d="M1585.86 289.461C1597.72 289.434 1606.82 298.372 1607.14 310.396C1607.44 322.796 1598.1 332.539 1585.86 332.566C1573.27 332.593 1564.42 323.36 1564.63 310.396C1564.82 298.506 1573.95 289.515 1585.86 289.488L1585.86 289.461Z" fill="#782F11"/>
<path d="M751.431 789.518C718.5 799.314 693.406 792.873 676.444 763.778C685.113 758.061 694.614 759.859 703.363 762.221C721.586 767.133 739.353 773.494 751.431 789.518Z" fill="#782F11"/>
<path d="M632.081 970.527C632.135 957.322 643.89 948.438 660.074 949.323C668.581 949.806 676.821 960.274 676.794 970.554C676.74 982.766 667.052 992.777 655.055 993.046C642.119 993.314 632.054 983.437 632.081 970.527Z" fill="#782F11"/>
<path d="M794.184 1056.5C805.456 1056.44 813.883 1065.59 813.588 1077.59C813.32 1087.95 804.222 1097.21 794.05 1097.48C781.677 1097.8 772.177 1088.3 772.365 1075.79C772.552 1063.42 780.282 1056.58 794.184 1056.5Z" fill="#782F11"/>
<path d="M1419.49 776.339C1420.24 788.31 1421.1 800.254 1421.69 812.224C1421.99 817.941 1419.92 823.068 1413.32 819.847C1405.88 816.224 1397.7 816.599 1390.32 813.486C1398.37 799.798 1407.2 786.726 1419.49 776.339Z" fill="#782F11"/>
<path d="M818.446 984.054C807.764 977.532 798.559 989.073 788.199 986.524C800.947 973.238 817.024 963.79 830.658 947.069C831.409 963.683 824.216 973.614 818.446 984.081L818.446 984.054Z" fill="#782F11"/>
<path d="M1202.42 561.861C1206.02 558.989 1203.23 549.407 1213.37 553.003C1221.37 555.848 1222.9 560.868 1220.97 567.229C1218.31 576.005 1218.74 585.802 1212.75 593.532C1212.75 593.532 1212.3 592.78 1212.3 592.754C1211.68 592.405 1211.06 592.029 1210.45 591.68C1204.89 582.501 1202.26 572.543 1202.42 561.834L1202.42 561.861Z" fill="#782F11"/>
<path d="M843.809 831.281C845.07 822.128 836.026 818.881 832.886 812.251C843.648 808.333 855.43 807.849 865.87 802.723C867.695 801.837 870.486 801.757 871.56 804.387C872.553 806.83 870.969 808.064 869.037 809.648C860.449 816.653 852.183 824.007 843.809 831.254L843.809 831.281Z" fill="#782F11"/>
<path d="M766.299 780.446C767.185 780.338 768.151 780.446 768.929 780.097C793.03 769.71 793.433 769.817 811.897 791.155C795.07 794.51 780.014 790.269 766.299 780.446Z" fill="#782F11"/>
<path d="M861.549 857.987C857.281 853.719 858.409 845.587 851.162 843.466C855.779 833.24 865.199 827.335 874.243 816.599C876.015 834.448 868.634 846.177 861.549 858.013L861.549 857.987Z" fill="#782F11"/>
<path d="M1395.42 239.055C1387.1 230.01 1381.03 219.516 1376.82 207.008C1385.92 212.994 1395.02 219.006 1404.11 224.991C1401.21 229.688 1398.32 234.358 1395.42 239.055Z" fill="#782F11"/>
<path d="M679.128 891.483C672.821 886.303 667.024 880.827 668.876 871.46C673.439 872.963 677.974 874.44 682.537 875.943C686.75 877.338 693.836 875.057 694.346 881.096C694.775 886.142 688.361 887.833 684.093 889.873C682.537 890.624 680.792 890.973 679.128 891.483Z" fill="#782F11"/>
<path d="M845.178 976.754C840.803 976.969 836.428 977.21 832.027 977.425C834.308 969.588 836.804 961.831 845.178 953.135L845.178 976.754Z" fill="#782F11"/>
<path d="M1390.02 718.472C1394.24 719.09 1398.45 719.707 1402.66 720.324C1402.64 720.566 1402.61 720.807 1402.58 721.022C1387.42 721.022 1372.26 721.022 1357.09 721.022C1356.74 721.022 1356.1 720.7 1356.1 720.593C1356.15 719.814 1356.37 719.063 1356.53 718.311C1367.69 718.365 1378.86 718.419 1390.02 718.472Z" fill="#782F11"/>
<path d="M1140.05 27.6366C1139.35 35.1518 1136.32 41.8081 1132.46 48.1424C1132.24 40.2783 1135.03 33.5414 1140.05 27.6366Z" fill="#782F11"/>
<path d="M1148.53 15.4511C1148.96 19.8529 1147.08 22.6174 1142.71 23.5837C1143.46 20.0139 1145.02 17.0347 1148.53 15.4511Z" fill="#782F11"/>
<path d="M1151.89 11.3179C1151.89 13.6798 1150.79 15.1291 1148.45 15.6122C1148.4 13.2235 1149.6 11.8547 1151.89 11.3179Z" fill="#782F11"/>
<path d="M1156.69 7.23808C1156.31 9.73421 1154.81 10.8347 1152.37 10.8615C1152.99 8.66062 1154.36 7.37228 1156.69 7.23808Z" fill="#782F11"/>
<path d="M1210.45 591.707C1211.06 592.056 1211.68 592.405 1212.3 592.78C1211.04 593.559 1210.55 592.968 1210.45 591.707Z" fill="#782F11"/>
<path d="M1134.31 327.708L1134.23 327.896L1133.66 327.842L1134.31 327.708Z" fill="#782F11"/>
<path d="M1158.92 5.03728L1159.24 4.95677L1158.94 4.71522L1158.92 5.03728Z" fill="#782F11"/>
<path d="M1523.01 166.024C1522.76 167.473 1522.01 167.527 1520.99 166.722L1521.85 165.89L1523.03 165.997L1523.01 166.024Z" fill="#782F11"/>
</g>
</g>
<defs>
<clipPath id="clip0_247_1286">
<rect width="1920" height="1080" fill="white"/>
</clipPath>
<clipPath id="clip1_247_1286">
<rect width="1680" height="1447" fill="white" transform="translate(1943 1116) rotate(-180)"/>
</clipPath>
</defs>
</svg>
