<svg width="712" height="885" viewBox="0 0 712 885" fill="none" xmlns="http://www.w3.org/2000/svg">
<path fill-rule="evenodd" clip-rule="evenodd" d="M342.476 171.952C341.071 173.644 338.825 175.029 337.486 175.029C336.144 175.029 333.837 179.875 332.358 185.797C330.879 191.718 327.852 198.558 325.633 200.997C320.634 206.482 321.553 212.762 327.479 213.609C334.464 214.608 337.656 219.596 334.522 224.617C332.377 228.05 332.51 229.377 335.299 232.46C338.417 235.906 338.364 236.743 334.563 244.194C328.373 256.328 325.3 258.197 319.012 253.652C316.153 251.584 312.852 246.469 311.679 242.287C309.677 235.145 306.4 230.932 304.4 232.932C303.914 233.418 302.95 239.741 302.257 246.982C300.337 267.072 282.805 295.423 273.405 293.639C270.523 293.091 269.52 290.694 269.038 283.203C268.351 272.497 268.263 272.398 262.55 275.965C256.508 279.739 255.601 276.943 258.272 262.789C261.804 244.063 258.258 236.491 244.589 233.568C239.999 232.587 236.562 233.143 233.364 235.383C230.829 237.159 227.162 238.611 225.213 238.611C223.267 238.611 219.208 241.842 216.197 245.79C212.172 251.067 209.155 252.969 204.811 252.969C199.93 252.969 198.902 253.83 198.902 257.928C198.902 265.663 196.833 269.281 190.55 272.53C183.687 276.078 164.282 276.49 157.145 273.237C144.047 267.271 142.205 246.877 153.153 229.021C162.053 214.505 162.654 210.43 156.495 206.395C153.666 204.541 150.51 200.804 149.476 198.087L147.597 193.148L141.3 198.446C137.674 201.498 132.464 203.743 129.008 203.743C122.345 203.743 121.641 206.217 126.09 213.999C127.702 216.819 129.053 221.216 129.095 223.77C129.133 226.323 130.264 230.169 131.607 232.319C134.969 237.703 130.434 243.536 125.107 240.685C122.396 239.235 120.523 239.799 117.699 242.921C114.274 246.705 114.204 247.601 116.95 252.497C118.618 255.467 125.029 261.753 131.197 266.465C148.075 279.362 152.239 293.645 138.361 291.042C132.786 289.996 131.539 290.487 130.596 294.096C129.976 296.461 127.556 298.898 125.216 299.509C120.105 300.846 120.113 300.756 124.295 308.841C126.127 312.386 128.666 319.493 129.935 324.635C132.044 333.177 132.834 334.043 139.075 334.64C142.835 335.001 148.834 334.272 152.407 333.021C158.123 331.019 159.339 331.276 162.496 335.156C164.469 337.583 166.106 342.464 166.13 346.006C166.155 349.547 167.98 354.752 170.187 357.572C172.394 360.393 174.22 365.635 174.244 369.222C174.281 374.444 173.369 375.878 169.675 376.401C166.212 376.893 164.926 378.596 164.522 383.211C164.077 388.324 165.347 390.317 172.029 395.004C176.453 398.105 180.984 400.645 182.096 400.645C184.567 400.645 196.851 414.366 196.851 417.125C196.851 418.214 194.544 419.104 191.723 419.104C185.673 419.104 185.552 420.244 189.947 435.904L193.297 447.845L185.554 463.101C177.532 478.904 173.84 497.309 178.156 499.975C179.413 500.752 180.443 504.422 180.443 508.13C180.443 511.838 181.891 517.778 183.663 521.327C187.31 528.636 185.851 536.953 181.234 535.183C179.618 534.562 174.353 534.595 169.537 535.255C162.687 536.195 160.037 537.747 157.374 542.389C155.418 545.798 152.237 548.32 149.894 548.32C143.636 548.32 143.261 550.968 147.948 562.058C151.9 571.415 153.174 572.574 163.232 575.993L174.205 579.724L196.297 556.516C221.482 530.056 232.578 516.102 238.1 503.954C240.219 499.294 244.263 493.965 247.09 492.113C249.916 490.261 252.234 487.152 252.238 485.203C252.258 475.559 282.522 442.976 294.276 439.941C299.285 438.648 300.548 437.133 301.073 431.79C301.555 426.873 303.297 424.41 308.012 421.971C314.721 418.501 317.763 420.212 317.832 427.497C317.855 429.977 320.099 430.795 327.173 430.902C332.294 430.98 337.832 432.161 339.479 433.529C342.037 435.65 342.482 434.548 342.521 426.02C342.548 420.281 344.392 412.098 346.853 406.798C349.212 401.721 351.49 393.876 351.917 389.364C352.846 379.51 356.938 376.032 367.601 376.032C373.439 376.032 377.668 374.317 383.618 369.536C392.78 362.173 393.418 359.761 387.599 354.496C384.732 351.901 383.497 348.179 383.497 342.128C383.497 326.827 385.509 321.068 391.592 318.947C398.632 316.494 404.33 304.895 404.732 292.207C405.101 280.545 398.23 269.377 390.682 269.377C384.471 269.377 379.395 264.282 379.395 258.049C379.395 255.364 380.779 247.853 382.471 241.358C387.38 222.517 386.729 219.096 376.318 208.978C368.951 201.815 367.089 198.601 367.089 193.037C367.089 184.486 363.6 179.631 356.833 178.764C353.332 178.314 351.498 176.641 351.049 173.49C350.299 168.192 346.205 167.458 342.476 171.952Z" fill="#F1B71C"/>
<path fill-rule="evenodd" clip-rule="evenodd" d="M421.048 1.17429C418.585 2.20392 415.551 4.94618 414.31 7.26593C411.867 11.8295 404.184 12.9043 400.48 9.20007C396.292 5.01182 393.795 9.27801 395.055 18.4667C396.113 26.1848 395.646 27.7641 391.414 30.7525C388.744 32.6395 381.483 35.5971 375.279 37.3262C357.125 42.3841 352.227 44.6648 342.462 52.6106C330.623 62.2444 327.948 63.0792 316.239 60.8128C310.921 59.7831 299.416 58.4848 290.673 57.9311C275.07 56.9404 274.8 57.006 275.919 61.4691C276.684 64.5211 275.655 67.288 272.781 69.8867C268.888 73.4104 267.58 73.5231 258.243 71.1296C245.045 67.7474 239.324 69.3144 232.579 78.1585C229.034 82.8062 225.402 85.3208 222.231 85.3208C218.837 85.3208 217.347 86.4837 217.347 89.1378C217.347 91.9724 216.158 92.7456 212.733 92.1385C208.866 91.4514 207.232 93.162 202.658 102.681C198.059 112.249 197.545 114.967 199.401 119.883C201.212 124.681 200.818 127.349 197.192 134.839C193.59 142.279 193.145 145.234 194.774 150.907C195.869 154.733 196.447 158.182 196.055 158.574C195.664 158.966 190.456 159.864 184.485 160.572C172.881 161.946 166.071 166.694 166.071 173.412C166.071 175.61 162.794 179.909 158.788 182.965C149.8 189.82 149.632 197.641 158.38 201.814C166.231 205.562 165.683 211.688 155.816 230.416C146.354 248.375 145.893 252.408 152.226 261.779C157.557 269.667 165.634 272.559 177.352 270.773C189.047 268.989 194.066 265.096 196.162 256.174C197.723 249.528 198.892 248.289 204.096 247.775C208.358 247.352 211.258 245.328 213.699 241.072C215.945 237.16 219.446 234.525 223.468 233.721C226.918 233.032 230.236 231.663 230.843 230.681C232.618 227.81 247.795 228.626 254.197 231.936C262.021 235.981 265.535 246.45 262.606 256.994C259.238 269.126 259.726 271.113 266.06 271.021C271.243 270.947 271.721 271.606 271.963 279.145C272.106 283.658 272.338 288.203 272.476 289.245C272.884 292.34 282.577 282.185 289.473 271.44C294.313 263.898 296.516 257.172 298.46 244.007C299.878 234.414 301.592 226.009 302.271 225.328C304.406 223.195 313.476 233.247 314.783 239.195C315.929 244.413 323.159 253.236 324.679 251.274C325.038 250.81 327.438 247.381 330.012 243.654C334.547 237.091 334.577 236.75 330.978 232.771C327.924 229.399 327.702 227.957 329.733 224.706C333.534 218.621 332.771 216.851 325.541 214.986C316.897 212.759 315.778 206.31 322.624 198.174C325.877 194.308 328.219 188.255 329.152 181.294C331.214 165.944 335.037 157.867 345.575 146.6C353.644 137.973 354.768 135.645 354.768 127.552C354.768 117.978 358.163 107.882 361.383 107.882C362.402 107.882 366.865 100.027 371.302 90.428C378.55 74.7374 380.503 72.2454 390.627 65.7702C397.693 61.2497 402.363 56.6717 403.165 53.4782C404.976 46.2565 413.637 39.6828 429.908 33.1851C449.732 25.266 453.543 23.2375 456.006 19.2953C461.704 10.1743 433.947 -4.21382 421.048 1.17429Z" fill="#32421C"/>
<path fill-rule="evenodd" clip-rule="evenodd" d="M91.7388 208.746C91.7388 210.192 95.121 217.744 99.2518 225.527L106.767 239.677L100.542 244.945C97.1167 247.841 93.6996 252.205 92.9469 254.642C92.1962 257.079 90.1985 260.217 88.5125 261.618C85.9918 263.71 84.6298 263.287 80.899 259.265L76.3559 254.365L75.7201 262.03C75.3693 266.247 74.2372 269.697 73.2034 269.697C72.1697 269.697 69.8274 271.98 67.9979 274.771C64.8557 279.566 64.9377 280.196 69.489 286.298C72.1369 289.848 78.6941 296.949 84.0597 302.077C90.2887 308.031 94.5857 314.26 95.9455 319.312C98.3575 328.269 97.3136 331.228 91.7388 331.228C85.079 331.228 84.8945 335.443 91.263 342.173C101.104 352.578 102.858 357.293 99.0508 363.104C96.4255 367.109 94.6595 367.809 89.6755 366.812C82.866 365.45 81.5963 368.088 86.9291 372.512C92.6167 377.227 95.5825 387.189 97.0367 406.459C98.4847 425.642 96.5813 433.781 90.6415 433.781C86.2789 433.781 86.8204 444.713 91.3881 448.846C93.4514 450.712 96.5793 452.24 98.3391 452.24C100.128 452.24 101.414 453.824 101.254 455.83C101.073 458.1 102.661 459.657 105.583 460.073C112.292 461.027 111.296 463.726 101.656 470.71C96.9567 474.113 90.9245 480.118 88.2499 484.054C85.5754 487.99 82.4824 491.21 81.3769 491.21C80.2714 491.21 77.8696 494.673 76.038 498.902C74.2085 503.133 71.7718 508.646 70.6273 511.155C67.9445 517.023 57.5662 520.413 47.2986 518.771C39.6543 517.548 38.8442 517.95 31.9608 526.394C19.8207 541.283 19.2874 543.094 23.3034 555.833C25.2478 562.003 26.1994 567.688 25.418 568.47C24.6365 569.251 18.7808 569.955 12.402 570.032C5.58635 570.117 0.483322 571.15 0.0197838 572.541C-0.741157 574.828 20.6821 593.763 24.0294 593.763C24.9381 593.763 32.1455 598.757 40.0482 604.863C58.081 618.796 61.1515 620.419 69.5546 620.458C78.7331 620.501 81.5717 622.654 87.6531 634.185C92.4628 643.306 93.4617 644.059 101.516 644.644C109.072 645.193 110.198 644.738 110.198 641.124C110.198 638.841 108.601 633.621 106.646 629.525L103.093 622.076L109.932 615.966L116.77 609.856L112.44 605.247C107.702 600.203 108.557 597.875 115.156 597.845C117.504 597.834 124.365 595.527 130.399 592.717C136.433 589.909 141.741 587.61 142.193 587.61C142.646 587.61 143.015 591.247 143.015 595.693C143.015 605.321 144 606.088 157.555 607.011L168.013 607.723L162.307 601.766L156.603 595.812L161.161 589.649L165.718 583.483L161.032 581.613C158.455 580.581 154.718 579.227 152.727 578.6C150.735 577.972 148.178 574.898 147.043 571.768C145.909 568.636 143.996 564.136 142.79 561.765C139.038 554.389 141.233 547.701 147.648 546.964C151.385 546.534 154.312 544.37 156.267 540.59C158.654 535.973 161.068 534.615 168.766 533.559C174.015 532.841 179.134 532.763 180.145 533.388C182.851 535.06 182.389 527.303 179.618 524.532C178.318 523.232 177.34 519.17 177.442 515.509C177.547 511.848 176.095 506.249 174.216 503.068C171.018 497.655 171.028 496.393 174.39 483.478C176.365 475.887 180.775 465.154 184.188 459.63C190.267 449.794 190.329 449.426 187.215 441.643C182.721 430.411 182.941 417.389 187.626 417.317C191.76 417.254 181.831 407.772 167.837 398.421C160.613 393.595 159.424 391.765 159.424 385.493C159.424 379.221 160.293 377.886 165.577 376.044C172.926 373.482 172.94 373.373 167.257 362.989C164.797 358.493 162.246 351.123 161.587 346.611C160.523 339.324 159.817 338.479 155.291 339.043C152.487 339.391 146.35 340.171 141.651 340.774C134.259 341.721 132.674 341.207 129.886 336.955C128.116 334.252 126.059 328.857 125.315 324.968C124.572 321.078 122.302 314.57 120.269 310.504C116.577 303.121 117.818 298.411 123.454 298.411C124.652 298.411 126.555 296.336 127.681 293.797C129.283 290.187 131.174 289.295 136.372 289.703C145.113 290.388 145.247 285.488 136.688 278.178C113.556 258.424 112.249 256.933 112.249 250.308C112.249 245.962 113.98 242.122 117.377 238.931C120.197 236.281 122.505 233.282 122.505 232.267C122.505 231.252 117.289 224.953 110.912 218.269C100.039 206.871 91.7388 202.746 91.7388 208.746Z" fill="#32421C"/>
<path fill-rule="evenodd" clip-rule="evenodd" d="M476.287 282.882C472.887 285.259 465.187 285.964 442.176 286.003L412.458 286.053L411.178 295.641C409.63 307.263 403.44 318.01 396.854 320.514C392.699 322.094 391.845 324.096 390.984 334.308C390.104 344.705 390.6 347.004 394.819 352.051C397.484 355.239 399.664 358.623 399.664 359.569C399.664 360.514 395.381 365.057 390.145 369.666C382.267 376.6 379.157 378.044 372.096 378.044C362.283 378.044 358.647 380.787 358.633 388.197C358.628 391.075 356.344 398.965 353.554 405.734C350.654 412.773 348.463 422.21 348.437 427.782C348.385 437.909 346.261 439.791 340.916 434.448C339.111 432.643 334.1 431.372 328.796 431.372C320.858 431.372 319.593 430.744 318.465 426.244C317.757 423.424 316.467 421.117 315.599 421.117C312.25 421.117 308.515 428.033 309.061 433.226C309.569 438.073 308.652 438.93 300.67 441.065C288.567 444.302 261.154 472.36 259.029 483.686C258.088 488.701 256.051 491.892 252.868 493.342C246.116 496.419 245.012 500.894 250.489 502.988C260.477 506.81 262.649 511.812 261.109 527.449C260.328 535.381 260.319 546.081 261.091 551.229L262.496 560.588H272.168C280.385 560.588 282.668 561.53 287.332 566.846C292.416 572.64 293.692 573.059 304.522 572.486L316.221 571.869L315.761 554.806C315.47 544.003 316.196 536.667 317.739 534.809C319.379 532.831 324.388 531.873 333.095 531.873C344.365 531.873 348.199 530.731 363.122 522.925C376.868 515.734 383.651 513.541 397.639 511.761C430.266 507.612 476.548 503.733 490.784 503.959C505.652 504.195 510.421 502.033 510.421 495.059C510.421 488.233 516.773 476.06 520.893 474.981C523.137 474.395 531.62 470.654 539.745 466.668C553.142 460.099 556.717 459.295 578.105 458.05C598.702 456.85 603.122 455.919 612.973 450.699C622.712 445.541 626.498 444.722 640.663 444.714L657.071 444.704L657.703 435.95C658.166 429.532 657.211 425.764 654.113 421.828C650.735 417.533 649.892 413.497 649.892 401.611C649.892 379.388 651.459 374.09 659.428 369.387C664.906 366.156 666.303 364.019 666.315 358.869C666.321 355.315 668.161 349.637 670.403 346.253C678.943 333.356 673.559 321.228 660.303 323.505C637.516 327.416 619.637 329.254 598.616 329.845C585.643 330.208 571.216 331.135 566.556 331.906L558.085 333.305L551.173 321.624C535.905 295.812 524.854 286.742 509.455 287.386C502.366 287.683 496.449 286.506 490.96 283.708C481.528 278.899 481.948 278.923 476.287 282.882Z" fill="#32421C"/>
<path fill-rule="evenodd" clip-rule="evenodd" d="M612.72 457.351C600.888 463.16 596.734 464.042 575.801 465.186C553.941 466.38 551.129 467.026 537.395 474.02C529.245 478.17 521.137 481.566 519.375 481.566C516.243 481.566 510.192 493.191 507.382 504.61C505.641 511.688 503.073 512.295 471.198 513.169C437.733 514.083 397.391 517.964 382.147 521.73C375.473 523.379 363.148 528.517 354.759 533.148C341.227 540.618 338.419 541.438 329.864 540.425C315.168 538.686 314.22 540.005 314.743 561.498L315.197 580.017L307.565 580.314C291.023 580.962 285.616 579.814 281.397 574.764C278.271 571.021 275.172 569.753 269.091 569.731C264.622 569.712 259.707 568.902 258.171 567.928C254.079 565.335 251.961 550.459 253.251 533.392C254.2 520.838 253.79 517.788 250.689 514.36C244.536 507.559 240.667 509.528 230.267 524.751C224.829 532.709 212.617 547.124 203.129 556.784C193.641 566.445 184.43 576.559 182.662 579.258C180.892 581.957 177.019 584.742 174.055 585.444C168.019 586.875 161.489 591.868 161.489 595.055C161.489 596.208 164.487 599.731 168.155 602.882C176.759 610.278 173.473 612.903 157.561 611.346C143.554 609.976 140.978 608.114 140.978 599.35V592.524L132.261 596.48C127.466 598.657 121.93 600.457 119.955 600.482C115.762 600.535 115.584 601.389 118.601 607.025C120.509 610.592 119.838 612.036 114.005 616.905L107.173 622.609L110.743 630.097C112.708 634.216 114.314 639.376 114.314 641.565C114.314 647.353 123.77 651.295 137.555 651.254C146.961 651.225 150.021 650.405 151.892 647.408C155.992 640.843 164.943 642.619 174.035 651.803C180.68 658.514 183.578 660.008 189.965 660.008C195.167 660.008 199.011 661.376 201.484 664.11C204.308 667.231 207.801 668.212 216.088 668.212C225.264 668.212 228.082 669.18 233.987 674.365C237.841 677.749 243.006 680.518 245.463 680.518C252.276 680.518 271.786 700.042 274.703 709.783C276.68 716.377 278.723 718.614 285.462 721.556C290.038 723.551 294.942 727.135 296.362 729.516C297.783 731.897 300.739 733.846 302.931 733.846C307.345 733.846 317.289 737.917 317.51 739.816C319.332 755.408 321.456 758.458 330.495 758.458C334.054 758.458 339.02 759.896 341.528 761.654C345.601 764.507 345.954 766.025 344.806 775.792C343.28 788.767 343.263 788.757 369.519 791.15C378.845 791.999 387.496 793.326 388.747 794.099C391.285 795.668 416.508 784.882 418.738 781.274C421.109 777.437 429.165 778.671 437.161 784.096C446.489 790.426 449.11 790.447 461.833 784.287C472.549 779.098 475.761 779.285 482.688 785.502C485.061 787.628 493.367 791.665 501.147 794.469C527.831 804.086 527.011 811.599 495.486 846.307C480.758 862.521 482.803 872.072 499.945 867.154C511.532 863.831 513.523 864.611 521.366 875.528C531.564 889.722 534.78 887.154 534.78 864.826C534.78 855.92 536.544 840.111 538.698 829.698C540.853 819.282 544.648 799.684 547.132 786.147C549.616 772.611 553.476 754.151 555.711 745.126C560.515 725.736 559.539 712.861 552.713 705.594C549.527 702.204 548.112 698.17 548.112 692.488C548.112 684.747 547.642 684.118 539.908 681.458C527.22 677.097 520.378 668.202 520.628 656.386C520.981 639.559 522.581 636.669 532.822 634.355C537.847 633.219 543.975 631.141 546.438 629.74C552.241 626.44 555.381 626.526 562.73 630.194C573.395 635.514 583.843 628.793 576.876 621.093C575.157 619.192 573.75 616.148 573.75 614.327C573.75 609.379 565.616 604.629 557.141 604.629C553.022 604.629 546.828 604.065 543.38 603.376C537.354 602.17 537.053 601.6 535.681 588.789C534.581 578.528 534.905 575.006 537.082 573.5C538.765 572.335 558.365 571.909 585.544 572.442C610.645 572.936 631.18 572.984 631.18 572.549C631.18 572.112 630.05 569.946 628.667 567.733C626.663 564.527 626.698 563.179 628.839 561.096C631.03 558.963 632.847 559.994 638.689 566.685C645.568 574.565 645.966 574.731 648.772 570.908C650.376 568.717 651.69 565.356 651.69 563.436C651.69 559.748 652.587 559.239 669.637 553.252L680.405 549.472V555.95C680.405 560.349 682.034 563.77 685.477 566.607C689.426 569.86 691.042 573.97 692.763 585.144C695.608 603.626 698.329 606.658 706.09 599.982L711.842 595.034L700.226 572.116C693.837 559.51 688.609 546.876 688.609 544.041C688.609 540.647 684.577 534.411 676.816 525.801C667.631 515.613 663.66 512.658 658.869 512.441C652.812 512.164 652.956 511.932 667.879 497.794L683.043 483.428L677.622 477.769C674.64 474.658 672.201 470.548 672.201 468.634C672.201 466.723 671.048 465.158 669.637 465.158C668.228 465.158 664.518 461.954 661.394 458.04C656.336 451.701 655.177 451.167 650.786 453.169C647.196 454.806 644.058 454.787 639.238 453.108C629.637 449.76 627.467 450.109 612.72 457.351Z" fill="#F1B71C"/>
<path fill-rule="evenodd" clip-rule="evenodd" d="M86.0962 6.30487C84.201 8.20004 84.6871 9.88191 88.2498 13.7646C91.3079 17.0955 92.0237 19.0747 90.3849 19.6613C89.0292 20.1454 84.8758 22.5902 81.1552 25.0925C74.6985 29.4346 74.3642 30.3022 73.794 44.1181C73.0002 63.4041 76.0665 66.3802 86.2418 56.205C90.2147 52.2321 95.2603 48.9811 97.4549 48.9811C102.242 48.9811 107.128 43.9499 110.206 35.8564C113.533 27.1046 107.819 10.9628 99.9531 6.89558C92.8441 3.21804 89.3327 3.06831 86.0962 6.30487ZM26.1993 26.0955C17.4208 34.874 10.3138 61.993 11.8727 80.7725C12.1516 84.1567 11.6655 92.6952 10.7897 99.7447C9.47087 110.371 9.71289 112.564 12.209 112.564C19.4369 112.564 28.2421 97.9378 28.2421 85.9329C28.2421 81.2914 29.7271 74.6193 31.5443 71.1079C33.3595 67.5965 35.3367 59.2918 35.9397 52.6505C36.9099 41.9542 37.7016 40.2334 42.8928 37.5486C50.2971 33.7193 50.2376 32.1358 42.4416 25.5766C34.5183 18.9086 33.3492 18.9455 26.1993 26.0955Z" fill="#F1B71C"/>
</svg>
