<svg width="596" height="228" viewBox="0 0 596 228" fill="none" xmlns="http://www.w3.org/2000/svg">
<path d="M495.5 30.2935L380.5 12.7935L345.5 4.79346H223L93.5 30.2935L24 63.7935L3.5 93.2935L13 139.293L57 164.793L136 194.793L188.5 211.293L321.5 225.293L412.5 211.293L476.5 187.793L555 157.293L588 132.793V109.293L574 63.7935L495.5 30.2935Z" fill="#EDF2C9"/>
<path fill-rule="evenodd" clip-rule="evenodd" d="M278.461 0.0753353C200.166 1.6441 127.073 12.7873 74.3405 31.1938C46.9021 40.7716 22.2579 54.9843 12.042 67.1224C10.6949 68.723 9.33408 70.3279 9.01747 70.689C7.38835 72.5491 4.65577 77.0112 3.30155 80.022C-0.148748 87.6935 -0.91256 95.9001 1.09408 103.746C2.01043 107.327 2.10371 108.575 1.64279 111.068C0.879531 115.198 0.94538 118.063 1.91056 122.65C5.52328 139.825 23.0941 156.259 53.0461 170.48C70.9725 178.991 95.5767 187.467 119.609 193.41C124.542 194.63 128.57 196.104 133.952 198.659C141.228 202.112 149.416 205.518 155.001 207.415C188.095 218.651 226.788 225.296 272.103 227.523C285.954 228.204 324.145 227.851 335.527 226.936C364.546 224.604 386.74 221.533 405.762 217.217C430.433 211.619 447.526 205.929 462.828 198.222C467.532 195.853 474.872 193.446 481.759 192.013C484.753 191.39 500.557 186.768 507.548 184.471C546.706 171.602 574.206 155.647 586.888 138.437C592.247 131.166 594.793 123.93 594.793 115.975C594.793 113.347 594.548 110.553 594.248 109.764C593.838 108.686 593.989 107.224 594.855 103.883C598.85 88.4716 592.349 73.1044 576.045 59.4163C539.006 28.3208 448.934 5.85928 341.289 0.874791C328.442 0.279988 291.626 -0.188595 278.461 0.0753353ZM272.151 14.3341C203.336 16.5251 143.969 24.8958 95.2222 39.2808C87.8881 41.4449 73.5849 46.4694 66.1487 49.4939C47.5886 57.0431 33.5361 65.5728 24.1257 75.0013C20.3972 78.7375 18.8624 80.7792 16.9562 84.5385C14.5617 89.2607 14.5309 89.3918 14.5309 94.8921C14.5309 99.2143 14.7707 101.012 15.602 102.914C20.6699 114.511 32.5654 124.533 53.6765 134.994C60.412 138.331 77.0374 145.196 80.3763 146.019C81.9428 146.405 81.8759 146.273 79.0045 143.3C69.7697 133.738 67.9304 123.098 73.5509 111.755C76.6072 105.587 83.8194 98.1871 92.1736 92.649C141.259 60.106 262.902 44.4068 373.937 56.2842C385.246 57.4941 406.236 60.3913 409.329 61.1699C410.385 61.4355 413.101 61.9453 415.365 62.3025C421.868 63.3291 443.271 68.177 450.635 70.2912C494.097 82.7705 519.025 98.4329 524.641 116.79C525.549 119.756 525.738 121.541 525.553 125.397C525.345 129.76 525.086 130.732 523.047 134.823C521.784 137.357 519.443 140.849 517.78 142.678C516.134 144.488 514.861 146.048 514.952 146.143C515.293 146.497 530.583 140.509 538.002 137.117C569.456 122.734 585.327 105.633 581.41 90.3416C575.087 65.6622 526.715 42.0512 453.226 27.7737C421.129 21.5382 386.13 17.4826 343.758 15.0897C333.832 14.5289 282.908 13.9917 272.151 14.3341ZM273.248 60.7112C252.112 61.4426 220.637 64.0167 206.854 66.1413C172.143 71.4912 152.398 75.9374 131.303 83.1546C121.413 86.5385 116.756 88.4881 107.807 92.9908C84.9915 104.472 74.9155 117.633 79.5527 129.899C82.4905 137.671 92.3941 145.545 106.66 151.45C114.04 154.505 114.361 154.634 114.945 154.788C115.247 154.867 117.716 155.672 120.432 156.577C144.74 164.674 184.42 171.024 228.803 173.92C255.022 175.631 272.035 176.012 308.617 175.711C348.258 175.384 367.698 174.451 396.434 171.498C456.253 165.35 498.565 152.613 512.375 136.597C516.077 132.304 517.46 128.877 517.486 123.929C517.505 120.167 517.296 119.309 515.449 115.569C503.957 92.3071 445.903 71.6553 370.37 63.9601C338.508 60.714 305.283 59.6028 273.248 60.7112ZM18.0355 130.729C20.2617 133.902 26.2613 140.03 30.9923 143.962C36.4344 148.484 50.8452 156.843 60.897 161.308C64.0658 162.715 67.4454 164.227 68.4072 164.667C74.0557 167.254 92.1478 173.568 105.068 177.462C126.43 183.9 161.338 191.065 189.57 194.805C226.839 199.744 257.229 201.666 298.215 201.676C328.234 201.684 354.635 200.548 375.857 198.336C378.724 198.038 383.539 197.545 386.557 197.243C401.661 195.727 430.636 191.42 443.898 188.72C488.075 179.725 518.455 170.129 543.763 157.177C560.23 148.75 574.047 137.807 579.1 129.192C580.013 127.636 579.602 127.855 575.807 130.944C561.702 142.425 540.653 152.856 514.133 161.507C503.383 165.014 488.301 169.234 479.564 171.181C478.809 171.349 474.365 172.345 469.687 173.394C404.857 187.93 316.578 193.534 236.21 188.215C168.484 183.732 108.717 172.39 66.1098 155.937C48.0276 148.954 29.4416 138.813 20.2924 130.937C15.8177 127.086 15.4571 127.053 18.0355 130.729ZM214.079 209.932C217.552 210.753 236.276 213.126 248.282 214.266C279.634 217.244 318.16 217.136 350.891 213.978C366.507 212.471 391.42 208.788 380.324 209.627C378.404 209.772 374.083 210.138 370.721 210.44C325.704 214.487 265.696 214.371 222.493 210.153C213.447 209.27 211.007 209.206 214.079 209.932Z" fill="black"/>
</svg>
