<svg width="580" height="822" viewBox="0 0 580 822" fill="none" xmlns="http://www.w3.org/2000/svg">
<path fill-rule="evenodd" clip-rule="evenodd" d="M454.952 6.45589C452.142 9.84013 447.65 12.6091 444.971 12.6091C442.289 12.6091 437.674 22.3024 434.716 34.1451C431.758 45.9879 425.704 59.6684 421.265 64.5458C411.268 75.5148 413.106 88.0755 424.957 89.7697C438.929 91.7674 445.312 101.744 439.044 111.786C434.753 118.653 435.02 121.307 440.599 127.472C446.834 134.364 446.727 136.037 439.126 150.94C426.746 175.208 420.601 178.945 408.024 169.855C402.305 165.72 395.705 155.49 393.359 147.125C389.355 132.842 382.8 124.416 378.8 128.416C377.828 129.388 375.9 142.035 374.514 156.515C370.674 196.695 335.609 253.399 316.809 249.83C311.046 248.734 309.04 243.939 308.076 228.958C306.702 207.545 306.525 207.348 295.101 214.482C283.016 222.03 281.203 216.439 286.544 188.13C293.608 150.678 286.515 135.533 259.179 129.687C249.998 127.727 243.123 128.838 236.728 133.318C231.658 136.87 224.323 139.774 220.426 139.774C216.533 139.774 208.415 146.235 202.393 154.132C194.345 164.686 188.311 168.489 179.622 168.489C169.859 168.489 167.804 170.212 167.804 178.408C167.804 193.877 163.665 201.113 151.1 207.611C137.375 214.708 98.5648 215.532 84.2895 209.026C58.0934 197.093 54.4097 156.306 76.3068 120.593C94.1058 91.5623 95.3077 83.4114 82.9891 75.3426C77.3323 71.6343 71.0191 64.1603 68.9516 58.725L65.1941 48.8471L52.6007 59.4429C45.3481 65.5468 34.9288 70.0386 28.0168 70.0386C14.689 70.0386 13.282 74.9857 22.1794 90.5491C25.4037 96.1895 28.107 104.984 28.189 110.092C28.267 115.199 30.5272 122.89 33.2141 127.189C39.9375 137.957 30.8677 149.624 20.2145 143.922C14.7915 141.021 11.0463 142.149 5.39772 148.393C-1.4528 155.961 -1.59224 157.754 3.90048 167.546C7.2355 173.486 20.0587 186.058 32.3937 195.481C66.15 221.275 74.4772 249.842 46.7223 244.637C35.5728 242.544 33.0788 243.525 31.1918 250.745C29.953 255.474 25.1125 260.348 20.432 261.57C10.2095 264.245 10.2259 264.064 18.5901 280.235C22.2533 287.323 27.3317 301.537 29.8709 311.821C34.0879 328.906 35.6671 330.637 48.1498 331.831C55.669 332.553 67.6677 331.097 74.8135 328.594C86.2461 324.591 88.6787 325.104 94.9918 332.865C98.9381 337.717 102.212 347.48 102.261 354.565C102.31 361.645 105.961 372.056 110.375 377.697C114.789 383.337 118.439 393.822 118.489 400.996C118.563 411.44 116.737 414.308 109.349 415.354C102.425 416.338 99.8529 419.743 99.0447 428.973C98.1546 439.199 100.694 443.187 114.058 452.56C122.907 458.762 131.968 463.841 134.192 463.841C139.135 463.841 163.702 491.284 163.702 496.801C163.702 498.979 159.087 500.76 153.447 500.76C141.346 500.76 141.104 503.041 149.894 534.36L156.593 558.243L141.108 588.754C125.064 620.361 117.681 657.169 126.311 662.502C128.826 664.056 130.885 671.395 130.885 678.812C130.885 686.228 133.781 698.108 137.326 705.205C144.619 719.825 141.703 736.459 132.469 732.919C129.236 731.676 118.706 731.741 109.074 733.062C95.3733 734.941 90.0734 738.046 84.7489 747.329C80.8355 754.147 74.4731 759.193 69.7885 759.193C57.273 759.193 56.5223 764.488 65.8956 786.669C73.8003 805.382 76.3477 807.7 96.4645 814.538L118.411 822L162.595 775.585C212.964 722.663 235.157 694.757 246.2 670.46C250.437 661.14 258.526 650.483 264.179 646.778C269.832 643.074 274.467 636.855 274.475 632.958C274.516 613.67 335.043 548.504 358.552 542.433C368.57 539.849 371.096 536.817 372.147 526.131C373.111 516.299 376.593 511.372 386.024 506.495C399.442 499.554 405.525 502.975 405.665 517.546C405.71 522.505 410.198 524.142 424.346 524.355C434.589 524.511 445.665 526.874 448.959 529.61C454.074 533.851 454.964 531.649 455.042 514.592C455.095 503.114 458.783 486.747 463.706 476.147C468.423 465.994 472.981 450.304 473.834 441.279C475.692 421.573 483.876 414.616 505.203 414.616C516.877 414.616 525.336 411.186 537.236 401.624C555.56 386.898 556.836 382.073 545.198 371.543C539.463 366.354 536.994 358.909 536.994 346.808C536.994 316.206 541.018 304.687 553.185 300.446C567.263 295.54 578.659 272.342 579.463 246.967C580.201 223.642 566.459 201.306 551.364 201.306C538.942 201.306 528.79 191.116 528.79 178.65C528.79 173.28 531.559 158.259 534.943 145.267C544.759 107.585 543.459 100.743 522.637 80.5072C507.902 66.1826 504.177 59.7546 504.177 48.6256C504.177 31.5239 497.199 21.8142 483.667 20.079C476.664 19.1806 472.997 15.8333 472.099 9.53249C470.597 -1.06325 462.409 -2.53182 454.952 6.45589Z" fill="#EDF2C9"/>
<path d="M166.402 390.304C167.34 391.925 168.13 393.61 168.77 395.36H168.834C167.34 395.36 165.676 395.424 163.842 395.552C162.007 395.637 160.13 395.616 158.21 395.488H158.146C157.719 394.506 157.186 393.333 156.546 391.968C155.906 390.602 155.202 389.173 154.434 387.68C153.666 386.186 152.834 384.714 151.938 383.264C151.042 381.813 150.146 380.533 149.25 379.424L149.122 379.232C148.994 380.213 148.93 381.429 148.93 382.88C148.93 384.288 148.951 385.76 148.994 387.296C149.079 388.789 149.164 390.218 149.25 391.584C149.335 392.949 149.399 394.037 149.442 394.848C148.716 395.146 147.756 395.338 146.562 395.424C145.41 395.509 144.258 395.552 143.106 395.552C141.954 395.594 140.908 395.594 139.97 395.552C139.074 395.509 138.519 395.509 138.306 395.552C138.391 395.552 138.455 394.976 138.498 393.824C138.54 392.629 138.562 391.072 138.562 389.152C138.562 387.232 138.562 385.034 138.562 382.56C138.562 380.042 138.54 377.461 138.498 374.816C138.498 372.128 138.455 369.482 138.37 366.88C138.327 364.234 138.284 361.824 138.242 359.648C138.199 357.429 138.135 355.552 138.05 354.016C138.007 352.437 137.943 351.37 137.858 350.816C140.247 350.474 142.871 350.154 145.73 349.856C148.588 349.557 151.575 349.578 154.69 349.92C157.207 350.048 159.468 350.773 161.474 352.096C163.479 353.418 165.036 355.061 166.146 357.024C167.255 358.986 167.831 361.162 167.874 363.552C167.959 365.898 167.34 368.181 166.018 370.4C165.207 371.936 164.119 373.216 162.754 374.24C161.431 375.264 159.746 375.84 157.698 375.968H157.442H157.378V376.032C158.274 377.61 159.255 379.189 160.322 380.768C161.388 382.304 162.434 383.861 163.458 385.44C164.482 387.018 165.463 388.64 166.402 390.304ZM151.618 358.816C150.167 358.858 148.695 359.178 147.202 359.776C147.244 360.33 147.266 360.97 147.266 361.696C147.308 362.378 147.33 363.082 147.33 363.808C147.33 364.533 147.33 365.237 147.33 365.92C147.372 366.602 147.436 367.178 147.522 367.648H147.586C148.567 367.733 149.634 367.797 150.786 367.84C151.938 367.882 153.026 367.818 154.05 367.648C154.86 367.477 155.479 367.072 155.906 366.432C156.375 365.749 156.652 365.024 156.738 364.256C156.823 363.445 156.738 362.656 156.482 361.888C156.226 361.077 155.799 360.437 155.202 359.968C154.263 359.114 153.068 358.73 151.618 358.816ZM180.215 379.68C179.276 379.637 178.594 379.573 178.167 379.488V380.64C178.21 381.92 178.252 382.965 178.295 383.776C178.38 384.586 178.658 385.376 179.127 386.144C179.639 387.125 180.364 387.85 181.303 388.32C182.242 388.789 183.159 388.938 184.055 388.768C184.951 388.597 185.698 388.085 186.295 387.232C186.935 386.336 187.212 385.013 187.127 383.264C187.554 383.306 188.13 383.328 188.855 383.328C189.58 383.285 190.327 383.242 191.095 383.2C191.906 383.157 192.674 383.157 193.399 383.2C194.124 383.2 194.722 383.264 195.191 383.392C195.106 384.501 195.02 385.589 194.935 386.656C194.85 387.722 194.743 388.725 194.615 389.664C194.487 390.56 194.316 391.349 194.103 392.032C193.932 392.672 193.698 393.12 193.399 393.376C192.674 394.4 191.735 395.125 190.583 395.552C189.431 395.978 188.172 396.234 186.807 396.32C185.442 396.405 184.034 396.405 182.583 396.32C181.175 396.234 179.874 396.192 178.679 396.192C177.484 396.021 176.375 395.637 175.351 395.04C174.199 394.229 173.239 393.184 172.471 391.904C171.703 390.581 171.084 389.152 170.615 387.616C170.146 386.037 169.826 384.373 169.655 382.624C169.484 380.874 169.442 379.125 169.527 377.376C169.655 375.797 169.783 374.282 169.911 372.832C170.082 371.338 170.423 369.888 170.935 368.48C171.49 367.242 172.343 366.197 173.495 365.344C174.647 364.448 175.948 363.786 177.399 363.36C178.85 362.89 180.386 362.634 182.007 362.592C183.628 362.549 185.207 362.72 186.743 363.104C188.706 363.445 190.284 364.128 191.479 365.152C192.674 366.176 193.57 367.413 194.167 368.864C194.807 370.314 195.191 371.914 195.319 373.664C195.447 375.413 195.447 377.184 195.319 378.976C195.02 379.061 194.444 379.146 193.591 379.232C192.78 379.317 191.799 379.402 190.647 379.488C189.538 379.573 188.343 379.637 187.063 379.68C185.783 379.722 184.546 379.744 183.351 379.744C182.199 379.744 181.154 379.722 180.215 379.68ZM187.703 371.296C187.276 370.528 186.679 369.952 185.911 369.568C185.57 369.354 185.228 369.205 184.887 369.12C184.546 368.992 184.14 368.928 183.671 368.928C182.647 368.928 181.815 369.034 181.175 369.248C180.535 369.461 180.023 369.76 179.639 370.144C179.255 370.528 178.956 370.976 178.743 371.488C178.572 372 178.444 372.533 178.359 373.088C178.274 373.557 178.231 373.898 178.231 374.112C178.274 374.282 178.487 374.41 178.871 374.496C179.255 374.538 179.852 374.56 180.663 374.56C181.516 374.517 182.754 374.496 184.375 374.496C185.484 374.496 186.316 374.517 186.871 374.56C187.426 374.602 187.81 374.624 188.023 374.624C188.279 374.581 188.407 374.517 188.407 374.432C188.407 374.304 188.407 374.069 188.407 373.728C188.407 372.874 188.172 372.064 187.703 371.296ZM205.261 379.168C205.261 379.552 205.261 379.957 205.261 380.384V380.96C205.261 383.136 205.901 384.992 207.181 386.528C207.949 387.466 208.973 388.042 210.253 388.256C211.533 388.426 212.727 388.341 213.837 388C214.221 387.872 214.519 387.68 214.733 387.424C214.946 387.125 215.117 386.805 215.245 386.464C215.373 386.08 215.458 385.696 215.501 385.312C215.586 384.885 215.65 384.48 215.693 384.096C215.693 382.389 215.65 380.661 215.565 378.912C215.522 377.12 215.287 375.413 214.861 373.792C214.605 373.152 214.178 372.661 213.581 372.32C213.026 371.936 212.407 371.701 211.725 371.616C211.042 371.53 210.359 371.594 209.677 371.808C209.037 371.978 208.461 372.277 207.949 372.704C207.309 373.429 206.754 374.24 206.285 375.136C205.858 375.989 205.559 376.906 205.389 377.888C205.303 378.314 205.261 378.741 205.261 379.168ZM217.997 408.096C217.399 408.224 216.845 408.309 216.333 408.352C215.906 408.437 215.138 408.458 214.029 408.416C212.919 408.373 211.49 408.352 209.741 408.352C207.735 408.352 205.943 407.925 204.365 407.072C202.786 406.218 201.506 405.066 200.525 403.616C200.354 403.317 200.183 402.912 200.013 402.4C199.885 401.93 199.757 401.44 199.629 400.928C199.543 400.416 199.479 399.925 199.437 399.456C199.437 398.986 199.458 398.581 199.501 398.24C199.927 398.069 200.503 397.941 201.229 397.856C201.954 397.813 202.701 397.792 203.469 397.792C204.279 397.834 205.047 397.877 205.773 397.92C206.541 398.005 207.181 398.09 207.693 398.176C207.693 399.285 208.034 400.16 208.717 400.8C209.442 401.482 210.231 401.866 211.085 401.952C211.981 402.037 212.834 401.824 213.645 401.312C214.498 400.8 215.053 399.946 215.309 398.752C215.351 398.325 215.394 397.877 215.437 397.408C215.479 396.981 215.479 396.597 215.437 396.256C215.351 395.53 215.351 394.784 215.437 394.016C215.01 394.485 214.498 394.826 213.901 395.04C213.346 395.253 212.727 395.402 212.045 395.488C211.405 395.573 210.743 395.616 210.061 395.616C209.378 395.616 208.738 395.637 208.141 395.68C207.33 395.68 206.498 395.616 205.645 395.488C204.834 395.36 204.045 395.146 203.277 394.848C202.551 394.549 201.89 394.144 201.293 393.632C200.695 393.12 200.205 392.458 199.821 391.648C199.223 390.496 198.797 389.301 198.541 388.064C198.285 386.784 198.114 385.482 198.029 384.16C198.029 382.154 198.071 380 198.157 377.696C198.242 375.392 198.605 373.237 199.245 371.232C199.927 369.184 200.994 367.477 202.445 366.112C203.895 364.704 205.986 363.914 208.717 363.744C210.082 363.658 211.341 363.85 212.493 364.32C213.687 364.746 214.541 365.557 215.053 366.752C215.223 366.837 215.309 366.773 215.309 366.56C215.351 366.304 215.351 366.005 215.309 365.664C215.309 365.28 215.287 364.917 215.245 364.576C215.245 364.192 215.309 363.893 215.437 363.68C216.845 363.509 218.274 363.466 219.725 363.552C221.175 363.594 222.626 363.616 224.077 363.616C224.247 368.949 224.333 374.538 224.333 380.384C224.375 386.186 224.269 392.16 224.013 398.304C223.97 399.328 223.97 400.33 224.013 401.312C224.055 402.336 223.863 403.189 223.437 403.872C222.839 404.81 222.221 405.557 221.581 406.112C220.983 406.666 220.386 407.093 219.789 407.392C219.191 407.733 218.594 407.968 217.997 408.096ZM233.088 363.36C234.069 363.402 235.242 363.402 236.608 363.36H237.696V363.552C237.653 368.714 237.546 373.984 237.376 379.36C237.248 384.736 237.333 390.005 237.632 395.168C237.418 395.424 236.885 395.552 236.032 395.552C235.178 395.594 234.24 395.594 233.216 395.552C232.234 395.552 231.296 395.53 230.4 395.488C229.504 395.445 228.906 395.466 228.608 395.552C228.821 392.864 228.906 390.133 228.864 387.36C228.864 384.586 228.821 381.834 228.736 379.104C228.65 376.373 228.608 373.685 228.608 371.04C228.608 368.352 228.736 365.749 228.992 363.232V363.168C229.162 363.125 229.44 363.125 229.824 363.168C230.25 363.21 230.57 363.232 230.784 363.232C231.338 363.274 232.106 363.317 233.088 363.36ZM228.8 354.4C228.714 353.034 228.693 351.37 228.736 349.408L237.44 349.6C237.44 349.856 237.44 350.325 237.44 351.008C237.482 351.648 237.504 352.373 237.504 353.184C237.546 353.952 237.568 354.762 237.568 355.616C237.61 356.426 237.632 357.152 237.632 357.792C237.461 358.048 237.056 358.218 236.416 358.304C235.818 358.389 235.093 358.432 234.24 358.432C233.429 358.389 232.554 358.346 231.616 358.304C230.677 358.218 229.802 358.197 228.992 358.24C228.992 357.002 228.928 355.722 228.8 354.4ZM257.09 349.536C258.028 348.64 258.882 347.893 259.65 347.296L264.066 351.776L264.002 351.84C263.703 352.138 263.234 352.565 262.594 353.12C261.954 353.674 261.292 354.272 260.61 354.912C259.927 355.509 259.287 356.085 258.69 356.64C258.092 357.194 257.708 357.642 257.538 357.984C256.855 358.069 256.066 358.133 255.17 358.176C254.316 358.176 253.463 358.154 252.61 358.112C251.799 358.069 251.052 358.026 250.37 357.984C249.73 357.898 249.26 357.813 248.962 357.728C249.687 357.045 250.498 356.234 251.394 355.296C252.332 354.314 253.271 353.333 254.21 352.352C255.191 351.328 256.151 350.389 257.09 349.536ZM242.05 368.288C242.306 367.477 242.498 366.837 242.626 366.368C242.924 365.728 243.394 365.173 244.034 364.704C244.716 364.234 245.484 363.85 246.338 363.552C247.234 363.21 248.172 362.976 249.154 362.848C250.178 362.72 251.202 362.656 252.226 362.656C253.079 362.741 253.89 362.762 254.658 362.72C255.468 362.634 256.322 362.634 257.218 362.72C258.583 362.805 259.884 363.082 261.122 363.552C262.359 363.978 263.426 364.618 264.322 365.472C264.919 365.856 265.388 366.474 265.73 367.328C266.071 368.181 266.327 369.184 266.498 370.336C266.668 371.445 266.775 372.682 266.818 374.048C266.86 375.37 266.903 376.736 266.946 378.144C266.903 379.381 266.839 380.789 266.754 382.368C266.711 383.946 266.604 385.461 266.434 386.912C266.306 388.362 266.114 389.664 265.858 390.816C265.644 391.968 265.324 392.757 264.898 393.184C264.172 394.208 263.212 394.933 262.018 395.36C260.866 395.786 259.607 396.042 258.242 396.128C256.876 396.256 255.468 396.256 254.018 396.128C252.567 396.042 251.244 396 250.05 396C247.874 395.616 246.039 394.677 244.546 393.184C243.394 392.16 242.604 390.88 242.178 389.344C241.751 387.808 241.495 386.208 241.41 384.544C241.324 382.837 241.303 381.13 241.346 379.424C241.431 377.717 241.41 376.16 241.282 374.752C241.282 373.984 241.303 373.237 241.346 372.512C241.388 371.744 241.474 370.954 241.602 370.144C241.644 369.674 241.794 369.056 242.05 368.288ZM252.802 372.512C251.906 372.768 251.18 373.237 250.626 373.92C250.37 374.09 250.178 374.517 250.05 375.2C249.879 376.565 249.794 377.93 249.794 379.296C249.794 380.618 249.751 382.026 249.666 383.52C249.623 384.501 249.879 385.269 250.434 385.824C250.988 386.336 251.65 386.698 252.418 386.912C253.228 387.082 254.06 387.125 254.914 387.04C255.767 386.912 256.471 386.698 257.026 386.4C257.751 386.058 258.242 385.354 258.498 384.288C258.668 382.922 258.796 381.557 258.882 380.192C259.01 378.784 258.946 377.461 258.69 376.224C258.476 374.73 257.858 373.642 256.834 372.96C255.81 372.277 254.466 372.128 252.802 372.512ZM279.185 365.408C279.185 365.877 279.206 366.41 279.249 367.008C279.462 366.88 279.718 366.73 280.017 366.56C280.358 366.389 280.636 366.218 280.849 366.048C281.745 365.408 282.748 364.896 283.857 364.512C284.966 364.128 286.097 363.914 287.249 363.872C288.444 363.829 289.596 363.957 290.705 364.256C291.814 364.554 292.817 365.088 293.713 365.856C294.14 366.24 294.46 367.05 294.673 368.288C294.929 369.482 295.078 370.933 295.121 372.64C295.206 374.346 295.228 376.224 295.185 378.272C295.185 380.277 295.164 382.325 295.121 384.416C295.078 386.464 295.036 388.448 294.993 390.368C294.95 392.288 294.972 393.973 295.057 395.424C293.564 395.637 292.22 395.722 291.025 395.68C289.873 395.68 288.55 395.68 287.057 395.68C286.972 394.698 286.929 393.589 286.929 392.352C286.929 391.114 286.929 389.834 286.929 388.512C286.972 387.189 286.972 385.866 286.929 384.544C286.929 383.221 286.886 381.984 286.801 380.832C286.758 380.32 286.716 379.765 286.673 379.168C286.63 378.528 286.545 377.909 286.417 377.312C286.332 376.714 286.182 376.181 285.969 375.712C285.798 375.242 285.542 374.88 285.201 374.624C285.158 374.581 285.116 374.56 285.073 374.56C285.03 374.56 284.988 374.538 284.945 374.496C284.604 374.325 284.092 374.197 283.409 374.112C282.769 373.984 282.129 374.026 281.489 374.24C280.849 374.41 280.273 374.794 279.761 375.392C279.249 375.946 278.95 376.8 278.865 377.952C278.78 379.445 278.758 380.917 278.801 382.368C278.844 383.776 278.886 385.205 278.929 386.656C279.014 388.064 279.057 389.472 279.057 390.88C279.057 392.288 278.972 393.696 278.801 395.104V395.36C278.076 395.573 277.436 395.701 276.881 395.744C276.369 395.786 275.836 395.786 275.281 395.744C274.726 395.744 274.108 395.722 273.425 395.68C272.742 395.637 271.889 395.658 270.865 395.744C270.865 390.496 270.801 385.248 270.673 380C270.588 374.752 270.63 369.312 270.801 363.68C271.313 363.722 271.74 363.765 272.081 363.808C272.422 363.808 272.742 363.808 273.041 363.808C273.34 363.808 273.66 363.808 274.001 363.808C274.342 363.765 274.769 363.722 275.281 363.68C275.452 363.68 275.75 363.658 276.177 363.616C276.604 363.53 277.03 363.466 277.457 363.424C277.884 363.381 278.268 363.381 278.609 363.424C278.95 363.424 279.121 363.488 279.121 363.616C279.206 364.341 279.228 364.938 279.185 365.408ZM331.522 370.144C331.821 371.381 332.055 372.362 332.226 373.088L337.026 395.488V395.552C335.746 395.808 334.338 395.893 332.802 395.808C331.266 395.765 329.815 395.594 328.45 395.296H328.386C328.13 394.613 327.874 393.802 327.618 392.864C327.405 391.925 327.17 390.965 326.914 389.984C326.701 389.002 326.466 388.064 326.21 387.168C325.954 386.272 325.677 385.504 325.378 384.864C324.823 384.778 324.397 384.736 324.098 384.736C323.799 384.736 323.522 384.736 323.266 384.736C323.053 384.736 322.797 384.757 322.498 384.8C322.242 384.8 321.879 384.8 321.41 384.8C321.111 385.482 320.855 386.293 320.642 387.232C320.471 388.128 320.279 389.088 320.066 390.112C319.895 391.093 319.703 392.053 319.49 392.992C319.277 393.93 318.978 394.762 318.594 395.488C318.551 395.488 318.509 395.509 318.466 395.552C318.466 395.552 318.445 395.552 318.402 395.552C318.061 395.637 317.207 395.637 315.842 395.552C314.477 395.466 312.343 395.445 309.442 395.488C309.399 395.488 309.357 395.466 309.314 395.424C309.399 395.125 309.549 394.293 309.762 392.928C309.975 391.562 310.274 389.792 310.658 387.616C311.042 385.44 311.49 382.944 312.002 380.128C312.557 377.269 313.197 374.24 313.922 371.04C314.647 367.84 315.437 364.512 316.29 361.056C317.143 357.6 318.082 354.165 319.106 350.752C319.405 350.709 319.725 350.688 320.066 350.688C320.407 350.688 320.855 350.688 321.41 350.688C321.965 350.688 322.669 350.688 323.522 350.688C324.418 350.645 325.57 350.56 326.978 350.432C327.106 350.986 327.298 351.84 327.554 352.992C327.853 354.101 328.151 355.381 328.45 356.832C328.791 358.24 329.133 359.754 329.474 361.376C329.858 362.997 330.221 364.554 330.562 366.048C330.903 367.541 331.223 368.906 331.522 370.144ZM323.266 377.312C324.077 377.269 324.887 377.248 325.698 377.248C325.271 373.578 324.887 370.72 324.546 368.672C324.247 366.624 323.97 365.237 323.714 364.512C323.501 363.786 323.266 363.637 323.01 364.064C322.797 364.448 322.583 365.258 322.37 366.496C322.199 367.733 321.986 369.29 321.73 371.168C321.517 373.045 321.261 375.072 320.962 377.248C321.687 377.29 322.455 377.312 323.266 377.312ZM347.56 365.408C347.56 365.877 347.581 366.41 347.624 367.008C347.837 366.88 348.093 366.73 348.392 366.56C348.733 366.389 349.011 366.218 349.224 366.048C350.12 365.408 351.123 364.896 352.232 364.512C353.341 364.128 354.472 363.914 355.624 363.872C356.819 363.829 357.971 363.957 359.08 364.256C360.189 364.554 361.192 365.088 362.088 365.856C362.515 366.24 362.835 367.05 363.048 368.288C363.304 369.482 363.453 370.933 363.496 372.64C363.581 374.346 363.603 376.224 363.56 378.272C363.56 380.277 363.539 382.325 363.496 384.416C363.453 386.464 363.411 388.448 363.368 390.368C363.325 392.288 363.347 393.973 363.432 395.424C361.939 395.637 360.595 395.722 359.4 395.68C358.248 395.68 356.925 395.68 355.432 395.68C355.347 394.698 355.304 393.589 355.304 392.352C355.304 391.114 355.304 389.834 355.304 388.512C355.347 387.189 355.347 385.866 355.304 384.544C355.304 383.221 355.261 381.984 355.176 380.832C355.133 380.32 355.091 379.765 355.048 379.168C355.005 378.528 354.92 377.909 354.792 377.312C354.707 376.714 354.557 376.181 354.344 375.712C354.173 375.242 353.917 374.88 353.576 374.624C353.533 374.581 353.491 374.56 353.448 374.56C353.405 374.56 353.363 374.538 353.32 374.496C352.979 374.325 352.467 374.197 351.784 374.112C351.144 373.984 350.504 374.026 349.864 374.24C349.224 374.41 348.648 374.794 348.136 375.392C347.624 375.946 347.325 376.8 347.24 377.952C347.155 379.445 347.133 380.917 347.176 382.368C347.219 383.776 347.261 385.205 347.304 386.656C347.389 388.064 347.432 389.472 347.432 390.88C347.432 392.288 347.347 393.696 347.176 395.104V395.36C346.451 395.573 345.811 395.701 345.256 395.744C344.744 395.786 344.211 395.786 343.656 395.744C343.101 395.744 342.483 395.722 341.8 395.68C341.117 395.637 340.264 395.658 339.24 395.744C339.24 390.496 339.176 385.248 339.048 380C338.963 374.752 339.005 369.312 339.176 363.68C339.688 363.722 340.115 363.765 340.456 363.808C340.797 363.808 341.117 363.808 341.416 363.808C341.715 363.808 342.035 363.808 342.376 363.808C342.717 363.765 343.144 363.722 343.656 363.68C343.827 363.68 344.125 363.658 344.552 363.616C344.979 363.53 345.405 363.466 345.832 363.424C346.259 363.381 346.643 363.381 346.984 363.424C347.325 363.424 347.496 363.488 347.496 363.616C347.581 364.341 347.603 364.938 347.56 365.408ZM384.501 353.248C384.543 352.778 384.586 352.117 384.629 351.264V350.56C384.629 350.517 384.906 350.474 385.461 350.432C386.058 350.346 386.762 350.304 387.573 350.304C388.426 350.261 389.322 350.261 390.261 350.304C391.199 350.304 392.01 350.368 392.693 350.496V354.72C392.693 361.845 392.799 368.885 393.013 375.84C393.226 382.794 393.247 389.344 393.077 395.488C391.754 395.488 390.303 395.509 388.725 395.552C387.146 395.637 385.717 395.594 384.437 395.424C384.394 395.338 384.373 395.189 384.373 394.976C384.373 394.549 384.351 394.208 384.309 393.952C384.309 393.696 384.309 393.333 384.309 392.864C384.223 392.65 384.117 392.501 383.989 392.416C383.903 392.288 383.797 392.352 383.669 392.608C383.029 393.888 382.175 394.72 381.109 395.104C380.042 395.445 378.911 395.53 377.717 395.36C375.285 395.189 373.365 394.57 371.957 393.504C370.549 392.394 369.482 391.008 368.757 389.344C368.074 387.637 367.605 385.738 367.349 383.648C367.135 381.557 367.007 379.445 366.965 377.312C366.965 375.818 367.05 374.368 367.221 372.96C367.434 371.552 367.733 370.272 368.117 369.12C368.543 367.925 369.077 366.922 369.717 366.112C370.399 365.258 371.21 364.661 372.149 364.32C373.301 363.893 374.559 363.637 375.925 363.552C377.333 363.424 378.655 363.424 379.893 363.552C381.13 363.637 382.175 363.829 383.029 364.128C383.882 364.426 384.351 364.768 384.437 365.152C384.394 363.146 384.373 361.525 384.373 360.288C384.373 359.05 384.373 358.069 384.373 357.344C384.373 356.576 384.373 356 384.373 355.616C384.415 355.189 384.437 354.805 384.437 354.464C384.479 354.08 384.501 353.674 384.501 353.248ZM376.565 372C375.541 372.768 374.922 373.898 374.709 375.392C374.495 375.989 374.367 376.608 374.325 377.248C374.282 377.888 374.261 378.506 374.261 379.104C374.261 380.17 374.389 381.216 374.645 382.24C374.901 383.221 375.285 384.117 375.797 384.928C376.309 385.696 376.927 386.314 377.653 386.784C378.378 387.253 379.189 387.488 380.085 387.488C381.151 387.488 381.983 387.253 382.581 386.784C383.221 386.314 383.69 385.674 383.989 384.864C384.33 384.053 384.522 383.093 384.565 381.984C384.65 380.832 384.693 379.573 384.693 378.208C384.693 376.544 384.65 375.242 384.565 374.304C384.522 373.322 384.373 372.576 384.117 372.064C383.861 371.552 383.455 371.232 382.901 371.104C382.389 370.933 381.685 370.848 380.789 370.848C379.039 370.848 377.631 371.232 376.565 372ZM401.838 363.36C402.819 363.402 403.992 363.402 405.358 363.36H406.446V363.552C406.403 368.714 406.296 373.984 406.126 379.36C405.998 384.736 406.083 390.005 406.382 395.168C406.168 395.424 405.635 395.552 404.782 395.552C403.928 395.594 402.99 395.594 401.966 395.552C400.984 395.552 400.046 395.53 399.15 395.488C398.254 395.445 397.656 395.466 397.358 395.552C397.571 392.864 397.656 390.133 397.614 387.36C397.614 384.586 397.571 381.834 397.486 379.104C397.4 376.373 397.358 373.685 397.358 371.04C397.358 368.352 397.486 365.749 397.742 363.232V363.168C397.912 363.125 398.19 363.125 398.574 363.168C399 363.21 399.32 363.232 399.534 363.232C400.088 363.274 400.856 363.317 401.838 363.36ZM397.55 354.4C397.464 353.034 397.443 351.37 397.486 349.408L406.19 349.6C406.19 349.856 406.19 350.325 406.19 351.008C406.232 351.648 406.254 352.373 406.254 353.184C406.296 353.952 406.318 354.762 406.318 355.616C406.36 356.426 406.382 357.152 406.382 357.792C406.211 358.048 405.806 358.218 405.166 358.304C404.568 358.389 403.843 358.432 402.99 358.432C402.179 358.389 401.304 358.346 400.366 358.304C399.427 358.218 398.552 358.197 397.742 358.24C397.742 357.002 397.678 355.722 397.55 354.4ZM419.248 365.408C419.248 365.877 419.269 366.41 419.312 367.008C419.525 366.88 419.781 366.73 420.08 366.56C420.421 366.389 420.698 366.218 420.912 366.048C421.808 365.408 422.81 364.896 423.92 364.512C425.029 364.128 426.16 363.914 427.312 363.872C428.506 363.829 429.658 363.957 430.768 364.256C431.877 364.554 432.88 365.088 433.776 365.856C434.202 366.24 434.522 367.05 434.736 368.288C434.992 369.482 435.141 370.933 435.184 372.64C435.269 374.346 435.29 376.224 435.248 378.272C435.248 380.277 435.226 382.325 435.184 384.416C435.141 386.464 435.098 388.448 435.056 390.368C435.013 392.288 435.034 393.973 435.12 395.424C433.626 395.637 432.282 395.722 431.088 395.68C429.936 395.68 428.613 395.68 427.12 395.68C427.034 394.698 426.992 393.589 426.992 392.352C426.992 391.114 426.992 389.834 426.992 388.512C427.034 387.189 427.034 385.866 426.992 384.544C426.992 383.221 426.949 381.984 426.864 380.832C426.821 380.32 426.778 379.765 426.736 379.168C426.693 378.528 426.608 377.909 426.48 377.312C426.394 376.714 426.245 376.181 426.032 375.712C425.861 375.242 425.605 374.88 425.264 374.624C425.221 374.581 425.178 374.56 425.136 374.56C425.093 374.56 425.05 374.538 425.008 374.496C424.666 374.325 424.154 374.197 423.472 374.112C422.832 373.984 422.192 374.026 421.552 374.24C420.912 374.41 420.336 374.794 419.824 375.392C419.312 375.946 419.013 376.8 418.928 377.952C418.842 379.445 418.821 380.917 418.864 382.368C418.906 383.776 418.949 385.205 418.992 386.656C419.077 388.064 419.12 389.472 419.12 390.88C419.12 392.288 419.034 393.696 418.864 395.104V395.36C418.138 395.573 417.498 395.701 416.944 395.744C416.432 395.786 415.898 395.786 415.344 395.744C414.789 395.744 414.17 395.722 413.488 395.68C412.805 395.637 411.952 395.658 410.928 395.744C410.928 390.496 410.864 385.248 410.736 380C410.65 374.752 410.693 369.312 410.864 363.68C411.376 363.722 411.802 363.765 412.144 363.808C412.485 363.808 412.805 363.808 413.104 363.808C413.402 363.808 413.722 363.808 414.064 363.808C414.405 363.765 414.832 363.722 415.344 363.68C415.514 363.68 415.813 363.658 416.24 363.616C416.666 363.53 417.093 363.466 417.52 363.424C417.946 363.381 418.33 363.381 418.672 363.424C419.013 363.424 419.184 363.488 419.184 363.616C419.269 364.341 419.29 364.938 419.248 365.408ZM461.756 363.488C462.823 363.53 464.039 363.594 465.404 363.68C465.447 363.936 465.468 364.192 465.468 364.448C465.511 364.704 465.532 364.96 465.532 365.216V365.856C465.404 370.464 465.425 375.008 465.596 379.488C465.767 383.925 465.703 388.426 465.404 392.992C465.404 393.546 465.383 394.101 465.34 394.656C465.34 395.21 465.084 395.53 464.572 395.616H463.804C463.121 395.616 462.417 395.594 461.692 395.552C461.009 395.466 460.327 395.424 459.644 395.424C459.175 395.424 458.705 395.466 458.236 395.552C457.809 395.594 457.361 395.616 456.892 395.616C456.593 395.53 456.38 395.36 456.252 395.104C456.167 394.848 456.124 394.549 456.124 394.208C456.124 393.738 456.167 393.354 456.252 393.056C456.337 392.757 456.38 392.394 456.38 391.968C455.356 392.992 454.055 393.866 452.476 394.592C450.94 395.317 449.425 395.68 447.932 395.68C446.268 395.68 444.839 395.104 443.644 393.952C442.492 392.8 441.532 391.37 440.764 389.664C439.996 387.957 439.42 386.101 439.036 384.096C438.695 382.09 438.524 380.234 438.524 378.528C438.524 376.394 438.801 374.432 439.356 372.64C439.911 370.848 440.657 369.312 441.596 368.032C442.577 366.709 443.729 365.685 445.052 364.96C446.375 364.192 447.783 363.786 449.276 363.744C450.044 363.744 450.748 363.765 451.388 363.808C452.071 363.808 452.689 363.914 453.244 364.128C453.799 364.298 454.289 364.597 454.716 365.024C455.143 365.408 455.505 365.962 455.804 366.688C455.761 366.005 455.783 365.429 455.868 364.96C455.996 364.448 456.06 363.936 456.06 363.424C456.06 363.381 456.188 363.36 456.444 363.36C456.743 363.317 457.063 363.317 457.404 363.36C457.745 363.36 458.087 363.36 458.428 363.36C458.769 363.36 459.004 363.36 459.132 363.36C459.857 363.402 460.732 363.445 461.756 363.488ZM448.572 373.6C447.591 374.41 446.993 375.349 446.78 376.416C446.609 376.97 446.503 377.546 446.46 378.144C446.417 378.698 446.396 379.253 446.396 379.808C446.396 381.728 446.887 383.37 447.868 384.736C448.892 386.058 450.3 386.72 452.092 386.72C453.159 386.72 453.948 386.549 454.46 386.208C455.015 385.824 455.399 385.312 455.612 384.672C455.868 383.989 455.996 383.178 455.996 382.24C456.039 381.258 456.06 380.17 456.06 378.976C456.06 377.482 456.039 376.309 455.996 375.456C455.996 374.56 455.889 373.877 455.676 373.408C455.505 372.938 455.185 372.64 454.716 372.512C454.289 372.384 453.628 372.32 452.732 372.32C450.983 372.32 449.596 372.746 448.572 373.6Z" fill="#2C4001"/>
</svg>
