<svg width="1132" height="477" viewBox="0 0 1132 477" fill="none" xmlns="http://www.w3.org/2000/svg">
<path d="M444.227 206.251C458.543 198.476 473.989 197.997 489.641 199.47C511.355 201.507 531.391 209.368 550.827 218.546C568.911 227.091 587.816 231.458 607.629 232.554C612.322 232.811 617.014 233.325 621.689 233.873C630.953 234.969 639.772 237.383 647.221 243.377C654.208 253.6 653.9 264.885 652.068 276.393C648.215 284.647 641.827 290.247 633.299 293.004C605.146 302.097 580.093 316.704 556.29 334.12C533.394 350.868 507.245 359.156 478.733 359.362C473.03 359.396 467.259 359.619 461.831 357.324C464.948 355.029 468.629 353.214 471.061 350.354C481.267 338.281 487.894 324.359 490.789 308.759C495.532 283.277 490.223 259.166 480.017 235.979C473.219 220.567 464.263 207.056 444.706 206.662C444.535 206.628 444.381 206.388 444.227 206.251Z" fill="#B3541A"/>
<path d="M444.227 206.25C444.381 206.387 444.535 206.627 444.706 206.627C464.262 207.003 473.218 220.515 480.017 235.944C490.24 259.131 495.532 283.242 490.788 308.723C487.894 324.324 481.267 338.229 471.061 350.319C468.629 353.196 464.947 354.994 461.831 357.289C450.169 355.867 442.086 348.555 435.133 340.113C409.31 308.723 403.504 273.378 416.296 235.191C420.132 223.751 428.352 214.864 439.295 209.007C440.579 209.332 441.298 208.63 441.829 207.603L441.709 207.654C443.011 208.048 443.713 207.346 444.261 206.301L444.227 206.25Z" fill="#A74418"/>
<path d="M652.067 276.359C653.9 264.851 654.208 253.566 647.221 243.342C651.588 242.298 655.92 240.945 660.338 240.277C669.175 238.941 676.076 236.424 681.504 227.656C689.621 214.522 706.609 214.71 714.469 226.269C717.808 231.167 717.5 236.321 715.788 241.527C714.589 245.141 714.812 248.12 717.569 251.083C723.836 257.796 724.418 266.906 719.332 273.345C713.818 280.349 701.009 284.133 695.118 278.499C685.511 269.32 675.562 270.708 664.671 273.67C660.527 274.817 656.28 275.485 652.067 276.359Z" fill="#F6C25D"/>
<path d="M441.812 207.604C441.281 208.632 440.562 209.334 439.278 209.008C439.945 208.221 440.63 207.467 441.812 207.604Z" fill="#B3541A"/>
<path d="M444.244 206.303C443.696 207.33 442.994 208.05 441.692 207.656C442.377 206.885 443.062 206.149 444.244 206.303Z" fill="#B3541A"/>
</svg>
