<svg width="1132" height="477" viewBox="0 0 1132 477" fill="none" xmlns="http://www.w3.org/2000/svg">
<path d="M553.863 388.628C499.221 390.196 445.056 387.169 392.959 372.592C374.662 367.469 357.878 360.468 343.176 350.968C322.827 337.804 315.947 314.922 336.064 298.84C353.342 285.008 377.424 274.98 400.58 268.584C445.581 256.165 497.431 255.001 545.44 254.178C602.412 253.216 658.69 255.871 713.395 268.957C741.811 275.756 769.164 284.015 790.129 300.656C811.264 317.437 815.738 331.02 797.966 346.963C775.057 367.516 735.579 370.605 701.871 377.793C653.507 388.116 604.032 389.73 553.863 388.628Z" fill="#CC5E26"/>
</svg>
