<svg width="1132" height="477" viewBox="0 0 1132 477" fill="none" xmlns="http://www.w3.org/2000/svg">
<path d="M390.941 329.194C390.568 324.71 392.588 320.832 398.771 318.024C405.949 314.75 414.105 314.688 422.572 316.348C434.162 318.629 443.002 325.098 443.406 331.382C443.81 337.913 433.51 345.857 416.14 344.864C406.539 344.305 398.662 342.102 393.924 337.2C391.438 334.655 390.568 331.909 390.941 329.194Z" fill="#F6C25D"/>
<path d="M419.527 296.009C407.409 296.024 398.973 292.782 397.373 287.926C395.975 283.659 398.74 279.936 403.354 276.616C410.594 271.418 420.18 269.076 431.894 270.131C441.247 270.984 447.446 274.226 449.9 279.269C452.573 284.73 447.834 288.763 440.315 291.928C433.743 294.675 426.052 295.792 419.527 296.009Z" fill="#F6C25D"/>
<path d="M703.387 359.882C699.332 359.897 695.308 359.696 691.362 359.168C689.078 358.858 686.981 358.299 685.428 357.26C683.61 356.019 683.19 354.204 685.272 353.071C694.345 348.168 703.667 343.328 716.344 341.497C725.464 340.178 733.745 344.119 732.782 349.115C732.3 351.613 729.752 353.614 726.474 355.29C719.964 358.61 712.087 359.882 703.387 359.882Z" fill="#F6C25D"/>
</svg>
