<svg width="1132" height="477" viewBox="0 0 1132 477" fill="none" xmlns="http://www.w3.org/2000/svg">
<path d="M437.257 319.353C429.441 318.237 421.782 317.621 414.581 315.96C407.208 314.257 404.818 310.248 409.198 304.995C416.943 295.704 448.467 288.832 461.78 293.485C474.679 297.994 475.91 305.739 464.601 311.981C456.412 316.476 446.591 317.807 437.257 319.353Z" fill="#753D13"/>
<path d="M692.108 351.506C681.471 351.291 667.327 352.766 664.822 343.188C662.073 332.638 677.147 330.977 686.968 327.57C691.878 325.866 697.261 324.821 702.773 325.637C713.209 327.169 719.809 331.807 720.897 339.738C722.113 348.585 712.35 349.731 704.233 351.363C700.454 352.15 696.159 351.506 692.108 351.506Z" fill="#753D13"/>
<path d="M553.559 329.459C546.988 329.016 533.231 330.189 531.212 321.185C529.337 312.81 542.765 310.477 551.584 307.742C561.733 304.607 572.628 303.605 583.121 306.955C594.631 310.634 595.848 317.234 586.228 323.075C577.867 328.157 567.875 329.889 553.559 329.459Z" fill="#753D13"/>
<path d="M470.785 359.737C466.276 359.838 461.823 359.981 457.572 358.32C449.211 355.042 448.324 350.232 455.711 345.951C462.625 341.943 470.771 339.495 479.389 340.511C486.275 341.327 494.607 342.974 494.048 350.06C493.547 356.545 486.089 358.406 478.874 359.666C476.325 360.11 473.491 359.737 470.785 359.737Z" fill="#753D13"/>
<path d="M643.591 301.286C637.121 300.527 628.646 300.227 628.388 292.381C628.159 285.624 633.785 282.718 642.374 283.162C650.821 283.592 659.883 285.267 660.169 292.625C660.427 298.91 652.939 301.243 643.591 301.286Z" fill="#753D13"/>
</svg>
