<svg width="1132" height="477" viewBox="0 0 1132 477" fill="none" xmlns="http://www.w3.org/2000/svg">
<path d="M537.543 223.782C538.116 224.812 540.825 225.327 539.337 226.815C538.02 228.15 535.845 227.979 533.957 227.788C528.462 227.235 523.273 226.071 518.656 223.972C517.703 223.553 516.424 222.98 517.168 222.141C517.855 221.359 519.191 222.026 520.011 222.217C525.162 223.362 530.256 224.64 535.521 225.651C529.702 222.942 523.216 221.206 516.024 220.557C519.248 219.375 522.567 219.909 525.811 220.462C529.989 221.168 533.9 222.274 537.543 223.782Z" fill="#D38A1F"/>
<path d="M482.752 216.59C483.324 217.62 486.034 218.135 484.545 219.623C483.229 220.959 481.054 220.787 479.166 220.596C473.671 220.043 468.482 218.879 463.865 216.781C462.911 216.361 461.633 215.789 462.377 214.949C463.064 214.167 464.399 214.835 465.22 215.026C470.371 216.17 475.464 217.449 480.73 218.46C474.911 215.751 468.425 214.015 461.232 213.366C464.457 212.183 467.776 212.717 471.019 213.271C475.197 213.976 479.127 215.083 482.752 216.59Z" fill="#D38A1F"/>
<path d="M530.351 244.311C523.96 241.239 520.927 237.099 520.851 231.986C520.832 231.185 520.927 230.384 522.243 230.041C523.483 229.716 524.666 229.926 525.448 230.594C529.722 234.199 533.461 237.977 533.633 243.357C527.146 239.846 526.25 234.944 522.968 230.785C522.014 233.742 522.396 234.447 525.372 237.729C527.299 239.827 530.103 241.659 530.351 244.311Z" fill="#D38A1F"/>
<path d="M656.894 271.552C650.503 268.48 647.469 264.341 647.393 259.228C647.374 258.426 647.469 257.625 648.786 257.282C650.026 256.957 651.209 257.167 651.991 257.835C656.264 261.441 660.003 265.218 660.175 270.598C653.689 267.088 652.792 262.185 649.511 258.026C648.557 260.983 648.938 261.689 651.915 264.97C653.822 267.069 656.627 268.919 656.894 271.552Z" fill="#D38A1F"/>
<path d="M620.532 254.726C619.998 254.345 618.052 255.871 618.586 254.23C619.483 251.388 629.46 247.057 634.745 247.324C629.861 249.957 624.481 251.808 620.532 254.726Z" fill="#D38A1F"/>
<path d="M634.02 250.109C632.15 253.83 627.266 255.394 622.249 256.615C618.872 257.435 620.57 255.585 620.532 254.726H620.513C623.279 254.841 624.805 253.334 626.942 252.609C629.327 251.807 631.158 250.357 634.001 250.071L634.02 250.109Z" fill="#D38A1F"/>
<path d="M485.232 239.007C492.52 236.508 501.296 237.252 503.929 240.533C497.614 239.904 491.547 238.816 485.232 239.007Z" fill="#D38A1F"/>
<path d="M501.963 242.289C495.515 243.433 490.364 242.403 484.984 241.163C489.563 240.285 496.679 240.724 501.963 242.289Z" fill="#D38A1F"/>
</svg>
