<svg width="1132" height="477" viewBox="0 0 1132 477" fill="none" xmlns="http://www.w3.org/2000/svg">
<path d="M688.837 304.623C690.204 304.623 691.556 304.566 692.865 304.379C693.627 304.278 694.332 304.091 694.85 303.731C695.454 303.314 695.598 302.71 694.908 302.322C691.858 300.667 688.737 299.056 684.479 298.438C681.415 297.992 678.639 299.315 678.97 300.998C679.128 301.833 679.977 302.509 681.084 303.07C683.285 304.192 685.932 304.623 688.837 304.623Z" fill="#F9D68E"/>
<path d="M730.523 347.2C731.889 347.2 733.227 347.143 734.55 346.956C735.313 346.855 736.018 346.668 736.535 346.308C737.14 345.891 737.283 345.287 736.593 344.899C733.543 343.245 730.422 341.634 726.164 341.015C723.101 340.569 720.324 341.893 720.655 343.575C720.814 344.41 721.662 345.086 722.77 345.647C724.956 346.769 727.603 347.2 730.523 347.2Z" fill="#F9D68E"/>
<path d="M727.171 317.007C725.805 317.007 724.452 316.949 723.144 316.762C722.381 316.662 721.676 316.475 721.158 316.115C720.554 315.698 720.411 315.094 721.101 314.705C724.15 313.051 727.272 311.44 731.529 310.822C734.593 310.376 737.369 311.699 737.039 313.382C736.88 314.216 736.032 314.892 734.924 315.453C732.738 316.575 730.091 317.007 727.171 317.007Z" fill="#F9D68E"/>
<path d="M527.922 365.655C526.556 365.655 525.218 365.598 523.895 365.411C523.132 365.31 522.427 365.123 521.909 364.764C521.305 364.346 521.162 363.742 521.852 363.354C524.901 361.7 528.023 360.089 532.28 359.47C535.344 359.024 538.12 360.348 537.79 362.031C537.631 362.865 536.783 363.541 535.675 364.102C533.489 365.238 530.842 365.67 527.922 365.655Z" fill="#F9D68E"/>
<path d="M397.472 283.306C396.106 283.306 394.768 283.248 393.445 283.061C392.682 282.961 391.978 282.774 391.46 282.414C390.856 281.997 390.712 281.393 391.402 281.004C394.452 279.35 397.573 277.739 401.831 277.121C404.895 276.675 407.671 277.998 407.34 279.681C407.182 280.515 406.333 281.191 405.225 281.752C403.039 282.874 400.392 283.306 397.472 283.306Z" fill="#F9D68E"/>
<path d="M591.011 331.968C592.378 331.968 593.715 331.91 595.039 331.723C595.801 331.623 596.506 331.436 597.024 331.076C597.628 330.659 597.772 330.055 597.081 329.666C594.032 328.012 590.91 326.401 586.653 325.783C583.589 325.337 580.813 326.66 581.144 328.343C581.302 329.177 582.15 329.853 583.258 330.414C585.459 331.536 588.105 331.968 591.011 331.968Z" fill="#F9D68E"/>
</svg>
