<svg width="1132" height="477" viewBox="0 0 1132 477" fill="none" xmlns="http://www.w3.org/2000/svg">
<path d="M511.635 210.23C509.834 212.014 507.358 212.447 505.193 213.504C504.171 214.006 503.132 214.456 502.058 214.941C502.473 215.582 502.941 215.617 503.426 215.495C509.072 214.041 512.467 215.842 514.32 221.436C515.03 223.566 515.827 225.922 513.904 227.775C512.051 229.541 509.696 228.987 507.531 228.312C502.785 226.857 500.638 223.428 501.14 218.249C501.209 217.556 500.88 217.401 500.412 217.227C499.304 216.846 498.161 216.742 497.001 216.933C495.511 217.158 494.022 217.435 492.532 217.712C491.164 217.972 489.778 218.249 488.393 218.111C487.561 218.041 486.436 217.989 486.418 216.95C486.401 215.963 487.51 215.911 488.272 215.928C491.32 215.998 493.866 215.062 495.719 212.395C493.312 211.512 491.58 209.815 490.766 207.217C489.986 204.723 489.848 202.229 490.402 199.683C490.956 197.085 492.272 196.115 494.905 196.392C499.356 196.843 503.963 202.419 503.547 206.888C503.27 209.832 501.538 211.651 498.819 212.517C497.832 212.828 497.347 213.383 496.845 214.456C500.153 213.833 502.82 212.257 505.591 210.975C507.652 210.023 509.28 208.654 509.696 206.247C510.354 205.675 510.406 204.879 510.458 204.099C510.596 201.969 510.284 199.873 510.094 197.778C510.042 197.206 509.869 196.41 510.717 196.306C511.445 196.219 511.393 196.981 511.549 197.483C512.363 200.012 512.155 202.627 512.172 205.225C511.982 205.779 511.791 206.334 511.618 206.905C511.531 207.234 511.341 207.806 511.445 207.875C511.861 208.152 512.328 208.014 512.727 207.702C513.09 208.083 513.593 208.048 514.06 208.152C516.294 208.637 518.546 209.157 520.451 210.542C520.763 210.767 521.352 210.906 521.144 211.443C520.936 211.962 520.399 212.032 519.897 211.91C519.377 211.772 518.806 211.668 518.355 211.408C516.849 210.577 515.151 210.334 513.558 209.815C512.865 209.59 512.138 209.416 511.635 210.23Z" fill="#737B27"/>
<path d="M515.914 197.466C518.009 196.063 519.949 194.435 522.512 193.829C523.829 193.517 525.128 193.309 526.461 193.396C529.146 193.552 530.6 195.197 530.237 197.864C529.648 202.038 527.587 205.225 523.569 206.905C520.902 205.623 518.269 204.099 515.186 205.641C515.204 205.017 514.822 204.567 514.511 204.082C515.862 202.229 516.139 200.081 516.173 197.881C516.087 197.743 516.018 197.587 515.931 197.448L515.914 197.466Z" fill="#737B27"/>
<path d="M515.186 205.641C518.286 204.1 520.901 205.624 523.568 206.905C523.187 207.702 523.932 207.945 524.313 208.343C525.664 209.763 526.772 211.339 527.101 213.314C527.448 215.323 526.668 216.829 524.763 217.488C520.797 218.873 514.753 218.232 512.241 212.829C511.843 211.963 512.051 211.045 511.618 210.248C512.12 209.434 512.848 209.59 513.54 209.832C515.134 210.352 516.831 210.594 518.338 211.426C518.805 211.686 519.36 211.789 519.879 211.928C520.382 212.049 520.918 211.98 521.126 211.46C521.334 210.923 520.745 210.785 520.433 210.56C518.528 209.174 516.277 208.672 514.043 208.17C513.575 208.066 513.073 208.1 512.709 207.719C512.986 206.369 514.216 206.161 515.186 205.641Z" fill="#8C7E20"/>
<path d="M516.173 197.881C516.139 200.098 515.862 202.228 514.511 204.081C513.818 204.653 513.437 205.831 512.173 205.242C512.155 202.644 512.363 200.029 511.549 197.5C511.393 196.998 511.445 196.236 510.718 196.322C509.886 196.426 510.042 197.206 510.094 197.794C510.285 199.907 510.614 202.003 510.458 204.116C510.406 204.913 510.354 205.692 509.696 206.264C507.583 205.9 506.249 204.601 505.487 202.679C504.102 199.18 504.119 195.681 505.799 192.304C507.115 189.672 509.315 189.325 511.618 191.109C513.749 192.772 514.944 195.041 515.931 197.465L515.948 197.431C515.602 197.812 515.862 197.864 516.173 197.881Z" fill="#8C7E20"/>
<path d="M482.504 201.049C485.033 201.049 487.094 202.521 489.38 203.284C490.454 203.647 491.51 204.08 492.619 204.496C492.775 203.751 492.48 203.387 492.047 203.128C487.025 200.166 485.899 196.494 488.531 191.229C489.536 189.22 490.644 186.986 493.312 187.055C495.875 187.107 497.139 189.168 498.213 191.177C500.534 195.559 499.65 199.508 495.615 202.816C495.078 203.249 495.199 203.595 495.424 204.046C495.944 205.102 496.689 205.985 497.624 206.661C498.854 207.561 500.083 208.41 501.348 209.276C502.508 210.055 503.669 210.835 504.569 211.926C505.106 212.567 505.868 213.398 505.141 214.143C504.465 214.853 503.634 214.108 503.114 213.571C501.001 211.372 498.542 210.229 495.355 210.8C496.429 213.121 496.464 215.563 495.199 217.953C493.987 220.257 492.307 222.127 490.125 223.547C487.891 224.985 486.297 224.742 484.617 222.681C481.794 219.217 482.47 212.012 485.933 209.155C488.202 207.267 490.731 207.215 493.242 208.514C494.16 208.999 494.905 208.947 495.996 208.531C493.225 206.626 490.229 205.864 487.354 204.808C485.223 204.028 483.093 203.838 481.101 205.241C480.235 205.171 479.629 205.691 479.04 206.228C477.43 207.631 476.183 209.345 474.832 210.956C474.468 211.406 474.018 212.082 473.36 211.562C472.788 211.112 473.36 210.61 473.602 210.142C474.814 207.769 476.806 206.072 478.642 204.219C479.162 203.959 479.699 203.699 480.218 203.422C480.513 203.249 481.049 202.989 481.032 202.851C480.928 202.366 480.495 202.123 480.01 202.071C480.01 201.552 479.647 201.223 479.387 200.807C478.14 198.867 476.927 196.927 476.546 194.607C476.494 194.225 476.165 193.706 476.702 193.481C477.205 193.256 477.638 193.585 477.915 194.035C478.192 194.503 478.521 194.97 478.659 195.472C479.127 197.135 480.166 198.486 480.928 199.993C481.171 200.634 481.586 201.274 482.504 201.049Z" fill="#4D4F1C"/>
<path d="M470.45 207.06C467.973 206.575 465.445 206.35 463.21 204.965C462.067 204.255 460.994 203.475 460.11 202.471C458.326 200.462 458.448 198.279 460.595 196.651C463.955 194.106 467.661 193.326 471.697 194.971C472.684 197.76 473.446 200.704 476.737 201.795C476.287 202.228 476.235 202.817 476.113 203.371C473.844 203.735 472.13 205.034 470.554 206.575C470.502 206.731 470.467 206.887 470.415 207.043L470.45 207.06Z" fill="#4D4F1C"/>
<path d="M476.754 201.795C473.481 200.704 472.701 197.759 471.714 194.971C472.545 194.677 472.199 193.984 472.199 193.43C472.251 191.473 472.58 189.567 473.74 187.939C474.918 186.277 476.529 185.757 478.347 186.64C482.14 188.459 485.951 193.187 483.907 198.799C483.578 199.699 482.781 200.184 482.521 201.067C481.603 201.293 481.188 200.652 480.859 200.011C480.097 198.504 479.075 197.136 478.59 195.491C478.451 194.971 478.122 194.503 477.845 194.053C477.585 193.603 477.152 193.291 476.633 193.499C476.096 193.724 476.425 194.244 476.477 194.625C476.858 196.945 478.07 198.903 479.317 200.825C479.577 201.223 479.941 201.552 479.941 202.089C478.815 202.834 477.793 202.107 476.754 201.795Z" fill="#675A19"/>
<path d="M470.571 206.592C472.147 205.051 473.862 203.734 476.131 203.388C477.031 203.457 478.14 202.903 478.607 204.237C476.789 206.09 474.78 207.787 473.567 210.16C473.325 210.627 472.753 211.13 473.325 211.58C473.983 212.1 474.433 211.424 474.797 210.974C476.148 209.346 477.395 207.631 479.006 206.246C479.595 205.726 480.201 205.206 481.067 205.258C482.296 207.008 482.331 208.878 481.517 210.783C480.028 214.23 477.551 216.706 473.966 217.902C471.177 218.837 469.376 217.538 469.012 214.628C468.683 211.944 469.445 209.502 470.45 207.077H470.415C470.918 207.042 470.779 206.817 470.571 206.592Z" fill="#675A19"/>
</svg>
