<svg width="1132" height="477" viewBox="0 0 1132 477" fill="none" xmlns="http://www.w3.org/2000/svg">
<path d="M475.574 361.397C481.084 361.194 486.267 362.895 491.808 364.004C494.446 364.535 496.881 365.175 497.974 366.627C498.723 367.626 498.286 368.376 496.663 369.063C492.714 370.718 488.062 370.577 483.566 370.156C477.978 369.609 472.623 368.641 467.613 367.236C464.662 366.408 463.148 365.425 463.492 364.363C463.929 362.973 466.114 362.021 469.408 361.615C471.172 361.412 472.936 361.459 475.574 361.397Z" fill="#932514"/>
<path d="M384.598 326.032C384.598 328.515 380.743 330.435 375.732 330.466C372.688 330.482 369.691 328.437 369.722 326.36C369.753 323.706 372.875 321.863 377.308 321.863C382.116 321.863 384.598 323.284 384.598 326.032Z" fill="#932514"/>
<path d="M695.972 285.53C695.301 283.547 699.001 282.47 702.856 283.188C705.729 283.719 707.571 284.859 708.195 286.358C708.835 287.919 707.649 289.277 705.619 289.621C702.419 290.152 698.283 289.246 696.8 287.669C696.144 286.967 695.738 286.233 695.972 285.53Z" fill="#932514"/>
<path d="M537.436 368.782C538.997 368.766 540.137 369.032 540.215 369.89C540.309 370.749 538.357 371.53 536.063 371.499C534.611 371.483 533.378 371.14 533.175 370.343C532.972 369.578 535.251 368.766 537.436 368.782Z" fill="#932514"/>
</svg>
