<svg width="1132" height="477" viewBox="0 0 1132 477" fill="none" xmlns="http://www.w3.org/2000/svg">
<path d="M450.187 216.225C448.786 215.808 447.168 215.558 447.035 213.691C446.902 211.773 448.419 211.073 449.903 210.989C451.554 210.889 452.738 212.04 452.871 213.674C452.988 215.341 451.671 215.958 450.187 216.225Z" fill="white"/>
<path d="M670.154 312.319C669.554 314.003 668.387 314.503 666.853 314.287C665.452 314.087 664.818 313.186 665.085 311.852C665.369 310.468 666.286 309.551 667.786 309.835C669.12 310.068 669.954 311.002 670.154 312.319Z" fill="white"/>
<path d="M485.97 215.891C484.369 215.775 483.385 214.974 483.369 213.574C483.335 212.306 484.302 211.489 485.57 211.373C487.154 211.223 488.371 212.006 488.454 213.607C488.538 215.174 486.937 215.341 485.97 215.891Z" fill="white"/>
<path d="M507.38 219.894C508.664 219.894 509.647 220.328 509.731 221.762C509.814 223.146 509.064 223.929 507.68 223.879C506.229 223.829 505.295 222.929 505.245 221.528C505.212 220.278 506.246 219.877 507.38 219.894Z" fill="white"/>
<path d="M530.424 241.603C529.023 241.186 527.406 240.936 527.272 239.069C527.139 237.151 528.656 236.451 530.14 236.367C531.791 236.267 532.975 237.418 533.108 239.052C533.208 240.719 531.908 241.32 530.424 241.603Z" fill="white"/>
<path d="M566.19 241.253C564.589 241.136 563.605 240.336 563.588 238.935C563.555 237.668 564.522 236.851 565.789 236.734C567.374 236.584 568.591 237.368 568.674 238.968C568.774 240.536 567.173 240.719 566.19 241.253Z" fill="white"/>
<path d="M587.616 245.272C588.9 245.272 589.884 245.706 589.967 247.14C590.051 248.523 589.3 249.307 587.916 249.257C586.466 249.207 585.532 248.307 585.482 246.906C585.449 245.639 586.466 245.255 587.616 245.272Z" fill="white"/>
<path d="M685.828 336.379C684.427 335.963 682.81 335.713 682.677 333.845C682.543 331.927 684.061 331.227 685.545 331.144C687.195 331.044 688.379 332.194 688.513 333.828C688.629 335.496 687.329 336.113 685.828 336.379Z" fill="white"/>
<path d="M721.611 336.048C720.011 335.931 719.027 335.131 719.01 333.73C718.977 332.463 719.944 331.646 721.211 331.529C722.795 331.379 724.012 332.163 724.096 333.763C724.196 335.331 722.595 335.497 721.611 336.048Z" fill="white"/>
<path d="M743.038 340.048C744.322 340.048 745.305 340.482 745.389 341.916C745.472 343.3 744.722 344.084 743.338 344.034C741.887 343.983 740.953 343.083 740.903 341.682C740.853 340.432 741.887 340.032 743.038 340.048Z" fill="white"/>
<path d="M578.896 344.968C578.712 346.452 577.879 346.936 576.695 346.786C575.444 346.636 574.46 345.935 574.377 344.618C574.294 343.017 575.528 342.867 576.761 342.851C578.312 342.851 578.512 344.068 578.896 344.968Z" fill="white"/>
<path d="M624.5 252.541C625.9 252.124 627.518 251.874 627.651 250.006C627.784 248.089 626.267 247.388 624.783 247.305C623.132 247.205 621.948 248.355 621.815 249.989C621.698 251.657 622.999 252.257 624.5 252.541Z" fill="#060707"/>
<path d="M385.923 277.219C386.524 278.903 387.691 279.403 389.225 279.186C390.626 278.986 391.259 278.086 390.992 276.752C390.709 275.368 389.792 274.451 388.291 274.734C386.94 274.968 386.123 275.901 385.923 277.219Z" fill="#060707"/>
<path d="M475.131 222.177C476.732 222.06 477.715 221.259 477.732 219.859C477.765 218.592 476.798 217.775 475.531 217.658C473.947 217.508 472.73 218.291 472.646 219.892C472.563 221.46 474.147 221.626 475.131 222.177Z" fill="#060707"/>
<path d="M624.85 314.37C623.566 314.37 622.582 314.803 622.499 316.237C622.415 317.621 623.166 318.405 624.55 318.355C626 318.305 626.934 317.404 626.984 316.004C627.017 314.753 625.984 314.353 624.85 314.37Z" fill="#060707"/>
<path d="M549.148 246.255C550.549 245.839 552.166 245.588 552.3 243.721C552.433 241.803 550.916 241.103 549.432 241.02C547.781 240.92 546.597 242.07 546.464 243.704C546.347 245.372 547.648 245.972 549.148 246.255Z" fill="#060707"/>
<path d="M513.366 245.905C514.966 245.788 515.95 244.988 515.967 243.587C516 242.32 515.033 241.503 513.766 241.386C512.182 241.236 510.964 242.02 510.881 243.621C510.798 245.188 512.382 245.371 513.366 245.905Z" fill="#060707"/>
<path d="M491.939 249.922C490.655 249.922 489.671 250.356 489.588 251.79C489.504 253.174 490.255 253.958 491.639 253.908C493.089 253.858 494.023 252.957 494.073 251.556C494.123 250.289 493.089 249.906 491.939 249.922Z" fill="#060707"/>
<path d="M393.727 341.032C395.128 340.615 396.745 340.365 396.878 338.497C397.012 336.58 395.494 335.879 394.01 335.796C392.36 335.696 391.176 336.847 391.042 338.481C390.926 340.148 392.243 340.765 393.727 341.032Z" fill="#060707"/>
<path d="M357.944 340.698C359.545 340.581 360.529 339.781 360.545 338.38C360.579 337.113 359.612 336.296 358.344 336.179C356.76 336.029 355.543 336.813 355.46 338.414C355.376 339.981 356.977 340.148 357.944 340.698Z" fill="#060707"/>
<path d="M336.518 344.7C335.234 344.7 334.25 345.133 334.166 346.567C334.083 347.951 334.833 348.735 336.217 348.685C337.668 348.635 338.602 347.734 338.652 346.334C338.702 345.083 337.668 344.683 336.518 344.7Z" fill="#060707"/>
<path d="M500.676 349.619C500.86 351.103 501.693 351.586 502.877 351.436C504.128 351.286 505.112 350.586 505.195 349.268C505.278 347.668 504.044 347.518 502.811 347.501C501.243 347.501 501.043 348.718 500.676 349.619Z" fill="#060707"/>
</svg>
