<svg width="1132" height="477" viewBox="0 0 1132 477" fill="none" xmlns="http://www.w3.org/2000/svg">
<path d="M443.152 301.204C450.207 301.334 455.336 302.167 460.105 303.417C470.119 306.046 478.998 309.351 489.73 311.52C502.934 314.178 515.72 317.137 529.182 319.609C534.728 320.629 540.159 321.778 545.187 323.2C550.532 324.723 552.27 326.778 551.523 329.12C550.704 331.72 545.589 333.013 539.685 333.717C533.162 334.493 526.654 333.933 520.375 333.2C505.994 331.519 492.417 329.019 478.596 326.763C466.987 324.867 455.609 322.784 444.129 320.787C434.92 319.178 426.357 317.109 417.55 315.212C414.059 314.465 411.904 312.238 412.78 310.557C415.295 305.744 423.929 303.288 435.15 301.923C438.11 301.578 441.084 301.046 443.152 301.204Z" fill="#E33F13"/>
<path d="M563.39 297.369C571.766 297.642 579.568 298.404 587.297 299.309C598.546 300.616 609.207 302.498 619.968 304.308C631.979 306.334 644.061 308.259 655.339 310.903C665.066 313.173 666.905 317.325 662.351 319.624C658.586 321.52 653.96 322.957 648.242 323.948C638.904 325.572 631.002 324.422 623.128 322.397C604.063 317.512 583.519 314.006 560.761 312.814C549.066 312.196 537.285 311.779 525.648 310.989C524.039 310.874 522.444 310.73 520.878 310.544C514.83 309.797 511.195 306.564 518.22 304.538C520.735 303.82 523.421 303.145 526.251 302.627C536.926 300.659 547.328 298.389 559.209 297.613C560.689 297.498 562.183 297.441 563.39 297.369Z" fill="#E33F13"/>
<path d="M753.625 313.676C744.688 313.618 736.442 312.368 728.066 311.362C711.96 309.437 696.185 307.081 679.735 305.558C671.158 304.768 662.681 303.619 655.354 301.679C647.84 299.696 644.191 297.728 651.331 293.978C657.035 290.976 663.917 288.375 670.482 285.66C675.942 283.419 683.025 283.117 689.332 284.855C698.398 287.369 708.325 289.266 717.966 291.378C734.545 294.998 751.786 298.116 768.25 301.837C778.982 304.265 778.149 309.279 769.586 311.793C764.989 313.158 760.363 313.661 753.625 313.676Z" fill="#E33F13"/>
<path d="M598.863 296.852C595.041 296.895 590.731 296.593 587.197 295.616C578.289 293.145 581.076 289.525 586.22 287.14C591.277 284.798 598.504 283.749 605.184 282.413C617.87 279.899 628.617 276.537 637.165 272.098C638.746 271.279 640.7 270.575 642.97 270.014C647.768 268.822 653.127 268.75 657.15 269.871C662.308 271.322 664.405 273.405 662.753 275.646C659.851 279.583 654.305 282.959 647.826 286.134C640.829 289.554 632.625 292.441 622.41 294.309C615.155 295.645 607.742 296.909 598.863 296.852Z" fill="#E33F13"/>
<path d="M578.806 320.127C583.03 319.941 586.88 320.76 590.458 321.65C599.365 323.877 608.115 326.19 616.85 328.503C621.519 329.739 626.203 330.96 631.232 331.98C634.924 332.727 638.329 333.632 639.837 335.299C643.156 338.948 634.478 341.319 627.324 341.951C615.528 343 605.96 341.348 597.081 338.517C588.648 335.831 581.119 332.828 575.056 329.294C572.815 327.986 570.559 326.679 569.252 325.185C566.623 322.225 570.43 320.142 578.806 320.127Z" fill="#E33F13"/>
<path d="M413.772 331.059C408.901 331.088 404.318 330.672 399.951 329.81C385.871 327.022 372.064 324.106 361.548 319.336C359.306 318.316 356.993 317.325 356.49 315.96C355.212 312.497 363.085 311.377 370.11 311.65C379.09 311.994 385.842 314.049 392.968 315.902C402.35 318.33 411.186 321.103 421.616 322.885C425.222 323.502 428.182 325.744 427.535 327.166C426.602 329.206 422.033 330.93 417.177 331.074C416.056 331.088 414.907 331.059 413.772 331.059Z" fill="#E33F13"/>
</svg>
