<svg width="1131" height="477" viewBox="0 0 1131 477" fill="none" xmlns="http://www.w3.org/2000/svg">
<path d="M539.919 250.212C545.484 252.064 548.17 256.505 550.119 261.593C552.999 269.124 555.935 276.614 560.368 283.441C563.991 289.03 569.023 293.252 573.73 297.79C581.285 305.086 588.953 312.269 594.793 321.523C595.748 319.371 596.573 317.438 597.447 315.529C607.76 292.953 622.562 273.799 641.539 257.856C645.624 254.426 650.121 251.716 655.484 250.73C656.285 251.328 657.223 251.134 658.096 251.085C662.667 250.819 665.74 252.776 667.657 256.966C671.216 264.756 673.069 272.893 673.174 281.435C673.328 294.045 671.961 306.51 669.348 318.837C665.983 334.748 659.52 349.049 647.338 360.252C638.748 368.147 628.758 372.951 616.941 373.696C612.079 374.003 607.299 373.348 602.478 373.121H602.502C602.405 372.668 602.033 372.62 601.669 372.547C599.76 370.775 598.377 368.591 596.913 366.408C595.708 367.03 595.699 368.527 594.745 369.295C594.195 369.465 593.807 369.748 593.92 370.411L593.936 370.395C593.54 370.379 593.378 370.589 593.394 370.962L593.41 370.953C593.006 371.107 592.545 371.172 592.213 371.423C583.138 378.177 572.946 380.207 561.888 378.662C553.969 377.554 546.552 374.901 539.531 371.196C533.23 367.872 527.301 363.957 522.625 358.472C513.76 348.094 508.316 336.333 507.281 322.477C506.488 311.946 507.839 301.932 511.754 292.177C516.599 280.116 523.094 268.954 530.221 258.139C532.591 254.539 535.3 251.158 539.919 250.212ZM527.074 319.452C526.856 324.046 527.689 328.269 529.072 332.37C533.27 344.827 541.893 352.406 554.843 354.396C566.863 356.248 579.57 346.986 575.615 329.66C571.967 313.685 560.546 304.091 544.861 300.031C536.506 297.863 530.439 302.013 528.231 310.368C527.43 313.418 526.799 316.5 527.074 319.452Z" fill="#909422"/>
<path d="M602.47 373.121C607.291 373.348 612.079 374.003 616.933 373.696C628.742 372.951 638.74 368.147 647.33 360.252C659.512 349.049 665.975 334.748 669.34 318.837C671.953 306.51 673.32 294.045 673.166 281.435C673.061 272.901 671.208 264.756 667.649 256.966C665.732 252.776 662.659 250.819 658.088 251.086C657.215 251.134 656.276 251.328 655.476 250.73C663.395 249.533 669.477 252.679 674.217 258.81C679.766 265.993 683.05 274.357 686.367 282.68C692.603 298.324 696.235 314.486 695.273 331.432C693.784 357.704 677.396 379.002 654.376 386.338C644.709 389.42 635.205 389.032 625.806 386.905C617.11 384.939 609.248 380.636 602.939 374.019C602.72 373.785 602.632 373.421 602.47 373.121Z" fill="#5E6221"/>
<path d="M539.919 250.212C535.3 251.158 532.591 254.547 530.213 258.147C523.078 268.953 516.591 280.124 511.746 292.184C507.831 301.931 506.48 311.945 507.273 322.485C508.316 336.341 513.752 348.102 522.617 358.48C527.293 363.956 533.222 367.879 539.523 371.204C546.552 374.909 553.961 377.562 561.88 378.67C572.938 380.215 583.13 378.185 592.205 371.43C592.537 371.18 593.006 371.115 593.402 370.961C590.256 376.486 585.524 380.449 580.274 383.758C566.03 392.736 550.621 393.529 534.718 389.63C502.104 381.622 486.63 353.999 486.193 326.942C485.943 311.517 491.103 297.547 499.241 284.613C505.712 274.332 513.186 264.796 521.258 255.744C524.834 251.732 528.975 248.416 534.961 249.023C536.7 249.176 538.293 249.726 539.919 250.212Z" fill="#5E6221"/>
<path d="M593.92 370.403C593.807 369.74 594.195 369.457 594.745 369.287C594.519 369.692 594.47 370.234 593.92 370.403Z" fill="#6C5F1B"/>
<path d="M593.386 370.953C593.37 370.573 593.54 370.37 593.928 370.387C593.887 370.702 593.798 370.985 593.386 370.953Z" fill="#6C5F1B"/>
<path d="M601.669 372.538C602.025 372.611 602.405 372.668 602.502 373.112C602.033 373.193 601.847 372.87 601.669 372.538Z" fill="#6C5F1B"/>
<path d="M527.074 319.452C526.799 316.499 527.43 313.417 528.231 310.376C530.447 302.012 536.506 297.871 544.862 300.038C560.546 304.099 571.967 313.692 575.615 329.668C579.571 346.994 566.863 356.256 554.843 354.403C541.901 352.405 533.27 344.834 529.072 332.377C527.689 328.268 526.856 324.046 527.074 319.452Z" fill="#8A4C14"/>
<path d="M614.514 340.482C615.371 324.119 624.989 312.714 639.743 306.032C645.599 303.379 650.8 304.39 654.561 308.329C654.084 306.105 653.186 303.913 652.191 301.745C648.584 293.883 641.894 290.841 634.032 294.401C619.278 301.082 609.66 312.487 608.803 328.859C608.399 336.616 610.866 342.311 614.732 345.942C614.498 344.244 614.409 342.432 614.514 340.482Z" fill="#BCBC2C"/>
<path d="M633.507 349.663C645.923 345.481 653.122 336.543 655.128 323.552C655.791 319.273 655.888 314.97 654.885 310.481C654.829 309.761 654.716 309.041 654.562 308.321C650.801 304.39 645.6 303.371 639.743 306.024C624.989 312.705 615.372 324.111 614.514 340.474C614.409 342.424 614.498 344.235 614.741 345.926C619.715 350.601 627.02 351.847 633.507 349.663Z" fill="#66631E"/>
</svg>
