<svg width="1131" height="477" viewBox="0 0 1131 477" fill="none" xmlns="http://www.w3.org/2000/svg">
<path d="M286.555 285.249C286.083 265.657 291.499 248.578 302.973 233.541C312.698 220.8 325.448 211.991 340.24 206.112C352.706 201.16 365.702 199.288 379.057 200.205C396.873 201.434 412.893 207.625 427.231 218.239C439.357 227.218 447.93 238.928 453.355 252.907C456.946 262.169 458.638 271.961 458.374 281.828C457.655 308.982 447.523 331.855 426.409 349.51C412.213 361.372 395.824 367.231 377.516 368.611C358.963 370.001 341.828 365.653 326.299 355.786C305.156 342.346 292.217 322.97 287.349 298.359C286.461 293.85 286.196 289.2 286.555 285.249Z" fill="#FADA90"/>
<path d="M287.557 302.357C311.743 376.939 424.026 383.886 454.035 309.55C440.283 393.224 299.125 393.668 287.557 302.357Z" fill="#F5CA65"/>
<path d="M396.04 234.778C388.328 234.466 389.916 225.138 397.279 225.336C404.632 226.149 403.724 234.958 396.04 234.778Z" fill="#F5CA65"/>
<path d="M334.417 241.961C325.873 240.78 333.746 229.315 339.379 232.878C345.948 236.092 339.615 242.556 334.417 241.961Z" fill="#F5CA65"/>
<path d="M366.231 262.49C374.416 262.868 372.091 271.478 365.333 271.715C357.12 271.554 359.18 262.395 366.231 262.49Z" fill="#F5CA65"/>
<path d="M420.501 273.879C413.242 274.314 415.255 264.399 421.739 265.014C429.055 265.118 427.675 274.512 420.501 273.879Z" fill="#F5CA65"/>
<path d="M401.665 302.839C408.678 302.574 407.591 312.111 400.672 311.704C393.48 311.837 394.822 302.404 401.665 302.839Z" fill="#F5CA65"/>
<path d="M354.956 316.061C361.883 315.862 361.685 324.964 355.343 325.522C349.237 325.541 347.583 315.607 354.956 316.061Z" fill="#F5CA65"/>
<path d="M328.955 283.311C336.365 282.924 332.906 293.264 326.838 292.583C319.995 292.196 322.575 282.981 328.955 283.311Z" fill="#F5CA65"/>
</svg>
