<svg width="1131" height="477" viewBox="0 0 1131 477" fill="none" xmlns="http://www.w3.org/2000/svg">
<path d="M694.67 325.868C692.301 322.741 693.183 321.548 695.583 319.458C699.81 315.773 701.73 311.034 701.591 305.274C701.467 300.072 698.788 296.123 696.063 292.221C694.019 289.295 693.353 287.127 695.444 283.55C699.779 276.164 699.656 268.484 694.159 261.376C692.099 258.713 688.971 257.474 686.339 255.585C684.605 254.346 683.536 253.309 684.713 250.986C690.984 238.692 685.255 228.906 673.735 224.957C670.746 223.935 669.941 222.48 671.304 219.615C673.967 214.01 671.815 209.396 668.269 204.967C664.429 200.167 658.932 198.634 653.466 197.287C650.168 196.466 648.774 194.809 647.984 191.62C645.631 182.174 637.316 176.956 628.025 179.65C623.148 181.059 620.887 179.588 618.719 175.578C615.467 169.555 608.577 166.287 601.981 167.418C595.307 168.564 589.113 169.663 582.827 164.801C578.506 161.472 572.235 160.852 567.203 164.274C561.629 168.053 557.417 170.344 551.006 164.507C545.324 159.335 535.321 163.206 529.886 171.072C527.95 173.875 526.479 175.64 522.5 173.395C517.189 170.406 511.955 171.614 507.526 176.073C505.08 178.551 502.726 181.059 501.55 184.357C500.435 187.439 498.422 188.275 495.232 188.275C485.539 188.275 479.33 193.292 477.688 202.815C477.022 206.639 475.505 208.25 471.804 209.318C462.684 211.95 455.174 221.675 461.12 231.213C462.901 234.078 461.414 235.161 458.271 235.905C447.695 238.413 438.714 250.104 446.58 261.593C448.748 264.767 446.41 265.542 444.614 266.486C436.314 270.93 435.37 279.462 439.458 287.421C440.975 290.363 440.929 291.958 438.931 294.59C430.988 305.073 431.235 310.709 439.705 321.362C441.114 323.128 440.588 324.103 439.597 325.791C436.577 331.009 434.27 336.32 436.748 342.7C438.885 348.212 442.539 351.99 447.633 354.452C449.259 355.242 450.281 355.985 450.653 357.085H689.637C699.594 350.612 702.334 335.98 694.67 325.868Z" fill="#FADA90"/>
<path d="M589.207 330.56C577.021 329.646 577.485 313.512 590.879 314.147C604.567 314.89 602.136 330.467 589.207 330.56Z" fill="#F5CA65"/>
<path d="M498.345 266.207C499.057 276.922 480.46 281.676 479.841 269.319C478.726 259.348 498.608 254.408 498.345 266.207Z" fill="#F5CA65"/>
<path d="M557.897 260.385C569.03 259.781 573.304 275.56 560.994 275.807C549.984 276.783 544.766 260.339 557.897 260.385Z" fill="#F5CA65"/>
<path d="M505.668 322.694C505.839 313.233 521.462 316.903 523.429 323.979C527.888 338.55 504.244 331.892 505.668 322.694Z" fill="#F5CA65"/>
<path d="M572.034 219.058C559.306 219.445 561.614 205.54 570.842 203.837C581.232 204.224 585.769 219.522 572.034 219.058Z" fill="#F5CA65"/>
<path d="M635.813 245.923C623.968 246.666 627.127 231.259 636.03 230.438C644.995 231.244 647.272 247.502 635.813 245.923Z" fill="#F5CA65"/>
<path d="M515.995 222.124C503.809 223.456 506.333 207.847 515.593 207.909C522.778 209.721 524.202 220.994 515.995 222.124Z" fill="#F5CA65"/>
<path d="M645.104 286.229C655.061 285.207 652.413 298.694 643.231 298.028C633.584 298.137 634.203 285.827 645.104 286.229Z" fill="#F5CA65"/>
</svg>
