<svg width="1131" height="477" viewBox="0 0 1131 477" fill="none" xmlns="http://www.w3.org/2000/svg">
<path d="M499.643 258.263C499.676 262.741 499.676 262.741 503.357 265.499C509.231 269.902 510.286 277.039 505.816 282.93C505.118 283.844 505.284 284.242 505.974 284.949C511.865 290.939 507.353 301.739 499.76 302.861C498.472 303.052 498.106 303.65 497.741 304.888C495.689 311.983 488.751 315.498 481.606 313.238C480.933 313.03 480.269 312.266 479.62 313.587C476.862 319.212 471.877 319.918 466.46 318.996C465.139 318.771 464.774 319.07 464.176 320.017C460.138 326.34 453.674 328.043 446.944 324.462C445.441 323.665 444.776 323.432 443.895 325.227C442.89 327.279 440.83 328.417 438.669 329.057C433.111 330.718 427.927 329.921 423.382 326.215C422.535 325.526 422.228 325.484 421.471 326.24C416.071 331.582 407.24 329.771 402.786 325.144C401.681 323.997 401.042 323.698 399.455 324.645C393.73 328.051 386.444 326.34 381.925 320.749C381.185 319.835 380.836 319.27 379.432 320.084C373.567 323.49 366.23 321.712 362.4 316.03C361.536 314.75 360.955 314.252 359.193 314.601C353.386 315.755 348.035 312.357 346.075 306.591C345.659 305.378 345.219 304.789 343.715 304.681C339.677 304.398 336.47 302.512 334.859 298.624C333.222 294.677 333.853 291.022 336.811 287.898C337.559 287.1 337.559 286.403 337.351 285.439C336.08 279.432 337.875 274.646 343.208 271.39C343.948 270.933 344.38 270.7 344.089 269.537C342.186 262.051 346.623 254.217 354.076 251.932C355.505 251.492 355.912 250.952 356.319 249.489C358.363 242.161 363.115 237.401 370.642 235.723C371.88 235.448 372.653 234.859 373.625 234.111C377.305 231.286 379.565 227.522 382.041 223.684C385.971 217.602 392.052 215.185 399.338 216.788C400.984 217.146 401.698 217.087 402.421 215.226C405.354 207.707 414.667 204.01 421.696 207.334C422.277 207.608 422.992 207.857 423.316 208.347C425.31 211.338 427.337 211.105 430.561 209.701C437.058 206.877 444.136 209.859 448.116 216.207C449.246 218.001 453.167 219.671 455.186 219.206C463.793 217.245 471.271 221.374 474.029 229.791C474.478 231.153 474.951 231.585 476.38 231.826C483.077 232.956 486.915 237.285 486.957 243.848C486.965 245.493 487.704 245.493 488.826 245.759C495.381 247.304 499.602 252.206 499.643 258.263Z" fill="#CF4517"/>
<path d="M364.694 282.465C355.43 281.643 356.485 270.36 365.192 270.817C371.722 271.349 371.274 282.49 364.694 282.465Z" fill="#BD4018"/>
<path d="M409.45 231.943C407.464 225.778 419.96 225.43 420.799 230.456C423.133 239.346 408.121 240.625 409.45 231.943Z" fill="#BD4018"/>
<path d="M392.027 248.908C392.069 241.531 404.032 242.013 403.85 250.005C404.182 256.07 391.495 256.519 392.027 248.908Z" fill="#BD4018"/>
<path d="M460.628 296.315C469.11 296.83 467.507 308.005 459.49 307.897C453.325 307.34 453.483 296.082 460.628 296.315Z" fill="#BD4018"/>
<path d="M407.713 279.125C398.99 279.466 399.422 268.274 407.032 268.308C413.687 268.407 414.916 279.233 407.713 279.125Z" fill="#BD4018"/>
<path d="M429.904 293.531C430.187 302.221 417.75 300.086 418.281 293.855C418.514 287.782 429.464 286.619 429.904 293.531Z" fill="#BD4018"/>
<path d="M436.069 237.576C427.852 237.218 430.054 226.709 436.659 226.7C443.114 227.082 444.402 237.958 436.069 237.576Z" fill="#BD4018"/>
<path d="M455.402 240.907C457.222 235.631 466.137 234.909 467.192 241.331C467.607 249.506 456.441 247.446 455.402 240.907Z" fill="#BD4018"/>
<path d="M470.473 278.8C464.059 278.933 464.832 268.656 471.013 269.163C477.601 269.254 477.144 278.966 470.473 278.8Z" fill="#BD4018"/>
<path d="M447.351 285.24C439.359 286.12 441.477 275.852 447.26 275.835C452.228 276.367 454.405 285.431 447.351 285.24Z" fill="#BD4018"/>
<path d="M378.692 262.849C372.603 262.467 374.214 253.502 379.44 253.104C384.982 254.391 386.594 262.99 378.692 262.849Z" fill="#BD4018"/>
<path d="M426.805 264.07C419.776 263.663 420.79 254.524 426.921 254.267C432.521 255.28 432.471 263.946 426.805 264.07Z" fill="#BD4018"/>
<path d="M496.121 285.14C497.076 291.72 487.223 291.737 487.007 286.228C486.284 280.197 496.37 279.623 496.121 285.14Z" fill="#BD4018"/>
<path d="M386.136 291.853C379.565 290.997 380.919 283.919 385.945 282.697C391.985 283.304 391.146 291.03 386.136 291.853Z" fill="#BD4018"/>
<path d="M452.187 256.56C459.365 257.498 456.682 263.929 451.514 264.536C447.169 263.738 447.642 256.036 452.187 256.56Z" fill="#BD4018"/>
<path d="M477.569 259.501C477.918 253.627 484.697 254.3 485.686 258.986C485.569 262.641 476.804 265.25 477.569 259.501Z" fill="#BD4018"/>
<path d="M407.414 309.592C402.263 308.719 402.03 302.181 408.411 302.563C413.204 303.552 412.399 309.243 407.414 309.592Z" fill="#BD4018"/>
<path d="M455.41 240.907C455.236 240.807 455.228 240.807 455.41 240.907Z" fill="#BD4018"/>
</svg>
