<svg width="1131" height="477" viewBox="0 0 1131 477" fill="none" xmlns="http://www.w3.org/2000/svg">
<path d="M452.962 273.688C455.383 277.131 458.858 279.56 461.625 282.673C464.179 285.534 466.593 288.482 468.338 291.917C468.77 292.766 469.218 293.622 469.132 294.629C463.676 296.688 458.158 298.598 452.774 300.846C443.443 304.737 434.207 308.864 424.916 312.834C421.418 314.327 421.229 314.775 423.304 317.983C423.587 318.423 423.862 318.871 424.2 319.264C428.909 324.892 432.407 331.243 435.26 337.972C436.486 340.857 436.832 340.936 439.529 339.364C440.205 338.97 440.833 338.483 441.533 338.137C454.259 331.731 467.827 327.423 481.111 322.416C482.267 321.976 483.108 322.164 483.941 322.935C489.137 330.049 491.81 337.815 490.127 346.729C488.728 354.126 484.594 359.793 478.399 363.653C467.992 370.138 456.688 374.98 444.669 377.236C434.411 379.17 425.875 375.019 419.751 366.381C415.923 360.98 413.612 354.873 411.497 348.686C406.702 334.647 401.247 320.93 393.096 308.408C388.411 301.2 382.751 294.809 377.154 288.348C371.078 281.328 368.948 273.224 370.441 264.019C371.227 259.153 374.379 256.017 377.988 253.635C388.513 246.694 399.864 241.365 412.181 238.394C422.644 235.87 431.448 240.657 434.411 250.2C433.798 251.191 432.721 251.348 431.746 251.694C427.486 253.203 423.147 254.524 418.965 256.237C409.619 260.065 400.359 264.098 391.06 268.036C388.607 269.074 388.411 269.71 390.525 271.369C394.731 274.67 397.592 278.994 400.343 283.451C401.892 285.966 403.204 288.631 405.06 290.973C406.231 292.451 407.143 292.923 408.966 291.893C413.746 289.205 418.438 286.383 423.493 284.174C431.967 280.472 440.55 277.068 449.189 273.806C450.415 273.342 451.673 273.012 452.962 273.688Z" fill="#E1760E"/>
<mask id="mask0_273_2594" style="mask-type:luminance" maskUnits="userSpaceOnUse" x="369" y="237" width="122" height="141">
<path d="M452.962 273.688C455.383 277.131 458.858 279.56 461.625 282.673C464.179 285.534 466.593 288.482 468.338 291.917C468.77 292.766 469.218 293.622 469.132 294.629C463.676 296.688 458.158 298.598 452.774 300.846C443.443 304.737 434.207 308.864 424.916 312.834C421.418 314.327 421.229 314.775 423.304 317.983C423.587 318.423 423.862 318.871 424.2 319.264C428.909 324.892 432.407 331.243 435.26 337.972C436.486 340.857 436.832 340.936 439.529 339.364C440.205 338.97 440.833 338.483 441.533 338.137C454.259 331.731 467.827 327.423 481.111 322.416C482.267 321.976 483.108 322.164 483.941 322.935C489.137 330.049 491.81 337.815 490.127 346.729C488.728 354.126 484.594 359.793 478.399 363.653C467.992 370.138 456.688 374.98 444.669 377.236C434.411 379.17 425.875 375.019 419.751 366.381C415.923 360.98 413.612 354.873 411.497 348.686C406.702 334.647 401.247 320.93 393.096 308.408C388.411 301.2 382.751 294.809 377.154 288.348C371.078 281.328 368.948 273.224 370.441 264.019C371.227 259.153 374.379 256.017 377.988 253.635C388.513 246.694 399.864 241.365 412.181 238.394C422.644 235.87 431.448 240.657 434.411 250.2C433.798 251.191 432.721 251.348 431.746 251.694C427.486 253.203 423.147 254.524 418.965 256.237C409.619 260.065 400.359 264.098 391.06 268.036C388.607 269.074 388.411 269.71 390.525 271.369C394.731 274.67 397.592 278.994 400.343 283.451C401.892 285.966 403.204 288.631 405.06 290.973C406.231 292.451 407.143 292.923 408.966 291.893C413.746 289.205 418.438 286.383 423.493 284.174C431.967 280.472 440.55 277.068 449.189 273.806C450.415 273.342 451.673 273.012 452.962 273.688Z" fill="white"/>
</mask>
<g mask="url(#mask0_273_2594)">
<path d="M489.797 346.548C488.477 354.197 483.973 359.739 478.006 364.313C477.723 364.416 477.401 364.494 477.44 364.903L477.472 364.785C477 364.793 476.599 364.934 476.371 365.39L476.434 365.343C475.184 366.051 473.942 366.766 472.693 367.473L472.756 367.434C472.465 367.528 472.048 367.497 472.15 368.008L472.158 367.874C470.444 368.283 468.817 368.873 467.473 370.075L467.457 369.997C466.121 370.02 465.076 370.83 463.904 371.309C458.465 373.298 453.025 375.287 447.586 377.276C441.337 378.769 435.237 378.353 429.302 375.869C429.302 375.869 429.357 375.908 429.357 375.916C428.649 375.515 427.95 375.122 427.242 374.721C427.062 374.603 426.881 374.493 426.708 374.375C426.346 374.171 425.993 373.959 425.631 373.754L425.725 373.786C425.356 373.22 424.845 372.827 424.208 372.606L424.177 372.732C424.035 372.119 423.548 371.86 423.037 371.647C423.037 371.647 423.1 371.742 423.1 371.734C422.895 371.537 422.699 371.341 422.495 371.137L422.565 371.215C422.369 371.019 422.164 370.822 421.968 370.618L422.046 370.688C421.85 370.484 421.653 370.28 421.457 370.083L421.567 370.099C421.221 369.722 420.875 369.344 420.529 368.967L420.6 368.991C420.584 368.826 420.514 368.7 420.372 368.613C419.17 366.845 417.967 365.076 416.764 363.307C416.583 362.961 416.403 362.623 416.222 362.278L416.245 362.309C415.192 360.022 414.139 357.734 413.093 355.447L413.14 355.494C412.92 354.543 412.692 353.592 412.048 352.813L412.103 352.876C411.71 351.642 411.372 350.384 410.924 349.174C407.984 341.227 405.563 333.075 401.57 325.553L401.625 325.616C401.546 325.183 401.499 324.735 401.051 324.491L401.114 324.562C401.035 324.13 401.004 323.674 400.532 323.438L400.595 323.501C400.265 322.322 399.754 321.245 398.96 320.302L399.015 320.365C398.826 319.555 398.472 318.832 397.883 318.234L397.914 318.266C397.38 316.93 396.72 315.664 395.792 314.556L395.831 314.611C395.462 313.62 394.967 312.693 394.22 311.93L394.267 311.993C394.055 311.348 393.795 310.727 393.19 310.334L393.237 310.421C393.033 310.059 392.821 309.706 392.616 309.344L392.64 309.375C392.443 309.03 392.239 308.692 392.042 308.346C388.709 302.914 384.756 297.97 380.472 293.269C378.538 291.154 376.706 288.954 374.828 286.784C374.67 286.587 374.505 286.391 374.348 286.194L374.38 286.281C374.002 285.283 373.491 284.371 372.729 283.608L372.784 283.671C369.364 277.021 368.602 270.049 370.268 262.785C371.172 261.135 371.542 259.17 373.169 257.959C372.894 260.38 375.04 260.624 376.415 261.41C380.621 263.823 384.936 266.048 388.403 269.538C388.875 271.872 391.209 272.478 392.561 273.987C396.114 277.949 398.976 282.366 401.617 286.973C402.961 289.323 404.046 291.988 406.805 293.19C406.773 293.866 407.143 294.338 407.599 294.763C412.071 298.968 415.247 304.085 418.132 309.446C419.028 311.121 419.342 313.337 421.473 314.194C421.3 316.356 422.471 317.967 423.571 319.665C425.026 321.921 426.975 323.76 428.398 326.079C431.432 331.024 433.57 336.432 436.612 341.353C436.707 341.691 436.699 342.099 436.903 342.343C440.228 346.509 442.563 351.06 442.728 356.547C442.759 357.577 443.317 358.261 444.685 357.86C447.106 357.152 449.653 356.854 452.027 356.036C462.199 352.507 472.575 349.402 482.102 344.324C485.01 342.775 489.019 341.588 489.53 337.202C489.648 337.469 489.766 337.729 489.884 337.996C490.23 340.818 490.23 343.687 489.797 346.548Z" fill="#CF6316"/>
</g>
<path d="M483.933 322.935C483.1 322.165 482.267 321.976 481.103 322.416C467.819 327.424 454.252 331.723 441.525 338.138C440.826 338.491 440.197 338.971 439.521 339.364C436.832 340.936 436.479 340.857 435.252 337.972C432.399 331.244 428.901 324.892 424.192 319.264C423.862 318.863 423.579 318.415 423.296 317.983C421.221 314.768 421.41 314.328 424.908 312.834C434.207 308.865 443.435 304.738 452.766 300.847C458.143 298.606 463.669 296.696 469.124 294.629C471.616 300.029 475.868 304.266 478.792 309.391C481.229 313.644 483.077 318.093 483.933 322.935Z" fill="#CF4517"/>
<path d="M452.962 273.688C451.681 273.012 450.415 273.342 449.173 273.814C440.526 277.076 431.943 280.487 423.477 284.182C418.422 286.391 413.729 289.213 408.95 291.901C407.126 292.931 406.215 292.459 405.043 290.981C403.188 288.631 401.883 285.974 400.327 283.459C397.584 279.002 394.715 274.67 390.509 271.377C388.395 269.718 388.591 269.081 391.044 268.044C400.343 264.106 409.603 260.081 418.949 256.245C423.131 254.531 427.47 253.203 431.73 251.702C432.705 251.356 433.782 251.198 434.395 250.208C435.629 252.346 437.469 253.91 439.316 255.498C445.203 260.537 450.635 265.953 452.962 273.688Z" fill="#CF4517"/>
</svg>
