<svg width="1131" height="477" viewBox="0 0 1131 477" fill="none" xmlns="http://www.w3.org/2000/svg">
<path d="M753.45 226.069C770.395 225.575 780.962 238.364 782.81 254.1C784.786 270.892 780.145 286.372 772.584 301.077C761.676 322.305 745.582 338.262 723.435 347.612C709.743 353.394 696.195 352.695 683.108 345.526C681.703 344.751 680.902 344.751 679.77 345.969C677.309 348.6 674.201 349.656 670.548 349.341C665.124 348.872 662.169 345.245 663.097 339.923C663.234 339.14 663.787 338.467 662.612 337.837C659.461 336.151 658.303 333.358 659.095 329.952C659.887 326.546 662.408 324.553 665.72 324.213C668.564 323.923 669.509 322.91 669.688 320.049C670.454 307.319 677.471 298.327 687.518 291.294C690.303 289.344 693.019 287.223 696.016 285.674C708.329 279.33 715.405 268.984 719.271 256.05C720.863 250.702 722.796 245.491 725.828 240.765C732.044 231.067 740.72 225.762 753.45 226.069Z" fill="#BD4018"/>
<path d="M678.042 346.897C677.854 347.059 677.667 347.229 677.48 347.391C677.173 347.663 676.867 347.936 676.569 348.208C672.115 350.771 667.704 350.967 663.353 347.953C662.894 347.476 662.425 347.008 661.965 346.531C661.778 346.156 661.582 345.782 661.395 345.407C661.165 343.644 660.782 341.814 661.471 340.128C662.042 338.748 661.063 338.774 660.365 338.433C660.135 338.297 659.905 338.161 659.675 338.016C659.3 337.633 658.926 337.25 658.559 336.866C658.398 336.654 658.236 336.441 658.065 336.228C656.814 333.665 656.873 331.085 658.006 328.496C658.67 327.832 659.334 327.168 659.99 326.504C660.671 326.061 661.344 325.61 662.025 325.167C663.839 324.792 665.644 324.307 667.526 324.4C673.605 325.363 679.012 327.261 681.848 333.494C682.785 335.564 684.735 337.037 683.466 339.838C682.546 341.873 681.72 343.849 680.085 345.39C679.012 345.39 678.621 346.276 678.042 346.897Z" fill="#CF4517"/>
<path d="M774.695 253.155C774.84 257.455 767.296 259.311 767.526 254.142C767.143 250.038 774.721 248.105 774.695 253.155Z" fill="#8E2C14"/>
<path d="M731.397 281.16C723.555 280.352 734.582 269.154 735.569 277.507C735.391 279.951 734.164 281.194 731.397 281.16Z" fill="#8E2C14"/>
</svg>
