<svg width="1131" height="477" viewBox="0 0 1131 477" fill="none" xmlns="http://www.w3.org/2000/svg">
<path d="M426.286 242.052C498.628 320.467 638.017 310.87 699.876 234.029C646.22 135.34 474.199 147.262 426.286 242.052Z" fill="#8E2C14"/>
<path d="M587.734 226.366C577.597 225.182 565.855 219.303 555.778 210.26C551.864 206.751 549.644 201.848 551.879 196.239C554.128 190.601 558.927 188.651 564.46 187.811C578.872 185.652 590.884 191.275 601.696 199.883C607.049 204.142 610.978 209.736 608.549 217.234C606.525 223.412 600.556 226.381 587.734 226.366Z" fill="#CF4517"/>
<path d="M632.723 206.856C647.419 209.286 659.716 216.394 668.444 228.781C672.088 233.939 672.433 240.298 668.084 245.561C664.08 250.39 658.606 252.01 652.353 250.555C638.331 247.286 628.179 238.348 619.526 227.581C616.467 223.772 616.452 218.763 618.971 214.355C621.866 209.241 626.874 207.561 632.723 206.856Z" fill="#CF4517"/>
<path d="M501.192 234.464C495.343 233.894 489.72 233.609 487.08 227.401C484.411 221.162 486.54 216.019 490.904 211.52C500.622 201.503 512.949 196.764 526.43 195.084C533.673 194.169 540.602 198.953 542.686 205.042C544.681 210.875 542.101 217.458 535.623 221.642C525.036 228.466 513.653 233.354 501.192 234.464Z" fill="#CF4517"/>
<path d="M557.937 224.821C561.476 224.686 564.925 224.986 568.224 226.336C577.222 229.995 579.561 240.222 573.068 247.496C572.738 247.87 572.378 248.215 571.973 248.5C558.267 258.293 543.091 261.832 526.85 257.333C517.117 254.634 515.738 246.521 522.486 238.858C531.964 228.121 544.545 225.511 557.937 224.821Z" fill="#CF4517"/>
<path d="M494.848 276.724C485.325 276.259 476.598 271.985 468.14 267.516C463.731 265.191 461.407 260.528 462.096 255.219C462.786 249.955 466.1 246.641 471.004 244.812C483.721 240.043 502.406 244.872 511.329 255.234C514.253 258.638 515.573 262.657 513.953 266.811C511.779 272.405 506.755 274.864 501.236 276.214C499.317 276.679 497.262 276.559 494.848 276.724Z" fill="#CF4517"/>
<path d="M620.606 274.474C607.229 273.934 597.182 267.47 590.208 256.388C583.76 246.161 588.499 237.343 600.796 235.978C609.388 235.019 616.317 238.888 622.69 243.926C625.539 246.191 628.059 248.92 630.533 251.604C634.447 255.848 638.346 260.482 635.587 266.646C632.812 272.869 627.129 274.743 620.606 274.474Z" fill="#CF4517"/>
<path d="M614.983 193.165C604.545 193.27 594.813 190.585 585.26 187.151C579.892 185.217 576.068 180.388 576.428 176.204C576.908 170.626 580.822 167.671 585.635 166.262C601.066 161.748 615.148 165.182 628.029 174.315C631.719 176.939 633.158 180.628 632.633 185.187C632.168 189.161 630.279 191.65 626.2 192.22C622.436 192.76 618.687 193.66 614.983 193.165Z" fill="#CF4517"/>
<path d="M471.393 216.049C471.259 230.565 463.7 241.632 451.868 244.722C445.705 246.326 440.201 245.022 435.898 240.388C431.774 235.919 431.309 230.505 433.723 225.032C437.532 216.394 442.466 208.506 450.954 203.707C460.701 198.219 471.513 204.847 471.393 216.049Z" fill="#CF4517"/>
<path d="M650.163 179.113C664.289 179.248 682.54 192.025 685.314 203.707C686.844 210.095 686.124 211.415 680.245 213.934C676.331 215.614 672.417 216.693 668.188 215.254C658.351 211.91 649.158 207.396 641.135 200.708C638.211 198.263 636.472 195.069 636.112 191.26C635.407 183.537 640.67 179.008 650.163 179.113Z" fill="#CF4517"/>
<path d="M531.259 191.335C527.345 191.83 523.266 190.78 519.202 190.075C513.413 189.07 510.564 182.982 512.858 177.283C514.898 172.245 518.707 168.721 523.461 166.501C533.568 161.792 544.215 160.713 555.088 163.067C561.146 164.372 565.375 168.211 567.909 173.879C569.394 177.193 568.554 179.638 564.775 179.833C557.922 180.193 552.508 183.612 547.185 187.331C542.461 190.645 537.137 191.5 531.259 191.335Z" fill="#CF4517"/>
<path d="M566.065 289.245C559.107 289.56 552.763 288.061 546.615 286.066C541.606 284.432 537.752 280.937 537.332 275.389C536.912 269.84 540.631 266.001 545.295 264.412C557.202 260.363 569.304 259.253 580.941 265.716C582.096 266.361 583.115 267.246 584.105 268.146C591.588 274.924 589.924 283.802 580.416 287.146C575.692 288.795 570.759 289.575 566.065 289.245Z" fill="#CF4517"/>
<path d="M495.313 175.079C496.468 175.079 497.653 174.974 498.793 175.094C507.955 176.024 511.629 183.312 506.006 190.6C498.628 200.168 488.985 206.196 476.373 206.511C471.05 206.646 468.125 203.317 465.771 199.463C463.417 195.594 464.691 191.71 467.511 188.561C474.904 180.283 484.096 175.529 495.313 175.079Z" fill="#CF4517"/>
</svg>
