<svg width="1131" height="477" viewBox="0 0 1131 477" fill="none" xmlns="http://www.w3.org/2000/svg">
<path d="M554.222 108.526C672.502 115.076 680.772 257.386 559.712 267.216C511.882 261.226 410.662 227.256 465.742 166.036C492.112 140.846 511.822 103.826 554.222 108.526Z" fill="#FADA90"/>
<path d="M517.372 171.976C525.762 130.166 590.072 127.386 603.302 167.346C619.202 228.286 509.302 233.636 517.372 171.976Z" fill="#E1760E"/>
<path d="M567.592 138.956C563.472 138.346 559.342 138.546 555.212 138.756C554.972 138.576 554.732 138.406 554.482 138.226C558.872 138.076 563.332 136.806 567.592 138.956Z" fill="#FCE6B7"/>
<path d="M549.362 165.751C554.058 159.988 554.79 152.811 550.997 149.72C547.203 146.629 540.322 148.794 535.626 154.557C530.93 160.32 530.198 167.497 533.991 170.588C537.785 173.679 544.666 171.513 549.362 165.751Z" fill="#F0900E"/>
</svg>
