<svg width="1131" height="477" viewBox="0 0 1131 477" fill="none" xmlns="http://www.w3.org/2000/svg">
<path d="M672.714 129.834C684.394 142.664 692.204 157.864 698.704 173.684C707.544 195.194 721.964 211.714 741.184 224.454C749.234 229.784 757.064 235.454 764.334 241.854C767.024 244.214 769.344 246.904 771.364 249.834C778.284 259.924 776.074 272.524 766.254 279.884C759.444 284.984 751.674 287.274 743.354 287.894C717.644 289.814 695.124 281.234 674.634 266.494C652.704 250.734 638.304 229.704 632.024 203.354C627.294 183.514 628.974 164.164 637.344 145.484C639.014 141.754 640.974 138.154 642.794 134.494C643.314 134.104 643.854 133.744 644.344 133.324C652.384 126.474 663.424 125.114 672.714 129.834Z" fill="#E1760E"/>
<path d="M672.714 129.835C663.424 125.105 652.384 126.475 644.354 133.325C643.864 133.745 643.324 134.105 642.804 134.495C644.154 129.965 645.464 125.425 646.874 120.915C649.294 113.145 657.704 108.575 665.554 110.705C669.964 111.905 672.834 115.575 672.864 120.205C672.884 123.415 672.764 126.625 672.714 129.835Z" fill="#905415"/>
<path d="M652.804 158.455C655.814 207.925 696.644 248.055 741.284 264.435C747.334 266.655 749.944 256.995 743.944 254.785C703.734 240.025 665.534 203.145 662.814 158.445C662.424 152.055 652.414 152.015 652.804 158.455Z" fill="#CF6316"/>
<g opacity="0.49">
<path d="M650.014 182.405C646.814 175.995 654.634 172.135 657.854 178.025C660.144 182.535 652.654 186.735 650.014 182.405Z" fill="#A65217"/>
<path d="M701.214 191.345C704.454 187.555 709.734 195.605 706.774 198.185C701.884 203.315 694.984 193.985 701.214 191.345Z" fill="#A65217"/>
<path d="M683.055 186.775C687.915 183.825 692.425 191.855 687.115 194.965C683.265 197.635 677.855 189.505 683.055 186.775Z" fill="#A65217"/>
<path d="M679.674 250.905C682.764 256.675 674.784 260.135 671.624 254.835C669.504 250.565 676.944 246.125 679.674 250.905Z" fill="#A65217"/>
<path d="M669.574 209.264C665.824 203.674 673.344 199.444 676.394 204.444C679.014 208.854 672.414 214.034 669.574 209.264Z" fill="#A65217"/>
<path d="M669.094 229.635C663.514 233.325 659.884 224.315 664.184 222.145C668.254 219.845 673.444 226.555 669.094 229.635Z" fill="#A65217"/>
<path d="M708.264 211.075C705.184 205.545 712.954 202.745 715.634 207.065C718.004 211.465 711.384 216.695 708.264 211.075Z" fill="#A65217"/>
<path d="M713.894 225.105C718.084 224.165 722.164 229.725 718.374 233.005C713.184 236.575 710.024 228.425 713.894 225.105Z" fill="#A65217"/>
<path d="M695.134 250.285C692.454 246.135 699.504 242.485 701.674 246.745C704.274 251.105 697.724 254.725 695.134 250.285Z" fill="#A65217"/>
<path d="M681.574 237.725C677.774 232.835 685.354 230.085 687.704 233.865C689.364 237.345 684.304 242.425 681.574 237.725Z" fill="#A65217"/>
<path d="M668.524 183.665C666.314 179.515 672.844 176.955 675.214 180.215C676.614 184.375 671.634 188.905 668.524 183.665Z" fill="#A65217"/>
<path d="M687.155 215.704C684.585 210.934 690.985 207.904 693.625 211.824C695.225 215.904 689.535 219.374 687.155 215.704Z" fill="#A65217"/>
<path d="M701.334 269.665C697.404 272.955 693.414 266.495 696.934 264.135C700.604 261.215 705.054 267.595 701.334 269.665Z" fill="#A65217"/>
<path d="M652.525 200.264C650.435 195.604 655.625 193.634 658.455 196.444C660.485 200.644 655.085 203.214 652.525 200.264Z" fill="#A65217"/>
<path d="M702.334 229.314C704.624 234.404 699.314 235.245 696.834 232.095C695.594 228.925 700.844 226.124 702.334 229.314Z" fill="#A65217"/>
<path d="M710.654 247.145C714.644 245.005 716.944 249.715 714.274 252.255C711.824 253.655 706.574 248.965 710.654 247.145Z" fill="#A65217"/>
<path d="M649.474 221.375C647.964 217.645 652.164 214.855 654.484 219.185C655.784 222.735 651.724 224.505 649.474 221.375Z" fill="#A65217"/>
<path d="M713.904 225.104C713.894 224.944 713.894 224.944 713.904 225.104Z" fill="#A65217"/>
</g>
</svg>
